0
SECTION
2
HEADER
9
$INSUNITS
70
4
9
$ACADVER
1
AC1014
9
$HANDSEED
5
FFFF
0
ENDSEC
0
SECTION
2
TABLES
0
TABLE
2
VPORT
5
8
100
AcDbSymbolTable
0
ENDTAB
0
TABLE
2
LTYPE
5
5
100
AcDbSymbolTable
70
3
0
LTYPE
5
14
100
AcDbSymbolTableRecord
100
AcDbLinetypeTableRecord
2
BYBLOCK
70
0
0
LTYPE
5
15
100
AcDbSymbolTableRecord
100
AcDbLinetypeTableRecord
2
BYLAYER
70
0
0
LTYPE
5
16
100
AcDbSymbolTableRecord
100
AcDbLinetypeTableRecord
2
DASHED
70
0
3
Dashed __ __ __ __ __ __ __ __ __ __ __ __ __ _
72
65
73
2
40
0.75
49
0.5
74
0
49
-0.25
74
0
0
ENDTAB
0
TABLE
2
LAYER
5
2
100
AcDbSymbolTable
70
3
0
LAYER
5
50
100
AcDbSymbolTableRecord
100
AcDbLayerTableRecord
2
0
70
0
6
CONTINUOUS
0
LAYER
5
51
100
AcDbSymbolTableRecord
100
AcDbLayerTableRecord
2
CUTOUTS
70
0
62
1
6
CONTINUOUS
0
LAYER
5
52
100
AcDbSymbolTableRecord
100
AcDbLayerTableRecord
2
PERIMETER
70
0
62
5
6
CONTINUOUS
0
ENDTAB
0
TABLE
2
STYLE
5
3
100
AcDbSymbolTable
70
1
0
STYLE
5
11
100
AcDbSymbolTableRecord
100
AcDbTextStyleTableRecord
2
STANDARD
70
0
0
ENDTAB
0
TABLE
2
VIEW
5
6
100
AcDbSymbolTable
0
ENDTAB
0
TABLE
2
UCS
5
7
100
AcDbSymbolTable
0
ENDTAB
0
TABLE
2
APPID
5
9
100
AcDbSymbolTable
70
1
0
APPID
5
12
100
AcDbSymbolTableRecord
100
AcDbRegAppTableRecord
2
ACAD
70
0
0
ENDTAB
0
TABLE
2
DIMSTYLE
5
A
100
AcDbSymbolTable
0
ENDTAB
0
TABLE
2
BLOCK_RECORD
5
1
100
AcDbSymbolTable
70
2
0
BLOCK_RECORD
5
1F
100
AcDbSymbolTableRecord
100
AcDbBlockTableRecord
2
*MODEL_SPACE
0
BLOCK_RECORD
5
1B
100
AcDbSymbolTableRecord
100
AcDbBlockTableRecord
2
*PAPER_SPACE
0
ENDTAB
0
ENDSEC
0
SECTION
2
BLOCKS
0
BLOCK
5
20
100
AcDbEntity
100
AcDbBlockBegin
2
*MODEL_SPACE
0
ENDBLK
5
21
100
AcDbEntity
100
AcDbBlockEnd
0
BLOCK
5
1C
100
AcDbEntity
100
AcDbBlockBegin
2
*PAPER_SPACE
0
ENDBLK
5
1D
100
AcDbEntity
100
AcDbBlockEnd
0
ENDSEC
0
SECTION
2
ENTITIES
0
CIRCLE
5
100
100
AcDbEntity
8
CUTOUTS
100
AcDbCircle
10
154.38454725551887
20
-131.15251473326794
30
-8.5265128291212022e-13
40
3.3124999999999893
210
0
220
0
230
1
0
LWPOLYLINE
5
101
100
AcDbEntity
8
CUTOUTS
100
AcDbPolyline
90
10
70
1
43
0.0
10
174.6232655580302
20
-113.16676873785873
10
174.32326555803024
20
-113.16676873785872
42
-0.41421356237308671
10
173.69826555803019
20
-112.54176873785873
10
173.69826555803024
20
-112.31580773411116
42
-0.82401213392765904
10
173.83565572581884
20
-105.85079348092954
42
-0.22754624735411488
10
174.32326555803019
20
-105.61676873785873
10
174.6232655580302
20
-105.61676873785872
42
-0.24671654500354051
10
175.13794980184508
20
-105.88719134268425
42
-0.78135022079659278
10
175.2482655580302
20
-112.27867547444639
10
175.24826555803025
20
-112.54176873785873
42
-0.41421356237308671
0
LWPOLYLINE
5
102
100
AcDbEntity
8
CUTOUTS
100
AcDbPolyline
90
40
70
1
43
0.0
10
28.466486719978555
20
-124.03747264312294
10
27.995283115601197
20
-123.70760401252964
10
27.588572640656295
20
-123.30088421363988
10
27.258670617417316
20
-122.82973280511891
10
27.015584100283895
20
-122.30842686468968
10
26.866726601501256
20
-121.75290354633898
10
26.816591389997583
20
-121.17987775251684
10
26.866726601501256
20
-120.60685195869465
10
27.01558410028391
20
-120.05132864034391
10
27.258670617417316
20
-119.53002269991472
10
27.588572640656352
20
-119.05887129139367
10
27.995283470425328
20
-118.65215113767169
10
28.466486719934345
20
-118.32227343139539
10
28.987686903195204
20
-118.07912313569999
10
29.470666448229178
20
-117.94977691631789
42
-0.27802082317594329
10
30.023265558030452
20
-117.61676873785891
10
30.323265558030464
20
-117.61676873785893
42
-0.29494326269729643
10
30.89303739334315
20
-117.98489317326701
10
31.244889475107051
20
-118.07912387259358
10
31.76620187642267
20
-118.32227432244264
10
32.237346134559573
20
-118.6521498955403
10
32.644066820742886
20
-119.05887058172361
10
32.973939458377785
20
-119.53001997125776
10
33.216999775852713
20
-120.05132971308771
10
33.365904713022594
20
-120.6068560848211
10
33.416058211412285
20
-121.17987775251683
10
33.365904713022594
20
-121.75289942021259
10
33.216999775852727
20
-122.30842579194584
10
32.973939458377785
20
-122.82973553377585
10
32.644066820742907
20
-123.30088492330998
10
32.237346489400124
20
-123.70760525465275
10
31.766201876494861
20
-124.0374717520872
10
31.244888938910755
20
-124.28063177604054
10
30.94826555803045
20
-124.36007148967488
10
30.948265558030485
20
-124.54176873785894
42
-0.41421356237309503
10
30.323265558030464
20
-125.16676873785896
10
30.023265558030452
20
-125.16676873785894
42
-0.41421356237308671
10
29.398265558030452
20
-124.54176873785896
10
29.398265558030452
20
-124.39058898614684
10
28.987687439470051
20
-124.28063251295279
0
LWPOLYLINE
5
103
100
AcDbEntity
8
CUTOUTS
100
AcDbPolyline
90
40
70
1
43
0.0
10
-10.376734441969431
20
-101.1667687378589
10
-10.676734441969433
20
-101.16676873785892
42
-0.41421356237307838
10
-11.301734441969424
20
-100.54176873785889
10
-11.301734441969415
20
-100.31098019039644
10
-11.725634480232898
20
-100.19739050295124
10
-12.246921798603694
20
-99.954313297722535
10
-12.718082111021562
20
-99.624411568640582
10
-13.124789928907949
20
-99.217699088758749
10
-13.454692224847387
20
-98.746537966764194
10
-13.697778633560942
20
-98.225250906875559
10
-13.846650275359247
20
-97.669661734556257
10
-13.896776136649782
20
-97.096673536288563
10
-13.846650289176257
20
-96.523694819967275
10
-13.697778633560942
20
-95.968105596082893
10
-13.454692224847378
20
-95.446818536194201
10
-13.124789928907941
20
-94.975657414199645
10
-12.718082288427404
20
-94.568945111725725
10
-12.246921571221563
20
-94.239047761218742
10
-11.725634480225553
20
-93.995961337999233
10
-11.158908422599261
20
-93.844109018496269
42
-0.22392431984608077
10
-10.676734441969433
20
-93.616768737858933
10
-10.376734441969431
20
-93.616768737858948
42
-0.24880466949619881
10
-9.8592758421052693
20
-93.891252550748277
10
-9.468493545253855
20
-93.995961337999205
10
-8.9472064542578451
20
-94.239047761218728
10
-8.4760457370519866
20
-94.568945111725725
10
-8.0693377417653895
20
-94.975657769009786
10
-7.7394263702537733
20
-95.446818536192453
10
-7.4963495356065666
20
-95.968105059838649
10
-7.3474777363031327
20
-96.523694819967275
10
-7.2973518888295983
20
-97.096673536288577
10
-7.3474777501201336
20
-97.669661734556286
10
-7.4963495356065577
20
-98.225251443119788
10
-7.7394263702537822
20
-98.746537966765999
10
-8.0693377417653984
20
-99.217698733948666
10
-8.4760459144578366
20
-99.624411568640582
10
-8.9472062268757142
20
-99.954313297722564
10
-9.4684935452464831
20
-100.19739050295124
10
-9.7517344419694325
20
-100.27328869126528
10
-9.7517344419694396
20
-100.54176873785892
42
-0.41421356237306589
0
LWPOLYLINE
5
104
100
AcDbEntity
8
CUTOUTS
100
AcDbPolyline
90
40
70
1
43
0.0
10
-42.411432127710704
20
-97.058854231620174
10
-42.004719594640903
20
-96.652141698550366
10
-41.533558650052228
20
-96.322239526828781
10
-41.012271714596821
20
-96.079153176140892
10
-40.529317260546939
20
-95.949746087003177
42
-0.2780057975250147
10
-39.976734441969384
20
-95.616768737859019
10
-39.676734441969387
20
-95.616768737859019
42
-0.29493696271321163
10
-39.106968562016242
20
-95.984879964182142
10
-38.755135691680842
20
-96.079153176140863
10
-38.233848756225385
20
-96.32223952682881
10
-37.762687811636731
20
-96.652141698550409
10
-37.355974923758701
20
-97.058854586428424
10
-37.026063835682962
20
-97.530014948824004
10
-36.782991490012613
20
-98.051301843537658
10
-36.634115016734881
20
-98.606882324324729
10
-36.583989190390596
20
-99.179870123122271
10
-36.634115016734881
20
-99.752857921919798
10
-36.782991490012613
20
-100.30843840270686
10
-37.026063835682969
20
-100.82972529742054
10
-37.355974675316965
20
-101.30088530500566
10
-37.762687811634933
20
-101.70758911731775
10
-38.233849665738987
20
-102.03750124990233
10
-38.755135691678142
20
-102.28059650046193
10
-39.051734441969394
20
-102.36006481597899
10
-39.051734441969387
20
-102.54176873785902
42
-0.41421356237308049
10
-39.676734441969387
20
-103.16676873785902
10
-39.976734441969391
20
-103.16676873785902
42
-0.41421356237309709
10
-40.601734441969384
20
-102.54176873785897
10
-40.601734441969377
20
-102.39059259950434
10
-41.012271714599521
20
-102.28059650046191
10
-41.533557740538654
20
-102.03750124990233
10
-42.004719594642701
20
-101.70758911731778
10
-42.411432376148007
20
-101.30088565981019
10
-42.74133414022203
20
-100.82972529741723
10
-42.984415684877533
20
-100.30843867082393
10
-43.133278243980143
20
-99.752857921916103
10
-43.183418056324768
20
-99.179870123122242
10
-43.133278243980151
20
-98.606882324328467
10
-42.984415684877533
20
-98.051301575420595
10
-42.741334140222023
20
-97.530014948827315
0
LWPOLYLINE
5
105
100
AcDbEntity
8
CUTOUTS
100
AcDbPolyline
90
40
70
1
43
0.0
10
56.302188733590228
20
-117.96813174972593
10
56.545330427770189
20
-117.4468181299347
10
56.875215424874128
20
-116.97566440498673
10
57.281926183833242
20
-116.56894432207623
10
57.753089132854278
20
-116.23907804307547
10
58.274395243296951
20
-115.9959261785052
10
58.841080187112794
20
-115.84412282995451
42
-0.22393183987327309
10
59.3232655580304
20
-115.61676873785885
10
59.623265558030411
20
-115.61676873785885
42
-0.24880274501902916
10
60.140721616932467
20
-115.89124879961631
10
60.531491180001808
20
-115.995926245514
10
61.052796828385219
20
-116.23907789456682
10
61.523950665449114
20
-116.56894432205976
10
61.930670748355119
20
-116.97566440496578
10
62.260546103016232
20
-117.44681767516508
10
62.50368825943638
20
-117.96813228603312
10
62.652498587950987
20
-118.52365354999934
10
62.702652597624756
20
-119.09668105929865
10
62.652498601769906
20
-119.66969908667463
10
62.50368825943638
20
-120.22522040222803
10
62.260546103016246
20
-120.74653501309609
10
61.930670748355155
20
-121.21768828329535
10
61.523950665449114
20
-121.62440836620138
10
61.052796373672649
20
-121.95427511204984
10
60.531491180109931
20
-122.19743587296777
10
60.248265558030411
20
-122.27330021843215
10
60.248265558030425
20
-122.54176873785883
42
-0.41421356237308671
10
59.623265558030411
20
-123.16676873785883
10
59.3232655580304
20
-123.16676873785882
42
-0.41421356237308671
10
58.6982655580304
20
-122.54176873785883
10
58.698265558030414
20
-122.31097504527561
10
58.274395243180422
20
-122.19743593997522
10
57.753089587569441
20
-121.9542749635367
10
57.281926183833242
20
-121.62440836618494
10
56.875215424874142
20
-121.21768828327447
10
56.545330427770189
20
-120.74653455832647
10
56.302188733590228
20
-120.22522093853524
10
56.153387571585533
20
-119.6696990867751
10
56.103224251683869
20
-119.09668105928894
10
56.153387585406136
20
-118.52365354988933
0
LWPOLYLINE
5
106
100
AcDbEntity
8
CUTOUTS
100
AcDbPolyline
90
42
70
1
43
0.0
10
220.64826555802998
20
-95.405175309214229
10
220.95289161881738
20
-95.486788135446773
10
221.44648126523481
20
-95.716979111029602
10
221.89262293660653
20
-96.029393755581225
10
222.27785778808493
20
-96.4145354831833
10
222.5902266738052
20
-96.860692938577529
10
222.82035612007948
20
-97.354346303218193
10
222.96138361289835
20
-97.880470858275416
10
223.00883921207745
20
-98.423053371260224
10
222.96138358374992
20
-98.965654842170622
10
222.82035626143556
20
-99.491778761134839
10
222.59022683037449
20
-99.985413468227932
10
222.27785726402993
20
-100.43158120799369
10
221.89262293667358
20
-100.81673172397537
10
221.44648174487256
20
-101.12913672024634
10
220.9528910532847
20
-101.35932818325593
10
220.64826555802998
20
-101.44094624957742
10
220.64826555802995
20
-101.54176873785869
42
-0.4142135623730534
10
220.02326555802998
20
-102.16676873785865
10
219.72326555802996
20
-102.16676873785866
42
-0.41421356237307838
10
219.09826555802996
20
-101.54176873785863
10
219.09826555802996
20
-101.43512521298845
10
218.81536608782991
20
-101.35932818325591
10
218.32177405286504
20
-101.12913609374763
10
217.87560099641462
20
-100.81673486806841
10
217.49051401995797
20
-100.43158270470823
10
217.17802762749557
20
-99.985407712585868
10
216.94790087967903
20
-99.491778761134796
10
216.8068735573647
20
-98.965654842170693
10
216.75941792903717
20
-98.423053371260238
10
216.80687352821627
20
-97.880470858275359
10
216.94790102103511
20
-97.35434630321825
10
217.17802778412312
20
-96.860698694311793
10
217.4905134958754
20
-96.414533986487186
10
217.87560099638819
20
-96.029390611409639
10
218.32177453248758
20
-95.716979737535411
10
218.81536552229727
20
-95.486788135446758
10
219.09826555802996
20
-95.410995961271809
10
219.09826555802999
20
-95.241768737858692
42
-0.41421356237307005
10
219.72326555802996
20
-94.616768737858692
10
220.02326555802998
20
-94.616768737858678
42
-0.41421356237307838
10
220.64826555802998
20
-95.241768737858706
0
LWPOLYLINE
5
107
100
AcDbEntity
8
CUTOUTS
100
AcDbPolyline
90
40
70
1
43
0.0
10
142.58862606487105
20
-113.30088020473181
10
142.25863179397712
20
-112.8297208891573
10
142.01559330637943
20
-112.30843661981754
10
141.86668933014371
20
-111.75286721317981
10
141.81661928863602
20
-111.17986826889396
10
141.86668933014352
20
-110.60687864864047
10
142.01559337338691
20
-110.05129966800783
10
142.25863179397714
20
-109.53001554238992
10
142.58862631335259
20
-109.05885587203842
10
142.99534289107325
20
-108.65213929431776
10
143.46648659883988
20
-108.32223613444842
10
143.98769633282814
20
-108.0791510007309
10
144.47068400151585
20
-107.94974369886368
42
-0.27800463357545141
10
145.02326555803026
20
-107.61676873785885
10
145.32326555803027
20
-107.61676873785882
42
-0.2949349325432587
10
145.89302951879912
20
-107.98487570757391
10
146.2449080856945
20
-108.07915167077451
10
146.7661941591185
20
-108.32223761948018
10
147.2373551037071
20
-108.65213979120176
10
147.64406692713939
20
-109.05885161463404
10
147.97394871878231
20
-109.5300100853887
10
148.21698968359146
20
-110.05129966800781
10
148.36589530659234
20
-110.60688454290644
10
148.41605807238639
20
-111.17986826899207
10
148.36589530659234
20
-111.75286131901196
10
148.21698975059897
20
-112.30843661981754
10
147.97394871878231
20
-112.82972634615859
10
147.64406717556787
20
-113.30088446209167
10
147.23735474890395
20
-113.70758756476597
10
146.76619324960765
20
-114.03750877293307
10
146.24490862189288
20
-114.28059404747611
10
145.94826555803027
20
-114.3600662335844
10
145.94826555803027
20
-114.54176873785885
42
-0.41421356237307838
10
145.32326555803027
20
-115.16676873785883
10
145.02326555803026
20
-115.16676873785882
42
-0.41421356237308671
10
144.39826555803026
20
-114.54176873785883
10
144.39826555803026
20
-114.39059213719713
10
143.98769579662564
20
-114.280594717482
10
143.46648750833683
20
-114.03751025801907
10
142.99534324589013
20
-113.70758806165229
0
LWPOLYLINE
5
108
100
AcDbEntity
8
PERIMETER
100
AcDbPolyline
90
93
70
1
43
0.0
10
35.468080585619973
20
-92.945297164252864
10
34.092774877967969
20
-92.179449576003321
10
32.74395926381284
20
-91.36515933547264
10
31.773802722426908
20
-90.781262546826071
10
30.782332374088163
20
-90.234230082735266
10
29.771612954240815
20
-89.725251680449787
10
28.742740391953447
20
-89.254832360322794
10
27.697004378733531
20
-88.823430402702371
10
26.635396189015424
20
-88.431522595489426
10
25.559026339924927
20
-88.079601932161623
10
24.469014856806581
20
-87.768146861286468
10
23.368046565537533
20
-87.497988629563395
10
22.258845237677029
20
-87.269743720146948
10
21.142617974698503
20
-87.083541719566497
10
20.020578077776847
20
-86.93948759471354
10
18.893919679978801
20
-86.837734214585893
10
17.763828647341271
20
-86.778410721463729
10
16.631519935539963
20
-86.76166056430516
10
15.498896297817444
20
-86.787572690855256
10
-66.1720641319489
20
-90.197303875609578
10
-66.172064131948886
20
-116.39387578414016
10
-66.171878165457187
20
-116.39387578414015
10
-66.171878165457187
20
-119.24387769148161
10
-66.172064131948886
20
-119.24387769148161
10
-66.172064131948886
20
-129.39387769147265
10
-66.171878165457187
20
-129.39387769147265
10
-66.171878165457187
20
-135.24387196943036
10
-66.172064131948872
20
-135.24387196943036
10
-66.172064131948872
20
-137.82155072430803
10
-66.09515172511081
20
-138.89687715163979
10
-65.865406959858049
20
-139.95305457391419
10
-65.48770051089366
20
-140.96571405369605
10
-64.969719647085455
20
-141.91432831945463
10
-64.322011533559532
20
-142.77951563211187
10
-63.55776134438068
20
-143.54380314660165
10
-62.692520909084386
20
-144.19153198520334
10
-61.743912594368439
20
-144.70947309790566
10
-60.731237253566178
20
-145.08721574596473
10
-59.675125069135206
20
-145.31689905725904
10
-58.599744257486961
20
-145.39387196943571
10
226.17388798322708
20
-145.39387196943568
10
227.12131685115583
20
-145.31928673402913
10
228.04828498835326
20
-145.09672786047059
10
228.92897850141804
20
-144.73191271065713
10
229.74184830590184
20
-144.23383924290619
10
230.46672906498739
20
-143.6146758940416
10
231.08589241385204
20
-142.88979513495599
10
231.58396588160289
20
-142.07692533047231
10
231.94878109971026
20
-141.19623165254052
10
232.17133991197744
20
-140.26924445798886
10
232.2459251403815
20
-139.32182530539481
10
232.2459251403815
20
-81.315913924818346
10
232.17133991197753
20
-80.368475519455856
10
231.94878125337286
20
-79.441508277551478
10
231.58396603444658
20
-78.560751831657456
10
231.08589215445986
20
-77.74792480791136
10
230.46672887622771
20
-77.02301999071662
10
229.74184830587532
20
-76.403890600177405
10
228.92897970569609
20
-75.905784073242913
10
228.04828447333949
20
-75.540963383075294
10
227.12131536918645
20
-75.31842359001817
10
226.17388722470966
20
-75.24385766432097
10
209.14582901001046
20
-75.24385766432097
10
209.14582901001046
20
-110.31558989663205
10
209.13778500679544
20
-110.40759065702139
42
-0.91021042940626551
10
208.19076306787989
20
-111.24385671064665
10
207.17411995074144
20
-111.24385671064664
10
207.06861742124713
20
-111.23463624364206
42
-1.0694736150940909
10
206.24582595825268
20
-110.27227866905754
10
206.24582595825268
20
-99.315578070332435
10
206.22974763560421
20
-99.132138109739742
10
206.1813037553236
20
-98.951088849292177
10
206.10204670172487
20
-98.78120102671673
10
205.99450403846831
20
-98.627679978444718
10
205.86201750609891
20
-98.495142174197454
10
205.70847331335585
20
-98.387624319754622
10
205.53857331312452
20
-98.308427210762176
10
205.35748275388443
20
-98.25990396465096
10
205.17411518610891
20
-98.243864340041142
10
56.634693138543128
20
-98.243864340041227
10
55.060068662951316
20
-98.216251881901528
10
53.488100250420089
20
-98.133553783497774
10
51.919912460399196
20
-97.995825249456686
10
50.357617849227793
20
-97.803237582813722
10
48.803015868202586
20
-97.556047832235862
10
47.258001528242268
20
-97.254532157604174
10
45.724459426748069
20
-96.899071280733693
10
44.204294309242272
20
-96.490103287206765
10
42.699506546644422
20
-96.028161663858199
10
41.211788531667175
20
-95.513731264423598
10
39.742939753706487
20
-94.947516561816627
10
38.294858112843883
20
-94.330209115273433
10
36.869350242807705
20
-93.66251731916924
0
ENDSEC
0
SECTION
2
OBJECTS
0
DICTIONARY
5
C
100
AcDbDictionary
3
ACAD_GROUP
350
D
3
ACAD_MLINESTYLE
350
17
0
DICTIONARY
5
D
100
AcDbDictionary
0
DICTIONARY
5
1A
330
C
100
AcDbDictionary
0
DICTIONARY
5
17
100
AcDbDictionary
0
ENDSEC
0
EOF
