<?xml version="1.0" encoding="UTF-8"?>
<svg xmlns="http://www.w3.org/2000/svg" xmlns:xlink="http://www.w3.org/1999/xlink" width="246.350mm" height="161.057mm" viewBox="-423.174988 169.471741 246.349991 161.056519">
    <circle transform="matrix(1,0,0,-1,-184,319.25)" style="stroke:#ff0000;stroke-width:0.05mm;fill:none" r="1.675" cx="0" cy="0"/>
    <circle transform="matrix(1,0,0,-1,-416,319.25)" style="stroke:#ff0000;stroke-width:0.05mm;fill:none" r="1.675" cx="0" cy="0"/>
    <circle transform="matrix(1,0,0,-1,-419.999451,226.444656)" style="stroke:#ff0000;stroke-width:0.05mm;fill:none" r="1.675" cx="0" cy="0"/>
    <circle transform="matrix(1,0,0,-1,-346.721222,324.179535)" style="stroke:#ff0000;stroke-width:0.05mm;fill:none" r="1.675" cx="0" cy="0"/>
    <circle transform="matrix(1,0,0,-1,-253.641632,324.191742)" style="stroke:#ff0000;stroke-width:0.05mm;fill:none" r="1.675" cx="0" cy="0"/>
    <circle transform="matrix(1,0,0,-1,-180.000565,226.807724)" style="stroke:#ff0000;stroke-width:0.05mm;fill:none" r="1.675" cx="0" cy="0"/>
    <circle transform="matrix(1,0,0,-1,-210.532776,177.257294)" style="stroke:#ff0000;stroke-width:0.05mm;fill:none" r="1.675" cx="0" cy="0"/>
    <circle transform="matrix(1,0,0,-1,-300,174.25)" style="stroke:#ff0000;stroke-width:0.05mm;fill:none" r="1.675" cx="0" cy="0"/>
    <circle transform="matrix(1,0,0,-1,-389.10437,177.245102)" style="stroke:#ff0000;stroke-width:0.05mm;fill:none" r="1.675" cx="0" cy="0"/>
    <path transform="matrix(1,0,0,-1,-300,250.25)" style="stroke:#ff0000;stroke-width:0.05mm;fill:none" d="M123.175003,-71.424034L123.175003,71.924034C123.175003,74.552673,121.090927,76.707977,118.463783,76.796288L0,80.778259L-118.463783,76.796288C-121.090927,76.707977,-123.175003,74.552673,-123.175003,71.924034L-123.175003,-71.424034C-123.175003,-74.052673,-121.090927,-76.207977,-118.463783,-76.296288L-0,-80.278259L118.463783,-76.296288C121.090927,-76.207977,123.175003,-74.052673,123.175003,-71.424034z"/>
    <path transform="matrix(-1,0,0,1,0,0)" style="stroke:none;fill:#000000;fill-rule:evenodd" d="M266.793701,304.602234L266.568604,306.046082L266,306.046082L265.774902,304.602234L265.774902,303.277283L266.793701,303.277283L266.793701,304.602234z"/>
    <path transform="matrix(-1,0,0,1,0,0)" style="stroke:none;fill:#000000;fill-rule:evenodd" d="M289.081055,307.389832L288.9375,311.239685L288.137451,311.239685L288,307.395935L288,303.277283L289.081055,303.277283L289.081055,307.389832z"/>
    <path transform="matrix(-1,0,0,1,0,0)" style="stroke:none;fill:#000000;fill-rule:evenodd" d="M232.581055,307.389832L232.4375,311.239685L231.637451,311.239685L231.5,307.395935L231.5,303.277283L232.581055,303.277283L232.581055,307.389832z"/>
    <path transform="matrix(-1,0,0,1,0,0)" style="stroke:none;fill:#000000;fill-rule:evenodd" d="M283.5,313.277283C282.760132,313.294861,282.02002,313.292755,281.280273,313.270935C280.903137,313.269897,280.533478,313.165344,280.21167,312.968689C279.901733,312.725983,279.707703,312.364777,279.676514,311.972351C279.655792,311.829041,279.644775,311.684509,279.643555,311.539734C279.601318,309.286713,279.604645,307.033569,279.653564,304.780701C279.653625,304.368774,279.816406,303.973083,280.106201,303.680359C280.459167,303.417114,280.888824,303.27771,281.329102,303.28363C282.052521,303.262817,282.776459,303.260712,283.5,303.277283L283.5,313.277283zM281.574951,304.22113C281.336639,304.199921,281.097809,304.255707,280.893555,304.38031C280.747467,304.518005,280.671661,304.7146,280.6875,304.914734C280.623474,307.212067,280.628296,309.510803,280.701904,311.8078C280.719055,312.048767,280.896881,312.24826,281.134277,312.292908C281.260193,312.322266,281.389282,312.335876,281.518555,312.333435L282.456055,312.333435L282.456055,304.22113L281.574951,304.22113z"/>
    <path transform="matrix(-1,0,0,1,0,0)" style="stroke:none;fill:#000000;fill-rule:evenodd" d="M289.4375,313.277283L287.649902,313.277283L287.649902,312.027283L289.4375,312.027283L289.4375,313.277283z"/>
    <path transform="matrix(-1,0,0,1,0,0)" style="stroke:none;fill:#000000;fill-rule:evenodd" d="M291.662354,306.871033L291.518555,312.333435L292.037354,312.333435L292.862305,306.445984L293.4375,303.277283L295.5,303.277283L295.5,313.277283L294.449951,313.277283C294.50647,310.239319,294.572388,307.245453,294.649902,304.208435L294.118652,304.208435L293.424805,309.714783L292.806152,313.277283L290.668701,313.277283L290.668701,303.277283L291.71875,303.277283L291.662354,306.871033z"/>
    <path transform="matrix(-1,0,0,1,0,0)" style="stroke:none;fill:#000000;fill-rule:evenodd" d="M300.799805,313.277283L299.724854,313.277283L299.474854,310.50238L297.831055,310.50238L297.581055,313.277283L296.506104,313.277283L297.606201,303.277283L299.699951,303.277283L300.799805,313.277283zM298.387451,304.22113L298.118652,307.433533L297.924805,309.558533L299.381104,309.558533L299.1875,307.433533L298.912354,304.22113L298.387451,304.22113z"/>
    <path transform="matrix(-1,0,0,1,0,0)" style="stroke:none;fill:#000000;fill-rule:evenodd" d="M304.875,313.277283L301.5,313.277283L301.5,312.333435L303.831055,312.333435L303.831055,308.714783L301.625,308.714783L301.625,307.770935L303.831055,307.770935L303.831055,304.22113L301.5,304.22113L301.5,303.277283L304.875,303.277283L304.875,313.277283z"/>
    <path transform="matrix(-1,0,0,1,0,0)" style="stroke:none;fill:#000000;fill-rule:evenodd" d="M309,313.277283L305.643555,313.277283L305.643555,312.333435L307.956055,312.333435L307.956055,303.277283L309,303.277283L309,313.277283z"/>
    <path transform="matrix(-1,0,0,1,0,0)" style="stroke:none;fill:#000000;fill-rule:evenodd" d="M321.375,313.277283L318,313.277283L318,312.333435L320.331055,312.333435L320.331055,308.714783L318.125,308.714783L318.125,307.770935L320.331055,307.770935L320.331055,304.22113L318,304.22113L318,303.277283L321.375,303.277283L321.375,313.277283z"/>
    <path transform="matrix(-1,0,0,1,0,0)" style="stroke:none;fill:#000000;fill-rule:evenodd" d="M232.9375,313.277283L231.149902,313.277283L231.149902,312.027283L232.9375,312.027283L232.9375,313.277283z"/>
    <path transform="matrix(-1,0,0,1,0,0)" style="stroke:none;fill:#000000;fill-rule:evenodd" d="M331.924805,313.277283L330.849854,313.277283L330.599854,310.50238L328.956055,310.50238L328.706055,313.277283L327.631104,313.277283L328.731201,303.277283L330.824951,303.277283L331.924805,313.277283zM329.512451,304.22113C329.371399,306.003052,329.217468,307.77887,329.049805,309.558533L330.506104,309.558533L330.3125,307.433533L330.037354,304.22113L329.512451,304.22113z"/>
    <path transform="matrix(-1,0,0,1,0,0)" style="stroke:none;fill:#000000;fill-rule:evenodd" d="M335.625,313.277283L334.581055,313.277283L334.581055,308.714783L332.306152,308.714783L332.306152,307.770935L334.581055,307.770935L334.581055,304.22113L332.181152,304.22113L332.181152,303.277283L335.625,303.277283L335.625,313.277283z"/>
    <path transform="matrix(-1,0,0,1,0,0)" style="stroke:none;fill:#000000;fill-rule:evenodd" d="M235.143555,307.770935L236.956055,307.770935L236.956055,303.277283L238,303.277283L238,313.277283L236.956055,313.277283L236.956055,308.714783L235.143555,308.714783L235.143555,313.277283L234.099854,313.277283L234.099854,303.277283L235.143555,303.277283L235.143555,307.770935z"/>
    <path transform="matrix(-1,0,0,1,0,0)" style="stroke:none;fill:#000000;fill-rule:evenodd" d="M265.15625,304.22113L263.637451,304.22113L263.637451,313.277283L262.587402,313.277283L262.587402,304.22113L261.074951,304.22113L261.074951,303.277283L265.15625,303.277283L265.15625,304.22113z"/>
    <path transform="matrix(-1,0,0,1,0,0)" style="stroke:none;fill:#000000;fill-rule:evenodd" d="M258.53125,304.22113L257.012451,304.22113L257.012451,313.277283L255.962402,313.277283L255.962402,304.22113L254.449951,304.22113L254.449951,303.277283L258.53125,303.277283L258.53125,304.22113z"/>
    <path transform="matrix(-1,0,0,1,0,0)" style="stroke:none;fill:#000000;fill-rule:evenodd" d="M353.5,313.277283L352.456055,313.277283L352.456055,309.421082L351.618652,309.421082C351.169769,309.452515,350.721466,309.348267,350.33252,309.122009C350.027466,308.889435,349.830566,308.542694,349.787109,308.16156C349.737549,307.7995,349.716736,307.434143,349.724854,307.068787C349.694641,306.224365,349.714539,305.378876,349.784424,304.536804C349.823059,304.09967,350.076233,303.709961,350.459961,303.497009C350.821655,303.334778,351.216309,303.259521,351.612305,303.277283L353.5,303.277283L353.5,313.277283zM351.612305,304.22113L351.40918,304.230896C351.213562,304.229309,351.027863,304.317169,350.905029,304.469421C350.828156,304.605042,350.789703,304.758911,350.793701,304.914734C350.732361,305.928345,350.738892,306.944977,350.813232,307.957703C350.846863,308.259888,351.109283,308.485443,351.413086,308.473328C351.760345,308.49408,352.108459,308.497498,352.456055,308.483582L352.456055,304.22113L351.612305,304.22113z"/>
    <path transform="matrix(-1,0,0,1,0,0)" style="stroke:none;fill:#000000;fill-rule:evenodd" d="M358,313.277283L354.625,313.277283L354.625,312.333435L356.956055,312.333435L356.956055,308.714783L354.75,308.714783L354.75,307.770935L356.956055,307.770935L356.956055,304.22113L354.625,304.22113L354.625,303.277283L358,303.277283L358,313.277283z"/>
    <path transform="matrix(-1,0,0,1,0,0)" style="stroke:none;fill:#000000;fill-rule:evenodd" d="M362.5,313.277283L359.125,313.277283L359.125,312.333435L361.456055,312.333435L361.456055,308.714783L359.25,308.714783L359.25,307.770935L361.456055,307.770935L361.456055,304.22113L359.125,304.22113L359.125,303.277283L362.5,303.277283L362.5,313.277283z"/>
    <path transform="matrix(-1,0,0,1,0,0)" style="stroke:none;fill:#000000;fill-rule:evenodd" d="M269.162354,306.871033L269.018555,312.333435L269.537354,312.333435L270.362305,306.445984L270.9375,303.277283L273,303.277283L273,313.277283L271.949951,313.277283C272.00647,310.239319,272.072388,307.245453,272.149902,304.208435L271.618652,304.208435L270.924805,309.714783L270.306152,313.277283L268.168701,313.277283L268.168701,303.277283L269.21875,303.277283L269.162354,306.871033z"/>
    <path transform="matrix(-1,0,0,1,0,0)" style="stroke:none;fill:#000000;fill-rule:evenodd" d="M365.318604,305.43988L366.1875,308.496033L366.5,308.496033L366.412354,305.633484L366.40625,303.277283L367.5,303.277283L367.5,313.277283L366.4375,313.277283L366.4375,310.97113L365.643555,308.97113L364.399902,313.277283L363.324951,313.277283L364.974854,307.72113L363.474854,303.277283L364.606201,303.277283L365.318604,305.43988z"/>
    <path transform="matrix(-1,0,0,1,0,0)" style="stroke:none;fill:#000000;fill-rule:evenodd" d="M252.100342,303.196472L252.33252,303.216248C252.703613,303.238708,253.05835,303.377045,253.34668,303.611755C253.64183,303.929169,253.808105,304.344849,253.813232,304.778259C253.864105,307.110291,253.864105,309.442871,253.813232,311.774841C253.802841,312.153046,253.677856,312.519257,253.454834,312.82489C253.160645,313.134125,252.758835,313.317932,252.33252,313.338318C251.754562,313.428375,251.162979,313.354706,250.624756,313.125671C250.273407,312.930725,250.027725,312.588928,249.954834,312.193787C249.905472,311.979156,249.878723,311.759949,249.875,311.539734C249.819443,309.286407,249.823761,307.031403,249.887939,304.778259C249.900467,304.398895,250.027084,304.032074,250.251221,303.725769C250.545242,303.418854,250.945572,303.236542,251.370117,303.216248C251.612579,303.189728,251.856796,303.183105,252.100342,303.196472zM251.610352,304.089294C251.382782,304.084961,251.168686,304.197479,251.043213,304.38739C250.95993,304.570496,250.919464,304.77005,250.924805,304.97113C250.845154,307.253632,250.850281,309.538391,250.940186,311.820496C250.940857,312.04361,251.05896,312.250061,251.250977,312.363708C251.635483,312.510803,252.060074,312.510803,252.44458,312.363708C252.638031,312.250488,252.758682,312.044617,252.762939,311.820496C252.849152,309.460205,252.849152,307.097839,252.762939,304.737488C252.759216,304.511108,252.638779,304.302582,252.44458,304.186218C252.180038,304.080414,251.892105,304.046967,251.610352,304.089294z"/>
    <path transform="matrix(-1,0,0,1,0,0)" style="stroke:none;fill:#000000;fill-rule:evenodd" d="M276.600342,303.196472L276.83252,303.216248C277.203613,303.238708,277.55835,303.377045,277.84668,303.611755C278.141846,303.929169,278.308105,304.344849,278.313232,304.778259C278.364105,307.110291,278.364105,309.442871,278.313232,311.774841C278.302856,312.153046,278.177856,312.519257,277.954834,312.82489C277.660645,313.134094,277.25885,313.317932,276.83252,313.338318C276.254578,313.428375,275.662964,313.354706,275.124756,313.125671C274.773407,312.930695,274.52771,312.588928,274.454834,312.193787C274.405487,311.979156,274.378723,311.759949,274.375,311.539734C274.319458,309.286377,274.323761,307.031403,274.387939,304.778259C274.400482,304.398895,274.527069,304.032074,274.751221,303.725769C275.045258,303.418854,275.445587,303.236542,275.870117,303.216248C276.112579,303.189728,276.356812,303.183105,276.600342,303.196472zM276.110352,304.089294C275.882782,304.084961,275.668671,304.197479,275.543213,304.38739C275.45993,304.570496,275.419464,304.77005,275.424805,304.97113C275.345154,307.253632,275.350281,309.538361,275.440186,311.820496C275.440857,312.04361,275.55896,312.250061,275.750977,312.363708C276.135498,312.510803,276.560059,312.510803,276.94458,312.363708C277.138031,312.250488,277.258698,312.044617,277.262939,311.820496C277.349152,309.460205,277.349152,307.097839,277.262939,304.737488C277.259216,304.511108,277.138794,304.302582,276.94458,304.186218C276.680054,304.080414,276.39209,304.046967,276.110352,304.089294z"/>
    <path transform="matrix(-1,0,0,1,0,0)" style="stroke:none;fill:#000000;fill-rule:evenodd" d="M245.703857,304.674988C245.683868,307.080627,245.693085,309.485413,245.731445,311.891052C245.746735,312.153412,245.941574,312.37085,246.200684,312.414734C246.537781,312.495941,246.891327,312.476929,247.217773,312.360046C247.400894,312.272705,247.522858,312.093445,247.536865,311.891052L247.549805,311.702332C247.572449,308.894562,247.570435,306.085297,247.543701,303.277283L248.587402,303.277283C248.628174,306.12912,248.624817,308.983002,248.577393,311.834656C248.578201,312.253357,248.41452,312.656097,248.121826,312.955505C247.76413,313.223236,247.328094,313.364838,246.881348,313.358337C246.375885,313.411835,245.864868,313.334717,245.397705,313.13446C245.052612,312.952026,244.810242,312.62146,244.73999,312.237488C244.693619,312.031036,244.669724,311.82019,244.668701,311.608582C244.631256,308.831848,244.631256,306.053833,244.668701,303.277283L245.71875,303.277283L245.703857,304.674988z"/>
    <path transform="matrix(-1,0,0,1,0,0)" style="stroke:none;fill:#000000;fill-rule:evenodd" d="M338.078857,304.674988L338.071777,306.080505C338.059326,308.016754,338.070892,309.955109,338.106445,311.891052C338.121704,312.153412,338.316559,312.37088,338.575684,312.414734C338.912781,312.495941,339.266327,312.476929,339.592773,312.360046C339.775879,312.272705,339.897858,312.093445,339.911865,311.891052L339.924805,311.702332C339.947479,308.894562,339.945465,306.085297,339.918701,303.277283L340.962402,303.277283C341.003174,306.12912,340.999817,308.983002,340.952393,311.834656C340.953186,312.253357,340.78949,312.656097,340.496826,312.955505C340.13913,313.223236,339.703094,313.364838,339.256348,313.358337C338.750885,313.411835,338.239868,313.334717,337.772705,313.13446C337.427612,312.952026,337.185242,312.62149,337.11499,312.237488C337.068634,312.031036,337.044708,311.82019,337.043701,311.608582C337.006256,308.831818,337.006256,306.053833,337.043701,303.277283L338.09375,303.277283L338.078857,304.674988z"/>
    <path transform="matrix(-1,0,0,1,0,0)" style="stroke:none;fill:#000000;fill-rule:evenodd" d="M344.530273,303.200867C344.878937,303.210449,345.220367,303.302734,345.526367,303.470154C345.844574,303.6763,346.060303,304.007629,346.120117,304.382019C346.158722,304.569733,346.179169,304.760712,346.181152,304.952332C346.206177,305.612274,346.204956,306.272949,346.17749,306.9328C346.17157,307.321625,346.067993,307.703003,345.876465,308.041443C345.677368,308.325867,345.386047,308.53241,345.051758,308.62616C344.729736,308.721436,344.403839,308.803131,344.074951,308.871033L343.885742,308.933044C343.547089,309.057556,343.317078,309.375183,343.304443,309.735779C343.233826,310.46167,343.236176,311.192749,343.311523,311.918152C343.341858,312.17691,343.539154,312.385254,343.795898,312.429626C344.171814,312.527161,344.570129,312.482941,344.915527,312.305359C345.075806,312.157166,345.161743,311.94519,345.149902,311.727234C345.187317,311.036102,345.187317,310.343445,345.149902,309.652283L346.15625,309.652283C346.20697,310.443695,346.198151,311.237701,346.129883,312.027771C346.091278,312.433258,345.883606,312.804169,345.558105,313.049011C345.143005,313.283295,344.669403,313.392853,344.193604,313.364685C343.779572,313.383514,343.366913,313.304047,342.989502,313.132751C342.643799,312.943726,342.399994,312.610901,342.323975,312.224304C342.24762,311.840546,342.213318,311.449707,342.22168,311.058533C342.183075,310.422974,342.2211,309.785095,342.334961,309.15863C342.446106,308.648285,342.812836,308.231079,343.304688,308.055359C343.696838,307.913544,344.101074,307.807892,344.512451,307.739685L344.668457,307.688416C344.906464,307.577209,345.067047,307.347595,345.089844,307.085876C345.185303,306.270477,345.193176,305.447388,345.113281,304.63031C345.08078,304.369965,344.880646,304.161591,344.621826,304.118591C344.296051,304.042633,343.955383,304.060577,343.639404,304.170349C343.457428,304.255371,343.333893,304.430359,343.314697,304.63031C343.269104,305.340973,343.26413,306.053589,343.299805,306.764832L342.287354,306.764832C342.242188,306.017151,342.251984,305.267181,342.31665,304.520935C342.351318,304.117889,342.555115,303.747894,342.877197,303.503113C343.278168,303.27179,343.737854,303.162933,344.199951,303.18988L344.530273,303.200867z"/>
    <path transform="matrix(-1,0,0,1,0,0)" style="stroke:none;fill:#000000;fill-rule:evenodd" d="M324.968262,303.202576C325.416443,303.195892,325.854065,303.341217,326.209229,303.614685C326.509583,303.913116,326.681763,304.316589,326.689453,304.739929C326.739105,307.101746,326.738708,309.464813,326.688232,311.826599C326.677277,312.197998,326.549286,312.556458,326.32251,312.850769C326.021149,313.149353,325.620056,313.325531,325.196289,313.345398C324.609406,313.430725,324.010468,313.360168,323.459473,313.140808C323.100861,312.961121,322.84314,312.628418,322.758789,312.236267C322.659454,311.727142,322.622894,311.207886,322.649902,310.68988C322.655304,310.346008,322.665741,310.002197,322.681152,309.65863L323.724854,309.65863L323.706055,310.455505C323.685455,310.923492,323.695007,311.392334,323.734619,311.85907C323.754517,312.14978,323.971863,312.389404,324.259277,312.437439C324.604828,312.524384,324.968842,312.504272,325.302734,312.379822C325.49881,312.278046,325.62619,312.079712,325.637207,311.85907L325.65625,311.639832C325.715302,309.327515,325.709015,307.014038,325.637451,304.702087C325.627533,304.421936,325.424011,304.185577,325.148438,304.134216C324.808472,304.05304,324.452209,304.072357,324.123047,304.18988C323.926361,304.287354,323.796936,304.482941,323.78418,304.702087C323.74707,305.391083,323.741882,306.081451,323.768555,306.770935L322.724854,306.770935C322.675385,306.02536,322.68869,305.276978,322.764648,304.53363C322.841309,303.864655,323.368744,303.3349,324.037354,303.25531C324.344452,303.200806,324.656982,303.183105,324.968262,303.202576z"/>
    <path transform="matrix(-1,0,0,1,0,0)" style="stroke:none;fill:#000000;fill-rule:evenodd" d="M312.593262,303.202576C313.041443,303.195892,313.479065,303.341217,313.834229,303.614685C314.134583,303.913116,314.306763,304.316589,314.314453,304.739929C314.364105,307.101746,314.363708,309.464813,314.313232,311.826599C314.302277,312.197968,314.174255,312.556458,313.94751,312.850769C313.646149,313.149353,313.245056,313.325531,312.821289,313.345398C312.234406,313.430725,311.635468,313.360199,311.084473,313.140808C310.725861,312.961121,310.46814,312.628418,310.383789,312.236267C310.284454,311.727142,310.247894,311.207886,310.274902,310.68988C310.280304,310.346008,310.290741,310.002197,310.306152,309.65863L311.349854,309.65863L311.331055,310.455505C311.310455,310.923492,311.320007,311.392303,311.359619,311.85907C311.379486,312.14978,311.596863,312.389404,311.884277,312.437439C312.229858,312.524384,312.593842,312.504272,312.927734,312.379822C313.12381,312.278046,313.25119,312.079712,313.262207,311.85907L313.28125,311.639832C313.340302,309.327515,313.334015,307.014038,313.262451,304.702087C313.252533,304.421936,313.049011,304.185577,312.773438,304.134216C312.433472,304.05304,312.077209,304.072357,311.748047,304.18988C311.551361,304.287354,311.421936,304.482941,311.40918,304.702087C311.372101,305.391113,311.366882,306.08139,311.393555,306.770935L310.349854,306.770935C310.300385,306.02536,310.31369,305.276978,310.389648,304.53363C310.466309,303.864655,310.993744,303.3349,311.662354,303.25531C311.969452,303.200806,312.281952,303.183105,312.593262,303.202576z"/>
    <path transform="matrix(-1,0,0,1,0,0)" style="stroke:none;fill:#000000;fill-rule:evenodd" d="M241.593262,303.202576L241.820068,303.222107C242.245895,303.241669,242.648773,303.422424,242.946533,303.727478C243.212708,304.083466,243.346466,304.520813,243.324951,304.964783C243.363861,307.252106,243.359955,309.539398,243.313232,311.826599C243.302292,312.197998,243.174286,312.556458,242.94751,312.850769C242.646164,313.149353,242.245056,313.325531,241.821289,313.345398C241.234406,313.430725,240.635468,313.360199,240.084473,313.140808C239.725861,312.96109,239.468155,312.628418,239.383789,312.236267C239.284454,311.727142,239.247894,311.207886,239.274902,310.68988C239.280304,310.346008,239.290741,310.002167,239.306152,309.65863L240.349854,309.65863L240.331055,310.455505C240.310455,310.923492,240.319992,311.392334,240.359619,311.85907C240.379578,312.14978,240.596893,312.389374,240.884277,312.437439C241.229843,312.524384,241.593842,312.504272,241.927734,312.379822C242.12381,312.278046,242.25119,312.079712,242.262207,311.85907L242.28125,311.639832C242.340302,309.327484,242.334015,307.014069,242.262451,304.702087C242.252548,304.421936,242.049011,304.185577,241.773438,304.134216C241.433472,304.05304,241.077209,304.072357,240.748047,304.18988C240.551346,304.287323,240.421936,304.482941,240.40918,304.702087C240.372086,305.391113,240.366882,306.08139,240.393555,306.770935L239.349854,306.770935C239.300385,306.02536,239.31369,305.276978,239.389648,304.53363C239.466293,303.864655,239.993744,303.3349,240.662354,303.25531C240.969452,303.200806,241.281967,303.183105,241.593262,303.202576z"/>
    <path transform="matrix(-1,0,0,1,0,0)" style="stroke:none;fill:#000000;fill-rule:evenodd" d="M280.648804,183.825378L281.023804,186.352966L281.503784,186.352966L281.893677,183.825378L282.508667,180.997986L283.738647,180.997986L282.358765,186.8703L283.798706,192.997986L282.568726,192.997986L281.908813,190.027771L281.503784,187.477966L281.023804,187.477966L280.626343,190.027771L279.981323,192.997986L278.751343,192.997986L280.161255,186.907898L278.818726,180.997986L280.041138,180.997986L280.648804,183.825378z"/>
    <path transform="matrix(-1,0,0,1,0,0)" style="stroke:none;fill:#000000;fill-rule:evenodd" d="M295.648804,192.997986L293.338745,192.997986C292.845734,193.019806,292.35434,192.927383,291.902954,192.727966C291.495636,192.513687,291.205627,192.128387,291.112427,191.677673C291.015137,191.239212,290.977844,190.789505,291.001587,190.341003C290.978638,189.673325,290.992493,189.004944,291.043091,188.338806C291.075317,188.002441,291.218994,187.686478,291.451294,187.441101C291.645325,187.267456,291.878632,187.143738,292.131226,187.080505L292.131226,186.840271L291.876343,186.751404C291.502808,186.595383,291.229034,186.266632,291.143188,185.871033C291.067535,185.514908,291.033844,185.151245,291.042847,184.787292C291.030548,184.120514,291.036255,183.453522,291.059937,182.787048C291.064545,182.357788,291.209747,181.941833,291.473267,181.602966C291.761597,181.305695,292.142853,181.115829,292.553833,181.06488C292.8255,181.018326,293.100739,180.995941,293.376343,180.997986L295.648804,180.997986L295.648804,192.997986zM293.376343,182.13031L293.105347,182.142517C292.906464,182.146072,292.713104,182.209885,292.551147,182.325378C292.372437,182.502396,292.281769,182.749847,292.303833,183.000427C292.269958,183.847046,292.275574,184.69487,292.320679,185.540955C292.324005,185.810776,292.447113,186.065231,292.656616,186.235291C292.84375,186.34082,293.056458,186.391937,293.271118,186.382996L294.396118,186.382996L294.396118,182.13031L293.376343,182.13031zM293.308716,187.522888L293.045044,187.538757C292.697388,187.54364,292.400146,187.79277,292.334595,188.134216C292.266968,188.509323,292.240295,188.890549,292.255005,189.271423C292.239441,189.901413,292.250275,190.531738,292.287476,191.160828C292.304413,191.474472,292.532745,191.737228,292.840942,191.797791C293.004059,191.835938,293.171265,191.853577,293.338745,191.850281L294.396118,191.850281L294.396118,187.522888L293.308716,187.522888z"/>
    <path transform="matrix(-1,0,0,1,0,0)" style="stroke:none;fill:#000000;fill-rule:evenodd" d="M298.671265,186.39032L300.846313,186.39032L300.846313,180.997986L302.098755,180.997986L302.098755,192.997986L300.846313,192.997986L300.846313,187.522888L298.671265,187.522888L298.671265,192.997986L297.418823,192.997986L297.418823,180.997986L298.671265,180.997986L298.671265,186.39032z"/>
    <path transform="matrix(-1,0,0,1,0,0)" style="stroke:none;fill:#000000;fill-rule:evenodd" d="M307.986206,182.13031L306.163696,182.13031L306.163696,192.997986L304.903687,192.997986L304.903687,182.13031L303.088745,182.13031L303.088745,180.997986L307.986206,180.997986L307.986206,182.13031z"/>
    <path transform="matrix(-1,0,0,1,0,0)" style="stroke:none;fill:#000000;fill-rule:evenodd" d="M318.561157,185.88031L319.011353,191.820496L319.431274,191.820496L319.888794,185.88031L320.616333,180.997986L323.248657,180.997986L323.248657,192.997986L321.966187,192.997986L321.966187,189.270447L322.131226,182.13031L321.516235,182.13031L320.743774,189.547791L320.173706,192.95282L318.298706,192.95282L317.691284,189.547791L316.926147,182.13031L316.303833,182.13031L316.476196,189.270447L316.476196,192.997986L315.201294,192.997986L315.201294,180.997986L317.826294,180.997986L318.561157,185.88031z"/>
    <path transform="matrix(-1,0,0,1,0,0)" style="stroke:none;fill:#000000;fill-rule:evenodd" d="M287.369263,180.900818L287.647827,180.9245C288.09314,180.951584,288.518799,181.117584,288.864868,181.399109C289.166412,181.706238,289.353363,182.107635,289.394409,182.536072C289.421356,182.717178,289.436188,182.899872,289.438843,183.082947C289.485046,185.786606,289.480408,188.49147,289.424927,191.195007C289.412231,191.648865,289.262146,192.088257,288.994507,192.455017C288.711395,192.770508,288.325043,192.974808,287.904907,193.031189C287.200348,193.16748,286.473022,193.123642,285.789917,192.903748C285.269257,192.70488,284.891052,192.246613,284.794556,191.697693C284.735626,191.440048,284.703461,191.177032,284.698608,190.912781C284.63205,188.208374,284.637329,185.503143,284.714478,182.799011C284.72934,182.343781,284.881256,181.903595,285.150269,181.536072C285.433624,181.223038,285.818726,181.02037,286.237183,180.96405C286.610718,180.898407,286.990723,180.877167,287.369263,180.900818zM286.781372,181.972351C286.570343,181.976547,286.366943,182.053635,286.206177,182.190369C286.072083,182.347885,285.991821,182.543854,285.976929,182.750183L285.958618,183.030457C285.863098,185.769547,285.869202,188.511002,285.976929,191.249695C285.985016,191.455048,286.066406,191.651031,286.206177,191.801697C286.371735,191.930023,286.572205,192.00473,286.781372,192.016052C287.119293,192.066025,287.464386,192.026642,287.782349,191.901794C287.947235,191.81395,288.067505,191.661072,288.114136,191.480164C288.161163,191.315125,288.185394,191.14444,288.186157,190.972839C288.268005,188.232513,288.260803,185.490173,288.164429,182.750183C288.153687,182.541611,288.069672,182.343216,287.927368,182.190369C287.762665,182.060684,287.562408,181.98465,287.353149,181.972351C287.163055,181.95314,286.971466,181.95314,286.781372,181.972351z"/>
    <path transform="matrix(-1,0,0,1,0,0)" style="stroke:none;fill:#000000;fill-rule:evenodd" d="M311.369263,180.900818C311.844543,180.902084,312.310425,181.033386,312.716431,181.280457C313.047546,181.526215,313.273132,181.888535,313.347534,182.294128C313.405334,182.553177,313.435944,182.817535,313.438843,183.082947C313.485016,185.786606,313.480377,188.49147,313.424927,191.195007C313.412231,191.648865,313.262146,192.088257,312.994507,192.455017C312.711395,192.770508,312.325043,192.974808,311.904907,193.031189C311.200348,193.16748,310.473022,193.123642,309.789917,192.903748C309.269257,192.704865,308.891052,192.246613,308.794556,191.697693C308.735504,191.440079,308.70343,191.177032,308.698853,190.912781C308.63208,188.208466,308.637268,185.503036,308.714478,182.799011C308.72934,182.343781,308.881256,181.903595,309.150269,181.536072C309.433624,181.223038,309.818726,181.02037,310.237183,180.96405C310.610718,180.898407,310.990723,180.877167,311.369263,180.900818zM310.781372,181.972351L310.54187,182.016052C310.285522,182.065536,310.082336,182.262009,310.024292,182.516541C309.97937,182.684113,309.957275,182.856979,309.958618,183.030457C309.863129,185.769547,309.869232,188.510986,309.976929,191.249695C309.985016,191.455048,310.066406,191.651031,310.206177,191.801697C310.371735,191.930023,310.572205,192.00473,310.781372,192.016052C311.119293,192.066025,311.464386,192.026642,311.782349,191.901794C311.947205,191.813934,312.067505,191.661072,312.114136,191.480164C312.161163,191.315125,312.185394,191.14444,312.186157,190.972839C312.268005,188.232513,312.260773,185.490173,312.164429,182.750183C312.153687,182.541611,312.069672,182.343216,311.927368,182.190369C311.762665,182.060684,311.562408,181.98465,311.353149,181.972351C311.163055,181.95314,310.971466,181.95314,310.781372,181.972351z"/>
</svg>
