0
SECTION
2
HEADER
9
$INSUNITS
70
4
9
$ACADVER
1
AC1014
9
$HANDSEED
5
FFFF
0
ENDSEC
0
SECTION
2
TABLES
0
TABLE
2
VPORT
5
8
100
AcDbSymbolTable
0
ENDTAB
0
TABLE
2
LTYPE
5
5
100
AcDbSymbolTable
70
3
0
LTYPE
5
14
100
AcDbSymbolTableRecord
100
AcDbLinetypeTableRecord
2
BYBLOCK
70
0
0
LTYPE
5
15
100
AcDbSymbolTableRecord
100
AcDbLinetypeTableRecord
2
BYLAYER
70
0
0
LTYPE
5
16
100
AcDbSymbolTableRecord
100
AcDbLinetypeTableRecord
2
DASHED
70
0
3
Dashed __ __ __ __ __ __ __ __ __ __ __ __ __ _
72
65
73
2
40
0.75
49
0.5
74
0
49
-0.25
74
0
0
ENDTAB
0
TABLE
2
LAYER
5
2
100
AcDbSymbolTable
70
3
0
LAYER
5
50
100
AcDbSymbolTableRecord
100
AcDbLayerTableRecord
2
0
70
0
6
CONTINUOUS
0
LAYER
5
51
100
AcDbSymbolTableRecord
100
AcDbLayerTableRecord
2
CUTOUTS
70
0
62
1
6
CONTINUOUS
0
LAYER
5
52
100
AcDbSymbolTableRecord
100
AcDbLayerTableRecord
2
PERIMETER
70
0
62
5
6
CONTINUOUS
0
ENDTAB
0
TABLE
2
STYLE
5
3
100
AcDbSymbolTable
70
1
0
STYLE
5
11
100
AcDbSymbolTableRecord
100
AcDbTextStyleTableRecord
2
STANDARD
70
0
0
ENDTAB
0
TABLE
2
VIEW
5
6
100
AcDbSymbolTable
0
ENDTAB
0
TABLE
2
UCS
5
7
100
AcDbSymbolTable
0
ENDTAB
0
TABLE
2
APPID
5
9
100
AcDbSymbolTable
70
1
0
APPID
5
12
100
AcDbSymbolTableRecord
100
AcDbRegAppTableRecord
2
ACAD
70
0
0
ENDTAB
0
TABLE
2
DIMSTYLE
5
A
100
AcDbSymbolTable
0
ENDTAB
0
TABLE
2
BLOCK_RECORD
5
1
100
AcDbSymbolTable
70
2
0
BLOCK_RECORD
5
1F
100
AcDbSymbolTableRecord
100
AcDbBlockTableRecord
2
*MODEL_SPACE
0
BLOCK_RECORD
5
1B
100
AcDbSymbolTableRecord
100
AcDbBlockTableRecord
2
*PAPER_SPACE
0
ENDTAB
0
ENDSEC
0
SECTION
2
BLOCKS
0
BLOCK
5
20
100
AcDbEntity
100
AcDbBlockBegin
2
*MODEL_SPACE
0
ENDBLK
5
21
100
AcDbEntity
100
AcDbBlockEnd
0
BLOCK
5
1C
100
AcDbEntity
100
AcDbBlockBegin
2
*PAPER_SPACE
0
ENDBLK
5
1D
100
AcDbEntity
100
AcDbBlockEnd
0
ENDSEC
0
SECTION
2
ENTITIES
0
LWPOLYLINE
5
100
100
AcDbEntity
8
CUTOUTS
100
AcDbPolyline
90
8
70
1
43
0.0
10
-127.48514217408811
20
36.803685254618095
42
0.11314535776613448
10
-130.78454012913636
20
36.047380007591229
10
-132.43347794137156
20
36.047380007591237
42
-0.15824328922292485
10
-127.48514217408811
20
37.65368525461809
10
127.48514217408812
20
37.65368525461809
42
-0.15824328922292438
10
132.43347794137156
20
36.047380007591229
10
130.78454012913636
20
36.047380007591229
42
0.11314535776613442
10
127.48514217408811
20
36.803685254618088
0
LWPOLYLINE
5
101
100
AcDbEntity
8
CUTOUTS
100
AcDbPolyline
90
4
70
1
43
0.0
10
-130.07499999999996
20
-47.477372157241277
42
0.99999999999999989
10
-131.92499999999993
20
-47.477372157241291
10
-131.92499999999993
20
-56.477372157241277
42
0.99999999999999989
10
-130.07499999999996
20
-56.477372157241263
0
LWPOLYLINE
5
102
100
AcDbEntity
8
CUTOUTS
100
AcDbPolyline
90
4
70
1
43
0.0
10
-130.07499999999996
20
-12.477372157241273
42
0.99999999999999989
10
-131.92499999999993
20
-12.477372157241282
10
-131.92499999999993
20
-21.477372157241277
42
0.99999999999999989
10
-130.07499999999996
20
-21.47737215724127
0
LWPOLYLINE
5
103
100
AcDbEntity
8
CUTOUTS
100
AcDbPolyline
90
4
70
1
43
0.0
10
130.07499999999996
20
-56.477372157241277
10
130.07499999999996
20
-47.477372157241291
42
-0.99999999999999989
10
131.92499999999993
20
-47.477372157241277
10
131.92499999999993
20
-56.477372157241263
42
-0.99999999999999989
0
LWPOLYLINE
5
104
100
AcDbEntity
8
CUTOUTS
100
AcDbPolyline
90
4
70
1
43
0.0
10
130.07499999999996
20
-21.477372157241277
42
0.99999999999999989
10
131.92499999999993
20
-21.47737215724127
10
131.92499999999993
20
-12.477372157241273
42
0.99999999999999989
10
130.07499999999996
20
-12.477372157241282
0
LWPOLYLINE
5
105
100
AcDbEntity
8
CUTOUTS
100
AcDbPolyline
90
8
70
1
43
0.0
10
130.25688236703868
20
-99.952619992408785
10
132.59224934911563
20
-99.952619992408785
42
-0.16086359264002748
10
127.48514217408811
20
-101.63936322434458
10
-127.48514217408811
20
-101.63936322434459
42
-0.16086359264002792
10
-132.59224934911566
20
-99.952619992408785
10
-130.25688236703868
20
-99.952619992408785
42
0.095933142514894224
10
-127.48514217408812
20
-100.48936322434457
10
127.48514217408811
20
-100.48936322434457
42
0.095933142514895417
0
LWPOLYLINE
5
106
100
AcDbEntity
8
CUTOUTS
100
AcDbPolyline
90
8
70
1
43
0.0
10
135.0601421740881
20
-93.064363224344575
10
135.06014217408813
20
29.228685254618085
42
0.14909575337828654
10
133.77098367855635
20
33.455838147606968
10
133.77098367855635
20
34.838393052775153
42
-0.18419677409558052
10
135.91014217408809
20
29.228685254618092
10
135.91014217408812
20
-93.064363224344575
42
-0.18419677409558166
10
133.77098367855635
20
-98.674071022501678
10
133.77098367855635
20
-97.291516117333458
42
0.14909575337828704
0
LWPOLYLINE
5
107
100
AcDbEntity
8
CUTOUTS
100
AcDbPolyline
90
8
70
1
43
0.0
10
-133.62098367855634
20
-97.245520245079987
10
-133.62098367855634
20
-99.054527999377484
42
-0.19579214481120136
10
-136.0601421740881
20
-93.064363224344575
10
-136.06014217408816
20
29.2286852546181
42
-0.19579214481120114
10
-133.62098367855634
20
35.218850029651016
10
-133.62098367855634
20
33.409842275353505
42
0.15066347180448625
10
-134.91014217408812
20
29.2286852546181
10
-134.91014217408809
20
-93.064363224344575
42
0.15066347180448666
0
LWPOLYLINE
5
108
100
AcDbEntity
8
PERIMETER
100
AcDbPolyline
90
8
70
1
43
0.0
10
-137.56014217408816
20
29.228685254618085
10
-137.56014217408813
20
-93.064363224344575
42
0.41421356237309503
10
-127.48514217408811
20
-103.13936322434458
10
127.48514217408811
20
-103.13936322434458
42
0.41421356237309503
10
137.56014217408813
20
-93.064363224344575
10
137.56014217408813
20
29.228685254618085
42
0.41421356237309415
10
127.48514217408811
20
39.30368525461806
10
-127.48514217408811
20
39.303685254618102
42
0.41421356237309415
0
ENDSEC
0
SECTION
2
OBJECTS
0
DICTIONARY
5
C
100
AcDbDictionary
3
ACAD_GROUP
350
D
3
ACAD_MLINESTYLE
350
17
0
DICTIONARY
5
D
100
AcDbDictionary
0
DICTIONARY
5
1A
330
C
100
AcDbDictionary
0
DICTIONARY
5
17
100
AcDbDictionary
0
ENDSEC
0
EOF
