0
SECTION
2
HEADER
9
$INSUNITS
70
4
9
$ACADVER
1
AC1014
9
$HANDSEED
5
FFFF
0
ENDSEC
0
SECTION
2
TABLES
0
TABLE
2
VPORT
5
8
100
AcDbSymbolTable
0
ENDTAB
0
TABLE
2
LTYPE
5
5
100
AcDbSymbolTable
70
3
0
LTYPE
5
14
100
AcDbSymbolTableRecord
100
AcDbLinetypeTableRecord
2
BYBLOCK
70
0
0
LTYPE
5
15
100
AcDbSymbolTableRecord
100
AcDbLinetypeTableRecord
2
BYLAYER
70
0
0
LTYPE
5
16
100
AcDbSymbolTableRecord
100
AcDbLinetypeTableRecord
2
DASHED
70
0
3
Dashed __ __ __ __ __ __ __ __ __ __ __ __ __ _
72
65
73
2
40
0.75
49
0.5
74
0
49
-0.25
74
0
0
ENDTAB
0
TABLE
2
LAYER
5
2
100
AcDbSymbolTable
70
3
0
LAYER
5
50
100
AcDbSymbolTableRecord
100
AcDbLayerTableRecord
2
0
70
0
6
CONTINUOUS
0
LAYER
5
51
100
AcDbSymbolTableRecord
100
AcDbLayerTableRecord
2
CUTOUTS
70
0
62
1
6
CONTINUOUS
0
LAYER
5
52
100
AcDbSymbolTableRecord
100
AcDbLayerTableRecord
2
PERIMETER
70
0
62
5
6
CONTINUOUS
0
ENDTAB
0
TABLE
2
STYLE
5
3
100
AcDbSymbolTable
70
1
0
STYLE
5
11
100
AcDbSymbolTableRecord
100
AcDbTextStyleTableRecord
2
STANDARD
70
0
0
ENDTAB
0
TABLE
2
VIEW
5
6
100
AcDbSymbolTable
0
ENDTAB
0
TABLE
2
UCS
5
7
100
AcDbSymbolTable
0
ENDTAB
0
TABLE
2
APPID
5
9
100
AcDbSymbolTable
70
1
0
APPID
5
12
100
AcDbSymbolTableRecord
100
AcDbRegAppTableRecord
2
ACAD
70
0
0
ENDTAB
0
TABLE
2
DIMSTYLE
5
A
100
AcDbSymbolTable
0
ENDTAB
0
TABLE
2
BLOCK_RECORD
5
1
100
AcDbSymbolTable
70
2
0
BLOCK_RECORD
5
1F
100
AcDbSymbolTableRecord
100
AcDbBlockTableRecord
2
*MODEL_SPACE
0
BLOCK_RECORD
5
1B
100
AcDbSymbolTableRecord
100
AcDbBlockTableRecord
2
*PAPER_SPACE
0
ENDTAB
0
ENDSEC
0
SECTION
2
BLOCKS
0
BLOCK
5
20
100
AcDbEntity
100
AcDbBlockBegin
2
*MODEL_SPACE
0
ENDBLK
5
21
100
AcDbEntity
100
AcDbBlockEnd
0
BLOCK
5
1C
100
AcDbEntity
100
AcDbBlockBegin
2
*PAPER_SPACE
0
ENDBLK
5
1D
100
AcDbEntity
100
AcDbBlockEnd
0
ENDSEC
0
SECTION
2
ENTITIES
0
CIRCLE
5
100
100
AcDbEntity
8
CUTOUTS
100
AcDbCircle
10
154.38454725551887
20
-131.15251473326794
30
-8.1712414612411521e-13
40
3.3124999999999893
210
0
220
0
230
1
0
LWPOLYLINE
5
101
100
AcDbEntity
8
CUTOUTS
100
AcDbPolyline
90
40
70
1
43
0.0
10
244.62326555803008
20
-135.16676873785866
10
244.32326555803007
20
-135.16676873785863
42
-0.41421356237308671
10
243.69826555803007
20
-134.54176873785866
10
243.69826555803007
20
-134.31096864924459
10
243.27440413607417
20
-134.19743383163808
10
242.75308026344061
20
-133.95427305623369
10
242.28193621743793
20
-133.62440695570959
10
241.87522567127789
20
-133.21768708560307
10
241.54535835866196
20
-132.74653198430292
10
241.30218798556595
20
-132.22522617296099
10
241.15337831282463
20
-131.66970735705075
10
241.10323357095791
20
-131.09667920515349
10
241.15337831282463
20
-130.52365105325637
10
241.30218798556595
20
-129.96813223734611
10
241.5453585071796
20
-129.44682610761379
10
241.8752256712915
20
-128.97566189434838
10
242.28193621746277
20
-128.56895134817711
10
242.75308026351951
20
-128.23907592356915
10
243.27440359989237
20
-127.99592472228979
10
243.84106659523155
20
-127.84413931204107
42
-0.22394081379644282
10
244.32326555803007
20
-127.61676873785866
10
244.62326555803008
20
-127.61676873785868
42
-0.24880732810610282
10
245.14072766811199
20
-127.89125773285369
10
245.53148267974194
20
-127.99592472228979
10
246.0528060161148
20
-128.23907592356915
10
246.52395006217151
20
-128.56895134817711
10
246.93066060834281
20
-128.97566189434838
10
247.26052777245471
20
-129.44682610761379
10
247.50369829406836
20
-129.96813223734614
10
247.65250796680971
20
-130.5236510532564
10
247.7026527086764
20
-131.09667920515361
10
247.65250796680965
20
-131.66970735705073
10
247.50369829406836
20
-132.22522617296102
10
247.26052792097235
20
-132.74653198430292
10
246.93066060835639
20
-133.21768708560305
10
246.52395006219635
20
-133.62440695570962
10
246.0528060161937
20
-133.95427305623369
10
245.53148214356014
20
-134.19743383163808
10
245.24826555803006
20
-134.27329575658729
10
245.24826555803008
20
-134.54176873785866
42
-0.41421356237308671
0
LWPOLYLINE
5
102
100
AcDbEntity
8
CUTOUTS
100
AcDbPolyline
90
42
70
1
43
0.0
10
312.96138409524394
20
-97.880470858275558
10
313.00883969442305
20
-98.423053371260565
10
312.96138406609555
20
-98.965654842170423
10
312.82035674378119
20
-99.491778761134981
10
312.59022731272023
20
-99.985413468227833
10
312.2778577463755
20
-100.43158120799377
10
311.89262341901917
20
-100.81673172397544
10
311.4464822272181
20
-101.12913672024646
10
310.95289153563027
20
-101.35932818325603
10
310.64826555802972
20
-101.44094637881209
10
310.64826555802972
20
-101.54176873785859
42
-0.41421356237308671
10
310.02326555802972
20
-102.16676873785858
10
309.72326555802971
20
-102.16676873785859
42
-0.41421356237309503
10
309.09826555802971
20
-101.54176873785859
10
309.09826555802971
20
-101.43512508375397
10
308.81536657017557
20
-101.35932818325601
10
308.32177453521081
20
-101.12913609374779
10
307.87560147876013
20
-100.81673486806842
10
307.49051450230371
20
-100.43158270470846
10
307.17802810984108
20
-99.98540771258574
10
306.94790136202482
20
-99.491778761135095
10
306.80687403971041
20
-98.965654842170522
10
306.75941841138285
20
-98.42305337126038
10
306.80687401056201
20
-97.880470858275643
10
306.94790150338082
20
-97.354346303218264
10
307.17802826646886
20
-96.860698694311822
10
307.49051397822103
20
-96.414533986487342
10
307.87560147873387
20
-96.029390611409639
10
308.32177501483318
20
-95.716979737535468
10
308.81536600464284
20
-95.486788135446858
10
309.09826555802971
20
-95.410996090497918
10
309.09826555802971
20
-95.241768737858607
42
-0.41421356237308671
10
309.72326555802971
20
-94.616768737858621
10
310.02326555802972
20
-94.616768737858607
42
-0.41421356237309503
10
310.64826555802972
20
-95.241768737858607
10
310.64826555802972
20
-95.405175179988305
10
310.95289210116312
20
-95.486788135446886
10
311.44648174758044
20
-95.716979111029701
10
311.89262341895221
20
-96.02939375558131
10
312.27785827043056
20
-96.414535483183371
10
312.59022715615077
20
-96.860692938577557
10
312.82035660242502
20
-97.354346303218193
0
LWPOLYLINE
5
103
100
AcDbEntity
8
CUTOUTS
100
AcDbPolyline
90
40
70
1
43
0.0
10
57.75308958756942
20
-121.9542749635367
10
57.281926183833221
20
-121.62440836618494
10
56.875215424874128
20
-121.21768828327447
10
56.545330427770175
20
-120.74653455832647
10
56.302188733590206
20
-120.22522093853524
10
56.153387571585512
20
-119.6696990867751
10
56.103224251683848
20
-119.09668105928894
10
56.153387585406122
20
-118.52365354988933
10
56.302188733590206
20
-117.96813174972591
10
56.545330427770175
20
-117.4468181299347
10
56.875215424874106
20
-116.97566440498673
10
57.281926183833221
20
-116.56894432207623
10
57.753089132854257
20
-116.23907804307547
10
58.274395243296937
20
-115.9959261785052
10
58.841080187112766
20
-115.84412282995453
42
-0.22393183987331775
10
59.323265558030378
20
-115.61676873785885
10
59.62326555803039
20
-115.61676873785886
42
-0.24880274501902491
10
60.140721616932431
20
-115.89124879961631
10
60.531491180001787
20
-115.99592624551403
10
61.052796828385205
20
-116.23907789456682
10
61.523950665449092
20
-116.56894432205976
10
61.930670748355105
20
-116.97566440496578
10
62.26054610301621
20
-117.44681767516508
10
62.503688259436359
20
-117.96813228603312
10
62.652498587950973
20
-118.52365354999934
10
62.702652597624741
20
-119.09668105929865
10
62.652498601769892
20
-119.66969908667463
10
62.503688259436359
20
-120.22522040222803
10
62.260546103016232
20
-120.74653501309609
10
61.930670748355141
20
-121.21768828329535
10
61.523950665449092
20
-121.62440836620138
10
61.052796373672635
20
-121.95427511204984
10
60.531491180109917
20
-122.19743587296777
10
60.24826555803039
20
-122.27330021843215
10
60.248265558030411
20
-122.54176873785883
42
-0.41421356237308671
10
59.62326555803039
20
-123.16676873785883
10
59.323265558030378
20
-123.16676873785882
42
-0.41421356237308671
10
58.698265558030378
20
-122.54176873785883
10
58.6982655580304
20
-122.31097504527561
10
58.274395243180408
20
-122.19743593997522
0
LWPOLYLINE
5
104
100
AcDbEntity
8
CUTOUTS
100
AcDbPolyline
90
40
70
1
43
0.0
10
-39.676734441969408
20
-103.16676873785902
10
-39.976734441969406
20
-103.16676873785902
42
-0.41421356237309709
10
-40.601734441969406
20
-102.54176873785897
10
-40.601734441969398
20
-102.39059259950434
10
-41.012271714599535
20
-102.28059650046191
10
-41.533557740538676
20
-102.03750124990233
10
-42.004719594642722
20
-101.70758911731778
10
-42.411432376148028
20
-101.30088565981019
10
-42.741334140222051
20
-100.82972529741723
10
-42.984415684877547
20
-100.30843867082393
10
-43.133278243980158
20
-99.752857921916103
10
-43.183418056324783
20
-99.179870123122242
10
-43.133278243980165
20
-98.606882324328467
10
-42.984415684877547
20
-98.051301575420595
10
-42.741334140222037
20
-97.530014948827315
10
-42.411432127710711
20
-97.058854231620174
10
-42.004719594640925
20
-96.652141698550366
10
-41.533558650052242
20
-96.322239526828781
10
-41.012271714596835
20
-96.079153176140892
10
-40.529317260546975
20
-95.949746087003177
42
-0.27800579752503229
10
-39.976734441969406
20
-95.616768737859019
10
-39.676734441969401
20
-95.616768737859019
42
-0.29493696271319508
10
-39.10696856201627
20
-95.984879964182113
10
-38.755135691680877
20
-96.079153176140892
10
-38.233848756225406
20
-96.322239526828795
10
-37.762687811636752
20
-96.652141698550409
10
-37.355974923758723
20
-97.058854586428424
10
-37.026063835682983
20
-97.530014948824004
10
-36.782991490012634
20
-98.051301843537658
10
-36.634115016734896
20
-98.606882324324729
10
-36.583989190390611
20
-99.179870123122271
10
-36.634115016734896
20
-99.752857921919798
10
-36.782991490012634
20
-100.30843840270686
10
-37.02606383568299
20
-100.82972529742054
10
-37.355974675316979
20
-101.30088530500566
10
-37.762687811634954
20
-101.70758911731775
10
-38.233849665739001
20
-102.03750124990233
10
-38.755135691678163
20
-102.28059650046193
10
-39.051734441969408
20
-102.36006481597899
10
-39.051734441969401
20
-102.54176873785902
42
-0.41421356237308049
0
LWPOLYLINE
5
105
100
AcDbEntity
8
CUTOUTS
100
AcDbPolyline
90
36
70
1
43
0.0
10
216.24490858570508
20
-136.28062965810813
10
215.68927332370953
20
-136.42943122788574
10
215.11634811041318
20
-136.47958526105828
10
214.54330911412484
20
-136.4294310620763
10
213.98767797344138
20
-136.28063059600422
10
213.4665077033805
20
-136.03748120601838
10
212.99534097491372
20
-135.70760295686088
10
212.58860745244328
20
-135.30087875843617
10
212.25863221798994
20
-134.82972932152856
10
212.01559260530155
20
-134.30843331501444
10
211.86667077184521
20
-133.75290415403509
10
211.81663790487511
20
-133.1798758451682
10
211.86667075804786
20
-132.60684769432282
10
212.01559260529831
20
-132.05132780581903
10
212.25863236647737
20
-131.53002215679263
10
212.58860720397291
20
-131.05887328667433
10
212.99534097493407
20
-130.65215816381598
10
213.46650815811699
20
-130.32227027216294
10
213.98767797344138
20
-130.07912109433215
10
214.54330911412484
20
-129.93032062826009
10
215.11634811041318
20
-129.88016642927812
10
215.68927332370953
20
-129.93032046245065
10
216.24490858570508
20
-130.07912203222827
10
216.76621074631154
20
-130.32227205448356
10
217.23735531646892
20
-130.65215717010142
10
217.64406717557381
20
-131.05886902920631
10
217.97394857032504
20
-131.53001760914341
10
218.21699045167986
20
-132.05132780581903
10
218.36591419495176
20
-132.60685476700985
10
218.41605831780731
20
-133.17987584516817
10
218.36591418112403
20
-133.75289708134278
10
218.21699045167665
20
-134.30843331501436
10
217.97394871878259
20
-134.82973386916049
10
217.64406692714826
20
-135.30088301594046
10
217.23735531649041
20
-135.70760395056922
10
216.7662112010791
20
-136.03747942373639
0
LWPOLYLINE
5
106
100
AcDbEntity
8
CUTOUTS
100
AcDbPolyline
90
90
70
1
43
0.0
10
174.32326555803024
20
-105.61676873785876
10
174.6232655580302
20
-105.61676873785876
42
-0.24671654500353815
10
175.13794980184502
20
-105.88719134268429
42
-0.022754144574799504
10
175.42654570535831
20
-105.96784245779335
10
175.53148239158941
20
-105.9959638974582
10
175.63679387410619
20
-106.04506919973117
42
-0.025153213186899545
10
175.93697379346401
20
-106.18503898578011
10
176.05280828959425
20
-106.23905102521044
10
176.16522974239155
20
-106.31776829062557
42
-0.022037777012938506
10
176.40297233059482
20
-106.48423515215775
10
176.5239500621114
20
-106.56894350598284
10
176.6362387381688
20
-106.68122703378152
42
-0.018865104001358979
10
176.81194337128215
20
-106.85692361111384
10
176.9306801786517
20
-106.97565497458783
10
177.03396967367615
20
-107.12318803927747
42
-0.015800371310867856
10
177.15333921216953
20
-107.29368895846876
10
177.26054650623041
20
-107.44681799299497
10
177.34515702698445
20
-107.62821246321147
42
-0.01281267066856665
10
177.41650886556465
20
-107.78118196207429
10
177.5036976717808
20
-107.96810395678017
10
177.56022752909598
20
-108.17915938333644
42
-0.010288443114750389
10
177.59529656923002
20
-108.31009039176179
10
177.65250792535167
20
-108.52369020863028
10
177.67238763989869
20
-108.75085050949858
42
-0.0089453550519714067
10
177.68266229840933
20
-108.86825634613712
10
177.70265266677859
20
-109.09668105930153
10
177.68266359019779
20
-109.32508729471422
42
-0.0089488896891692527
10
177.67238470645094
20
-109.44253950074108
10
177.65250793916832
20
-109.66966242804618
10
177.59532517887709
20
-109.88315548177214
42
-0.010306632239723031
10
177.56019415271081
20
-110.01431791637035
10
177.50369767178083
20
-110.22524873148099
10
177.41657164161757
20
-110.41203614210913
42
-0.012836536063492702
10
177.34508694398812
20
-110.5652904743078
10
177.26054650623044
20
-110.74653469526612
10
177.15343389133974
20
-110.89952849524502
42
-0.015826635053475126
10
177.03386603333229
20
-111.07031268318229
10
176.93068017865164
20
-111.21769771367339
10
176.81206485362679
20
-111.33630760037218
42
-0.018892233989690779
10
176.63610771909282
20
-111.51225666754861
10
176.52394970728454
20
-111.62440953708895
10
176.40307607550892
20
-111.70904739260999
42
-0.022050999916557939
10
176.16519318973837
20
-111.87561719795968
10
176.05280783481319
20
-111.95431141185209
10
175.93697379347205
20
-112.00832323922022
42
-0.025153213187358359
10
175.63679387410818
20
-112.14829302527222
10
175.53148239158946
20
-112.19739832754614
10
175.42654570535259
20
-112.22551976721289
42
-0.014122112858642125
10
175.2482655580302
20
-112.27867547444633
10
175.24826555803025
20
-112.54176873785872
42
-0.41421356237309503
10
174.6232655580302
20
-113.16676873785873
10
174.32326555803019
20
-113.16676873785872
42
-0.41421356237307838
10
173.69826555803019
20
-112.54176873785875
10
173.69826555803024
20
-112.31580773411117
42
-0.030008984191720774
10
173.31791896116331
20
-112.20905970687093
10
173.27440388804513
20
-112.19739832754613
10
173.23553851466363
20
-112.17927593611986
42
-0.038068365319826991
10
172.78159882812943
20
-111.96761007606055
10
172.75307844482137
20
-111.95431141185205
10
172.72837396021575
20
-111.93701289464811
42
-0.039930833682764684
10
172.29808273231171
20
-111.63571536395956
10
172.28193657235005
20
-111.62440953708895
10
172.26849210158178
20
-111.61096568272852
42
-0.041510164088815013
10
171.88240498641537
20
-111.2248962690482
10
171.87520610098292
20
-111.21769771367342
10
171.86953874280431
20
-111.20960276925942
42
-0.042816495864551156
10
171.54657757295396
20
-110.74830270043493
10
171.54533977340429
20
-110.74653469526645
10
171.54444708811411
20
-110.74462088863355
42
-0.043391927100993877
10
171.30282873468286
20
-110.22763865863523
42
-0.0003768894153927053
10
171.30112726733995
20
-110.22297334895605
42
-0.17627694320414147
10
171.30114304537204
20
-107.97034551315855
42
-0.00037127483037479475
10
171.30281917845099
20
-107.96574970802196
42
-0.043390534787824203
10
171.54442400311976
20
-107.44878129098785
10
171.54533977340404
20
-107.44681799299515
10
171.54660966141731
20
-107.44500415442059
42
-0.042806763994539011
10
171.8694976931653
20
-106.98380855206091
10
171.87520610098292
20
-106.9756549745878
10
171.88245756648064
20
-106.9684038415582
42
-0.041497789901657402
10
172.26842998478196
20
-106.58244911948442
10
172.28193621752311
20
-106.5689435059829
10
172.29815488189683
20
-106.55758723121131
42
-0.039923253427050491
10
172.72836868588055
20
-106.25635242814889
10
172.75307799004037
20
-106.23905102521043
10
172.78159882813384
20
-106.22575214894171
42
-0.038068365319687679
10
173.23553851466539
20
-106.01408628888365
10
173.27440388804519
20
-105.99596389745818
10
173.31791896116715
20
-105.98430251813234
42
-0.035909335215726201
10
173.77434583460587
20
-105.86198704159223
10
173.84110091892651
20
-105.84409769189489
42
-0.22391815265288081
0
LWPOLYLINE
5
107
100
AcDbEntity
8
CUTOUTS
100
AcDbPolyline
90
40
70
1
43
0.0
10
-11.301734441969442
20
-100.5417687378589
10
-11.301734441969433
20
-100.31098019039644
10
-11.725634480232916
20
-100.19739050295124
10
-12.246921798603712
20
-99.954313297722535
10
-12.71808211102158
20
-99.624411568640582
10
-13.124789928907967
20
-99.217699088758749
10
-13.454692224847404
20
-98.746537966764194
10
-13.69777863356096
20
-98.225250906875559
10
-13.846650275359265
20
-97.669661734556257
10
-13.8967761366498
20
-97.096673536288563
10
-13.846650289176274
20
-96.523694819967275
10
-13.69777863356096
20
-95.968105596082893
10
-13.454692224847395
20
-95.446818536194201
10
-13.124789928907958
20
-94.975657414199645
10
-12.718082288427421
20
-94.568945111725725
10
-12.246921571221581
20
-94.239047761218742
10
-11.725634480225571
20
-93.995961337999233
10
-11.158908422599257
20
-93.844109018496283
42
-0.22392431984608449
10
-10.676734441969433
20
-93.616768737858948
10
-10.376734441969448
20
-93.616768737858948
42
-0.24880466949618679
10
-9.8592758421052764
20
-93.891252550748277
10
-9.4684935452538728
20
-93.995961337999205
10
-8.9472064542578629
20
-94.239047761218728
10
-8.4760457370520044
20
-94.568945111725725
10
-8.0693377417654073
20
-94.975657769009786
10
-7.7394263702537911
20
-95.446818536192453
10
-7.4963495356065843
20
-95.968105059838649
10
-7.3474777363031505
20
-96.523694819967275
10
-7.2973518888296161
20
-97.096673536288577
10
-7.3474777501201514
20
-97.669661734556286
10
-7.4963495356065755
20
-98.225251443119788
10
-7.7394263702538
20
-98.746537966765999
10
-8.0693377417654162
20
-99.217698733948666
10
-8.4760459144578544
20
-99.624411568640582
10
-8.947206226875732
20
-99.954313297722564
10
-9.4684935452465009
20
-100.19739050295124
10
-9.7517344419694503
20
-100.27328869126528
10
-9.7517344419694396
20
-100.54176873785892
42
-0.41421356237306589
10
-10.376734441969448
20
-101.16676873785892
10
-10.676734441969451
20
-101.16676873785892
42
-0.41421356237307005
0
LWPOLYLINE
5
108
100
AcDbEntity
8
CUTOUTS
100
AcDbPolyline
90
40
70
1
43
0.0
10
27.015584100283931
20
-122.30842686468981
10
26.866726601501234
20
-121.75290354633884
10
26.816591389997548
20
-121.17987775251677
10
26.866726601501234
20
-120.60685195869479
10
27.015584100283931
20
-120.05132864034381
10
27.258670617417302
20
-119.53002269991472
10
27.588572640656317
20
-119.0588712913937
10
27.995283470425314
20
-118.65215113767169
10
28.466486719934309
20
-118.32227343139539
10
28.987686903195147
20
-118.07912313570002
10
29.470666448229164
20
-117.94977691631793
42
-0.27802082317597437
10
30.023265558030438
20
-117.61676873785893
10
30.32326555803045
20
-117.61676873785893
42
-0.29494326269731114
10
30.89303739334315
20
-117.98489317326704
10
31.244889475107016
20
-118.07912387259358
10
31.76620187642267
20
-118.32227432244265
10
32.237346134559559
20
-118.6521498955403
10
32.644066820742815
20
-119.05887058172355
10
32.973939458377799
20
-119.53001997125783
10
33.216999775852692
20
-120.05132971308771
10
33.36590471302258
20
-120.6068560848211
10
33.416058211412263
20
-121.17987775251683
10
33.36590471302258
20
-121.75289942021259
10
33.216999775852713
20
-122.30842579194584
10
32.973939458377799
20
-122.82973553377576
10
32.644066820742815
20
-123.30088492331004
10
32.237346489400103
20
-123.70760525465275
10
31.766201876494861
20
-124.03747175208719
10
31.244888938910755
20
-124.28063177604054
10
30.948265558030428
20
-124.36007148967485
10
30.94826555803045
20
-124.54176873785894
42
-0.41421356237309503
10
30.32326555803045
20
-125.16676873785894
10
30.023265558030438
20
-125.16676873785894
42
-0.41421356237308671
10
29.398265558030438
20
-124.54176873785896
10
29.398265558030438
20
-124.39058898614682
10
28.987687439470065
20
-124.28063251295279
10
28.466486719978505
20
-124.0374726431229
10
27.995283115601197
20
-123.70760401252966
10
27.588572640656281
20
-123.30088421363988
10
27.25867061741728
20
-122.82973280511888
0
LWPOLYLINE
5
109
100
AcDbEntity
8
CUTOUTS
100
AcDbPolyline
90
40
70
1
43
0.0
10
145.32326555803027
20
-115.16676873785883
10
145.02326555803026
20
-115.16676873785882
42
-0.41421356237308671
10
144.39826555803026
20
-114.54176873785883
10
144.39826555803026
20
-114.39059213719713
10
143.98769579662564
20
-114.280594717482
10
143.46648750833683
20
-114.03751025801907
10
142.99534324589013
20
-113.70758806165229
10
142.58862606487105
20
-113.30088020473181
10
142.25863179397712
20
-112.8297208891573
10
142.01559330637943
20
-112.30843661981754
10
141.86668933014371
20
-111.75286721317981
10
141.81661928863602
20
-111.17986826889396
10
141.86668933014352
20
-110.60687864864047
10
142.01559337338691
20
-110.05129966800783
10
142.25863179397714
20
-109.53001554238992
10
142.58862631335259
20
-109.05885587203842
10
142.99534289107325
20
-108.65213929431776
10
143.46648659883988
20
-108.32223613444842
10
143.98769633282814
20
-108.0791510007309
10
144.47068400151585
20
-107.94974369886367
42
-0.27800463357544469
10
145.02326555803026
20
-107.61676873785885
10
145.32326555803027
20
-107.61676873785882
42
-0.2949349325432587
10
145.89302951879912
20
-107.98487570757391
10
146.2449080856945
20
-108.07915167077451
10
146.7661941591185
20
-108.32223761948018
10
147.2373551037071
20
-108.65213979120176
10
147.64406692713939
20
-109.05885161463404
10
147.97394871878231
20
-109.5300100853887
10
148.21698968359146
20
-110.05129966800781
10
148.36589530659234
20
-110.60688454290644
10
148.41605807238639
20
-111.17986826899207
10
148.36589530659234
20
-111.75286131901196
10
148.21698975059897
20
-112.30843661981754
10
147.97394871878231
20
-112.82972634615859
10
147.64406717556787
20
-113.30088446209167
10
147.23735474890395
20
-113.70758756476597
10
146.76619324960765
20
-114.03750877293307
10
146.24490862189288
20
-114.28059404747611
10
145.94826555803027
20
-114.3600662335844
10
145.94826555803027
20
-114.54176873785885
42
-0.41421356237307838
0
LWPOLYLINE
5
10A
100
AcDbEntity
8
PERIMETER
100
AcDbPolyline
90
93
70
1
43
0.0
10
-64.322011533559561
20
-142.7795156321119
10
-63.557761344380701
20
-143.54380314660165
10
-62.692520909084415
20
-144.19153198520337
10
-61.743912594368453
20
-144.70947309790569
10
-60.731237253566199
20
-145.08721574596476
10
-59.67512506913522
20
-145.31689905725904
10
-58.599744257486975
20
-145.39387196943574
10
316.17388846557265
20
-145.39387196943576
10
317.12131733350139
20
-145.31928673402922
10
318.04828547069883
20
-145.09672786047068
10
318.92897898376367
20
-144.73191271065721
10
319.74184878824752
20
-144.23383924290619
10
320.4667295473331
20
-143.6146758940416
10
321.08589289619744
20
-142.88979513495636
10
321.5839663639486
20
-142.07692533047219
10
321.94878158205597
20
-141.1962316525404
10
322.17134039432301
20
-140.26924445798915
10
322.2459256227271
20
-139.3218253053949
10
322.2459256227271
20
-81.315913924818389
10
322.17134039432301
20
-80.3684755194557
10
321.94878173571846
20
-79.441508277551549
10
321.5839665167922
20
-78.560751831657555
10
321.08589263680551
20
-77.747924807911573
10
320.46672935857322
20
-77.023019990716705
10
319.74184878822092
20
-76.403890600177547
10
318.92898018804152
20
-75.90578407324287
10
318.04828495568518
20
-75.540963383075365
10
317.12131585153213
20
-75.318423590018241
10
316.17388770705543
20
-75.243857664321055
10
299.14582949235603
20
-75.243857664321055
10
299.14582949235614
20
-110.3155898966325
10
299.13778543743729
20
-110.40759124836757
42
-0.91020990237763133
10
298.19076306787997
20
-111.24385671064672
10
297.17412043308707
20
-111.24385671064672
10
297.06861746079858
20
-111.23463620494384
42
-1.0694741698796841
10
296.24582644059831
20
-110.27227830973604
10
296.24582644059831
20
-99.315578070332506
10
296.22974811794984
20
-99.132138109739842
10
296.18130423766922
20
-98.951088849292262
10
296.1020471840705
20
-98.781201026716843
10
295.99450452081396
20
-98.627679978444789
10
295.86201798844451
20
-98.495142174197539
10
295.70847379570148
20
-98.387624319754707
10
295.53857379547014
20
-98.308427210762261
10
295.35748323623005
20
-98.259903964651045
10
295.17411566845465
20
-98.243864340041242
10
56.634693138543604
20
-98.243864340041227
10
55.060068662951302
20
-98.216251881901513
10
53.488100250420068
20
-98.133553783497774
10
51.919912460398933
20
-97.995825249456644
10
50.357617849228021
20
-97.80323758281375
10
48.803015868202564
20
-97.556047832235834
10
47.258001528242247
20
-97.25453215760416
10
45.724459426748048
20
-96.899071280733665
10
44.204294309242165
20
-96.490103287206722
10
42.699506546644493
20
-96.028161663858214
10
41.211788531667153
20
-95.513731264423598
10
39.742939753706466
20
-94.947516561816613
10
38.294858112843862
20
-94.330209115273433
10
36.869350242807684
20
-93.66251731916924
10
35.468080585619759
20
-92.94529716425275
10
34.092774877968132
20
-92.179449576003435
10
32.743959263812819
20
-91.365159335472612
10
31.773802722426893
20
-90.781262546826071
10
30.782332374088142
20
-90.234230082735266
10
29.771612954240993
20
-89.725251680449887
10
28.742740391953234
20
-89.254832360322709
10
27.69700437873351
20
-88.823430402702357
10
26.63539618901541
20
-88.431522595489426
10
25.559026339924912
20
-88.079601932161623
10
24.469014856806794
20
-87.768146861286539
10
23.368046565537306
20
-87.497988629563338
10
22.258845237677008
20
-87.269743720146934
10
21.142617974698481
20
-87.083541719566483
10
20.020578077776825
20
-86.939487594713526
10
18.893919679978779
20
-86.837734214585879
10
17.763828647341249
20
-86.778410721463729
10
16.631519935539949
20
-86.76166056430516
10
15.498896297817426
20
-86.787572690855256
10
-66.172064131948915
20
-90.197303875609578
10
-66.172064131948915
20
-116.39387578414016
10
-66.171878165457215
20
-116.39387578414016
10
-66.171878165457215
20
-119.2438776914816
10
-66.172064131948915
20
-119.24387769148161
10
-66.172064131948915
20
-129.39387769147265
10
-66.171878165457215
20
-129.39387769147268
10
-66.171878165457215
20
-135.24387196943036
10
-66.1720641319489
20
-135.24387196943033
10
-66.1720641319489
20
-137.821550724308
10
-66.095151725110838
20
-138.89687715163979
10
-65.865406959858063
20
-139.95305457391419
10
-65.487700510893674
20
-140.96571405369608
10
-64.969719647085483
20
-141.91432831945463
0
ENDSEC
0
SECTION
2
OBJECTS
0
DICTIONARY
5
C
100
AcDbDictionary
3
ACAD_GROUP
350
D
3
ACAD_MLINESTYLE
350
17
0
DICTIONARY
5
D
100
AcDbDictionary
0
DICTIONARY
5
1A
330
C
100
AcDbDictionary
0
DICTIONARY
5
17
100
AcDbDictionary
0
ENDSEC
0
EOF
