ISO-10303-21;
HEADER;
/* Generated by software containing ST-Developer
 * from STEP Tools, Inc. (www.steptools.com) 
 */

FILE_DESCRIPTION(
/* description */ (''),
/* implementation_level */ '2;1');

FILE_NAME(
/* name */ 'Mothbox_pro_hinge2.step',
/* time_stamp */ '2026-08-31T18:06:05-07:00',
/* author */ (''),
/* organization */ (''),
/* preprocessor_version */ 'ST-DEVELOPER v20.1',
/* originating_system */ 'Autodesk Translation Framework v15.8.0.0',
/* authorisation */ '');

FILE_SCHEMA (('AUTOMOTIVE_DESIGN { 1 0 10303 214 3 1 1 }'));
ENDSEC;

DATA;
#10=MECHANICAL_DESIGN_GEOMETRIC_PRESENTATION_REPRESENTATION('',(#13),#677);
#11=SHAPE_REPRESENTATION_RELATIONSHIP('SRR','None',#684,#12);
#12=ADVANCED_BREP_SHAPE_REPRESENTATION('',(#14),#676);
#13=STYLED_ITEM('',(#693),#14);
#14=MANIFOLD_SOLID_BREP('Body1',#401);
#15=CYLINDRICAL_SURFACE('',#422,2.);
#16=CYLINDRICAL_SURFACE('',#426,2.);
#17=CYLINDRICAL_SURFACE('',#434,2.);
#18=CYLINDRICAL_SURFACE('',#446,2.);
#19=CYLINDRICAL_SURFACE('',#447,1.);
#20=CYLINDRICAL_SURFACE('',#448,1.);
#21=CYLINDRICAL_SURFACE('',#449,1.);
#22=CYLINDRICAL_SURFACE('',#450,1.);
#23=FACE_BOUND('',#70,.T.);
#24=FACE_BOUND('',#71,.T.);
#25=FACE_BOUND('',#77,.T.);
#26=FACE_BOUND('',#78,.T.);
#27=FACE_BOUND('',#82,.T.);
#28=FACE_BOUND('',#83,.T.);
#29=FACE_BOUND('',#86,.T.);
#30=FACE_BOUND('',#87,.T.);
#31=CIRCLE('',#418,2.);
#32=CIRCLE('',#419,2.);
#33=CIRCLE('',#420,1.);
#34=CIRCLE('',#421,1.);
#35=CIRCLE('',#423,2.);
#36=CIRCLE('',#427,2.);
#37=CIRCLE('',#429,2.);
#38=CIRCLE('',#430,2.);
#39=CIRCLE('',#431,1.);
#40=CIRCLE('',#432,1.);
#41=CIRCLE('',#435,2.);
#42=CIRCLE('',#437,2.);
#43=CIRCLE('',#438,1.);
#44=CIRCLE('',#439,1.);
#45=CIRCLE('',#442,1.);
#46=CIRCLE('',#443,1.);
#47=FACE_OUTER_BOUND('',#67,.T.);
#48=FACE_OUTER_BOUND('',#68,.T.);
#49=FACE_OUTER_BOUND('',#69,.T.);
#50=FACE_OUTER_BOUND('',#72,.T.);
#51=FACE_OUTER_BOUND('',#73,.T.);
#52=FACE_OUTER_BOUND('',#74,.T.);
#53=FACE_OUTER_BOUND('',#75,.T.);
#54=FACE_OUTER_BOUND('',#76,.T.);
#55=FACE_OUTER_BOUND('',#79,.T.);
#56=FACE_OUTER_BOUND('',#80,.T.);
#57=FACE_OUTER_BOUND('',#81,.T.);
#58=FACE_OUTER_BOUND('',#84,.T.);
#59=FACE_OUTER_BOUND('',#85,.T.);
#60=FACE_OUTER_BOUND('',#88,.T.);
#61=FACE_OUTER_BOUND('',#89,.T.);
#62=FACE_OUTER_BOUND('',#90,.T.);
#63=FACE_OUTER_BOUND('',#91,.T.);
#64=FACE_OUTER_BOUND('',#92,.T.);
#65=FACE_OUTER_BOUND('',#93,.T.);
#66=FACE_OUTER_BOUND('',#94,.T.);
#67=EDGE_LOOP('',(#261,#262,#263,#264));
#68=EDGE_LOOP('',(#265,#266,#267,#268,#269,#270,#271,#272));
#69=EDGE_LOOP('',(#273,#274,#275,#276,#277,#278,#279));
#70=EDGE_LOOP('',(#280));
#71=EDGE_LOOP('',(#281));
#72=EDGE_LOOP('',(#282,#283,#284,#285));
#73=EDGE_LOOP('',(#286,#287,#288,#289));
#74=EDGE_LOOP('',(#290,#291,#292,#293));
#75=EDGE_LOOP('',(#294,#295,#296,#297));
#76=EDGE_LOOP('',(#298,#299,#300,#301,#302,#303,#304));
#77=EDGE_LOOP('',(#305));
#78=EDGE_LOOP('',(#306));
#79=EDGE_LOOP('',(#307,#308,#309,#310,#311,#312,#313,#314));
#80=EDGE_LOOP('',(#315,#316,#317,#318));
#81=EDGE_LOOP('',(#319,#320,#321,#322,#323,#324,#325));
#82=EDGE_LOOP('',(#326));
#83=EDGE_LOOP('',(#327));
#84=EDGE_LOOP('',(#328,#329,#330,#331));
#85=EDGE_LOOP('',(#332,#333,#334,#335,#336,#337,#338));
#86=EDGE_LOOP('',(#339));
#87=EDGE_LOOP('',(#340));
#88=EDGE_LOOP('',(#341,#342,#343,#344));
#89=EDGE_LOOP('',(#345,#346,#347,#348));
#90=EDGE_LOOP('',(#349,#350,#351,#352));
#91=EDGE_LOOP('',(#353,#354,#355,#356));
#92=EDGE_LOOP('',(#357,#358,#359,#360));
#93=EDGE_LOOP('',(#361,#362,#363,#364));
#94=EDGE_LOOP('',(#365,#366,#367,#368));
#95=LINE('',#567,#133);
#96=LINE('',#569,#134);
#97=LINE('',#571,#135);
#98=LINE('',#572,#136);
#99=LINE('',#575,#137);
#100=LINE('',#577,#138);
#101=LINE('',#579,#139);
#102=LINE('',#581,#140);
#103=LINE('',#583,#141);
#104=LINE('',#585,#142);
#105=LINE('',#586,#143);
#106=LINE('',#589,#144);
#107=LINE('',#593,#145);
#108=LINE('',#595,#146);
#109=LINE('',#603,#147);
#110=LINE('',#607,#148);
#111=LINE('',#608,#149);
#112=LINE('',#611,#150);
#113=LINE('',#612,#151);
#114=LINE('',#615,#152);
#115=LINE('',#621,#153);
#116=LINE('',#623,#154);
#117=LINE('',#626,#155);
#118=LINE('',#633,#156);
#119=LINE('',#635,#157);
#120=LINE('',#637,#158);
#121=LINE('',#638,#159);
#122=LINE('',#641,#160);
#123=LINE('',#644,#161);
#124=LINE('',#646,#162);
#125=LINE('',#648,#163);
#126=LINE('',#655,#164);
#127=LINE('',#662,#165);
#128=LINE('',#664,#166);
#129=LINE('',#667,#167);
#130=LINE('',#669,#168);
#131=LINE('',#671,#169);
#132=LINE('',#673,#170);
#133=VECTOR('',#455,10.);
#134=VECTOR('',#456,10.);
#135=VECTOR('',#457,10.);
#136=VECTOR('',#458,10.);
#137=VECTOR('',#461,10.);
#138=VECTOR('',#462,10.);
#139=VECTOR('',#463,10.);
#140=VECTOR('',#464,10.);
#141=VECTOR('',#465,10.);
#142=VECTOR('',#466,10.);
#143=VECTOR('',#467,10.);
#144=VECTOR('',#470,10.);
#145=VECTOR('',#473,10.);
#146=VECTOR('',#474,10.);
#147=VECTOR('',#483,10.);
#148=VECTOR('',#488,10.);
#149=VECTOR('',#489,10.);
#150=VECTOR('',#492,10.);
#151=VECTOR('',#493,10.);
#152=VECTOR('',#496,10.);
#153=VECTOR('',#503,10.);
#154=VECTOR('',#504,10.);
#155=VECTOR('',#507,10.);
#156=VECTOR('',#514,10.);
#157=VECTOR('',#515,10.);
#158=VECTOR('',#516,10.);
#159=VECTOR('',#517,10.);
#160=VECTOR('',#520,10.);
#161=VECTOR('',#525,10.);
#162=VECTOR('',#526,10.);
#163=VECTOR('',#527,10.);
#164=VECTOR('',#536,10.);
#165=VECTOR('',#545,10.);
#166=VECTOR('',#548,10.);
#167=VECTOR('',#553,1.);
#168=VECTOR('',#556,1.);
#169=VECTOR('',#559,1.);
#170=VECTOR('',#562,1.);
#171=VERTEX_POINT('',#565);
#172=VERTEX_POINT('',#566);
#173=VERTEX_POINT('',#568);
#174=VERTEX_POINT('',#570);
#175=VERTEX_POINT('',#574);
#176=VERTEX_POINT('',#576);
#177=VERTEX_POINT('',#578);
#178=VERTEX_POINT('',#580);
#179=VERTEX_POINT('',#582);
#180=VERTEX_POINT('',#584);
#181=VERTEX_POINT('',#588);
#182=VERTEX_POINT('',#590);
#183=VERTEX_POINT('',#592);
#184=VERTEX_POINT('',#594);
#185=VERTEX_POINT('',#597);
#186=VERTEX_POINT('',#599);
#187=VERTEX_POINT('',#602);
#188=VERTEX_POINT('',#606);
#189=VERTEX_POINT('',#610);
#190=VERTEX_POINT('',#614);
#191=VERTEX_POINT('',#618);
#192=VERTEX_POINT('',#620);
#193=VERTEX_POINT('',#622);
#194=VERTEX_POINT('',#624);
#195=VERTEX_POINT('',#627);
#196=VERTEX_POINT('',#629);
#197=VERTEX_POINT('',#632);
#198=VERTEX_POINT('',#634);
#199=VERTEX_POINT('',#636);
#200=VERTEX_POINT('',#640);
#201=VERTEX_POINT('',#645);
#202=VERTEX_POINT('',#647);
#203=VERTEX_POINT('',#650);
#204=VERTEX_POINT('',#652);
#205=VERTEX_POINT('',#657);
#206=VERTEX_POINT('',#659);
#207=EDGE_CURVE('',#171,#172,#95,.T.);
#208=EDGE_CURVE('',#173,#171,#96,.T.);
#209=EDGE_CURVE('',#174,#173,#97,.T.);
#210=EDGE_CURVE('',#172,#174,#98,.T.);
#211=EDGE_CURVE('',#174,#175,#99,.T.);
#212=EDGE_CURVE('',#176,#175,#100,.T.);
#213=EDGE_CURVE('',#176,#177,#101,.T.);
#214=EDGE_CURVE('',#177,#178,#102,.T.);
#215=EDGE_CURVE('',#178,#179,#103,.T.);
#216=EDGE_CURVE('',#180,#179,#104,.T.);
#217=EDGE_CURVE('',#180,#172,#105,.T.);
#218=EDGE_CURVE('',#181,#173,#106,.T.);
#219=EDGE_CURVE('',#182,#181,#31,.T.);
#220=EDGE_CURVE('',#183,#182,#107,.T.);
#221=EDGE_CURVE('',#184,#183,#108,.T.);
#222=EDGE_CURVE('',#175,#184,#32,.T.);
#223=EDGE_CURVE('',#185,#185,#33,.T.);
#224=EDGE_CURVE('',#186,#186,#34,.T.);
#225=EDGE_CURVE('',#187,#184,#109,.T.);
#226=EDGE_CURVE('',#187,#176,#35,.T.);
#227=EDGE_CURVE('',#188,#183,#110,.T.);
#228=EDGE_CURVE('',#188,#187,#111,.T.);
#229=EDGE_CURVE('',#189,#182,#112,.T.);
#230=EDGE_CURVE('',#189,#188,#113,.T.);
#231=EDGE_CURVE('',#190,#181,#114,.T.);
#232=EDGE_CURVE('',#190,#189,#36,.T.);
#233=EDGE_CURVE('',#191,#180,#37,.T.);
#234=EDGE_CURVE('',#192,#191,#115,.T.);
#235=EDGE_CURVE('',#193,#192,#116,.T.);
#236=EDGE_CURVE('',#194,#193,#38,.T.);
#237=EDGE_CURVE('',#171,#194,#117,.T.);
#238=EDGE_CURVE('',#195,#195,#39,.T.);
#239=EDGE_CURVE('',#196,#196,#40,.T.);
#240=EDGE_CURVE('',#194,#197,#118,.T.);
#241=EDGE_CURVE('',#197,#198,#119,.T.);
#242=EDGE_CURVE('',#198,#199,#120,.T.);
#243=EDGE_CURVE('',#199,#190,#121,.T.);
#244=EDGE_CURVE('',#193,#200,#122,.T.);
#245=EDGE_CURVE('',#200,#197,#41,.T.);
#246=EDGE_CURVE('',#198,#178,#123,.T.);
#247=EDGE_CURVE('',#201,#200,#124,.T.);
#248=EDGE_CURVE('',#202,#201,#125,.T.);
#249=EDGE_CURVE('',#179,#202,#42,.T.);
#250=EDGE_CURVE('',#203,#203,#43,.T.);
#251=EDGE_CURVE('',#204,#204,#44,.T.);
#252=EDGE_CURVE('',#177,#199,#126,.T.);
#253=EDGE_CURVE('',#205,#205,#45,.T.);
#254=EDGE_CURVE('',#206,#206,#46,.T.);
#255=EDGE_CURVE('',#192,#201,#127,.T.);
#256=EDGE_CURVE('',#191,#202,#128,.T.);
#257=EDGE_CURVE('',#185,#206,#129,.T.);
#258=EDGE_CURVE('',#186,#205,#130,.T.);
#259=EDGE_CURVE('',#204,#196,#131,.T.);
#260=EDGE_CURVE('',#203,#195,#132,.T.);
#261=ORIENTED_EDGE('',*,*,#207,.F.);
#262=ORIENTED_EDGE('',*,*,#208,.F.);
#263=ORIENTED_EDGE('',*,*,#209,.F.);
#264=ORIENTED_EDGE('',*,*,#210,.F.);
#265=ORIENTED_EDGE('',*,*,#210,.T.);
#266=ORIENTED_EDGE('',*,*,#211,.T.);
#267=ORIENTED_EDGE('',*,*,#212,.F.);
#268=ORIENTED_EDGE('',*,*,#213,.T.);
#269=ORIENTED_EDGE('',*,*,#214,.T.);
#270=ORIENTED_EDGE('',*,*,#215,.T.);
#271=ORIENTED_EDGE('',*,*,#216,.F.);
#272=ORIENTED_EDGE('',*,*,#217,.T.);
#273=ORIENTED_EDGE('',*,*,#209,.T.);
#274=ORIENTED_EDGE('',*,*,#218,.F.);
#275=ORIENTED_EDGE('',*,*,#219,.F.);
#276=ORIENTED_EDGE('',*,*,#220,.F.);
#277=ORIENTED_EDGE('',*,*,#221,.F.);
#278=ORIENTED_EDGE('',*,*,#222,.F.);
#279=ORIENTED_EDGE('',*,*,#211,.F.);
#280=ORIENTED_EDGE('',*,*,#223,.F.);
#281=ORIENTED_EDGE('',*,*,#224,.F.);
#282=ORIENTED_EDGE('',*,*,#222,.T.);
#283=ORIENTED_EDGE('',*,*,#225,.F.);
#284=ORIENTED_EDGE('',*,*,#226,.T.);
#285=ORIENTED_EDGE('',*,*,#212,.T.);
#286=ORIENTED_EDGE('',*,*,#221,.T.);
#287=ORIENTED_EDGE('',*,*,#227,.F.);
#288=ORIENTED_EDGE('',*,*,#228,.T.);
#289=ORIENTED_EDGE('',*,*,#225,.T.);
#290=ORIENTED_EDGE('',*,*,#220,.T.);
#291=ORIENTED_EDGE('',*,*,#229,.F.);
#292=ORIENTED_EDGE('',*,*,#230,.T.);
#293=ORIENTED_EDGE('',*,*,#227,.T.);
#294=ORIENTED_EDGE('',*,*,#219,.T.);
#295=ORIENTED_EDGE('',*,*,#231,.F.);
#296=ORIENTED_EDGE('',*,*,#232,.T.);
#297=ORIENTED_EDGE('',*,*,#229,.T.);
#298=ORIENTED_EDGE('',*,*,#207,.T.);
#299=ORIENTED_EDGE('',*,*,#217,.F.);
#300=ORIENTED_EDGE('',*,*,#233,.F.);
#301=ORIENTED_EDGE('',*,*,#234,.F.);
#302=ORIENTED_EDGE('',*,*,#235,.F.);
#303=ORIENTED_EDGE('',*,*,#236,.F.);
#304=ORIENTED_EDGE('',*,*,#237,.F.);
#305=ORIENTED_EDGE('',*,*,#238,.F.);
#306=ORIENTED_EDGE('',*,*,#239,.F.);
#307=ORIENTED_EDGE('',*,*,#208,.T.);
#308=ORIENTED_EDGE('',*,*,#237,.T.);
#309=ORIENTED_EDGE('',*,*,#240,.T.);
#310=ORIENTED_EDGE('',*,*,#241,.T.);
#311=ORIENTED_EDGE('',*,*,#242,.T.);
#312=ORIENTED_EDGE('',*,*,#243,.T.);
#313=ORIENTED_EDGE('',*,*,#231,.T.);
#314=ORIENTED_EDGE('',*,*,#218,.T.);
#315=ORIENTED_EDGE('',*,*,#236,.T.);
#316=ORIENTED_EDGE('',*,*,#244,.T.);
#317=ORIENTED_EDGE('',*,*,#245,.T.);
#318=ORIENTED_EDGE('',*,*,#240,.F.);
#319=ORIENTED_EDGE('',*,*,#246,.F.);
#320=ORIENTED_EDGE('',*,*,#241,.F.);
#321=ORIENTED_EDGE('',*,*,#245,.F.);
#322=ORIENTED_EDGE('',*,*,#247,.F.);
#323=ORIENTED_EDGE('',*,*,#248,.F.);
#324=ORIENTED_EDGE('',*,*,#249,.F.);
#325=ORIENTED_EDGE('',*,*,#215,.F.);
#326=ORIENTED_EDGE('',*,*,#250,.F.);
#327=ORIENTED_EDGE('',*,*,#251,.F.);
#328=ORIENTED_EDGE('',*,*,#242,.F.);
#329=ORIENTED_EDGE('',*,*,#246,.T.);
#330=ORIENTED_EDGE('',*,*,#214,.F.);
#331=ORIENTED_EDGE('',*,*,#252,.T.);
#332=ORIENTED_EDGE('',*,*,#252,.F.);
#333=ORIENTED_EDGE('',*,*,#213,.F.);
#334=ORIENTED_EDGE('',*,*,#226,.F.);
#335=ORIENTED_EDGE('',*,*,#228,.F.);
#336=ORIENTED_EDGE('',*,*,#230,.F.);
#337=ORIENTED_EDGE('',*,*,#232,.F.);
#338=ORIENTED_EDGE('',*,*,#243,.F.);
#339=ORIENTED_EDGE('',*,*,#253,.F.);
#340=ORIENTED_EDGE('',*,*,#254,.F.);
#341=ORIENTED_EDGE('',*,*,#235,.T.);
#342=ORIENTED_EDGE('',*,*,#255,.T.);
#343=ORIENTED_EDGE('',*,*,#247,.T.);
#344=ORIENTED_EDGE('',*,*,#244,.F.);
#345=ORIENTED_EDGE('',*,*,#234,.T.);
#346=ORIENTED_EDGE('',*,*,#256,.T.);
#347=ORIENTED_EDGE('',*,*,#248,.T.);
#348=ORIENTED_EDGE('',*,*,#255,.F.);
#349=ORIENTED_EDGE('',*,*,#233,.T.);
#350=ORIENTED_EDGE('',*,*,#216,.T.);
#351=ORIENTED_EDGE('',*,*,#249,.T.);
#352=ORIENTED_EDGE('',*,*,#256,.F.);
#353=ORIENTED_EDGE('',*,*,#223,.T.);
#354=ORIENTED_EDGE('',*,*,#257,.T.);
#355=ORIENTED_EDGE('',*,*,#254,.T.);
#356=ORIENTED_EDGE('',*,*,#257,.F.);
#357=ORIENTED_EDGE('',*,*,#224,.T.);
#358=ORIENTED_EDGE('',*,*,#258,.T.);
#359=ORIENTED_EDGE('',*,*,#253,.T.);
#360=ORIENTED_EDGE('',*,*,#258,.F.);
#361=ORIENTED_EDGE('',*,*,#251,.T.);
#362=ORIENTED_EDGE('',*,*,#259,.T.);
#363=ORIENTED_EDGE('',*,*,#239,.T.);
#364=ORIENTED_EDGE('',*,*,#259,.F.);
#365=ORIENTED_EDGE('',*,*,#250,.T.);
#366=ORIENTED_EDGE('',*,*,#260,.T.);
#367=ORIENTED_EDGE('',*,*,#238,.T.);
#368=ORIENTED_EDGE('',*,*,#260,.F.);
#369=PLANE('',#415);
#370=PLANE('',#416);
#371=PLANE('',#417);
#372=PLANE('',#424);
#373=PLANE('',#425);
#374=PLANE('',#428);
#375=PLANE('',#433);
#376=PLANE('',#436);
#377=PLANE('',#440);
#378=PLANE('',#441);
#379=PLANE('',#444);
#380=PLANE('',#445);
#381=ADVANCED_FACE('',(#47),#369,.T.);
#382=ADVANCED_FACE('',(#48),#370,.T.);
#383=ADVANCED_FACE('',(#49,#23,#24),#371,.T.);
#384=ADVANCED_FACE('',(#50),#15,.T.);
#385=ADVANCED_FACE('',(#51),#372,.T.);
#386=ADVANCED_FACE('',(#52),#373,.T.);
#387=ADVANCED_FACE('',(#53),#16,.T.);
#388=ADVANCED_FACE('',(#54,#25,#26),#374,.F.);
#389=ADVANCED_FACE('',(#55),#375,.T.);
#390=ADVANCED_FACE('',(#56),#17,.T.);
#391=ADVANCED_FACE('',(#57,#27,#28),#376,.T.);
#392=ADVANCED_FACE('',(#58),#377,.F.);
#393=ADVANCED_FACE('',(#59,#29,#30),#378,.F.);
#394=ADVANCED_FACE('',(#60),#379,.T.);
#395=ADVANCED_FACE('',(#61),#380,.T.);
#396=ADVANCED_FACE('',(#62),#18,.T.);
#397=ADVANCED_FACE('',(#63),#19,.F.);
#398=ADVANCED_FACE('',(#64),#20,.F.);
#399=ADVANCED_FACE('',(#65),#21,.F.);
#400=ADVANCED_FACE('',(#66),#22,.F.);
#401=CLOSED_SHELL('',(#381,#382,#383,#384,#385,#386,#387,#388,#389,#390,
#391,#392,#393,#394,#395,#396,#397,#398,#399,#400));
#402=DERIVED_UNIT_ELEMENT(#404,1.);
#403=DERIVED_UNIT_ELEMENT(#679,-3.);
#404=(
MASS_UNIT()
NAMED_UNIT(*)
SI_UNIT(.KILO.,.GRAM.)
);
#405=DERIVED_UNIT((#402,#403));
#406=MEASURE_REPRESENTATION_ITEM('density measure',
POSITIVE_RATIO_MEASURE(7850.),#405);
#407=PROPERTY_DEFINITION_REPRESENTATION(#412,#409);
#408=PROPERTY_DEFINITION_REPRESENTATION(#413,#410);
#409=REPRESENTATION('material name',(#411),#676);
#410=REPRESENTATION('density',(#406),#676);
#411=DESCRIPTIVE_REPRESENTATION_ITEM('Steel','Steel');
#412=PROPERTY_DEFINITION('material property','material name',#686);
#413=PROPERTY_DEFINITION('material property','density of part',#686);
#414=AXIS2_PLACEMENT_3D('',#563,#451,#452);
#415=AXIS2_PLACEMENT_3D('',#564,#453,#454);
#416=AXIS2_PLACEMENT_3D('',#573,#459,#460);
#417=AXIS2_PLACEMENT_3D('',#587,#468,#469);
#418=AXIS2_PLACEMENT_3D('',#591,#471,#472);
#419=AXIS2_PLACEMENT_3D('',#596,#475,#476);
#420=AXIS2_PLACEMENT_3D('',#598,#477,#478);
#421=AXIS2_PLACEMENT_3D('',#600,#479,#480);
#422=AXIS2_PLACEMENT_3D('',#601,#481,#482);
#423=AXIS2_PLACEMENT_3D('',#604,#484,#485);
#424=AXIS2_PLACEMENT_3D('',#605,#486,#487);
#425=AXIS2_PLACEMENT_3D('',#609,#490,#491);
#426=AXIS2_PLACEMENT_3D('',#613,#494,#495);
#427=AXIS2_PLACEMENT_3D('',#616,#497,#498);
#428=AXIS2_PLACEMENT_3D('',#617,#499,#500);
#429=AXIS2_PLACEMENT_3D('',#619,#501,#502);
#430=AXIS2_PLACEMENT_3D('',#625,#505,#506);
#431=AXIS2_PLACEMENT_3D('',#628,#508,#509);
#432=AXIS2_PLACEMENT_3D('',#630,#510,#511);
#433=AXIS2_PLACEMENT_3D('',#631,#512,#513);
#434=AXIS2_PLACEMENT_3D('',#639,#518,#519);
#435=AXIS2_PLACEMENT_3D('',#642,#521,#522);
#436=AXIS2_PLACEMENT_3D('',#643,#523,#524);
#437=AXIS2_PLACEMENT_3D('',#649,#528,#529);
#438=AXIS2_PLACEMENT_3D('',#651,#530,#531);
#439=AXIS2_PLACEMENT_3D('',#653,#532,#533);
#440=AXIS2_PLACEMENT_3D('',#654,#534,#535);
#441=AXIS2_PLACEMENT_3D('',#656,#537,#538);
#442=AXIS2_PLACEMENT_3D('',#658,#539,#540);
#443=AXIS2_PLACEMENT_3D('',#660,#541,#542);
#444=AXIS2_PLACEMENT_3D('',#661,#543,#544);
#445=AXIS2_PLACEMENT_3D('',#663,#546,#547);
#446=AXIS2_PLACEMENT_3D('',#665,#549,#550);
#447=AXIS2_PLACEMENT_3D('',#666,#551,#552);
#448=AXIS2_PLACEMENT_3D('',#668,#554,#555);
#449=AXIS2_PLACEMENT_3D('',#670,#557,#558);
#450=AXIS2_PLACEMENT_3D('',#672,#560,#561);
#451=DIRECTION('axis',(0.,0.,1.));
#452=DIRECTION('refdir',(1.,0.,0.));
#453=DIRECTION('center_axis',(0.866025403784438,0.,0.5));
#454=DIRECTION('ref_axis',(0.5,0.,-0.866025403784438));
#455=DIRECTION('',(-0.5,0.,0.866025403784438));
#456=DIRECTION('',(0.,-1.,0.));
#457=DIRECTION('',(0.5,0.,-0.866025403784438));
#458=DIRECTION('',(0.,1.,0.));
#459=DIRECTION('center_axis',(0.,0.,1.));
#460=DIRECTION('ref_axis',(1.,0.,0.));
#461=DIRECTION('',(-1.,0.,0.));
#462=DIRECTION('',(0.,1.,0.));
#463=DIRECTION('',(1.,0.,0.));
#464=DIRECTION('',(0.,-1.,0.));
#465=DIRECTION('',(-1.,0.,0.));
#466=DIRECTION('',(0.,1.,0.));
#467=DIRECTION('',(1.,0.,0.));
#468=DIRECTION('center_axis',(0.,1.,0.));
#469=DIRECTION('ref_axis',(1.,0.,0.));
#470=DIRECTION('',(0.5,0.,0.866025403784439));
#471=DIRECTION('center_axis',(0.,-1.,0.));
#472=DIRECTION('ref_axis',(1.,0.,0.));
#473=DIRECTION('',(-0.5,0.,-0.866025403784439));
#474=DIRECTION('',(1.,0.,9.24446373305873E-33));
#475=DIRECTION('center_axis',(0.,-1.,0.));
#476=DIRECTION('ref_axis',(1.,0.,0.));
#477=DIRECTION('center_axis',(0.,1.,0.));
#478=DIRECTION('ref_axis',(1.,0.,0.));
#479=DIRECTION('center_axis',(0.,1.,0.));
#480=DIRECTION('ref_axis',(1.,0.,0.));
#481=DIRECTION('center_axis',(0.,1.,0.));
#482=DIRECTION('ref_axis',(-1.,0.,-1.22464679914735E-16));
#483=DIRECTION('',(0.,1.,0.));
#484=DIRECTION('center_axis',(0.,1.,0.));
#485=DIRECTION('ref_axis',(1.,0.,0.));
#486=DIRECTION('center_axis',(9.24446373305873E-33,0.,-1.));
#487=DIRECTION('ref_axis',(-1.,0.,-9.24446373305873E-33));
#488=DIRECTION('',(0.,1.,0.));
#489=DIRECTION('',(-1.,0.,-9.24446373305873E-33));
#490=DIRECTION('center_axis',(-0.866025403784439,0.,0.5));
#491=DIRECTION('ref_axis',(0.5,0.,0.866025403784439));
#492=DIRECTION('',(0.,1.,0.));
#493=DIRECTION('',(0.5,0.,0.866025403784439));
#494=DIRECTION('center_axis',(0.,1.,0.));
#495=DIRECTION('ref_axis',(-0.5,0.,-0.866025403784439));
#496=DIRECTION('',(0.,1.,0.));
#497=DIRECTION('center_axis',(0.,1.,0.));
#498=DIRECTION('ref_axis',(1.,0.,0.));
#499=DIRECTION('center_axis',(0.,1.,0.));
#500=DIRECTION('ref_axis',(1.,0.,0.));
#501=DIRECTION('center_axis',(0.,1.,0.));
#502=DIRECTION('ref_axis',(1.,0.,0.));
#503=DIRECTION('',(-1.,0.,-9.24446373305873E-33));
#504=DIRECTION('',(0.5,0.,0.866025403784439));
#505=DIRECTION('center_axis',(0.,1.,0.));
#506=DIRECTION('ref_axis',(1.,0.,0.));
#507=DIRECTION('',(-0.5,0.,-0.866025403784439));
#508=DIRECTION('center_axis',(0.,-1.,0.));
#509=DIRECTION('ref_axis',(1.,0.,0.));
#510=DIRECTION('center_axis',(0.,-1.,0.));
#511=DIRECTION('ref_axis',(1.,0.,0.));
#512=DIRECTION('center_axis',(0.866025403784439,0.,-0.5));
#513=DIRECTION('ref_axis',(-0.5,0.,-0.866025403784439));
#514=DIRECTION('',(0.,1.,0.));
#515=DIRECTION('',(0.5,0.,0.866025403784439));
#516=DIRECTION('',(0.,1.,0.));
#517=DIRECTION('',(-0.5,0.,-0.866025403784439));
#518=DIRECTION('center_axis',(0.,1.,0.));
#519=DIRECTION('ref_axis',(-0.5,0.,-0.866025403784439));
#520=DIRECTION('',(0.,1.,0.));
#521=DIRECTION('center_axis',(0.,-1.,0.));
#522=DIRECTION('ref_axis',(1.,0.,0.));
#523=DIRECTION('center_axis',(0.,1.,0.));
#524=DIRECTION('ref_axis',(1.,0.,0.));
#525=DIRECTION('',(-0.5,0.,0.866025403784438));
#526=DIRECTION('',(-0.5,0.,-0.866025403784439));
#527=DIRECTION('',(1.,0.,9.24446373305873E-33));
#528=DIRECTION('center_axis',(0.,-1.,0.));
#529=DIRECTION('ref_axis',(1.,0.,0.));
#530=DIRECTION('center_axis',(0.,1.,0.));
#531=DIRECTION('ref_axis',(1.,0.,0.));
#532=DIRECTION('center_axis',(0.,1.,0.));
#533=DIRECTION('ref_axis',(1.,0.,0.));
#534=DIRECTION('center_axis',(0.866025403784438,0.,0.5));
#535=DIRECTION('ref_axis',(0.5,0.,-0.866025403784438));
#536=DIRECTION('',(0.5,0.,-0.866025403784438));
#537=DIRECTION('center_axis',(0.,1.,0.));
#538=DIRECTION('ref_axis',(1.,0.,0.));
#539=DIRECTION('center_axis',(0.,-1.,0.));
#540=DIRECTION('ref_axis',(1.,0.,0.));
#541=DIRECTION('center_axis',(0.,-1.,0.));
#542=DIRECTION('ref_axis',(1.,0.,0.));
#543=DIRECTION('center_axis',(-0.866025403784439,0.,0.5));
#544=DIRECTION('ref_axis',(0.5,0.,0.866025403784439));
#545=DIRECTION('',(0.,1.,0.));
#546=DIRECTION('center_axis',(9.24446373305873E-33,0.,-1.));
#547=DIRECTION('ref_axis',(-1.,0.,-9.24446373305873E-33));
#548=DIRECTION('',(0.,1.,0.));
#549=DIRECTION('center_axis',(0.,1.,0.));
#550=DIRECTION('ref_axis',(-1.,0.,-1.22464679914735E-16));
#551=DIRECTION('center_axis',(0.,1.,0.));
#552=DIRECTION('ref_axis',(1.,0.,0.));
#553=DIRECTION('',(0.,-1.,0.));
#554=DIRECTION('center_axis',(0.,1.,0.));
#555=DIRECTION('ref_axis',(1.,0.,0.));
#556=DIRECTION('',(0.,-1.,0.));
#557=DIRECTION('center_axis',(0.,1.,0.));
#558=DIRECTION('ref_axis',(1.,0.,0.));
#559=DIRECTION('',(0.,-1.,0.));
#560=DIRECTION('center_axis',(0.,1.,0.));
#561=DIRECTION('ref_axis',(1.,0.,0.));
#562=DIRECTION('',(0.,-1.,0.));
#563=CARTESIAN_POINT('',(0.,0.,0.));
#564=CARTESIAN_POINT('Origin',(4.42264973081037,0.,3.));
#565=CARTESIAN_POINT('',(6.15470053837925,52.,-2.77555756156289E-16));
#566=CARTESIAN_POINT('',(3.84529946162075,52.,4.));
#567=CARTESIAN_POINT('',(4.88691243270259,52.,2.19587341226347));
#568=CARTESIAN_POINT('',(6.15470053837925,198.,-2.77555756156289E-16));
#569=CARTESIAN_POINT('',(6.15470053837925,0.,-1.38777878078145E-15));
#570=CARTESIAN_POINT('',(3.84529946162075,198.,4.));
#571=CARTESIAN_POINT('',(4.88691243270259,198.,2.19587341226347));
#572=CARTESIAN_POINT('',(3.84529946162075,0.,4.));
#573=CARTESIAN_POINT('Origin',(0.,0.,4.));
#574=CARTESIAN_POINT('',(1.38777878078145E-16,198.,4.));
#575=CARTESIAN_POINT('',(1.32735026918963,198.,4.));
#576=CARTESIAN_POINT('',(0.,149.6,4.));
#577=CARTESIAN_POINT('',(1.22464679914735E-16,0.,4.));
#578=CARTESIAN_POINT('',(1.53589838486224,149.6,4.));
#579=CARTESIAN_POINT('',(0.750000000000001,149.6,4.));
#580=CARTESIAN_POINT('',(1.53589838486224,100.4,4.));
#581=CARTESIAN_POINT('',(1.53589838486224,62.5,4.));
#582=CARTESIAN_POINT('',(0.,100.4,4.));
#583=CARTESIAN_POINT('',(0.750000000000001,100.4,4.));
#584=CARTESIAN_POINT('',(1.38777878078145E-16,52.,4.));
#585=CARTESIAN_POINT('',(1.22464679914735E-16,0.,4.));
#586=CARTESIAN_POINT('',(1.32735026918963,52.,4.));
#587=CARTESIAN_POINT('Origin',(2.65470053837925,198.,-0.165063509461096));
#588=CARTESIAN_POINT('',(4.23205080756888,198.,-3.33012701892219));
#589=CARTESIAN_POINT('',(6.2588135094611,198.,0.180328955640705));
#590=CARTESIAN_POINT('',(0.767949192431123,198.,-1.33012701892219));
#591=CARTESIAN_POINT('Origin',(2.5,198.,-2.33012701892219));
#592=CARTESIAN_POINT('',(1.53589838486225,198.,-1.11022302462516E-15));
#593=CARTESIAN_POINT('',(1.25603675972853,198.,-0.484734553820392));
#594=CARTESIAN_POINT('',(1.38777878078145E-16,198.,0.));
#595=CARTESIAN_POINT('',(2.09529946162075,198.,0.));
#596=CARTESIAN_POINT('Origin',(0.,198.,2.));
#597=CARTESIAN_POINT('',(1.5,198.,-2.33012701892219));
#598=CARTESIAN_POINT('Origin',(2.5,198.,-2.33012701892219));
#599=CARTESIAN_POINT('',(-1.,198.,2.));
#600=CARTESIAN_POINT('Origin',(0.,198.,2.));
#601=CARTESIAN_POINT('Origin',(0.,0.,2.));
#602=CARTESIAN_POINT('',(5.55111512312578E-16,149.6,0.));
#603=CARTESIAN_POINT('',(1.22464679914735E-16,0.,0.));
#604=CARTESIAN_POINT('Origin',(0.,149.6,2.));
#605=CARTESIAN_POINT('Origin',(1.53589838486224,0.,1.41985569165225E-32));
#606=CARTESIAN_POINT('',(1.53589838486225,149.6,0.));
#607=CARTESIAN_POINT('',(1.53589838486224,0.,-1.11022302462516E-15));
#608=CARTESIAN_POINT('',(1.51794919243112,149.6,0.));
#609=CARTESIAN_POINT('Origin',(0.767949192431123,0.,-1.33012701892219));
#610=CARTESIAN_POINT('',(0.767949218240697,149.6,-1.33012703382336));
#611=CARTESIAN_POINT('',(0.767949192431123,0.,-1.33012701892219));
#612=CARTESIAN_POINT('',(1.11169917684819,149.6,-0.73473458081083));
#613=CARTESIAN_POINT('Origin',(2.5,0.,-2.33012701892219));
#614=CARTESIAN_POINT('',(4.23205083337844,149.6,-3.33012703382335));
#615=CARTESIAN_POINT('',(4.23205080756888,0.,-3.33012701892219));
#616=CARTESIAN_POINT('Origin',(2.5,149.6,-2.33012701892219));
#617=CARTESIAN_POINT('Origin',(2.65470053837925,52.,-0.165063509461096));
#618=CARTESIAN_POINT('',(1.38777878078145E-16,52.,0.));
#619=CARTESIAN_POINT('Origin',(0.,52.,2.));
#620=CARTESIAN_POINT('',(1.53589838486225,52.,-1.11022302462516E-15));
#621=CARTESIAN_POINT('',(2.09529946162075,52.,0.));
#622=CARTESIAN_POINT('',(0.767949192431123,52.,-1.33012701892219));
#623=CARTESIAN_POINT('',(1.25603675972853,52.,-0.484734553820392));
#624=CARTESIAN_POINT('',(4.23205080756888,52.,-3.33012701892219));
#625=CARTESIAN_POINT('Origin',(2.5,52.,-2.33012701892219));
#626=CARTESIAN_POINT('',(6.2588135094611,52.,0.180328955640705));
#627=CARTESIAN_POINT('',(-1.,52.,2.));
#628=CARTESIAN_POINT('Origin',(0.,52.,2.));
#629=CARTESIAN_POINT('',(1.5,52.,-2.33012701892219));
#630=CARTESIAN_POINT('Origin',(2.5,52.,-2.33012701892219));
#631=CARTESIAN_POINT('Origin',(7.3094010767585,0.,2.));
#632=CARTESIAN_POINT('',(4.23205083337844,100.4,-3.33012703382335));
#633=CARTESIAN_POINT('',(4.23205080756888,0.,-3.33012701892219));
#634=CARTESIAN_POINT('',(5.,100.4,-2.));
#635=CARTESIAN_POINT('',(6.11447592658075,100.4,-0.0696710713497328));
#636=CARTESIAN_POINT('',(5.,149.6,-2.));
#637=CARTESIAN_POINT('',(5.,62.5,-2.));
#638=CARTESIAN_POINT('',(6.11447592658075,149.6,-0.0696710713497328));
#639=CARTESIAN_POINT('Origin',(2.5,0.,-2.33012701892219));
#640=CARTESIAN_POINT('',(0.767949218240697,100.4,-1.33012703382336));
#641=CARTESIAN_POINT('',(0.767949192431123,0.,-1.33012701892219));
#642=CARTESIAN_POINT('Origin',(2.5,100.4,-2.33012701892219));
#643=CARTESIAN_POINT('Origin',(1.5,100.4,-0.165063581435598));
#644=CARTESIAN_POINT('',(0.767949192431122,100.4,5.33012701892219));
#645=CARTESIAN_POINT('',(1.53589838486225,100.4,0.));
#646=CARTESIAN_POINT('',(1.11169917684819,100.4,-0.73473458081083));
#647=CARTESIAN_POINT('',(5.55111512312578E-16,100.4,0.));
#648=CARTESIAN_POINT('',(1.51794919243112,100.4,0.));
#649=CARTESIAN_POINT('Origin',(0.,100.4,2.));
#650=CARTESIAN_POINT('',(-1.,100.4,2.));
#651=CARTESIAN_POINT('Origin',(0.,100.4,2.));
#652=CARTESIAN_POINT('',(1.49999995130376,100.4,-2.3301271628712));
#653=CARTESIAN_POINT('Origin',(2.5,100.4,-2.33012701892219));
#654=CARTESIAN_POINT('Origin',(1.53589838486224,125.,4.));
#655=CARTESIAN_POINT('',(0.767949192431122,149.6,5.33012701892219));
#656=CARTESIAN_POINT('Origin',(1.5,149.6,-0.165063581435598));
#657=CARTESIAN_POINT('',(-1.,149.6,2.));
#658=CARTESIAN_POINT('Origin',(0.,149.6,2.));
#659=CARTESIAN_POINT('',(1.49999995130376,149.6,-2.3301271628712));
#660=CARTESIAN_POINT('Origin',(2.5,149.6,-2.33012701892219));
#661=CARTESIAN_POINT('Origin',(0.767949192431123,0.,-1.33012701892219));
#662=CARTESIAN_POINT('',(1.53589838486224,0.,-1.11022302462516E-15));
#663=CARTESIAN_POINT('Origin',(1.53589838486224,0.,1.41985569165225E-32));
#664=CARTESIAN_POINT('',(1.22464679914735E-16,0.,0.));
#665=CARTESIAN_POINT('Origin',(0.,0.,2.));
#666=CARTESIAN_POINT('Origin',(2.5,0.,-2.33012701892219));
#667=CARTESIAN_POINT('',(1.5,0.,-2.33012701892219));
#668=CARTESIAN_POINT('Origin',(0.,0.,2.));
#669=CARTESIAN_POINT('',(-1.,0.,2.));
#670=CARTESIAN_POINT('Origin',(2.5,0.,-2.33012701892219));
#671=CARTESIAN_POINT('',(1.5,0.,-2.33012701892219));
#672=CARTESIAN_POINT('Origin',(0.,0.,2.));
#673=CARTESIAN_POINT('',(-1.,0.,2.));
#674=UNCERTAINTY_MEASURE_WITH_UNIT(LENGTH_MEASURE(0.01),#678,
'DISTANCE_ACCURACY_VALUE',
'Maximum model space distance between geometric entities at asserted c
onnectivities');
#675=UNCERTAINTY_MEASURE_WITH_UNIT(LENGTH_MEASURE(0.01),#678,
'DISTANCE_ACCURACY_VALUE',
'Maximum model space distance between geometric entities at asserted c
onnectivities');
#676=(
GEOMETRIC_REPRESENTATION_CONTEXT(3)
GLOBAL_UNCERTAINTY_ASSIGNED_CONTEXT((#674))
GLOBAL_UNIT_ASSIGNED_CONTEXT((#678,#680,#681))
REPRESENTATION_CONTEXT('','3D')
);
#677=(
GEOMETRIC_REPRESENTATION_CONTEXT(3)
GLOBAL_UNCERTAINTY_ASSIGNED_CONTEXT((#675))
GLOBAL_UNIT_ASSIGNED_CONTEXT((#678,#680,#681))
REPRESENTATION_CONTEXT('','3D')
);
#678=(
LENGTH_UNIT()
NAMED_UNIT(*)
SI_UNIT(.MILLI.,.METRE.)
);
#679=(
LENGTH_UNIT()
NAMED_UNIT(*)
SI_UNIT($,.METRE.)
);
#680=(
NAMED_UNIT(*)
PLANE_ANGLE_UNIT()
SI_UNIT($,.RADIAN.)
);
#681=(
NAMED_UNIT(*)
SI_UNIT($,.STERADIAN.)
SOLID_ANGLE_UNIT()
);
#682=SHAPE_DEFINITION_REPRESENTATION(#683,#684);
#683=PRODUCT_DEFINITION_SHAPE('',$,#686);
#684=SHAPE_REPRESENTATION('',(#414),#676);
#685=PRODUCT_DEFINITION_CONTEXT('part definition',#690,'design');
#686=PRODUCT_DEFINITION('mothbox lid hinge v2','mothbox lid hinge v2',#687,
#685);
#687=PRODUCT_DEFINITION_FORMATION('',$,#692);
#688=PRODUCT_RELATED_PRODUCT_CATEGORY('mothbox lid hinge v2',
'mothbox lid hinge v2',(#692));
#689=APPLICATION_PROTOCOL_DEFINITION('international standard',
'automotive_design',2009,#690);
#690=APPLICATION_CONTEXT(
'Core Data for Automotive Mechanical Design Process');
#691=PRODUCT_CONTEXT('part definition',#690,'mechanical');
#692=PRODUCT('mothbox lid hinge v2','mothbox lid hinge v2',$,(#691));
#693=PRESENTATION_STYLE_ASSIGNMENT((#694));
#694=SURFACE_STYLE_USAGE(.BOTH.,#695);
#695=SURFACE_SIDE_STYLE('',(#696));
#696=SURFACE_STYLE_FILL_AREA(#697);
#697=FILL_AREA_STYLE('Steel - Satin',(#698));
#698=FILL_AREA_STYLE_COLOUR('Steel - Satin',#699);
#699=COLOUR_RGB('Steel - Satin',0.627450980392157,0.627450980392157,0.627450980392157);
ENDSEC;
END-ISO-10303-21;
