ISO-10303-21;
HEADER;
/* Generated by software containing ST-Developer
 * from STEP Tools, Inc. (www.steptools.com) 
 */

FILE_DESCRIPTION(
/* description */ (''),
/* implementation_level */ '2;1');

FILE_NAME(
/* name */ 'Mothbox_pro_hinge1.step',
/* time_stamp */ '2026-08-31T18:05:49-07:00',
/* author */ (''),
/* organization */ (''),
/* preprocessor_version */ 'ST-DEVELOPER v20.1',
/* originating_system */ 'Autodesk Translation Framework v15.8.0.0',
/* authorisation */ '');

FILE_SCHEMA (('AUTOMOTIVE_DESIGN { 1 0 10303 214 3 1 1 }'));
ENDSEC;

DATA;
#10=MECHANICAL_DESIGN_GEOMETRIC_PRESENTATION_REPRESENTATION('',(#13),#611);
#11=SHAPE_REPRESENTATION_RELATIONSHIP('SRR','None',#618,#12);
#12=ADVANCED_BREP_SHAPE_REPRESENTATION('',(#14),#610);
#13=STYLED_ITEM('',(#627),#14);
#14=MANIFOLD_SOLID_BREP('Body1',#359);
#15=CYLINDRICAL_SURFACE('',#378,2.);
#16=CYLINDRICAL_SURFACE('',#386,2.);
#17=CYLINDRICAL_SURFACE('',#400,2.);
#18=CYLINDRICAL_SURFACE('',#401,2.);
#19=CYLINDRICAL_SURFACE('',#402,1.);
#20=CYLINDRICAL_SURFACE('',#403,1.);
#21=CYLINDRICAL_SURFACE('',#404,1.);
#22=CYLINDRICAL_SURFACE('',#405,1.);
#23=FACE_BOUND('',#50,.T.);
#24=FACE_BOUND('',#51,.T.);
#25=FACE_BOUND('',#55,.T.);
#26=FACE_BOUND('',#56,.T.);
#27=FACE_BOUND('',#59,.T.);
#28=FACE_BOUND('',#62,.T.);
#29=FACE_BOUND('',#64,.T.);
#30=FACE_BOUND('',#67,.T.);
#31=FACE_OUTER_BOUND('',#49,.T.);
#32=FACE_OUTER_BOUND('',#52,.T.);
#33=FACE_OUTER_BOUND('',#53,.T.);
#34=FACE_OUTER_BOUND('',#54,.T.);
#35=FACE_OUTER_BOUND('',#57,.T.);
#36=FACE_OUTER_BOUND('',#58,.T.);
#37=FACE_OUTER_BOUND('',#60,.T.);
#38=FACE_OUTER_BOUND('',#61,.T.);
#39=FACE_OUTER_BOUND('',#63,.T.);
#40=FACE_OUTER_BOUND('',#65,.T.);
#41=FACE_OUTER_BOUND('',#66,.T.);
#42=FACE_OUTER_BOUND('',#68,.T.);
#43=FACE_OUTER_BOUND('',#69,.T.);
#44=FACE_OUTER_BOUND('',#70,.T.);
#45=FACE_OUTER_BOUND('',#71,.T.);
#46=FACE_OUTER_BOUND('',#72,.T.);
#47=FACE_OUTER_BOUND('',#73,.T.);
#48=FACE_OUTER_BOUND('',#74,.T.);
#49=EDGE_LOOP('',(#235,#236,#237,#238));
#50=EDGE_LOOP('',(#239));
#51=EDGE_LOOP('',(#240));
#52=EDGE_LOOP('',(#241,#242,#243,#244));
#53=EDGE_LOOP('',(#245,#246,#247,#248,#249,#250,#251,#252,#253,#254,#255,
#256));
#54=EDGE_LOOP('',(#257,#258,#259,#260));
#55=EDGE_LOOP('',(#261));
#56=EDGE_LOOP('',(#262));
#57=EDGE_LOOP('',(#263,#264,#265,#266));
#58=EDGE_LOOP('',(#267,#268,#269,#270));
#59=EDGE_LOOP('',(#271));
#60=EDGE_LOOP('',(#272,#273,#274,#275));
#61=EDGE_LOOP('',(#276,#277,#278,#279));
#62=EDGE_LOOP('',(#280));
#63=EDGE_LOOP('',(#281,#282,#283,#284));
#64=EDGE_LOOP('',(#285));
#65=EDGE_LOOP('',(#286,#287,#288,#289));
#66=EDGE_LOOP('',(#290,#291,#292,#293));
#67=EDGE_LOOP('',(#294));
#68=EDGE_LOOP('',(#295,#296,#297,#298));
#69=EDGE_LOOP('',(#299,#300,#301,#302));
#70=EDGE_LOOP('',(#303,#304,#305,#306));
#71=EDGE_LOOP('',(#307,#308,#309,#310));
#72=EDGE_LOOP('',(#311,#312,#313,#314));
#73=EDGE_LOOP('',(#315,#316,#317,#318));
#74=EDGE_LOOP('',(#319,#320,#321,#322,#323,#324,#325,#326,#327,#328,#329,
#330));
#75=LINE('',#515,#107);
#76=LINE('',#518,#108);
#77=LINE('',#525,#109);
#78=LINE('',#528,#110);
#79=LINE('',#531,#111);
#80=LINE('',#533,#112);
#81=LINE('',#535,#113);
#82=LINE('',#537,#114);
#83=LINE('',#539,#115);
#84=LINE('',#541,#116);
#85=LINE('',#543,#117);
#86=LINE('',#545,#118);
#87=LINE('',#547,#119);
#88=LINE('',#548,#120);
#89=LINE('',#554,#121);
#90=LINE('',#561,#122);
#91=LINE('',#567,#123);
#92=LINE('',#568,#124);
#93=LINE('',#573,#125);
#94=LINE('',#574,#126);
#95=LINE('',#578,#127);
#96=LINE('',#583,#128);
#97=LINE('',#584,#129);
#98=LINE('',#589,#130);
#99=LINE('',#590,#131);
#100=LINE('',#592,#132);
#101=LINE('',#596,#133);
#102=LINE('',#598,#134);
#103=LINE('',#600,#135);
#104=LINE('',#602,#136);
#105=LINE('',#604,#137);
#106=LINE('',#606,#138);
#107=VECTOR('',#413,10.);
#108=VECTOR('',#416,10.);
#109=VECTOR('',#423,10.);
#110=VECTOR('',#426,10.);
#111=VECTOR('',#429,10.);
#112=VECTOR('',#430,10.);
#113=VECTOR('',#431,10.);
#114=VECTOR('',#432,10.);
#115=VECTOR('',#433,10.);
#116=VECTOR('',#434,10.);
#117=VECTOR('',#435,10.);
#118=VECTOR('',#436,10.);
#119=VECTOR('',#437,10.);
#120=VECTOR('',#438,10.);
#121=VECTOR('',#445,10.);
#122=VECTOR('',#452,10.);
#123=VECTOR('',#459,10.);
#124=VECTOR('',#460,10.);
#125=VECTOR('',#465,10.);
#126=VECTOR('',#466,10.);
#127=VECTOR('',#471,10.);
#128=VECTOR('',#476,10.);
#129=VECTOR('',#477,10.);
#130=VECTOR('',#482,10.);
#131=VECTOR('',#483,10.);
#132=VECTOR('',#486,10.);
#133=VECTOR('',#491,10.);
#134=VECTOR('',#494,10.);
#135=VECTOR('',#497,1.);
#136=VECTOR('',#500,1.);
#137=VECTOR('',#503,1.);
#138=VECTOR('',#506,1.);
#139=CIRCLE('',#374,2.);
#140=CIRCLE('',#375,2.);
#141=CIRCLE('',#376,1.);
#142=CIRCLE('',#377,1.);
#143=CIRCLE('',#379,2.);
#144=CIRCLE('',#382,2.);
#145=CIRCLE('',#383,2.);
#146=CIRCLE('',#384,1.);
#147=CIRCLE('',#385,1.);
#148=CIRCLE('',#387,2.);
#149=CIRCLE('',#389,2.);
#150=CIRCLE('',#390,1.);
#151=CIRCLE('',#393,2.);
#152=CIRCLE('',#394,1.);
#153=CIRCLE('',#396,1.);
#154=CIRCLE('',#399,1.);
#155=VERTEX_POINT('',#511);
#156=VERTEX_POINT('',#512);
#157=VERTEX_POINT('',#514);
#158=VERTEX_POINT('',#516);
#159=VERTEX_POINT('',#519);
#160=VERTEX_POINT('',#521);
#161=VERTEX_POINT('',#524);
#162=VERTEX_POINT('',#526);
#163=VERTEX_POINT('',#530);
#164=VERTEX_POINT('',#532);
#165=VERTEX_POINT('',#534);
#166=VERTEX_POINT('',#536);
#167=VERTEX_POINT('',#538);
#168=VERTEX_POINT('',#540);
#169=VERTEX_POINT('',#542);
#170=VERTEX_POINT('',#544);
#171=VERTEX_POINT('',#546);
#172=VERTEX_POINT('',#550);
#173=VERTEX_POINT('',#552);
#174=VERTEX_POINT('',#555);
#175=VERTEX_POINT('',#557);
#176=VERTEX_POINT('',#560);
#177=VERTEX_POINT('',#564);
#178=VERTEX_POINT('',#566);
#179=VERTEX_POINT('',#569);
#180=VERTEX_POINT('',#572);
#181=VERTEX_POINT('',#576);
#182=VERTEX_POINT('',#579);
#183=VERTEX_POINT('',#582);
#184=VERTEX_POINT('',#585);
#185=VERTEX_POINT('',#588);
#186=VERTEX_POINT('',#593);
#187=EDGE_CURVE('',#155,#156,#139,.T.);
#188=EDGE_CURVE('',#157,#155,#75,.T.);
#189=EDGE_CURVE('',#158,#157,#140,.T.);
#190=EDGE_CURVE('',#156,#158,#76,.T.);
#191=EDGE_CURVE('',#159,#159,#141,.T.);
#192=EDGE_CURVE('',#160,#160,#142,.T.);
#193=EDGE_CURVE('',#161,#156,#77,.T.);
#194=EDGE_CURVE('',#161,#162,#143,.T.);
#195=EDGE_CURVE('',#162,#155,#78,.T.);
#196=EDGE_CURVE('',#163,#158,#79,.T.);
#197=EDGE_CURVE('',#163,#164,#80,.T.);
#198=EDGE_CURVE('',#164,#165,#81,.T.);
#199=EDGE_CURVE('',#165,#166,#82,.T.);
#200=EDGE_CURVE('',#167,#166,#83,.T.);
#201=EDGE_CURVE('',#167,#168,#84,.T.);
#202=EDGE_CURVE('',#168,#169,#85,.T.);
#203=EDGE_CURVE('',#169,#170,#86,.T.);
#204=EDGE_CURVE('',#170,#171,#87,.T.);
#205=EDGE_CURVE('',#171,#161,#88,.T.);
#206=EDGE_CURVE('',#168,#172,#144,.T.);
#207=EDGE_CURVE('',#173,#167,#145,.T.);
#208=EDGE_CURVE('',#172,#173,#89,.T.);
#209=EDGE_CURVE('',#174,#174,#146,.T.);
#210=EDGE_CURVE('',#175,#175,#147,.T.);
#211=EDGE_CURVE('',#172,#176,#90,.T.);
#212=EDGE_CURVE('',#176,#169,#148,.T.);
#213=EDGE_CURVE('',#166,#177,#149,.T.);
#214=EDGE_CURVE('',#178,#165,#91,.T.);
#215=EDGE_CURVE('',#177,#178,#92,.T.);
#216=EDGE_CURVE('',#179,#179,#150,.T.);
#217=EDGE_CURVE('',#178,#180,#93,.T.);
#218=EDGE_CURVE('',#164,#180,#94,.T.);
#219=EDGE_CURVE('',#181,#163,#151,.T.);
#220=EDGE_CURVE('',#180,#181,#95,.T.);
#221=EDGE_CURVE('',#182,#182,#152,.T.);
#222=EDGE_CURVE('',#183,#176,#96,.T.);
#223=EDGE_CURVE('',#170,#183,#97,.T.);
#224=EDGE_CURVE('',#184,#184,#153,.T.);
#225=EDGE_CURVE('',#185,#183,#98,.T.);
#226=EDGE_CURVE('',#185,#171,#99,.T.);
#227=EDGE_CURVE('',#162,#185,#100,.T.);
#228=EDGE_CURVE('',#186,#186,#154,.T.);
#229=EDGE_CURVE('',#173,#177,#101,.T.);
#230=EDGE_CURVE('',#181,#157,#102,.T.);
#231=EDGE_CURVE('',#159,#182,#103,.T.);
#232=EDGE_CURVE('',#160,#186,#104,.T.);
#233=EDGE_CURVE('',#184,#175,#105,.T.);
#234=EDGE_CURVE('',#179,#174,#106,.T.);
#235=ORIENTED_EDGE('',*,*,#187,.F.);
#236=ORIENTED_EDGE('',*,*,#188,.F.);
#237=ORIENTED_EDGE('',*,*,#189,.F.);
#238=ORIENTED_EDGE('',*,*,#190,.F.);
#239=ORIENTED_EDGE('',*,*,#191,.F.);
#240=ORIENTED_EDGE('',*,*,#192,.F.);
#241=ORIENTED_EDGE('',*,*,#187,.T.);
#242=ORIENTED_EDGE('',*,*,#193,.F.);
#243=ORIENTED_EDGE('',*,*,#194,.T.);
#244=ORIENTED_EDGE('',*,*,#195,.T.);
#245=ORIENTED_EDGE('',*,*,#190,.T.);
#246=ORIENTED_EDGE('',*,*,#196,.F.);
#247=ORIENTED_EDGE('',*,*,#197,.T.);
#248=ORIENTED_EDGE('',*,*,#198,.T.);
#249=ORIENTED_EDGE('',*,*,#199,.T.);
#250=ORIENTED_EDGE('',*,*,#200,.F.);
#251=ORIENTED_EDGE('',*,*,#201,.T.);
#252=ORIENTED_EDGE('',*,*,#202,.T.);
#253=ORIENTED_EDGE('',*,*,#203,.T.);
#254=ORIENTED_EDGE('',*,*,#204,.T.);
#255=ORIENTED_EDGE('',*,*,#205,.T.);
#256=ORIENTED_EDGE('',*,*,#193,.T.);
#257=ORIENTED_EDGE('',*,*,#206,.F.);
#258=ORIENTED_EDGE('',*,*,#201,.F.);
#259=ORIENTED_EDGE('',*,*,#207,.F.);
#260=ORIENTED_EDGE('',*,*,#208,.F.);
#261=ORIENTED_EDGE('',*,*,#209,.F.);
#262=ORIENTED_EDGE('',*,*,#210,.F.);
#263=ORIENTED_EDGE('',*,*,#206,.T.);
#264=ORIENTED_EDGE('',*,*,#211,.T.);
#265=ORIENTED_EDGE('',*,*,#212,.T.);
#266=ORIENTED_EDGE('',*,*,#202,.F.);
#267=ORIENTED_EDGE('',*,*,#213,.F.);
#268=ORIENTED_EDGE('',*,*,#199,.F.);
#269=ORIENTED_EDGE('',*,*,#214,.F.);
#270=ORIENTED_EDGE('',*,*,#215,.F.);
#271=ORIENTED_EDGE('',*,*,#216,.F.);
#272=ORIENTED_EDGE('',*,*,#217,.F.);
#273=ORIENTED_EDGE('',*,*,#214,.T.);
#274=ORIENTED_EDGE('',*,*,#198,.F.);
#275=ORIENTED_EDGE('',*,*,#218,.T.);
#276=ORIENTED_EDGE('',*,*,#219,.F.);
#277=ORIENTED_EDGE('',*,*,#220,.F.);
#278=ORIENTED_EDGE('',*,*,#218,.F.);
#279=ORIENTED_EDGE('',*,*,#197,.F.);
#280=ORIENTED_EDGE('',*,*,#221,.F.);
#281=ORIENTED_EDGE('',*,*,#212,.F.);
#282=ORIENTED_EDGE('',*,*,#222,.F.);
#283=ORIENTED_EDGE('',*,*,#223,.F.);
#284=ORIENTED_EDGE('',*,*,#203,.F.);
#285=ORIENTED_EDGE('',*,*,#224,.F.);
#286=ORIENTED_EDGE('',*,*,#204,.F.);
#287=ORIENTED_EDGE('',*,*,#223,.T.);
#288=ORIENTED_EDGE('',*,*,#225,.F.);
#289=ORIENTED_EDGE('',*,*,#226,.T.);
#290=ORIENTED_EDGE('',*,*,#194,.F.);
#291=ORIENTED_EDGE('',*,*,#205,.F.);
#292=ORIENTED_EDGE('',*,*,#226,.F.);
#293=ORIENTED_EDGE('',*,*,#227,.F.);
#294=ORIENTED_EDGE('',*,*,#228,.F.);
#295=ORIENTED_EDGE('',*,*,#207,.T.);
#296=ORIENTED_EDGE('',*,*,#200,.T.);
#297=ORIENTED_EDGE('',*,*,#213,.T.);
#298=ORIENTED_EDGE('',*,*,#229,.F.);
#299=ORIENTED_EDGE('',*,*,#189,.T.);
#300=ORIENTED_EDGE('',*,*,#230,.F.);
#301=ORIENTED_EDGE('',*,*,#219,.T.);
#302=ORIENTED_EDGE('',*,*,#196,.T.);
#303=ORIENTED_EDGE('',*,*,#191,.T.);
#304=ORIENTED_EDGE('',*,*,#231,.T.);
#305=ORIENTED_EDGE('',*,*,#221,.T.);
#306=ORIENTED_EDGE('',*,*,#231,.F.);
#307=ORIENTED_EDGE('',*,*,#192,.T.);
#308=ORIENTED_EDGE('',*,*,#232,.T.);
#309=ORIENTED_EDGE('',*,*,#228,.T.);
#310=ORIENTED_EDGE('',*,*,#232,.F.);
#311=ORIENTED_EDGE('',*,*,#224,.T.);
#312=ORIENTED_EDGE('',*,*,#233,.T.);
#313=ORIENTED_EDGE('',*,*,#210,.T.);
#314=ORIENTED_EDGE('',*,*,#233,.F.);
#315=ORIENTED_EDGE('',*,*,#216,.T.);
#316=ORIENTED_EDGE('',*,*,#234,.T.);
#317=ORIENTED_EDGE('',*,*,#209,.T.);
#318=ORIENTED_EDGE('',*,*,#234,.F.);
#319=ORIENTED_EDGE('',*,*,#188,.T.);
#320=ORIENTED_EDGE('',*,*,#195,.F.);
#321=ORIENTED_EDGE('',*,*,#227,.T.);
#322=ORIENTED_EDGE('',*,*,#225,.T.);
#323=ORIENTED_EDGE('',*,*,#222,.T.);
#324=ORIENTED_EDGE('',*,*,#211,.F.);
#325=ORIENTED_EDGE('',*,*,#208,.T.);
#326=ORIENTED_EDGE('',*,*,#229,.T.);
#327=ORIENTED_EDGE('',*,*,#215,.T.);
#328=ORIENTED_EDGE('',*,*,#217,.T.);
#329=ORIENTED_EDGE('',*,*,#220,.T.);
#330=ORIENTED_EDGE('',*,*,#230,.T.);
#331=PLANE('',#373);
#332=PLANE('',#380);
#333=PLANE('',#381);
#334=PLANE('',#388);
#335=PLANE('',#391);
#336=PLANE('',#392);
#337=PLANE('',#395);
#338=PLANE('',#397);
#339=PLANE('',#398);
#340=PLANE('',#406);
#341=ADVANCED_FACE('',(#31,#23,#24),#331,.T.);
#342=ADVANCED_FACE('',(#32),#15,.T.);
#343=ADVANCED_FACE('',(#33),#332,.T.);
#344=ADVANCED_FACE('',(#34,#25,#26),#333,.F.);
#345=ADVANCED_FACE('',(#35),#16,.T.);
#346=ADVANCED_FACE('',(#36,#27),#334,.T.);
#347=ADVANCED_FACE('',(#37),#335,.F.);
#348=ADVANCED_FACE('',(#38,#28),#336,.F.);
#349=ADVANCED_FACE('',(#39,#29),#337,.T.);
#350=ADVANCED_FACE('',(#40),#338,.F.);
#351=ADVANCED_FACE('',(#41,#30),#339,.F.);
#352=ADVANCED_FACE('',(#42),#17,.T.);
#353=ADVANCED_FACE('',(#43),#18,.T.);
#354=ADVANCED_FACE('',(#44),#19,.F.);
#355=ADVANCED_FACE('',(#45),#20,.F.);
#356=ADVANCED_FACE('',(#46),#21,.F.);
#357=ADVANCED_FACE('',(#47),#22,.F.);
#358=ADVANCED_FACE('',(#48),#340,.T.);
#359=CLOSED_SHELL('',(#341,#342,#343,#344,#345,#346,#347,#348,#349,#350,
#351,#352,#353,#354,#355,#356,#357,#358));
#360=DERIVED_UNIT_ELEMENT(#362,1.);
#361=DERIVED_UNIT_ELEMENT(#613,-3.);
#362=(
MASS_UNIT()
NAMED_UNIT(*)
SI_UNIT(.KILO.,.GRAM.)
);
#363=DERIVED_UNIT((#360,#361));
#364=MEASURE_REPRESENTATION_ITEM('density measure',
POSITIVE_RATIO_MEASURE(7850.),#363);
#365=PROPERTY_DEFINITION_REPRESENTATION(#370,#367);
#366=PROPERTY_DEFINITION_REPRESENTATION(#371,#368);
#367=REPRESENTATION('material name',(#369),#610);
#368=REPRESENTATION('density',(#364),#610);
#369=DESCRIPTIVE_REPRESENTATION_ITEM('Steel','Steel');
#370=PROPERTY_DEFINITION('material property','material name',#620);
#371=PROPERTY_DEFINITION('material property','density of part',#620);
#372=AXIS2_PLACEMENT_3D('',#509,#407,#408);
#373=AXIS2_PLACEMENT_3D('',#510,#409,#410);
#374=AXIS2_PLACEMENT_3D('',#513,#411,#412);
#375=AXIS2_PLACEMENT_3D('',#517,#414,#415);
#376=AXIS2_PLACEMENT_3D('',#520,#417,#418);
#377=AXIS2_PLACEMENT_3D('',#522,#419,#420);
#378=AXIS2_PLACEMENT_3D('',#523,#421,#422);
#379=AXIS2_PLACEMENT_3D('',#527,#424,#425);
#380=AXIS2_PLACEMENT_3D('',#529,#427,#428);
#381=AXIS2_PLACEMENT_3D('',#549,#439,#440);
#382=AXIS2_PLACEMENT_3D('',#551,#441,#442);
#383=AXIS2_PLACEMENT_3D('',#553,#443,#444);
#384=AXIS2_PLACEMENT_3D('',#556,#446,#447);
#385=AXIS2_PLACEMENT_3D('',#558,#448,#449);
#386=AXIS2_PLACEMENT_3D('',#559,#450,#451);
#387=AXIS2_PLACEMENT_3D('',#562,#453,#454);
#388=AXIS2_PLACEMENT_3D('',#563,#455,#456);
#389=AXIS2_PLACEMENT_3D('',#565,#457,#458);
#390=AXIS2_PLACEMENT_3D('',#570,#461,#462);
#391=AXIS2_PLACEMENT_3D('',#571,#463,#464);
#392=AXIS2_PLACEMENT_3D('',#575,#467,#468);
#393=AXIS2_PLACEMENT_3D('',#577,#469,#470);
#394=AXIS2_PLACEMENT_3D('',#580,#472,#473);
#395=AXIS2_PLACEMENT_3D('',#581,#474,#475);
#396=AXIS2_PLACEMENT_3D('',#586,#478,#479);
#397=AXIS2_PLACEMENT_3D('',#587,#480,#481);
#398=AXIS2_PLACEMENT_3D('',#591,#484,#485);
#399=AXIS2_PLACEMENT_3D('',#594,#487,#488);
#400=AXIS2_PLACEMENT_3D('',#595,#489,#490);
#401=AXIS2_PLACEMENT_3D('',#597,#492,#493);
#402=AXIS2_PLACEMENT_3D('',#599,#495,#496);
#403=AXIS2_PLACEMENT_3D('',#601,#498,#499);
#404=AXIS2_PLACEMENT_3D('',#603,#501,#502);
#405=AXIS2_PLACEMENT_3D('',#605,#504,#505);
#406=AXIS2_PLACEMENT_3D('',#607,#507,#508);
#407=DIRECTION('axis',(0.,0.,1.));
#408=DIRECTION('refdir',(1.,0.,0.));
#409=DIRECTION('center_axis',(0.,1.,0.));
#410=DIRECTION('ref_axis',(1.,0.,0.));
#411=DIRECTION('center_axis',(0.,-1.,0.));
#412=DIRECTION('ref_axis',(1.,0.,0.));
#413=DIRECTION('',(-1.,0.,0.));
#414=DIRECTION('center_axis',(0.,-1.,0.));
#415=DIRECTION('ref_axis',(1.,0.,0.));
#416=DIRECTION('',(1.,0.,9.24446373305873E-33));
#417=DIRECTION('center_axis',(0.,1.,0.));
#418=DIRECTION('ref_axis',(1.,0.,0.));
#419=DIRECTION('center_axis',(0.,1.,0.));
#420=DIRECTION('ref_axis',(1.,0.,0.));
#421=DIRECTION('center_axis',(0.,1.,0.));
#422=DIRECTION('ref_axis',(-1.,0.,-1.22464679914735E-16));
#423=DIRECTION('',(0.,1.,0.));
#424=DIRECTION('center_axis',(0.,1.,0.));
#425=DIRECTION('ref_axis',(1.,0.,0.));
#426=DIRECTION('',(0.,1.,0.));
#427=DIRECTION('center_axis',(9.24446373305873E-33,0.,-1.));
#428=DIRECTION('ref_axis',(-1.,0.,-9.24446373305873E-33));
#429=DIRECTION('',(0.,1.,0.));
#430=DIRECTION('',(-1.,0.,-9.24446373305873E-33));
#431=DIRECTION('',(0.,-1.,0.));
#432=DIRECTION('',(1.,0.,9.24446373305873E-33));
#433=DIRECTION('',(0.,1.,0.));
#434=DIRECTION('',(-1.,0.,-9.24446373305873E-33));
#435=DIRECTION('',(0.,1.,0.));
#436=DIRECTION('',(1.,0.,9.24446373305873E-33));
#437=DIRECTION('',(0.,1.,0.));
#438=DIRECTION('',(-1.,0.,-9.24446373305873E-33));
#439=DIRECTION('center_axis',(0.,1.,0.));
#440=DIRECTION('ref_axis',(1.,0.,0.));
#441=DIRECTION('center_axis',(0.,1.,0.));
#442=DIRECTION('ref_axis',(1.,0.,0.));
#443=DIRECTION('center_axis',(0.,1.,0.));
#444=DIRECTION('ref_axis',(1.,0.,0.));
#445=DIRECTION('',(1.,0.,0.));
#446=DIRECTION('center_axis',(0.,-1.,0.));
#447=DIRECTION('ref_axis',(1.,0.,0.));
#448=DIRECTION('center_axis',(0.,-1.,0.));
#449=DIRECTION('ref_axis',(1.,0.,0.));
#450=DIRECTION('center_axis',(0.,1.,0.));
#451=DIRECTION('ref_axis',(-1.,0.,-1.22464679914735E-16));
#452=DIRECTION('',(0.,1.,0.));
#453=DIRECTION('center_axis',(0.,-1.,0.));
#454=DIRECTION('ref_axis',(1.,0.,0.));
#455=DIRECTION('center_axis',(0.,1.,0.));
#456=DIRECTION('ref_axis',(1.,0.,0.));
#457=DIRECTION('center_axis',(0.,-1.,0.));
#458=DIRECTION('ref_axis',(1.,0.,0.));
#459=DIRECTION('',(0.,0.,-1.));
#460=DIRECTION('',(-1.,0.,0.));
#461=DIRECTION('center_axis',(0.,1.,0.));
#462=DIRECTION('ref_axis',(1.,0.,0.));
#463=DIRECTION('center_axis',(-1.,0.,0.));
#464=DIRECTION('ref_axis',(0.,0.,1.));
#465=DIRECTION('',(0.,1.,0.));
#466=DIRECTION('',(0.,0.,1.));
#467=DIRECTION('center_axis',(0.,1.,0.));
#468=DIRECTION('ref_axis',(1.,0.,0.));
#469=DIRECTION('center_axis',(0.,1.,0.));
#470=DIRECTION('ref_axis',(1.,0.,0.));
#471=DIRECTION('',(1.,0.,0.));
#472=DIRECTION('center_axis',(0.,-1.,0.));
#473=DIRECTION('ref_axis',(1.,0.,0.));
#474=DIRECTION('center_axis',(0.,1.,0.));
#475=DIRECTION('ref_axis',(1.,0.,0.));
#476=DIRECTION('',(-1.,0.,0.));
#477=DIRECTION('',(0.,0.,1.));
#478=DIRECTION('center_axis',(0.,1.,0.));
#479=DIRECTION('ref_axis',(1.,0.,0.));
#480=DIRECTION('center_axis',(1.,0.,0.));
#481=DIRECTION('ref_axis',(0.,0.,-1.));
#482=DIRECTION('',(0.,-1.,0.));
#483=DIRECTION('',(0.,0.,-1.));
#484=DIRECTION('center_axis',(0.,1.,0.));
#485=DIRECTION('ref_axis',(1.,0.,0.));
#486=DIRECTION('',(1.,0.,0.));
#487=DIRECTION('center_axis',(0.,-1.,0.));
#488=DIRECTION('ref_axis',(1.,0.,0.));
#489=DIRECTION('center_axis',(0.,1.,0.));
#490=DIRECTION('ref_axis',(1.,0.,0.));
#491=DIRECTION('',(0.,1.,0.));
#492=DIRECTION('center_axis',(0.,1.,0.));
#493=DIRECTION('ref_axis',(1.,0.,0.));
#494=DIRECTION('',(0.,1.,0.));
#495=DIRECTION('center_axis',(0.,1.,0.));
#496=DIRECTION('ref_axis',(1.,0.,0.));
#497=DIRECTION('',(0.,-1.,0.));
#498=DIRECTION('center_axis',(0.,1.,0.));
#499=DIRECTION('ref_axis',(1.,0.,0.));
#500=DIRECTION('',(0.,-1.,0.));
#501=DIRECTION('center_axis',(0.,1.,0.));
#502=DIRECTION('ref_axis',(1.,0.,0.));
#503=DIRECTION('',(0.,-1.,0.));
#504=DIRECTION('center_axis',(0.,1.,0.));
#505=DIRECTION('ref_axis',(1.,0.,0.));
#506=DIRECTION('',(0.,-1.,0.));
#507=DIRECTION('center_axis',(0.,0.,1.));
#508=DIRECTION('ref_axis',(1.,0.,0.));
#509=CARTESIAN_POINT('',(0.,0.,0.));
#510=CARTESIAN_POINT('Origin',(5.,198.,2.));
#511=CARTESIAN_POINT('',(0.,198.,4.));
#512=CARTESIAN_POINT('',(0.,198.,0.));
#513=CARTESIAN_POINT('Origin',(0.,198.,2.));
#514=CARTESIAN_POINT('',(10.,198.,4.));
#515=CARTESIAN_POINT('',(2.5,198.,4.));
#516=CARTESIAN_POINT('',(10.,198.,5.55111512312578E-16));
#517=CARTESIAN_POINT('Origin',(10.,198.,2.));
#518=CARTESIAN_POINT('',(7.5,198.,0.));
#519=CARTESIAN_POINT('',(9.,198.,2.));
#520=CARTESIAN_POINT('Origin',(10.,198.,2.));
#521=CARTESIAN_POINT('',(-1.,198.,2.));
#522=CARTESIAN_POINT('Origin',(0.,198.,2.));
#523=CARTESIAN_POINT('Origin',(0.,0.,2.));
#524=CARTESIAN_POINT('',(5.55111512312578E-16,149.6,0.));
#525=CARTESIAN_POINT('',(1.22464679914735E-16,0.,0.));
#526=CARTESIAN_POINT('',(0.,149.6,4.));
#527=CARTESIAN_POINT('Origin',(0.,149.6,2.));
#528=CARTESIAN_POINT('',(1.22464679914735E-16,0.,4.));
#529=CARTESIAN_POINT('Origin',(10.,0.,9.24446373305873E-32));
#530=CARTESIAN_POINT('',(10.,149.6,5.55111512312578E-16));
#531=CARTESIAN_POINT('',(10.,0.,5.55111512312578E-16));
#532=CARTESIAN_POINT('',(8.,149.6,5.55111512312578E-16));
#533=CARTESIAN_POINT('',(10.,149.6,0.));
#534=CARTESIAN_POINT('',(8.,100.4,5.55111512312578E-16));
#535=CARTESIAN_POINT('',(8.,62.5,6.16297582203915E-32));
#536=CARTESIAN_POINT('',(10.,100.4,5.55111512312578E-16));
#537=CARTESIAN_POINT('',(10.,100.4,0.));
#538=CARTESIAN_POINT('',(10.,52.,5.55111512312578E-16));
#539=CARTESIAN_POINT('',(10.,0.,5.55111512312578E-16));
#540=CARTESIAN_POINT('',(0.,52.,0.));
#541=CARTESIAN_POINT('',(7.5,52.,0.));
#542=CARTESIAN_POINT('',(5.55111512312578E-16,100.4,0.));
#543=CARTESIAN_POINT('',(1.22464679914735E-16,0.,0.));
#544=CARTESIAN_POINT('',(2.,100.4,5.55111512312578E-16));
#545=CARTESIAN_POINT('',(5.,100.4,0.));
#546=CARTESIAN_POINT('',(2.,149.6,5.55111512312578E-16));
#547=CARTESIAN_POINT('',(2.,62.5,0.));
#548=CARTESIAN_POINT('',(5.,149.6,0.));
#549=CARTESIAN_POINT('Origin',(5.,52.,2.));
#550=CARTESIAN_POINT('',(0.,52.,4.));
#551=CARTESIAN_POINT('Origin',(0.,52.,2.));
#552=CARTESIAN_POINT('',(10.,52.,4.));
#553=CARTESIAN_POINT('Origin',(10.,52.,2.));
#554=CARTESIAN_POINT('',(2.5,52.,4.));
#555=CARTESIAN_POINT('',(9.,52.,2.));
#556=CARTESIAN_POINT('Origin',(10.,52.,2.));
#557=CARTESIAN_POINT('',(-1.,52.,2.));
#558=CARTESIAN_POINT('Origin',(0.,52.,2.));
#559=CARTESIAN_POINT('Origin',(0.,0.,2.));
#560=CARTESIAN_POINT('',(0.,100.4,4.));
#561=CARTESIAN_POINT('',(1.22464679914735E-16,0.,4.));
#562=CARTESIAN_POINT('Origin',(0.,100.4,2.));
#563=CARTESIAN_POINT('Origin',(10.,100.4,2.));
#564=CARTESIAN_POINT('',(10.,100.4,4.));
#565=CARTESIAN_POINT('Origin',(10.,100.4,2.));
#566=CARTESIAN_POINT('',(8.,100.4,4.));
#567=CARTESIAN_POINT('',(8.,100.4,5.55111512312578E-16));
#568=CARTESIAN_POINT('',(5.,100.4,4.));
#569=CARTESIAN_POINT('',(9.,100.4,2.));
#570=CARTESIAN_POINT('Origin',(10.,100.4,2.));
#571=CARTESIAN_POINT('Origin',(8.,125.,5.55111512312578E-16));
#572=CARTESIAN_POINT('',(8.,149.6,4.));
#573=CARTESIAN_POINT('',(8.,62.5,4.));
#574=CARTESIAN_POINT('',(8.,149.6,5.55111512312578E-16));
#575=CARTESIAN_POINT('Origin',(10.,149.6,2.));
#576=CARTESIAN_POINT('',(10.,149.6,4.));
#577=CARTESIAN_POINT('Origin',(10.,149.6,2.));
#578=CARTESIAN_POINT('',(5.,149.6,4.));
#579=CARTESIAN_POINT('',(9.,149.6,2.));
#580=CARTESIAN_POINT('Origin',(10.,149.6,2.));
#581=CARTESIAN_POINT('Origin',(-2.77555756156289E-16,100.4,2.));
#582=CARTESIAN_POINT('',(2.,100.4,4.));
#583=CARTESIAN_POINT('',(-1.38777878078145E-16,100.4,4.));
#584=CARTESIAN_POINT('',(2.,100.4,5.55111512312578E-16));
#585=CARTESIAN_POINT('',(-1.,100.4,2.));
#586=CARTESIAN_POINT('Origin',(0.,100.4,2.));
#587=CARTESIAN_POINT('Origin',(2.,125.,4.));
#588=CARTESIAN_POINT('',(2.,149.6,4.));
#589=CARTESIAN_POINT('',(2.,62.5,4.));
#590=CARTESIAN_POINT('',(2.,149.6,5.55111512312578E-16));
#591=CARTESIAN_POINT('Origin',(-2.77555756156289E-16,149.6,2.));
#592=CARTESIAN_POINT('',(-1.38777878078145E-16,149.6,4.));
#593=CARTESIAN_POINT('',(-1.,149.6,2.));
#594=CARTESIAN_POINT('Origin',(0.,149.6,2.));
#595=CARTESIAN_POINT('Origin',(10.,0.,2.));
#596=CARTESIAN_POINT('',(10.,0.,4.));
#597=CARTESIAN_POINT('Origin',(10.,0.,2.));
#598=CARTESIAN_POINT('',(10.,0.,4.));
#599=CARTESIAN_POINT('Origin',(10.,0.,2.));
#600=CARTESIAN_POINT('',(9.,0.,2.));
#601=CARTESIAN_POINT('Origin',(0.,0.,2.));
#602=CARTESIAN_POINT('',(-1.,0.,2.));
#603=CARTESIAN_POINT('Origin',(0.,0.,2.));
#604=CARTESIAN_POINT('',(-1.,0.,2.));
#605=CARTESIAN_POINT('Origin',(10.,0.,2.));
#606=CARTESIAN_POINT('',(9.,0.,2.));
#607=CARTESIAN_POINT('Origin',(0.,0.,4.));
#608=UNCERTAINTY_MEASURE_WITH_UNIT(LENGTH_MEASURE(0.01),#612,
'DISTANCE_ACCURACY_VALUE',
'Maximum model space distance between geometric entities at asserted c
onnectivities');
#609=UNCERTAINTY_MEASURE_WITH_UNIT(LENGTH_MEASURE(0.01),#612,
'DISTANCE_ACCURACY_VALUE',
'Maximum model space distance between geometric entities at asserted c
onnectivities');
#610=(
GEOMETRIC_REPRESENTATION_CONTEXT(3)
GLOBAL_UNCERTAINTY_ASSIGNED_CONTEXT((#608))
GLOBAL_UNIT_ASSIGNED_CONTEXT((#612,#614,#615))
REPRESENTATION_CONTEXT('','3D')
);
#611=(
GEOMETRIC_REPRESENTATION_CONTEXT(3)
GLOBAL_UNCERTAINTY_ASSIGNED_CONTEXT((#609))
GLOBAL_UNIT_ASSIGNED_CONTEXT((#612,#614,#615))
REPRESENTATION_CONTEXT('','3D')
);
#612=(
LENGTH_UNIT()
NAMED_UNIT(*)
SI_UNIT(.MILLI.,.METRE.)
);
#613=(
LENGTH_UNIT()
NAMED_UNIT(*)
SI_UNIT($,.METRE.)
);
#614=(
NAMED_UNIT(*)
PLANE_ANGLE_UNIT()
SI_UNIT($,.RADIAN.)
);
#615=(
NAMED_UNIT(*)
SI_UNIT($,.STERADIAN.)
SOLID_ANGLE_UNIT()
);
#616=SHAPE_DEFINITION_REPRESENTATION(#617,#618);
#617=PRODUCT_DEFINITION_SHAPE('',$,#620);
#618=SHAPE_REPRESENTATION('',(#372),#610);
#619=PRODUCT_DEFINITION_CONTEXT('part definition',#624,'design');
#620=PRODUCT_DEFINITION('mothbox lid hinge','mothbox lid hinge',#621,#619);
#621=PRODUCT_DEFINITION_FORMATION('',$,#626);
#622=PRODUCT_RELATED_PRODUCT_CATEGORY('mothbox lid hinge',
'mothbox lid hinge',(#626));
#623=APPLICATION_PROTOCOL_DEFINITION('international standard',
'automotive_design',2009,#624);
#624=APPLICATION_CONTEXT(
'Core Data for Automotive Mechanical Design Process');
#625=PRODUCT_CONTEXT('part definition',#624,'mechanical');
#626=PRODUCT('mothbox lid hinge','mothbox lid hinge',$,(#625));
#627=PRESENTATION_STYLE_ASSIGNMENT((#628));
#628=SURFACE_STYLE_USAGE(.BOTH.,#629);
#629=SURFACE_SIDE_STYLE('',(#630));
#630=SURFACE_STYLE_FILL_AREA(#631);
#631=FILL_AREA_STYLE('Steel - Satin',(#632));
#632=FILL_AREA_STYLE_COLOUR('Steel - Satin',#633);
#633=COLOUR_RGB('Steel - Satin',0.627450980392157,0.627450980392157,0.627450980392157);
ENDSEC;
END-ISO-10303-21;
