0
SECTION
2
HEADER
9
$INSUNITS
70
4
9
$ACADVER
1
AC1014
9
$HANDSEED
5
FFFF
0
ENDSEC
0
SECTION
2
TABLES
0
TABLE
2
VPORT
5
8
100
AcDbSymbolTable
0
ENDTAB
0
TABLE
2
LTYPE
5
5
100
AcDbSymbolTable
70
3
0
LTYPE
5
14
100
AcDbSymbolTableRecord
100
AcDbLinetypeTableRecord
2
BYBLOCK
70
0
0
LTYPE
5
15
100
AcDbSymbolTableRecord
100
AcDbLinetypeTableRecord
2
BYLAYER
70
0
0
LTYPE
5
16
100
AcDbSymbolTableRecord
100
AcDbLinetypeTableRecord
2
DASHED
70
0
3
Dashed __ __ __ __ __ __ __ __ __ __ __ __ __ _
72
65
73
2
40
0.75
49
0.5
74
0
49
-0.25
74
0
0
ENDTAB
0
TABLE
2
LAYER
5
2
100
AcDbSymbolTable
70
3
0
LAYER
5
50
100
AcDbSymbolTableRecord
100
AcDbLayerTableRecord
2
0
70
0
6
CONTINUOUS
0
LAYER
5
51
100
AcDbSymbolTableRecord
100
AcDbLayerTableRecord
2
CUTOUTS
70
0
62
1
6
CONTINUOUS
0
LAYER
5
52
100
AcDbSymbolTableRecord
100
AcDbLayerTableRecord
2
PERIMETER
70
0
62
5
6
CONTINUOUS
0
ENDTAB
0
TABLE
2
STYLE
5
3
100
AcDbSymbolTable
70
1
0
STYLE
5
11
100
AcDbSymbolTableRecord
100
AcDbTextStyleTableRecord
2
STANDARD
70
0
0
ENDTAB
0
TABLE
2
VIEW
5
6
100
AcDbSymbolTable
0
ENDTAB
0
TABLE
2
UCS
5
7
100
AcDbSymbolTable
0
ENDTAB
0
TABLE
2
APPID
5
9
100
AcDbSymbolTable
70
1
0
APPID
5
12
100
AcDbSymbolTableRecord
100
AcDbRegAppTableRecord
2
ACAD
70
0
0
ENDTAB
0
TABLE
2
DIMSTYLE
5
A
100
AcDbSymbolTable
0
ENDTAB
0
TABLE
2
BLOCK_RECORD
5
1
100
AcDbSymbolTable
70
2
0
BLOCK_RECORD
5
1F
100
AcDbSymbolTableRecord
100
AcDbBlockTableRecord
2
*MODEL_SPACE
0
BLOCK_RECORD
5
1B
100
AcDbSymbolTableRecord
100
AcDbBlockTableRecord
2
*PAPER_SPACE
0
ENDTAB
0
ENDSEC
0
SECTION
2
BLOCKS
0
BLOCK
5
20
100
AcDbEntity
100
AcDbBlockBegin
2
*MODEL_SPACE
0
ENDBLK
5
21
100
AcDbEntity
100
AcDbBlockEnd
0
BLOCK
5
1C
100
AcDbEntity
100
AcDbBlockBegin
2
*PAPER_SPACE
0
ENDBLK
5
1D
100
AcDbEntity
100
AcDbBlockEnd
0
ENDSEC
0
SECTION
2
ENTITIES
0
CIRCLE
5
100
100
AcDbEntity
8
CUTOUTS
100
AcDbCircle
10
94.583407111135358
20
-125.30324539550278
30
2.8066438062523957e-12
40
1.4250000000000007
210
0
220
0
230
1
0
CIRCLE
5
101
100
AcDbEntity
8
CUTOUTS
100
AcDbCircle
10
-47.291703555567679
20
-125.30324539550278
30
2.8066438062523957e-12
40
1.4250000000000007
210
0
220
0
230
1
0
CIRCLE
5
102
100
AcDbEntity
8
CUTOUTS
100
AcDbCircle
10
-94.583407111135358
20
-125.30324539550278
30
2.8066438062523957e-12
40
1.4250000000000007
210
0
220
0
230
1
0
CIRCLE
5
103
100
AcDbEntity
8
CUTOUTS
100
AcDbCircle
10
-4.611969554872586e-33
20
-125.30324539550278
30
2.8066438062523957e-12
40
1.4250000000000012
210
0
220
0
230
1
0
CIRCLE
5
104
100
AcDbEntity
8
CUTOUTS
100
AcDbCircle
10
47.291703555567608
20
-125.30324539550278
30
2.8066438062523957e-12
40
1.4250000000000007
210
0
220
0
230
1
0
CIRCLE
5
105
100
AcDbEntity
8
CUTOUTS
100
AcDbCircle
10
-4.6119695548597226e-33
20
61.696754604497329
30
-1.3500311979441904e-12
40
1.4250000000000012
210
0
220
0
230
1
0
CIRCLE
5
106
100
AcDbEntity
8
CUTOUTS
100
AcDbCircle
10
47.291703555567608
20
61.696754604497329
30
-1.3500311979441904e-12
40
1.4250000000000007
210
0
220
0
230
1
0
CIRCLE
5
107
100
AcDbEntity
8
CUTOUTS
100
AcDbCircle
10
-47.291703555567679
20
61.696754604497329
30
-1.3500311979441904e-12
40
1.4250000000000007
210
0
220
0
230
1
0
CIRCLE
5
108
100
AcDbEntity
8
CUTOUTS
100
AcDbCircle
10
94.583407111135358
20
61.696754604497329
30
-1.3500311979441904e-12
40
1.4250000000000007
210
0
220
0
230
1
0
CIRCLE
5
109
100
AcDbEntity
8
CUTOUTS
100
AcDbCircle
10
-94.583407111135358
20
61.696754604497329
30
-1.3500311979441904e-12
40
1.4250000000000007
210
0
220
0
230
1
0
LWPOLYLINE
5
10A
100
AcDbEntity
8
CUTOUTS
100
AcDbPolyline
90
8
70
1
43
0.0
10
133.77098367855635
20
-96.902756277113212
10
133.77098367855635
20
-95.520201371945006
42
0.14909575337828643
10
135.0601421740881
20
-91.293048478956123
10
135.06014217408813
20
31.00000000000664
42
0.14909575337828729
10
133.77098367855635
20
35.227152892995541
10
133.77098367855635
20
36.609707798163726
42
-0.18419677409558144
10
135.91014217408809
20
31.000000000006636
10
135.91014217408809
20
-91.293048478956123
42
-0.18419677409558122
0
LWPOLYLINE
5
10B
100
AcDbEntity
8
CUTOUTS
100
AcDbPolyline
90
8
70
1
43
0.0
10
-133.77098367855635
20
36.609707798163733
10
-133.77098367855635
20
35.227152892995541
42
0.14909575337828729
10
-135.06014217408813
20
31.00000000000664
10
-135.06014217408813
20
-91.293048478956095
42
0.14909575337829034
10
-133.77098367855635
20
-95.520201371945021
10
-133.77098367855635
20
-96.902756277113184
42
-0.18419677409558408
10
-135.91014217408809
20
-91.293048478956109
10
-135.91014217408812
20
31.000000000006636
42
-0.18419677409558155
0
LWPOLYLINE
5
10C
100
AcDbEntity
8
CUTOUTS
100
AcDbPolyline
90
8
70
1
43
0.0
10
-127.48514217408811
20
-98.868048478956055
10
127.48514217408811
20
-98.868048478956112
42
0.094961096830003727
10
130.28577900645291
20
-98.33130524702031
10
132.1158620605419
20
-98.33130524702031
42
-0.14651858495444028
10
127.48514217408811
20
-99.718048478956121
10
-127.48514217408811
20
-99.71804847895605
42
-0.14651858495444095
10
-132.11586206054187
20
-98.33130524702031
10
-130.28577900645291
20
-98.33130524702031
42
0.09496109683000456
0
LWPOLYLINE
5
10D
100
AcDbEntity
8
CUTOUTS
100
AcDbPolyline
90
4
70
1
43
0.0
10
-130.07499999999996
20
-10.706057411852761
42
0.99999999999999989
10
-131.92499999999993
20
-10.706057411852761
10
-131.92499999999993
20
-19.706057411852768
42
0.99999999999999989
10
-130.07499999999996
20
-19.706057411852772
0
LWPOLYLINE
5
10E
100
AcDbEntity
8
CUTOUTS
100
AcDbPolyline
90
4
70
1
43
0.0
10
-130.07499999999996
20
-45.706057411852782
42
0.99999999999999989
10
-131.92499999999993
20
-45.706057411852782
10
-131.92499999999993
20
-54.706057411852797
42
0.99999999999999989
10
-130.07499999999996
20
-54.706057411852797
0
LWPOLYLINE
5
10F
100
AcDbEntity
8
CUTOUTS
100
AcDbPolyline
90
4
70
1
43
0.0
10
130.07499999999996
20
-19.706057411852772
42
0.99999999999999989
10
131.92499999999993
20
-19.706057411852772
10
131.92499999999993
20
-10.706057411852758
42
0.99999999999999989
10
130.07499999999996
20
-10.706057411852763
0
LWPOLYLINE
5
110
100
AcDbEntity
8
CUTOUTS
100
AcDbPolyline
90
4
70
1
43
0.0
10
130.07499999999996
20
-54.706057411852797
10
130.07499999999996
20
-45.706057411852782
42
-0.99999999999999989
10
131.92499999999993
20
-45.706057411852782
10
131.92499999999993
20
-54.706057411852797
42
-0.99999999999999989
0
LWPOLYLINE
5
111
100
AcDbEntity
8
CUTOUTS
100
AcDbPolyline
90
8
70
1
43
0.0
10
132.43347794137154
20
37.818694752979781
10
130.78454012913636
20
37.818694752979781
42
0.1131453577661337
10
127.48514217408812
20
38.575000000006632
10
-127.48514217408811
20
38.575000000006646
42
0.11314535776613474
10
-130.78454012913636
20
37.818694752979781
10
-132.43347794137154
20
37.818694752979773
42
-0.15824328922292497
10
-127.48514217408811
20
39.425000000006627
10
127.48514217408811
20
39.425000000006634
42
-0.15824328922292497
0
LWPOLYLINE
5
112
100
AcDbEntity
8
PERIMETER
100
AcDbPolyline
90
32
70
1
43
0.0
10
133.98464969143635
20
-132.95042322316522
42
0.30321166925071236
10
144.42499999999998
20
-117.31696732309774
10
144.42499999999998
20
-33.370514997511137
42
-0.25705339381152975
10
143.92500180304052
20
-32.462221032706694
10
143.92500180304052
20
-28.144269758298712
42
-0.2570533938115121
10
144.42499999999998
20
-27.235975793494276
10
144.42499999999998
20
55.418754604497352
42
0.41421356237309548
10
127.5
20
72.343754604497377
10
-127.5
20
72.343754604497349
42
0.4142135623730957
10
-144.42500000000004
20
55.418754604497309
10
-144.42500000000001
20
-27.235975793494283
42
-0.25705339381152131
10
-143.92500180304052
20
-28.144269758298734
10
-143.92500180304052
20
-32.462221032706672
42
-0.25705339381152248
10
-144.42500000000001
20
-33.37051499751113
10
-144.42500000000001
20
-117.31696732309774
42
0.30321166925071141
10
-133.9846496914364
20
-132.95042322316522
10
-125.07499999999996
20
-132.95042322316522
10
-125.07499999999996
20
-132.95024539550278
10
-87.024999999794659
20
-132.95024539550278
10
-87.024999999794673
20
-118.52542322316516
42
-0.41421356237309503
10
-85.94999999979467
20
-117.45042322316516
10
-81.899999999794659
20
-117.45042322316516
42
-0.41421356237309503
10
-80.82499999979467
20
-118.52542322316516
10
-80.82499999979467
20
-132.95024539550275
10
80.82499999979467
20
-132.95024539550278
10
80.82499999979467
20
-118.52542322316516
42
-0.41421356237309503
10
81.899999999794659
20
-117.45042322316516
10
85.94999999979467
20
-117.45042322316516
42
-0.41421356237309503
10
87.024999999794673
20
-118.52542322316516
10
87.024999999794659
20
-132.95024539550275
10
125.07499999999996
20
-132.95024539550278
10
125.07499999999996
20
-132.95042322316522
0
ENDSEC
0
SECTION
2
OBJECTS
0
DICTIONARY
5
C
100
AcDbDictionary
3
ACAD_GROUP
350
D
3
ACAD_MLINESTYLE
350
17
0
DICTIONARY
5
D
100
AcDbDictionary
0
DICTIONARY
5
1A
330
C
100
AcDbDictionary
0
DICTIONARY
5
17
100
AcDbDictionary
0
ENDSEC
0
EOF
