<?xml version="1.0" encoding="UTF-8"?>
<svg xmlns="http://www.w3.org/2000/svg" xmlns:xlink="http://www.w3.org/1999/xlink" width="288.850mm" height="205.294mm" viewBox="-558.424988 248.352905 288.849976 205.294189">
    <path transform="matrix(-1,-0,-0,1,-422.011353,343.352417)" style="stroke:none;fill:#b45a00;fill-rule:evenodd" d="M53.77301,-1.813333L54.028061,1.032491L55.022442,4.748333L57.721893,4.748333L55.092133,-4.226875L52.914589,-4.226875L52.65929,-6.873946L51.691547,-10.404896L48.993576,-10.404896L51.739738,-1.813333L53.77301,-1.813333z"/>
    <path transform="matrix(-1,-0,-0,1,-422.011353,343.352417)" style="stroke:none;fill:#b45a00;fill-rule:evenodd" d="M32.973644,-10.404896L30.216146,-10.404896L30.216146,4.748333L32.973644,4.748333L32.973644,-10.404896z"/>
    <path transform="matrix(-1,-0,-0,1,-422.011353,343.352417)" style="stroke:none;fill:#b45a00;fill-rule:evenodd" d="M11.020625,-7.991354L19.056562,-7.991354L19.056562,-10.404896L11.020625,-10.404896L11.020625,-7.991354z"/>
    <path transform="matrix(-1,-0,-0,1,-422.011353,343.352417)" style="stroke:none;fill:#b45a00;fill-rule:evenodd" d="M-6.322998,-4.667479L-6.562619,2.334792L-7.532289,2.334792L-7.785223,-4.667487L-9.032486,-10.404896L-14.101563,-10.404896L-14.101563,-7.978125L-10.812236,-7.978125L-9.987921,0.291621L-8.834418,4.748333L-5.365546,4.748333L-4.107036,0.29111L-3.296066,-7.978125L-0.006667,-7.978125L-0.006667,-10.404896L-5.062604,-10.404896L-6.322998,-4.667479z"/>
    <path transform="matrix(-1,-0,-0,1,-422.011353,343.352417)" style="stroke:none;fill:#b45a00;fill-rule:evenodd" d="M-2.856771,0.103549L-2.856771,4.748333L-0.006667,4.748333L-0.006667,-7.005L-2.410023,-7.005L-2.856771,0.103549z"/>
    <path transform="matrix(-1,-0,-0,1,-422.011353,343.352417)" style="stroke:none;fill:#b45a00;fill-rule:evenodd" d="M13.679688,4.748333L16.437187,4.748333L16.437187,-7.005L13.679688,-7.005L13.679688,4.748333z"/>
    <path transform="matrix(-1,-0,-0,1,-422.011353,343.352417)" style="stroke:none;fill:#b45a00;fill-rule:evenodd" d="M37.341866,3.875477C37.8437,3.359425,38.163128,2.693511,38.251511,1.979133C38.302601,1.676874,38.333748,1.371589,38.344746,1.06524C38.35516,0.867806,38.35955,0.670103,38.35791,0.472395C38.359688,0.278949,38.355286,0.085507,38.344715,-0.107665C38.351501,-0.691808,38.203697,-1.267189,37.916214,-1.77574C37.599751,-2.213802,37.144753,-2.532435,36.624893,-2.680053L36.624893,-3.215158C37.13644,-3.357871,37.583202,-3.67248,37.889954,-4.106015C38.178051,-4.601523,38.334637,-5.162515,38.344807,-5.7356C38.35574,-5.897346,38.360111,-6.059462,38.35791,-6.221562L38.35791,-6.737499C38.394951,-7.519288,38.222267,-8.296936,37.857822,-8.989574C37.733784,-9.201335,37.578022,-9.392839,37.395969,-9.557418C36.83168,-10.000356,36.150963,-10.269932,35.436409,-10.333437C35.074127,-10.381323,34.70908,-10.405174,34.343643,-10.404831L34.343643,-7.99109C34.674995,-8.003653,35.000591,-7.901399,35.265274,-7.701662C35.494354,-7.493092,35.617462,-7.192356,35.600414,-6.88302L35.600414,-5.798227C35.625359,-5.374905,35.510166,-4.955076,35.272682,-4.603757C35.11483,-4.395668,34.885292,-4.253577,34.628647,-4.20508C34.534809,-4.185974,34.439396,-4.175673,34.343643,-4.174306L34.343643,-1.760103C34.710285,-1.781197,35.06525,-1.626482,35.299374,-1.343538C35.52063,-0.965382,35.624985,-0.530312,35.599346,-0.092937L35.600414,0.022608L35.600414,1.028022C35.61956,1.379285,35.500523,1.724198,35.268803,1.988883C35.016754,2.218006,34.683876,2.337603,34.343643,2.32128L34.343643,4.735039C35.166084,4.767938,35.985466,4.61452,36.740292,4.286299C36.959839,4.179539,37.162529,4.041118,37.341866,3.875477z"/>
    <path transform="matrix(-1,-0,-0,1,-422.011353,343.352417)" style="stroke:none;fill:#b45a00;fill-rule:evenodd" d="M56.018925,-5.2L57.654381,-10.404896L54.969559,-10.404896L54.028099,-6.87442L53.887501,-5.2L56.018925,-5.2z"/>
    <path transform="matrix(-1,-0,-0,1,-422.011353,343.352417)" style="stroke:none;fill:#b45a00;fill-rule:evenodd" d="M48.200451,1.132003C48.229088,0.448865,48.251122,-0.234126,48.266571,-0.917677C48.278038,-1.561293,48.282448,-2.204388,48.279785,-2.848127C48.282242,-3.496273,48.277847,-4.143719,48.266571,-4.791772C48.250443,-5.470445,48.228378,-6.150023,48.200443,-6.82839C48.21109,-7.639304,48.014977,-8.439629,47.630627,-9.153752C47.539902,-9.304371,47.433895,-9.445234,47.314281,-9.574114C46.786903,-10.083405,46.10733,-10.4063,45.379383,-10.49346C45.172558,-10.52924,44.964211,-10.555681,44.755001,-10.572703L44.755001,-8.281769C44.982403,-8.210645,45.174061,-8.055215,45.29063,-7.847414C45.423405,-7.581776,45.489307,-7.287671,45.482567,-6.990777L45.561958,-4.913317C45.577915,-4.224938,45.586735,-3.536734,45.588436,-2.848125C45.586296,-2.159616,45.577477,-1.471757,45.561966,-0.783414C45.548729,-0.090568,45.522263,0.602212,45.482605,1.294052C45.496265,1.595997,45.430042,1.896215,45.290627,2.164394C45.174057,2.372192,44.982395,2.527614,44.755001,2.598749L44.755001,4.890303C45.521976,4.8708,46.269539,4.644057,46.918121,4.234213C47.06179,4.133982,47.194569,4.018981,47.314281,3.891092C47.782486,3.329957,48.06773,2.638971,48.131691,1.910961C48.167343,1.652594,48.190289,1.392623,48.200451,1.132003z"/>
    <path transform="matrix(-1,-0,-0,1,-422.011353,343.352417)" style="stroke:none;fill:#b45a00;fill-rule:evenodd" d="M25.453646,-10.404896L25.453646,4.748333L28.211145,4.748333L28.211145,-10.404896L25.453646,-10.404896z"/>
    <path transform="matrix(-1,-0,-0,1,-422.011353,343.352417)" style="stroke:none;fill:#b45a00;fill-rule:evenodd" d="M6.70792,2.598749C6.935317,2.527617,7.126978,2.372194,7.243548,2.164394C7.382966,1.896215,7.449186,1.595996,7.435524,1.294052C7.475185,0.602125,7.501644,-0.090477,7.514886,-0.783414C7.530403,-1.471426,7.539223,-2.159955,7.541356,-2.848125C7.53965,-3.536473,7.530815,-4.225158,7.514877,-4.913317L7.435487,-6.990777C7.442226,-7.287672,7.376328,-7.581779,7.243549,-7.847414C7.126982,-8.055216,6.93532,-8.21064,6.70792,-8.281769L6.70792,-10.572703C6.917135,-10.555681,7.125477,-10.52924,7.332303,-10.49346C8.06025,-10.4063,8.739825,-10.083406,9.2672,-9.574114C9.386819,-9.445239,9.492826,-9.304375,9.583545,-9.153752C9.967896,-8.43963,10.164013,-7.639305,10.153364,-6.82839C10.18132,-6.149441,10.203354,-5.471026,10.219492,-4.791772C10.230759,-4.144264,10.235168,-3.495737,10.232707,-2.848127C10.235344,-2.204896,10.230934,-1.560787,10.219491,-0.917677C10.204056,-0.234087,10.182022,0.448838,10.153369,1.132003C10.143209,1.392623,10.120262,1.652592,10.084612,1.910961C10.020651,2.638972,9.735407,3.329957,9.2672,3.891092C9.147487,4.018981,9.014709,4.133982,8.871042,4.234213C8.222462,4.644057,7.474895,4.870799,6.70792,4.890303L6.70792,2.598749z"/>
    <path transform="matrix(-1,-0,-0,1,-422.011353,343.352417)" style="stroke:none;fill:#b45a00;fill-rule:evenodd" d="M-11.698206,-7.005L-14.101563,-7.005L-14.101563,4.748333L-11.251458,4.748333L-11.251458,0.103549L-11.698206,-7.005z"/>
    <path transform="matrix(-1,-0,-0,1,-422.011353,343.352417)" style="stroke:none;fill:#b45a00;fill-rule:evenodd" d="M2.725696,-9.600543C2.431105,-9.274601,2.213843,-8.886379,2.090109,-8.46482C1.934294,-7.933525,1.854401,-7.382852,1.852805,-6.829179L1.843093,-6.298605C1.833084,-5.792431,1.827499,-5.28591,1.826354,-4.779584C1.823761,-4.207585,1.819611,-3.645379,1.813697,-3.073415L1.813128,-2.834897L1.813259,-2.424929C1.812492,-1.91776,1.816856,-1.411087,1.826354,-0.903948L1.82655,-0.764541C1.829819,-0.123557,1.838577,0.518559,1.852806,1.159404L1.85608,1.277918C1.846455,2.082044,2.049744,2.87458,2.445239,3.574793C2.527654,3.705901,2.621516,3.829455,2.725723,3.944008C3.242923,4.439403,3.906848,4.753675,4.617845,4.839657C4.869328,4.883203,5.122936,4.913411,5.377609,4.930157L5.377609,2.624619C5.342054,2.611801,5.307095,2.597381,5.272842,2.581406C5.091043,2.500396,4.939924,2.363308,4.841637,2.190239L4.830157,2.16934C4.701361,1.905288,4.639493,1.613608,4.650005,1.320008L4.630374,0.796619C4.610306,0.278887,4.594803,-0.238892,4.583868,-0.756959L4.574153,-1.272956C4.563919,-1.789392,4.558334,-2.305161,4.557399,-2.821671L4.557993,-3.079865C4.561996,-3.681721,4.570633,-4.284705,4.583868,-4.886383L4.589424,-5.145021C4.604973,-5.751026,4.625191,-6.357719,4.650005,-6.963366L4.650211,-6.997164C4.640776,-7.284047,4.707048,-7.568408,4.842342,-7.821563C4.960208,-8.025547,5.151782,-8.176656,5.377609,-8.243769L5.377609,-10.574039C4.613246,-10.563651,3.863723,-10.361046,3.198221,-9.984923C3.025615,-9.876564,2.866925,-9.747476,2.725696,-9.600543z"/>
    <path transform="matrix(-1,-0,-0,1,-422.011353,343.352417)" style="stroke:none;fill:#b45a00;fill-rule:evenodd" d="M20.214895,-10.404896L20.214895,4.748333L22.972395,4.748333L22.972395,-1.747187L24.082016,-1.747187L24.730001,-4.173958L22.972395,-4.173958L22.972395,-10.404896L20.214895,-10.404896z"/>
    <path transform="matrix(-1,-0,-0,1,-422.011353,343.352417)" style="stroke:none;fill:#b45a00;fill-rule:evenodd" d="M40.759575,3.944008L40.810806,3.99709C41.323303,4.460343,41.966122,4.75456,42.651699,4.839657C42.903179,4.883202,43.156792,4.913411,43.411465,4.930157L43.411465,2.624619L43.389965,2.61663C43.172855,2.540891,42.990211,2.389519,42.875492,2.190239L42.86401,2.16934C42.735214,1.905288,42.673347,1.613608,42.683861,1.320008L42.66423,0.796619C42.644173,0.279171,42.628654,-0.239268,42.617722,-0.756959L42.608006,-1.272956C42.597763,-1.789443,42.592178,-2.305075,42.591251,-2.821671L42.591846,-3.079865C42.595871,-3.682129,42.604492,-4.28425,42.617722,-4.886383L42.62328,-5.145021C42.638832,-5.75094,42.65905,-6.357788,42.683861,-6.963366L42.684067,-6.997164C42.674633,-7.284049,42.740902,-7.568411,42.876198,-7.821563L42.887466,-7.839941C43.005863,-8.034986,43.192696,-8.178968,43.411465,-8.243769L43.411465,-10.574039C43.025517,-10.554923,42.642174,-10.499907,42.266426,-10.409701C41.69706,-10.28986,41.173973,-10.008978,40.759567,-9.600554L40.709301,-9.543732C40.254974,-8.954972,39.985596,-8.244631,39.935276,-7.502659C39.909447,-7.278966,39.89323,-7.054263,39.886665,-6.829179L39.876945,-6.298605C39.866936,-5.792216,39.861351,-5.286081,39.860207,-4.779584C39.857681,-4.214353,39.853409,-3.638585,39.847549,-3.073415L39.846981,-2.834897L39.847111,-2.424929C39.846344,-1.918057,39.850708,-1.410727,39.860207,-0.903948L39.860405,-0.764541C39.86367,-0.123198,39.872429,0.518188,39.886662,1.159404L39.889935,1.277918C39.88031,2.082045,40.083599,2.874582,40.479092,3.574793C40.561504,3.705904,40.655365,3.829455,40.759575,3.944008z"/>
    <path transform="matrix(-1,-0,-0,1,-422.011353,343.352417)" style="stroke:none;fill:#b45a00;fill-rule:evenodd" d="M50.786766,-0.826979L48.928329,4.748333L51.625553,4.748333L52.659161,1.032576L52.800228,-0.826979L50.786766,-0.826979z"/>
    <path transform="matrix(-1,-0,-0,1,-422.011353,343.352417)" style="stroke:none;fill:#b45a00;fill-rule:evenodd" d="M-31.783321,-6.129004C-31.643152,-5.897523,-31.412117,-5.735669,-31.146679,-5.683007C-30.815674,-5.618361,-30.47588,-5.74132,-30.262899,-6.002821L-30.249338,-6.019122C-30.119017,-6.167185,-30.08157,-6.375431,-30.152138,-6.559622L-30.182005,-6.623883C-30.335999,-6.935011,-30.651964,-7.133349,-30.9991,-7.136782L-31.034645,-7.125931C-31.12851,-7.102076,-31.222828,-7.078878,-31.317051,-7.056472L-31.350103,-7.046883C-31.392187,-7.034709,-31.43289,-7.018193,-31.47156,-6.997603C-31.637468,-6.934413,-31.768433,-6.802516,-31.828407,-6.635431C-31.88838,-6.468346,-31.871191,-6.28327,-31.783321,-6.129004z"/>
    <path transform="matrix(-1,-0,-0,1,-422.011353,343.352417)" style="stroke:none;fill:#b45a00;fill-rule:evenodd" d="M-32.8447,-18.238253C-33.36615,-18.106689,-33.886761,-17.969925,-34.405575,-17.828196L-34.533627,-17.794466C-34.746876,-17.739586,-34.96217,-17.684837,-35.175728,-17.631182L-35.303909,-17.598188C-35.601894,-17.523176,-35.896973,-17.436932,-36.18845,-17.339653C-36.61808,-17.202267,-37.023987,-16.999434,-37.3918,-16.738333C-37.903011,-16.406048,-38.291473,-15.915173,-38.497395,-15.341282C-38.542118,-15.20056,-38.572777,-15.055747,-38.588902,-14.908971C-38.624355,-14.808657,-38.600842,-14.696426,-38.528046,-14.618834C-38.489697,-14.598455,-38.448124,-14.58486,-38.405132,-14.578715L-38.389133,-14.57622C-38.331108,-14.569763,-38.272186,-14.563408,-38.21413,-14.557345L-38.196785,-14.554883L-38.179047,-14.552059L-38.159069,-14.547363C-38.089993,-14.514336,-38.010246,-14.508048,-37.938793,-14.534999C-37.867336,-14.56195,-37.811607,-14.619336,-37.781723,-14.689816L-37.741734,-14.75466L-37.688469,-14.836884C-37.635315,-14.920111,-37.582771,-15.003283,-37.53043,-15.087031L-37.477448,-15.170789C-37.323452,-15.426941,-37.143986,-15.666912,-36.941799,-15.887022C-36.674984,-16.131874,-36.364372,-16.324173,-36.026237,-16.453814C-35.613014,-16.612936,-35.191788,-16.750471,-34.76429,-16.865849C-34.434753,-16.969147,-34.103275,-17.06638,-33.770176,-17.157454C-33.536659,-17.215675,-33.303135,-17.272469,-33.068993,-17.327988L-32.982502,-17.349964C-32.838902,-17.386366,-32.696625,-17.427767,-32.555916,-17.4741L-32.540524,-17.479494C-32.389492,-17.519356,-32.291504,-17.665617,-32.31229,-17.820429L-32.312737,-17.836462C-32.372131,-18.080336,-32.59388,-18.247789,-32.8447,-18.238253z"/>
    <path transform="matrix(-1,-0,-0,1,-422.011353,343.352417)" style="stroke:none;fill:#b45a00;fill-rule:evenodd" d="M-33.223179,-29.783215C-33.238369,-29.730659,-33.2551,-29.678555,-33.273342,-29.62698L-33.287327,-29.587669C-33.318024,-29.505615,-33.39035,-29.31192,-33.421001,-29.229622L-33.432274,-29.192575L-33.443184,-29.155918C-33.479752,-29.02697,-33.518616,-28.891098,-33.555779,-28.762278L-33.566849,-28.725851C-33.6791,-28.378874,-33.78513,-28.029831,-33.884842,-27.679041L-33.904568,-27.605061C-33.978241,-27.312922,-34.053146,-27.02236,-34.129898,-26.731012L-34.149483,-26.660202C-34.168159,-26.586472,-34.189514,-26.513454,-34.213512,-26.44128L-34.227856,-26.398117C-34.267586,-26.284164,-34.307411,-26.16938,-34.346802,-26.055305C-34.397316,-25.914877,-34.441841,-25.772377,-34.480251,-25.628164L-34.491493,-25.582455L-34.502373,-25.536798C-34.539276,-25.371071,-34.57692,-25.203983,-34.614662,-25.038414L-34.625702,-24.993456C-34.674,-24.826847,-34.727142,-24.661648,-34.785046,-24.498129L-34.809692,-24.428484C-34.851799,-24.295349,-34.899979,-24.164223,-34.954071,-24.035492L-34.965591,-24.011665C-35.041882,-23.826174,-35.228111,-23.70919,-35.428329,-23.721022L-35.45052,-23.720833C-35.590862,-23.734081,-35.722382,-23.795198,-35.822983,-23.893946C-35.913597,-23.958218,-35.971851,-24.058504,-35.982784,-24.169058C-35.971092,-24.305887,-35.946533,-24.441315,-35.90942,-24.573532L-35.901287,-24.605186C-35.887489,-24.657959,-35.873512,-24.711746,-35.859859,-24.764534L-35.851753,-24.796614C-35.814301,-24.950251,-35.774002,-25.103193,-35.730888,-25.255335L-35.698433,-25.370255C-35.654907,-25.521393,-35.609711,-25.679535,-35.566776,-25.83087L-35.534592,-25.946253L-35.415741,-26.382032C-35.251099,-26.904362,-35.092026,-27.428139,-34.938374,-27.953817L-34.873234,-28.18161L-34.809753,-28.400923C-34.669617,-28.919018,-34.527588,-29.436932,-34.383835,-29.954041C-34.247765,-30.372208,-34.117775,-30.792479,-33.993999,-31.214453L-33.946724,-31.398079C-33.91555,-31.6513,-33.814354,-31.891056,-33.654629,-32.090004C-33.485596,-32.292053,-33.189915,-32.33329,-32.972088,-32.185146C-32.924873,-32.163887,-32.879807,-32.138157,-32.837437,-32.108387C-32.714851,-31.997488,-32.676846,-31.819935,-32.743382,-31.668615L-32.748024,-31.643858C-32.7654,-31.548218,-32.786018,-31.453197,-32.809845,-31.358957L-32.821712,-31.311634C-32.849838,-31.203485,-32.87822,-31.093752,-32.906109,-30.98546L-32.945774,-30.836174L-32.985424,-30.685986C-33.05365,-30.425705,-33.114929,-30.192627,-33.183575,-29.932329L-33.223179,-29.783215z"/>
    <path transform="matrix(-1,-0,-0,1,-422.011353,343.352417)" style="stroke:none;fill:#b45a00;fill-rule:evenodd" d="M-49.350044,-22.921104C-49.209641,-22.793911,-49.156425,-22.596882,-49.213783,-22.416321L-49.221809,-22.405148C-49.379372,-22.163528,-49.678879,-22.056627,-49.953831,-22.143835C-49.965008,-22.149654,-49.975826,-22.156137,-49.986191,-22.163301C-50.161427,-22.301216,-50.32774,-22.450115,-50.484116,-22.609098C-50.528431,-22.64912,-50.571617,-22.690361,-50.613636,-22.732786L-50.631241,-22.750546C-50.631195,-22.750519,-50.822906,-22.947845,-50.822838,-22.947729L-50.840851,-22.965834C-51.511826,-23.603195,-52.188705,-24.241013,-52.864754,-24.87289L-53.090717,-25.083357L-55.630699,-27.4249L-57.376884,-29.052027C-57.53952,-29.196632,-57.593285,-29.428009,-57.511044,-29.629498C-57.385048,-29.787388,-57.187992,-29.87093,-56.986912,-29.851654C-56.743881,-29.849432,-56.514599,-29.736858,-56.36417,-29.545965L-56.331921,-29.515697C-56.310104,-29.495073,-56.289528,-29.475676,-56.267651,-29.455109C-55.345367,-28.587097,-54.418427,-27.721985,-53.489178,-26.861872C-52.701355,-26.134567,-51.916687,-25.401901,-51.137253,-24.665812L-50.804432,-24.349054L-50.621658,-24.170662C-50.202698,-23.757416,-49.770569,-23.332794,-49.350044,-22.921104z"/>
    <path transform="matrix(-1,-0,-0,1,-422.011353,343.352417)" style="stroke:none;fill:#b45a00;fill-rule:evenodd" d="M-51.82349,-8.890715C-52.066433,-8.917263,-52.310631,-8.930584,-52.555027,-8.930621L-52.863125,-8.93997L-53.172249,-8.948389C-53.692902,-8.960663,-54.207188,-8.973541,-54.727959,-8.987365L-55.040035,-8.996701C-55.083679,-9.000537,-55.127151,-9.006116,-55.170353,-9.013415L-55.20269,-9.018986C-55.287399,-9.0355,-55.382504,-9.053902,-55.467201,-9.070206L-55.501801,-9.076143C-55.518421,-9.076468,-55.534996,-9.078065,-55.551365,-9.080966L-55.561344,-9.082413C-55.586781,-9.086501,-55.612469,-9.088838,-55.638229,-9.089373C-55.853123,-9.088013,-56.068085,-9.09095,-56.28286,-9.098176L-56.375889,-9.102505C-56.483231,-9.110503,-56.590137,-9.123659,-56.696217,-9.141931C-57.417656,-9.280518,-58.085407,-9.620508,-58.621876,-10.122388C-58.991207,-10.449013,-59.39045,-10.740183,-59.814316,-10.992035L-59.898987,-11.040319C-60.889984,-11.635224,-61.802132,-12.352542,-62.613907,-13.175342C-62.642006,-13.205336,-62.664963,-13.239774,-62.681847,-13.277245L-62.69038,-13.294667C-62.707169,-13.33049,-62.71785,-13.353195,-62.734711,-13.38901L-62.744556,-13.408944C-61.856812,-13.594097,-60.985199,-13.849625,-60.138004,-14.173097L-59.946171,-14.244697C-59.456322,-14.452427,-58.958897,-14.641754,-58.454899,-14.812306C-58.058712,-14.920427,-57.654133,-14.995106,-57.245453,-15.035552C-56.881382,-15.09968,-56.512211,-15.130532,-56.142544,-15.127727C-55.673889,-15.109706,-55.207561,-15.052495,-54.748451,-14.956693C-54.326359,-14.869639,-53.909611,-14.75843,-53.500271,-14.623606L-53.327351,-14.561993C-53.135464,-14.490037,-52.945187,-14.413886,-52.756638,-14.333599L-52.615147,-14.273108C-52.193119,-14.08519,-51.769016,-13.899216,-51.344868,-13.716077C-50.934883,-13.547382,-50.519276,-13.39262,-50.098797,-13.252069C-49.72691,-13.123853,-49.350613,-13.008739,-48.970642,-12.906956L-48.893616,-12.887366C-48.56118,-12.812565,-48.229698,-12.73531,-47.898483,-12.655448C-47.59436,-12.572943,-47.288967,-12.494812,-46.982582,-12.42113L-46.852852,-12.390724L-46.756138,-12.365516C-46.338165,-12.266296,-45.920448,-12.164413,-45.503765,-12.060071C-45.399681,-12.034726,-45.295254,-12.008668,-45.191498,-11.982148L-45.088028,-11.955621C-44.778999,-11.874313,-44.474602,-11.795181,-44.165062,-11.715672L-44.062897,-11.689934L-44.025192,-11.678744L-43.987625,-11.668284C-43.852982,-11.635891,-43.717648,-11.602482,-43.58342,-11.568491L-43.547474,-11.5578C-43.423122,-11.538268,-43.334705,-11.425462,-43.345531,-11.300055L-43.345417,-11.287465C-43.375656,-10.892148,-43.289886,-10.496387,-43.098705,-10.149054C-43.09396,-10.142342,-43.089771,-10.135258,-43.086086,-10.127912L-43.083565,-10.12213L-43.08173,-10.116941L-43.080486,-10.112334L-43.079742,-10.108297C-43.105892,-10.047868,-43.164932,-10.007504,-43.230732,-10.005123L-43.246826,-9.998999C-43.652138,-9.849354,-44.059631,-9.706257,-44.469505,-9.569652L-44.647373,-9.510139C-44.978085,-9.399399,-45.312595,-9.300461,-45.650337,-9.213494L-45.72929,-9.19351C-46.075527,-9.089594,-46.426479,-9.002102,-46.780979,-8.931321L-46.86256,-8.916664C-47.225193,-8.85444,-47.589954,-8.805583,-47.956181,-8.770183L-48.113712,-8.758559C-48.745922,-8.71677,-49.379616,-8.701927,-50.013084,-8.71407L-50.159798,-8.718931C-50.31768,-8.723267,-50.475342,-8.733425,-50.632477,-8.749387L-50.75098,-8.761702C-51.107998,-8.80772,-51.465702,-8.850742,-51.82349,-8.890715z"/>
    <path transform="matrix(-1,-0,-0,1,-422.011353,343.352417)" style="stroke:none;fill:#b45a00;fill-rule:evenodd" d="M-41.279182,-6.649196C-41.174759,-6.609968,-41.069904,-6.571459,-40.964928,-6.533776L-40.910179,-6.518505C-40.803497,-6.487293,-40.696251,-6.455517,-40.589775,-6.423572L-40.537575,-6.408593C-40.404411,-6.367925,-40.267754,-6.339708,-40.129375,-6.324297L-40.043747,-6.317998C-39.609386,-6.313309,-39.176418,-6.31105,-38.742088,-6.311188L-38.645824,-6.30872C-38.203972,-6.339344,-37.766258,-6.414337,-37.339413,-6.532548L-37.244259,-6.548764L-37.226593,-6.551593C-37.158649,-6.533463,-37.087158,-6.570065,-37.06216,-6.635792C-37.066151,-6.701673,-37.082829,-6.766175,-37.111282,-6.825727C-37.218399,-7.11837,-37.311653,-7.415887,-37.390739,-7.717314L-37.39415,-7.730836C-37.390362,-7.797129,-37.415173,-7.86257,-37.464493,-7.906868C-37.513813,-7.951166,-37.581535,-7.968834,-37.64703,-7.957924C-37.679604,-7.954341,-37.712097,-7.949995,-37.744469,-7.944902L-37.918816,-7.915265C-38.330486,-7.835004,-38.748543,-7.791581,-39.167919,-7.785522L-39.392521,-7.788897C-39.927387,-7.815022,-40.461346,-7.856865,-40.993752,-7.914381L-41.0271,-7.763207C-41.109619,-7.392395,-41.194,-7.019432,-41.279182,-6.649196z"/>
    <path transform="matrix(-1,-0,-0,1,-422.011353,343.352417)" style="stroke:none;fill:#b45a00;fill-rule:evenodd" d="M-41.190094,11.748892C-41.40469,11.676369,-41.6199,11.60498,-41.83532,11.534861L-42.157841,11.43043C-42.6931,11.259949,-43.234451,11.086975,-43.769524,10.915548L-44.092308,10.810309L-44.416096,10.703189C-44.955627,10.521637,-45.498825,10.340179,-46.039169,10.161048L-46.362442,10.055652L-46.724052,9.937148C-47.529358,9.675781,-48.442444,9.378418,-49.24596,9.116525L-49.424393,9.056662L-49.602852,8.996095C-50.260231,8.766724,-50.909172,8.542297,-51.567738,8.316526L-51.746529,8.256544C-52.494072,8.026901,-53.239822,7.78862,-53.982021,7.542248L-54.12072,7.496575C-54.681992,7.304169,-55.236191,7.115875,-55.79866,6.926445L-55.940491,6.880606L-56.149868,6.812146C-56.640961,6.661926,-57.131058,6.508408,-57.620022,6.35163C-58.084122,6.193024,-58.517807,6.04538,-58.982475,5.887771L-59.180519,5.822648C-59.47683,5.720673,-59.774021,5.622337,-60.072689,5.527456L-60.222267,5.479811C-60.571098,5.37027,-60.924263,5.258484,-61.272575,5.147353C-61.461311,5.093179,-61.6464,5.027002,-61.826698,4.949235C-61.859406,4.917864,-61.880081,4.876063,-61.88504,4.831014L-61.885315,4.823233C-61.896332,4.616684,-61.900742,4.40985,-61.89854,4.203022L-61.89854,-10.581928C-61.717964,-10.482109,-61.536827,-10.381035,-61.357029,-10.27977L-61.285141,-10.239333C-60.923325,-10.039685,-60.567112,-9.830213,-60.216766,-9.611071L-60.072376,-9.514463C-59.641285,-9.17115,-59.204254,-8.835701,-58.761166,-8.508012C-58.302803,-8.213018,-57.785946,-8.020866,-57.246197,-7.944797L-57.058407,-7.914005C-56.614975,-7.832085,-56.171143,-7.754265,-55.726299,-7.680436C-55.68232,-7.671787,-55.637878,-7.66569,-55.593197,-7.662152L-55.549324,-7.659156C-55.407734,-7.657898,-55.266529,-7.655945,-55.124954,-7.653295C-55.048779,-7.653378,-54.973064,-7.641548,-54.900543,-7.618242C-54.773212,-7.546097,-54.706814,-7.399486,-54.736469,-7.25617L-54.735729,-7.239188C-54.724995,-7.033653,-54.679276,-6.83146,-54.600525,-6.641308C-54.398651,-5.97767,-54.112286,-5.34269,-53.748516,-4.752068C-53.048698,-3.634722,-52.025887,-2.756263,-50.815689,-2.233162C-50.484531,-2.104227,-50.141636,-2.007725,-49.791843,-1.945023L-49.603558,-1.90598L-49.509987,-1.886341C-49.05088,-1.778274,-48.582222,-1.715893,-48.110832,-1.700105C-48.008656,-1.700623,-47.906601,-1.707165,-47.805195,-1.719694L-47.652401,-1.740874C-47.402618,-1.786438,-47.151031,-1.83049,-46.900665,-1.872484L-46.821724,-1.883651C-46.187244,-2.006396,-45.586948,-2.266225,-45.063202,-2.644799L-44.934879,-2.726933C-44.727463,-2.870906,-44.533112,-3.032871,-44.354107,-3.210937L-44.293507,-3.269139C-44.214577,-3.345886,-44.134087,-3.42363,-44.05468,-3.499836C-44.012447,-3.539642,-43.970787,-3.58006,-43.929718,-3.621069L-43.889114,-3.661842C-43.733223,-3.82412,-43.575508,-3.987465,-43.418808,-4.148916C-43.398006,-4.169521,-43.376072,-4.188949,-43.353104,-4.207106L-43.32901,-4.226134C-43.297691,-4.250015,-43.266136,-4.274174,-43.234894,-4.298185L-43.220108,-4.309755C-43.242676,-4.105209,-43.257996,-3.899917,-43.266037,-3.694282C-43.254974,-3.039635,-43.224037,-2.385465,-43.17326,-1.732675C-43.164967,-1.643515,-43.150688,-1.555014,-43.130512,-1.467771L-43.115139,-1.402746C-43.068451,-1.23332,-43.021194,-1.060205,-42.975334,-0.890581L-42.960625,-0.82667C-42.916916,-0.647415,-42.879162,-0.466772,-42.84742,-0.285019L-42.842266,-0.248601C-42.740589,0.417344,-42.538628,1.064115,-42.243305,1.669595C-41.951469,2.34363,-41.550705,2.965054,-41.057083,3.50895C-40.693562,3.961103,-40.216003,4.308373,-39.67382,4.51483C-39.378105,4.616089,-39.056942,4.615406,-38.761662,4.51288L-38.728127,4.501586C-38.552242,4.440039,-38.383614,4.359438,-38.225254,4.261223C-37.72974,3.9266,-37.304508,3.497838,-36.973995,2.999572L-36.866096,2.857671C-36.543762,2.403468,-36.286266,1.906574,-36.10104,1.38132L-35.999287,1.125654C-35.813652,0.637146,-35.664177,0.135633,-35.552078,-0.374791L-35.533951,-0.45626C-35.298725,-1.590158,-35.190502,-2.746732,-35.211288,-3.904587L-35.215309,-4.171446C-35.214554,-4.180192,-35.212826,-4.188825,-35.210243,-4.197214C-34.866173,-3.88385,-34.520378,-3.571274,-34.174053,-3.260547C-33.661476,-2.791071,-33.069698,-2.416221,-32.426216,-2.153406C-32.106014,-2.028229,-31.772938,-1.938723,-31.433123,-1.886526L-31.263687,-1.853814L-31.095196,-1.820239C-30.849295,-1.75733,-30.596458,-1.725477,-30.342638,-1.725431L-30.314732,-1.726645C-29.920313,-1.754375,-29.527969,-1.806444,-29.139969,-1.882551L-29.05162,-1.899398C-28.658987,-1.973303,-28.271101,-2.070492,-27.890013,-2.190454L-27.801712,-2.218531C-27.238684,-2.401288,-26.719687,-2.69885,-26.277523,-3.092415L-26.208609,-3.155812C-25.902222,-3.417806,-25.612988,-3.699176,-25.342651,-3.998225L-25.303459,-4.048413C-25.015697,-4.443237,-24.753071,-4.855777,-24.517136,-5.283589L-24.479218,-5.351161C-24.31786,-5.661549,-24.179531,-5.983379,-24.065351,-6.314044L-24.039236,-6.39096C-24.00952,-6.477465,-23.982414,-6.564847,-23.957956,-6.652983L-23.922592,-6.784582C-23.869247,-7.002434,-23.815781,-7.218414,-23.761366,-7.435944C-23.735594,-7.497851,-23.696136,-7.553086,-23.645941,-7.597551C-23.580961,-7.637407,-23.507423,-7.661197,-23.431412,-7.666941C-23.016644,-7.702515,-22.602697,-7.742134,-22.188717,-7.785882L-22.094204,-7.799405C-21.669624,-7.872706,-21.248415,-7.964282,-20.831732,-8.073884L-20.765932,-8.091632C-20.407801,-8.17386,-20.062145,-8.30327,-19.738068,-8.476455L-19.666851,-8.521522C-19.517828,-8.61798,-19.372887,-8.720629,-19.232428,-8.82918L-19.126905,-8.911165C-18.819176,-9.164539,-18.508987,-9.414371,-18.195875,-9.661039C-18.084963,-9.743759,-17.968513,-9.81877,-17.847336,-9.885551L-17.810757,-9.906171C-17.710642,-9.961258,-17.61088,-10.01664,-17.511181,-10.072484L-17.473154,-10.09432C-17.214725,-10.256001,-16.943497,-10.396267,-16.662191,-10.513701L-16.662191,4.718954C-16.64587,4.881529,-16.756201,5.030651,-16.916435,5.062624L-16.932817,5.068578C-17.054373,5.110405,-17.176701,5.149982,-17.299723,5.187286L-17.373251,5.209605C-17.543221,5.259918,-17.719597,5.312347,-17.889368,5.363058L-17.963306,5.385622L-18.062647,5.417633L-18.161789,5.449995C-18.719501,5.640808,-19.276806,5.82901,-19.836044,6.015368L-19.935005,6.047257C-20.047564,6.084579,-20.160654,6.120529,-20.274103,6.15505L-20.359024,6.180888C-20.501638,6.223419,-20.642111,6.265778,-20.784494,6.309208C-20.898743,6.34399,-21.012556,6.380178,-21.125916,6.417768C-21.25106,6.457357,-21.3764,6.497873,-21.50106,6.539022L-21.687038,6.600696C-21.933849,6.68396,-22.176655,6.765167,-22.423927,6.847122L-22.607164,6.90711L-22.703869,6.938528L-22.800903,6.970287C-23.149567,7.086273,-23.524536,7.21048,-23.873499,7.325626L-23.969976,7.356969L-25.398756,7.83323L-26.986256,8.349168C-27.088018,8.383123,-27.18981,8.417761,-27.291166,8.452928L-27.392073,8.488036C-27.691441,8.594376,-27.989567,8.699509,-28.28941,8.80446L-28.388437,8.838607C-28.574678,8.89925,-28.761766,8.958889,-28.948757,9.017239L-29.090069,9.06134C-29.334724,9.137085,-29.55352,9.205078,-29.798225,9.281418C-29.985687,9.339924,-30.172997,9.399639,-30.359728,9.460432L-30.470442,9.497786L-30.580757,9.535817C-30.980774,9.68103,-31.382919,9.824677,-31.78442,9.965748L-31.894457,10.002876L-32.062714,10.056748L-32.230904,10.109723C-32.455048,10.178947,-32.676254,10.248085,-32.899956,10.318826C-33.01033,10.353819,-33.120224,10.389505,-33.230095,10.426042L-33.309582,10.451849L-33.388683,10.477989C-33.674702,10.576279,-33.963093,10.674423,-34.249687,10.771L-34.328644,10.79663C-34.533726,10.867226,-34.739952,10.934807,-34.947037,10.999276C-35.08374,11.04208,-35.222992,11.085217,-35.359947,11.127172L-36.788963,11.603512L-37.780941,11.920943C-38.040497,12.006706,-38.30061,12.090759,-38.561264,12.173091C-38.756901,12.234663,-38.954098,12.291361,-39.152561,12.343102C-39.29525,12.359941,-39.439861,12.346699,-39.577114,12.304217L-39.779053,12.238287L-39.980282,12.169504C-40.31469,12.049019,-40.650436,11.93084,-40.986622,11.8153L-41.190094,11.748892z"/>
    <path transform="matrix(-1,-0,-0,1,-422.011353,343.352417)" style="stroke:none;fill:#b45a00;fill-rule:evenodd" d="M-38.544147,-5.324929L-38.718582,-5.316765C-39.124329,-5.30652,-39.530357,-5.309233,-39.935921,-5.324896L-39.966217,-5.324911C-40.042446,-5.323334,-40.118683,-5.327944,-40.194164,-5.338707C-40.545647,-5.386878,-40.895092,-5.4488,-41.241726,-5.524342C-41.287399,-5.54834,-41.343994,-5.536047,-41.375626,-5.495288C-41.386032,-5.467589,-41.392113,-5.438452,-41.393654,-5.408902C-41.417744,-5.189898,-41.43531,-4.970242,-41.446331,-4.75019C-41.44743,-4.59852,-41.446762,-4.447037,-41.444332,-4.295363L-41.446339,-4.244176C-41.449535,-4.175274,-41.458885,-4.106797,-41.474262,-4.039557C-41.50631,-3.992848,-41.513321,-3.932868,-41.490929,-3.88088C-41.468536,-3.828893,-41.420135,-3.79278,-41.36417,-3.784046C-41.339581,-3.778749,-41.314816,-3.774279,-41.289928,-3.770632L-41.241188,-3.761877C-41.241211,-3.762207,-40.649414,-3.646973,-40.649342,-3.646852L-40.601204,-3.638198C-40.145424,-3.559948,-39.688831,-3.487751,-39.231144,-3.42155L-39.231144,-3.436823C-39.075245,-3.444477,-38.918995,-3.451229,-38.763012,-3.457051L-38.724876,-3.461083L-38.686539,-3.46632L-38.235252,-3.545756L-37.449776,-3.684799L-37.110748,-3.7444L-37.089718,-3.746322C-36.995316,-3.723428,-36.896252,-3.762774,-36.843277,-3.844198C-36.828106,-3.919523,-36.825768,-3.996866,-36.83638,-4.072967L-36.846745,-4.145757C-36.866161,-4.265653,-36.886173,-4.385718,-36.906689,-4.505465L-36.918152,-4.578709L-36.928722,-4.653102C-36.957184,-4.899364,-36.992889,-5.211056,-37.020908,-5.457323L-37.022743,-5.462278L-37.025547,-5.468C-37.043209,-5.498725,-37.065887,-5.526263,-37.092674,-5.549468C-37.248966,-5.533931,-37.40456,-5.512194,-37.559128,-5.4843C-37.761673,-5.446228,-37.984688,-5.403687,-38.187317,-5.364542L-38.257851,-5.353314C-38.352695,-5.338671,-38.448273,-5.329195,-38.544147,-5.324929z"/>
    <path transform="matrix(-1,-0,-0,1,-422.011353,343.352417)" style="stroke:none;fill:#b45a00;fill-rule:evenodd" d="M-47.463596,-5.647729L-47.405354,-5.665039C-47.156025,-5.731154,-46.928432,-5.86172,-46.745502,-6.043578L-46.739674,-6.050752C-46.636696,-6.209625,-46.610256,-6.405884,-46.667522,-6.586344C-46.712982,-6.644604,-46.756325,-6.700405,-46.801517,-6.758855L-46.823662,-6.786789C-46.951088,-7.00428,-47.191936,-7.130389,-47.443275,-7.111187L-47.477337,-7.106437C-47.569057,-7.096815,-47.660992,-7.087713,-47.752819,-7.07916L-47.785294,-7.074594C-47.844223,-7.067837,-47.901527,-7.050829,-47.954597,-7.024337C-48.137474,-6.948149,-48.280792,-6.797976,-48.342918,-6.609944C-48.405045,-6.421911,-48.37941,-6.215916,-48.277912,-6.045777C-48.07988,-5.821921,-47.806953,-5.679061,-47.510147,-5.643912C-47.494526,-5.642759,-47.478825,-5.644075,-47.463596,-5.647729z"/>
    <path transform="matrix(-1,-0,-0,1,-422.011353,343.352417)" style="stroke:none;fill:#b45a00;fill-rule:evenodd" d="M-63.753723,-25.700838L-63.630447,-25.644796C-63.344025,-25.512672,-63.054504,-25.378059,-62.768906,-25.244226L-62.646023,-25.187727L-62.52319,-25.131884C-62.159576,-24.966309,-61.912628,-24.854004,-61.548462,-24.688606L-61.222374,-24.539721C-60.896282,-24.390728,-60.571163,-24.239635,-60.247032,-24.086435L-57.310272,-22.697428L-57.165649,-22.628899C-56.781296,-22.443611,-56.400696,-22.258141,-56.017887,-22.069614L-55.874706,-22.000492C-55.684319,-21.908707,-55.492645,-21.819149,-55.300106,-21.732006C-55.198486,-21.685516,-55.09568,-21.641701,-54.991772,-21.600584C-54.799053,-21.522879,-54.600071,-21.46171,-54.39698,-21.417751L-54.374249,-21.412828C-54.140247,-21.358566,-53.903305,-21.488276,-53.822918,-21.714638L-53.821743,-21.734015C-53.79694,-21.9846,-53.960896,-22.216448,-54.205383,-22.276733L-54.378361,-22.361511C-55.130234,-22.726486,-55.882019,-23.085342,-56.638695,-23.440487L-57.019238,-23.621887C-57.48175,-23.841797,-58.085876,-24.128418,-58.548557,-24.347591L-58.930363,-24.529043L-59.311028,-24.710503L-59.682877,-24.883436C-60.548798,-25.283508,-61.416901,-25.679993,-62.286224,-26.072481L-62.455006,-26.146126C-62.739864,-26.26786,-63.02248,-26.387489,-63.308186,-26.507271L-63.478508,-26.580252L-63.648006,-26.654203C-63.788338,-26.715561,-63.952991,-26.658972,-64.025681,-26.524164C-64.107658,-26.431934,-64.15551,-26.314257,-64.161156,-26.190987C-64.128281,-25.984146,-63.992611,-25.808022,-63.801075,-25.723295C-63.785484,-25.715406,-63.769695,-25.707924,-63.753723,-25.700838z"/>
    <path transform="matrix(-1,-0,-0,1,-422.011353,343.352417)" style="stroke:none;fill:#b45a00;fill-rule:evenodd" d="M-39.71323,-24.649792C-39.747051,-24.434717,-39.650669,-24.219511,-39.467659,-24.101578C-39.382805,-24.057674,-39.291702,-24.027075,-39.197552,-24.010855L-39.180874,-24.007771C-38.945614,-23.974199,-38.722954,-24.121553,-38.661968,-24.35124L-38.654362,-24.418203C-38.633652,-24.710985,-38.627468,-25.00462,-38.635834,-25.298021C-38.638367,-27.283859,-38.633972,-29.252802,-38.622604,-31.237917L-38.622776,-31.382402L-38.623531,-31.671469C-38.632698,-32.19957,-38.614635,-32.727764,-38.569412,-33.253998L-38.56461,-33.321289C-38.545235,-33.49868,-38.596004,-33.677177,-38.708256,-33.815865C-38.820507,-33.954552,-38.984505,-34.041405,-39.162045,-34.059368C-39.223083,-34.062721,-39.284298,-34.05827,-39.344227,-34.046211L-39.353588,-34.044331L-39.363281,-34.041687C-39.532158,-33.981075,-39.661903,-33.844009,-39.71323,-33.672085L-39.71323,-24.649792z"/>
    <path transform="matrix(-1,-0,-0,1,-422.011353,343.352417)" style="stroke:none;fill:#b45a00;fill-rule:evenodd" d="M-17.532267,-24.338219L-14.476276,-25.766993L-14.46742,-25.771025C-14.292038,-25.871403,-14.184422,-26.058043,-14.185407,-26.260115L-14.190885,-26.273827C-14.331572,-26.509937,-14.585155,-26.65406,-14.860003,-26.654127L-15.008306,-26.59016L-15.302174,-26.46419C-15.5483,-26.359798,-15.792791,-26.251389,-16.035421,-26.139067L-18.456255,-24.988176C-19.393677,-24.552734,-20.436279,-24.067383,-21.372995,-23.630556L-21.698179,-23.479691C-22.401457,-23.168663,-23.102758,-22.851097,-23.800585,-22.52766L-23.846598,-22.504936C-23.927921,-22.465836,-23.996357,-22.433044,-24.077757,-22.394178L-24.123613,-22.371813C-24.229706,-22.321253,-24.332321,-22.263695,-24.43078,-22.199526C-24.597733,-22.089556,-24.657246,-21.872948,-24.56995,-21.693098C-24.541691,-21.622871,-24.498837,-21.559443,-24.444206,-21.50704C-24.36412,-21.435944,-24.261459,-21.395443,-24.154404,-21.392681C-24.097525,-21.398499,-24.041275,-21.404041,-23.984381,-21.409439L-23.963285,-21.411961C-23.917099,-21.416725,-23.871595,-21.426704,-23.827673,-21.441761L-23.580677,-21.551304C-23.008911,-21.809059,-22.439384,-22.07206,-21.872391,-22.340164L-21.674206,-22.434845C-21.463501,-22.536255,-21.289642,-22.620117,-21.079138,-22.721926L-20.880606,-22.817081C-20.682999,-22.911772,-20.484196,-23.004263,-20.284475,-23.094425C-19.369423,-23.514725,-18.452339,-23.929184,-17.532267,-24.338219z"/>
    <path transform="matrix(-1,-0,-0,1,-422.011353,343.352417)" style="stroke:none;fill:#b45a00;fill-rule:evenodd" d="M-25.630211,-7.693094C-25.596554,-7.695328,-25.562817,-7.696209,-25.529089,-7.695741C-25.48732,-7.693947,-25.447573,-7.67454,-25.423725,-7.640431C-25.399878,-7.606322,-25.395296,-7.562329,-25.407951,-7.522482L-25.40657,-7.501676C-25.401243,-7.11522,-25.480703,-6.732092,-25.639277,-6.37963L-25.694645,-6.225582C-25.931547,-5.664225,-26.271984,-5.152317,-26.698057,-4.716767L-26.875076,-4.522459C-27.331711,-4.026774,-27.89732,-3.644006,-28.527241,-3.404383L-28.65386,-3.358402C-29.01734,-3.21631,-29.396198,-3.117154,-29.782684,-3.062963L-29.857807,-3.056775C-30.183147,-3.024584,-30.510939,-3.025124,-30.836172,-3.058388C-30.94698,-3.071949,-31.056742,-3.092987,-31.164709,-3.121366C-31.671352,-3.243713,-32.150326,-3.460844,-32.576252,-3.761253C-33.336369,-4.332015,-34.029472,-4.98696,-34.642319,-5.713573C-34.435734,-5.814803,-34.226864,-5.911435,-34.015965,-6.003351C-33.964466,-6.011574,-33.911739,-6.003155,-33.86536,-5.979319L-33.862675,-5.977674L-33.860443,-5.976079L-33.858688,-5.974541C-33.671787,-5.776395,-33.476894,-5.58595,-33.27449,-5.403681C-32.768543,-4.914247,-32.138775,-4.571836,-31.45293,-4.413277C-30.831547,-4.282193,-30.185997,-4.32413,-29.586794,-4.534504L-29.468927,-4.573207C-28.857096,-4.785984,-28.333103,-5.196107,-27.979584,-5.738912L-27.894579,-5.863363C-27.633362,-6.259591,-27.463501,-6.708939,-27.397291,-7.178883L-27.383923,-7.287895C-27.389221,-7.377034,-27.356863,-7.465278,-27.291536,-7.525918C-27.22621,-7.586557,-27.135807,-7.612267,-27.047302,-7.600389C-26.607826,-7.622501,-26.168541,-7.650639,-25.729843,-7.684778L-25.630211,-7.693094z"/>
    <path transform="matrix(-1,-0,-0,1,-422.011353,343.352417)" style="stroke:none;fill:#b45a00;fill-rule:evenodd" d="M-34.770973,-6.832002L-34.902306,-6.957843C-35.194511,-7.235733,-35.48938,-7.511742,-35.785976,-7.784985L-35.789249,-7.782157L-35.734131,-7.62794C-35.610062,-7.271065,-35.487823,-6.91251,-35.368069,-6.554158L-35.294697,-6.58757C-35.147636,-6.656143,-34.997551,-6.726364,-34.850769,-6.795308L-34.81123,-6.813556L-34.770973,-6.832002z"/>
    <path transform="matrix(-1,-0,-0,1,-422.011353,343.352417)" style="stroke:none;fill:#b45a00;fill-rule:evenodd" d="M-32.658066,-13.413817C-32.28017,-13.500759,-31.902012,-13.584805,-31.522934,-13.66612L-31.420547,-13.690928C-31.352451,-13.707785,-31.284592,-13.725582,-31.216986,-13.744314L-30.858355,-13.838263C-30.418865,-13.94968,-29.983578,-14.076866,-29.553242,-14.219607L-29.389265,-14.27662C-28.680193,-14.527679,-27.977041,-14.795059,-27.280306,-15.078582L-27.191456,-15.114538C-26.895315,-15.238884,-26.598871,-15.365303,-26.304125,-15.492928L-26.214846,-15.530013C-25.977608,-15.629587,-25.735756,-15.717831,-25.490145,-15.794437C-24.860386,-15.980651,-24.216183,-16.11396,-23.564247,-16.192982C-23.035736,-16.26593,-22.501875,-16.292635,-21.968718,-16.272795C-21.45985,-16.25988,-20.952826,-16.206501,-20.452429,-16.113161C-19.84094,-16.003456,-19.237574,-15.852575,-18.646429,-15.661546C-18.190994,-15.49662,-17.736328,-15.328392,-17.283285,-15.157194L-17.146566,-15.108809C-16.737343,-14.960227,-16.316803,-14.844887,-15.889035,-14.76391L-15.810165,-14.750252C-15.465092,-14.695995,-15.118403,-14.652275,-14.770665,-14.619165L-14.761142,-14.619337C-14.721127,-14.620447,-14.681383,-14.626338,-14.642765,-14.636877C-14.641832,-14.638255,-14.640832,-14.639585,-14.639768,-14.640862L-14.611636,-14.674844C-14.486772,-14.81983,-14.378487,-14.978312,-14.288797,-15.147332C-14.288574,-15.148071,-13.989258,-15.732056,-13.98961,-15.731327L-13.939995,-15.828728C-13.723757,-16.245865,-13.522791,-16.670799,-13.337542,-17.1026L-13.304413,-17.177803C-13.099846,-17.660801,-12.934824,-18.15959,-12.810961,-18.669289L-12.790075,-18.755831C-12.716837,-19.16534,-12.666973,-19.578712,-12.64073,-19.993887L-12.651777,-20.121561C-12.681923,-20.424658,-12.726196,-20.726192,-12.784447,-21.02516L-12.786968,-21.031113L-12.790304,-21.037701C-12.807678,-21.069672,-12.831893,-21.097391,-12.861229,-21.118919C-13.164145,-21.402697,-13.561232,-21.564367,-13.97622,-21.572868C-14.049664,-21.581329,-14.123433,-21.589428,-14.196965,-21.597097C-14.735881,-21.647753,-15.277369,-21.665316,-15.818438,-21.649687C-15.972018,-21.638069,-16.125093,-21.620474,-16.277306,-21.596943L-16.379932,-21.588781C-16.58654,-21.573849,-16.792383,-21.560032,-16.999134,-21.547224L-17.102371,-21.539923C-17.307774,-21.525978,-17.512667,-21.505379,-17.716736,-21.478159C-18.213202,-21.407125,-18.706331,-21.314646,-19.194811,-21.200966C-19.783482,-21.081413,-20.369438,-20.949242,-20.952456,-20.804514C-21.518732,-20.659012,-22.0779,-20.487286,-22.628239,-20.289864C-23.328949,-20.060421,-24.020889,-19.80481,-24.702486,-19.523617C-25.706697,-19.110897,-26.703272,-18.678753,-27.690893,-18.227758C-28.60322,-17.814602,-29.506651,-17.382717,-30.401079,-16.932152C-31.350906,-16.456139,-32.294563,-15.966667,-33.230743,-15.46443C-34.239471,-14.913696,-35.243561,-14.358826,-36.246449,-13.797851C-36.29438,-13.78834,-36.33408,-13.752395,-36.342846,-13.70464C-36.351612,-13.656885,-36.327271,-13.609183,-36.285847,-13.583259L-36.256035,-13.547482C-36.064209,-13.324017,-35.883114,-13.091567,-35.71336,-12.8509C-35.688862,-12.796616,-35.643543,-12.754398,-35.587666,-12.733795L-35.579647,-12.732436C-35.548744,-12.729874,-35.517635,-12.732249,-35.487488,-12.739511C-35.144581,-12.81653,-34.800434,-12.887125,-34.45491,-12.95132L-34.356327,-12.971625C-34.124634,-13.022299,-33.893929,-13.077032,-33.664162,-13.135834L-33.540653,-13.170958C-33.458534,-13.194733,-33.374519,-13.219193,-33.292473,-13.243217L-33.167492,-13.279419C-32.998898,-13.328695,-32.829018,-13.373516,-32.658066,-13.413817z"/>
    <path transform="matrix(-1,-0,-0,1,-422.011353,343.352417)" style="stroke:none;fill:#b45a00;fill-rule:evenodd" d="M-28.346304,-29.964149L-28.772982,-29.378992C-29.199966,-28.792717,-29.632614,-28.205055,-30.065655,-27.623192L-30.136591,-27.526911C-30.325195,-27.271912,-30.51059,-27.022385,-30.700249,-26.768251L-30.839035,-26.580753C-30.90794,-26.487427,-30.976406,-26.39402,-31.044674,-26.30019C-31.162418,-26.197203,-31.202299,-26.0303,-31.144039,-25.885122L-31.138058,-25.875668C-31.133675,-25.869215,-31.128984,-25.862978,-31.124025,-25.856956L-31.10371,-25.825987C-31.090546,-25.805477,-31.077402,-25.784777,-31.06444,-25.764145L-31.045153,-25.733799C-30.983452,-25.555229,-30.791666,-25.45573,-30.610126,-25.508057L-30.590801,-25.504255C-30.382607,-25.474945,-30.177898,-25.57935,-30.079401,-25.765097L-30.026011,-25.834528C-29.688828,-26.27759,-29.358398,-26.726099,-29.035173,-27.179445L-29.003775,-27.222883C-28.834366,-27.466248,-28.657913,-27.720917,-28.489594,-27.964981L-28.458237,-28.00885L-28.426506,-28.052744C-28.099277,-28.501017,-27.768299,-28.946733,-27.433813,-29.389568C-27.180256,-29.734123,-26.915102,-30.069984,-26.638807,-30.396578L-26.623108,-30.416349C-26.461046,-30.595877,-26.466497,-30.870865,-26.635563,-31.043812C-26.860857,-31.233038,-27.175873,-31.269787,-27.438694,-31.137545L-27.447319,-31.127562C-27.751324,-30.743032,-28.0509,-30.355345,-28.346304,-29.964149z"/>
    <path transform="matrix(-1,-0,-0,1,-422.011353,343.352417)" style="stroke:none;fill:#b45a00;fill-rule:evenodd" d="M-50.319412,-28.476048L-50.189266,-28.297085C-49.714783,-27.635574,-49.249878,-26.983719,-48.779179,-26.319868L-48.649929,-26.140839L-48.520008,-25.962181L-48.496048,-25.927979L-48.47224,-25.89377C-48.357796,-25.6532,-48.112511,-25.501579,-47.846157,-25.506802L-47.821587,-25.506367C-47.567554,-25.500553,-47.355473,-25.699123,-47.344387,-25.95298C-47.341751,-26.013386,-47.348869,-26.073826,-47.365444,-26.131973L-47.371021,-26.152033C-47.406166,-26.243879,-47.455265,-26.329733,-47.516521,-26.406666L-47.645809,-26.584358C-47.775574,-26.761063,-47.906113,-26.937744,-48.036915,-27.113714L-48.166809,-27.289961C-48.29644,-27.465717,-48.423725,-27.64325,-48.548573,-27.822435C-49.173828,-28.712769,-49.822998,-29.639526,-50.445873,-30.531107L-50.718094,-30.917973L-50.760326,-30.973137C-50.855305,-31.117004,-51.00536,-31.216217,-51.17543,-31.244238C-51.345501,-31.272261,-51.519451,-31.226433,-51.655701,-31.120811C-51.680531,-31.100876,-51.70422,-31.079561,-51.72673,-31.057039C-51.8671,-30.942335,-51.898102,-30.739258,-51.798054,-30.588097L-51.482216,-30.07486C-51.145226,-29.607491,-50.805885,-29.142143,-50.463921,-28.678417L-50.319412,-28.476048z"/>
    <path transform="matrix(-1,-0,-0,1,-422.011353,343.352417)" style="stroke:none;fill:#b45a00;fill-rule:evenodd" d="M-50.69841,-14.893402C-51.371956,-15.169022,-52.04863,-15.440506,-52.725937,-15.706854L-52.882061,-15.766854C-53.142311,-15.865086,-53.407104,-15.95089,-53.675503,-16.023962C-54.341099,-16.205776,-55.027008,-16.302723,-55.716919,-16.312496C-56.462585,-16.316782,-57.207623,-16.268023,-57.946384,-16.166584C-58.463848,-16.095446,-58.97504,-15.984344,-59.475361,-15.834278L-59.664398,-15.775797L-59.851269,-15.711711C-60.161049,-15.5952,-60.469658,-15.480667,-60.780399,-15.3669L-60.970642,-15.304997C-61.61998,-15.11425,-62.273098,-14.935417,-62.929028,-14.768763L-63.257835,-14.683638C-63.37849,-14.630239,-63.510212,-14.606179,-63.641949,-14.613526L-63.651905,-14.616398C-63.798313,-14.676476,-63.922874,-14.77969,-64.009102,-14.912393C-64.368759,-15.521519,-64.707863,-16.142487,-65.025902,-16.77434C-65.176804,-17.104881,-65.29969,-17.447515,-65.393265,-17.798616C-65.518768,-18.17926,-65.624329,-18.566189,-65.709511,-18.957827C-65.727837,-19.055431,-65.736626,-19.154594,-65.735664,-19.253899L-65.735359,-19.31493C-65.73024,-19.462011,-65.725739,-19.607784,-65.721794,-19.754908L-65.721771,-19.81823L-65.735161,-19.81823C-65.75219,-20.157122,-65.747787,-20.496773,-65.721977,-20.835112C-65.699608,-21.007221,-65.61277,-21.164227,-65.478966,-21.274761C-65.279587,-21.397123,-65.056374,-21.475554,-64.82428,-21.504847C-64.430542,-21.570528,-64.034721,-21.623312,-63.637543,-21.663103C-63.336895,-21.693714,-63.034161,-21.698118,-62.732754,-21.676277C-62.083652,-21.63871,-61.435791,-21.581425,-60.790173,-21.504501C-60.614075,-21.483891,-60.438831,-21.456497,-60.264843,-21.42238L-60.189941,-21.408072C-60.063751,-21.382996,-59.938568,-21.358543,-59.812244,-21.33429L-59.735657,-21.319887C-59.347153,-21.254463,-58.959721,-21.184036,-58.573082,-21.108561C-58.155605,-21.013622,-57.741726,-20.903542,-57.332253,-20.778538C-56.826614,-20.636971,-56.324692,-20.482883,-55.826725,-20.316347C-55.335274,-20.144958,-54.848053,-19.961807,-54.365402,-19.767015L-54.254845,-19.721941C-53.529278,-19.431381,-52.808758,-19.129807,-52.092575,-18.81691L-51.928181,-18.7437C-50.791611,-18.230507,-49.659958,-17.702858,-48.536152,-17.162157L-48.278061,-17.037666C-47.317635,-16.576313,-46.366608,-16.095783,-45.425449,-15.596283L-45.276695,-15.517147C-44.506966,-15.110672,-43.745071,-14.68988,-42.991116,-14.254817L-42.818058,-14.155649C-42.786922,-14.137262,-42.756386,-14.117873,-42.726494,-14.097528L-42.681885,-14.066387C-42.521984,-13.941021,-42.360374,-13.816525,-42.19836,-13.693906C-42.17474,-13.679492,-42.152782,-13.662518,-42.132851,-13.643325L-42.128685,-13.638285L-42.125778,-13.633403L-42.124149,-13.628518C-42.128983,-13.605564,-42.141209,-13.584794,-42.159275,-13.569831L-42.182106,-13.543756C-42.231445,-13.487615,-42.279335,-13.430237,-42.325745,-13.371647L-42.359921,-13.328294C-42.468842,-13.184469,-42.57914,-13.040792,-42.689934,-12.898405L-42.723869,-12.856644C-42.763367,-12.820403,-42.811131,-12.79441,-42.863003,-12.780881L-42.86837,-12.779859L-42.873421,-12.779145C-42.876427,-12.778816,-42.879452,-12.778745,-42.882473,-12.778688L-42.886414,-12.77897L-42.891251,-12.779843C-43.142147,-12.803609,-43.391743,-12.839468,-43.639179,-12.887299L-43.695717,-12.898402C-43.790688,-12.918171,-43.885342,-12.939341,-43.979683,-12.961916L-44.120846,-12.996274C-44.357533,-13.05719,-44.59354,-13.116806,-44.830776,-13.175616L-45.126888,-13.252155C-45.481689,-13.345062,-45.85202,-13.441315,-46.207214,-13.532953L-46.426563,-13.583931C-46.689957,-13.646225,-46.961891,-13.709885,-47.225506,-13.770997C-47.474609,-13.835388,-47.776031,-13.913757,-48.024963,-13.978886L-48.084293,-13.995592C-48.224651,-14.033029,-48.364613,-14.072429,-48.503895,-14.11371C-48.7528,-14.187611,-49.000072,-14.267017,-49.245472,-14.351851C-49.732353,-14.525898,-50.216412,-14.706326,-50.69841,-14.893402z"/>
    <path transform="matrix(-1,-0,-0,1,-422.011353,343.352417)" style="stroke:none;fill:#b45a00;fill-rule:evenodd" d="M-37.407833,-9.03484C-37.694832,-8.939856,-37.987289,-8.862175,-38.283596,-8.802223L-38.315369,-8.797799C-38.684509,-8.728252,-39.059681,-8.695895,-39.43528,-8.701216L-39.521885,-8.705626C-39.723587,-8.720856,-39.923836,-8.751487,-40.120869,-8.797247L-40.269932,-8.830288C-40.369572,-8.85323,-40.468487,-8.875637,-40.568314,-8.89789L-40.717941,-8.929412C-40.755901,-8.942352,-40.794273,-8.954046,-40.833,-8.964467C-40.851467,-8.968406,-40.870296,-8.970388,-40.889179,-8.970313C-40.915367,-8.968528,-40.941666,-8.969271,-40.967716,-8.972513C-41.09343,-9.002135,-41.185974,-9.109522,-41.196781,-9.238224C-41.26712,-9.573602,-41.347366,-9.906895,-41.437389,-10.237539L-41.462341,-10.312818C-41.608017,-10.761952,-41.639042,-11.240412,-41.552586,-11.704597C-41.485607,-12.146201,-41.277004,-12.55412,-40.958187,-12.866938C-40.461639,-13.35789,-39.773277,-13.604405,-39.077953,-13.540279C-38.595978,-13.540361,-38.126698,-13.386293,-37.73856,-13.100551L-37.679935,-13.05027C-37.311897,-12.760683,-37.051014,-12.35629,-36.938908,-11.901597L-36.928486,-11.848354C-36.923492,-11.820162,-36.918148,-11.792022,-36.912468,-11.763959L-36.903713,-11.721748C-36.862324,-11.545218,-36.821697,-11.36885,-36.781708,-11.19206L-36.771812,-11.144238C-36.871468,-10.791969,-36.963318,-10.437616,-37.047325,-10.081284C-37.096046,-9.86971,-37.131699,-9.655328,-37.154072,-9.439369C-37.124702,-9.267472,-37.223625,-9.098917,-37.388027,-9.040756L-37.407833,-9.03484z"/>
    <path transform="matrix(-1,-0,-0,1,-422.011353,343.352417)" style="stroke:none;fill:#b45a00;fill-rule:evenodd" d="M-41.206127,-0.046317C-41.187859,0.138314,-41.14529,0.319723,-41.079525,0.493206C-40.921555,0.899238,-40.749916,1.299757,-40.564873,1.694182C-40.285419,2.296138,-39.84745,2.810857,-39.297993,3.183069L-39.294815,3.185254L-39.291786,3.186687L-39.288097,3.187982L-39.283802,3.189137C-39.226616,3.198928,-39.167877,3.191675,-39.114788,3.168272L-39.0257,3.108052C-38.666008,2.814542,-38.356922,2.464113,-38.110626,2.070585L-38.063019,2.001743C-37.789921,1.546415,-37.57679,1.057703,-37.428921,0.547764L-37.415676,0.512212C-37.368027,0.365159,-37.324818,0.216697,-37.286106,0.067042L-37.285526,0.053958C-37.259537,-0.01244,-37.279537,-0.087872,-37.335011,-0.132669C-37.378834,-0.135864,-37.422882,-0.133795,-37.466213,-0.126506L-37.548752,-0.109842C-37.903687,-0.043005,-38.260521,0.013273,-38.618801,0.058921L-38.661144,0.064566C-38.848969,0.089821,-39.036957,0.114311,-39.224987,0.138005L-39.236591,0.140584C-39.299835,0.152345,-39.364777,0.151485,-39.427685,0.138056C-39.704224,0.097672,-39.984169,0.056107,-40.260502,0.01437L-40.469585,-0.016131C-40.679779,-0.046709,-40.890427,-0.074427,-41.101398,-0.099272L-41.104759,-0.098671L-41.109249,-0.097393C-41.143845,-0.085138,-41.176468,-0.067938,-41.206127,-0.046317z"/>
    <path transform="matrix(-1,-0,-0,1,-422.011353,343.352417)" style="stroke:none;fill:#b45a00;fill-rule:evenodd" d="M-36.955662,-2.736409C-37.157661,-2.701488,-37.360142,-2.66534,-37.561768,-2.628202L-37.614697,-2.61919C-37.684216,-2.607435,-37.75386,-2.596742,-37.823704,-2.587095C-37.942356,-2.563046,-38.060471,-2.538319,-38.178825,-2.512749L-38.23822,-2.500944C-38.374447,-2.471754,-38.513229,-2.456085,-38.652534,-2.454165C-38.980034,-2.4533,-39.307209,-2.449326,-39.634666,-2.442229L-39.724705,-2.443372C-39.968185,-2.445209,-40.210869,-2.471409,-40.449131,-2.521584L-40.507835,-2.53499C-40.686512,-2.569683,-40.86414,-2.603184,-41.043198,-2.635957L-41.103447,-2.648729C-41.164459,-2.661988,-41.225033,-2.677157,-41.285091,-2.694215L-41.303375,-2.699409C-41.324894,-2.71626,-41.351387,-2.726149,-41.37859,-2.725084C-41.405792,-2.724018,-41.431431,-2.712087,-41.451607,-2.693643C-41.468533,-2.650509,-41.475739,-2.604172,-41.472706,-2.557934C-41.462254,-2.169927,-41.444607,-1.781996,-41.419792,-1.394638L-41.419674,-1.389722L-41.419167,-1.385054C-41.407383,-1.33113,-41.381531,-1.281337,-41.344204,-1.240677C-41.091614,-1.156733,-40.834488,-1.087038,-40.574081,-1.03193C-40.383823,-1.001976,-40.196774,-0.973335,-40.006233,-0.944999L-39.954636,-0.935334C-39.885437,-0.922006,-39.816929,-0.905319,-39.749352,-0.885327C-39.608093,-0.845236,-39.462578,-0.822035,-39.315853,-0.816209C-38.872356,-0.824429,-38.430595,-0.874687,-37.996586,-0.966301L-37.972057,-0.969262C-37.738541,-1.018164,-37.505505,-1.069899,-37.273232,-1.124408L-37.247635,-1.13123C-37.159744,-1.135327,-37.076111,-1.174072,-37.020344,-1.241913C-36.964577,-1.309754,-36.942745,-1.399302,-36.955727,-1.486326L-36.953373,-1.570413C-36.948334,-1.959159,-36.949097,-2.347684,-36.955662,-2.736409z"/>
    <path transform="matrix(-1,-0,-0,1,-422.011353,343.352417)" style="stroke:none;fill:#b45a00;fill-rule:evenodd" d="M-52.930401,-7.666631C-52.559914,-7.636444,-52.18927,-7.611267,-51.818085,-7.591069L-51.513363,-7.573924C-51.496204,-7.573081,-51.479057,-7.571926,-51.461945,-7.570448C-51.385319,-7.574531,-51.309517,-7.547722,-51.255489,-7.493394C-51.201466,-7.439066,-51.175079,-7.363117,-51.179653,-7.286523L-51.176807,-7.261433C-51.12299,-6.752486,-50.947815,-6.263883,-50.666004,-5.836679C-50.29591,-5.251619,-49.756824,-4.792772,-49.120144,-4.520916C-48.511627,-4.286776,-47.849964,-4.225574,-47.208824,-4.34413L-47.134064,-4.360399C-46.497906,-4.507012,-45.909492,-4.81339,-45.424595,-5.2505L-45.311882,-5.351513C-45.113022,-5.552375,-44.911118,-5.749969,-44.70602,-5.944451C-44.663635,-5.96728,-44.616451,-5.979679,-44.568321,-5.98067C-44.565285,-5.980704,-44.562248,-5.980643,-44.559216,-5.980533L-44.55542,-5.980204L-44.552185,-5.979695L-44.549564,-5.979005L-44.546455,-5.977584C-44.349129,-5.895545,-44.154564,-5.806941,-43.963146,-5.711946L-43.916767,-5.689069C-44.491707,-5.006237,-45.138157,-4.386971,-45.845047,-3.841881L-45.984699,-3.734625C-46.354355,-3.469962,-46.767746,-3.272373,-47.205864,-3.150943L-47.396805,-3.094685C-47.77095,-3.006331,-48.15736,-2.981326,-48.539772,-3.020728L-48.703121,-3.030325C-49.116188,-3.075688,-49.521214,-3.177175,-49.906872,-3.33194C-50.587215,-3.566863,-51.198601,-3.967035,-51.686142,-4.496522C-52.194527,-4.975126,-52.596581,-5.555307,-52.866184,-6.19938C-53.051556,-6.599515,-53.149719,-7.034515,-53.154144,-7.475481C-53.152252,-7.518718,-53.146072,-7.561659,-53.135677,-7.603671C-53.115555,-7.638146,-53.083832,-7.664804,-53.045727,-7.676483C-53.007626,-7.688162,-52.966412,-7.683861,-52.930401,-7.666631z"/>
    <path transform="matrix(-1,-0,-0,1,-422.011353,343.352417)" style="stroke:none;fill:#b45a00;fill-rule:evenodd" d="M-42.725288,-16.548479C-43.308361,-16.729252,-43.895325,-16.896954,-44.485889,-17.05151C-44.92918,-17.168453,-45.371326,-17.290455,-45.811916,-17.417402L-45.913662,-17.448103C-46.118393,-17.53731,-46.235126,-17.755192,-46.196003,-17.975061C-46.109962,-18.124895,-45.955734,-18.222437,-45.783489,-18.236006C-45.702732,-18.220411,-45.623169,-18.199171,-45.54538,-18.172455L-44.631332,-17.934008L-44.557125,-17.914274C-44.23299,-17.833771,-43.909431,-17.752167,-43.585979,-17.669359C-43.172981,-17.573786,-42.763493,-17.463732,-42.358234,-17.339382C-41.351665,-17.043694,-40.510181,-16.347885,-40.030682,-15.414778L-39.992825,-15.33987C-39.924034,-15.202301,-39.889771,-15.04996,-39.893021,-14.896184L-39.892605,-14.860207C-39.878773,-14.721029,-39.968262,-14.592077,-40.103497,-14.556403L-40.121078,-14.551051C-40.209042,-14.523951,-40.297878,-14.499744,-40.387432,-14.47847C-40.43528,-14.457077,-40.490345,-14.455791,-40.537575,-14.478223C-40.584805,-14.500654,-40.618603,-14.544147,-40.632496,-14.594704L-40.654339,-14.635765C-40.682808,-14.691006,-40.711227,-14.745628,-40.740139,-14.800659L-40.777576,-14.870754C-41.142094,-15.62078,-41.781055,-16.202133,-42.562096,-16.494347C-42.616013,-16.513813,-42.670429,-16.531858,-42.725288,-16.548479z"/>
    <path transform="matrix(-1,-0,-0,1,-422.011353,343.352417)" style="stroke:none;fill:#b45a00;fill-rule:evenodd" d="M-45.496086,-30.986334L-45.50404,-31.016895L-45.512527,-31.047377C-45.560757,-31.19412,-45.608311,-31.341696,-45.654827,-31.488987L-45.665245,-31.528454C-45.692295,-31.617685,-45.71854,-31.70595,-45.744629,-31.795454C-45.709373,-32.00687,-45.570797,-32.186291,-45.375149,-32.273815C-45.130398,-32.32999,-44.87524,-32.245533,-44.712376,-32.054394L-44.703262,-32.036835C-44.658058,-31.938606,-44.618546,-31.837856,-44.584953,-31.735075L-44.570038,-31.690283C-44.531483,-31.568954,-44.493122,-31.449036,-44.454105,-31.327936C-44.425438,-31.241449,-44.39893,-31.154276,-44.374584,-31.066475L-44.35075,-30.980015C-44.319756,-30.863319,-44.288139,-30.74575,-44.256409,-30.629221L-44.24081,-30.573549L-44.224339,-30.517138C-44.195641,-30.422596,-44.167709,-30.329487,-44.139626,-30.234745L-44.124371,-30.180357C-44.007759,-29.710653,-43.884125,-29.242626,-43.753548,-28.776596L-43.724476,-28.679707C-43.5961,-28.291651,-43.469818,-27.902464,-43.345905,-27.512985L-43.317139,-27.414532L-43.289257,-27.312786C-43.177689,-26.869818,-43.0634,-26.427088,-42.946632,-25.985474C-42.849411,-25.691925,-42.753815,-25.396843,-42.660446,-25.102062L-42.64291,-25.035057C-42.570782,-24.764919,-42.519211,-24.489708,-42.488663,-24.211781L-42.485489,-24.158461C-42.483425,-24.109604,-42.490852,-24.060791,-42.507534,-24.014826C-42.61068,-23.775497,-42.886627,-23.663401,-43.127453,-23.763L-43.143623,-23.769793C-43.204685,-23.794121,-43.261753,-23.827463,-43.313019,-23.868601C-43.494663,-24.045795,-43.611511,-24.279594,-43.644215,-24.531235L-43.667152,-24.61083C-43.771049,-24.954273,-43.873726,-25.298435,-43.974983,-25.642618C-44.001381,-25.733614,-44.026871,-25.824863,-44.051445,-25.91637L-44.070019,-25.98551C-44.06958,-25.984375,-44.143799,-26.262573,-44.143867,-26.26313L-44.162506,-26.332512L-44.181339,-26.40177L-44.200413,-26.470844L-44.219791,-26.539679L-44.239529,-26.608215L-44.268368,-26.7078C-44.402424,-27.137106,-44.533909,-27.566912,-44.662979,-27.99769C-44.72834,-28.216738,-44.789192,-28.437056,-44.845516,-28.658604L-44.862705,-28.724865C-44.882416,-28.800945,-44.877167,-28.780727,-44.896873,-28.856722L-44.91391,-28.922205C-44.947762,-29.062979,-44.985691,-29.202763,-45.027645,-29.341337L-45.04715,-29.401644C-45.118706,-29.588346,-45.18462,-29.777187,-45.244789,-29.967871C-45.257946,-30.014931,-45.270596,-30.062086,-45.282749,-30.109421L-45.300835,-30.180851C-45.358101,-30.424511,-45.416832,-30.669029,-45.476505,-30.912151L-45.496086,-30.986334z"/>
    <path transform="matrix(-1,-0,-0,1,-422.011353,343.352417)" style="stroke:none;fill:#b45a00;fill-rule:evenodd" d="M-29.279289,-22.48629C-29.341867,-22.644047,-29.286375,-22.82453,-29.14591,-22.919781C-28.585304,-23.451172,-28.030464,-23.986893,-27.479719,-24.528561L-27.028896,-24.970621L-26.841686,-25.140636L-26.654125,-25.310656C-25.956665,-25.940186,-25.280884,-26.550781,-24.584219,-27.181204L-24.396938,-27.351286L-24.263845,-27.473227C-23.682495,-28.010498,-23.127319,-28.522217,-22.544912,-29.057795C-22.265675,-29.329172,-21.966919,-29.579697,-21.651039,-29.807379C-21.593868,-29.846319,-21.527967,-29.870565,-21.459181,-29.877859C-21.175962,-29.903505,-20.922716,-29.702658,-20.883158,-29.421047L-20.882092,-29.407524C-20.877354,-29.309734,-20.910797,-29.214073,-20.975344,-29.140459L-20.98472,-29.132078C-21.084028,-29.036772,-21.183516,-28.942316,-21.283848,-28.848083L-21.384241,-28.754005C-21.926727,-28.256165,-22.470551,-27.753876,-23.009853,-27.252504C-23.610397,-26.667229,-24.217194,-26.088737,-24.830462,-25.516823L-24.927494,-25.427431C-25.093498,-25.274681,-25.261459,-25.121429,-25.42873,-24.970098L-25.554405,-24.856518C-26.174133,-24.302063,-26.822205,-23.721008,-27.441252,-23.165049C-27.724937,-22.882935,-28.013653,-22.605618,-28.306965,-22.333506L-28.354183,-22.291845C-28.391905,-22.255041,-28.435089,-22.224279,-28.482182,-22.200617L-28.511332,-22.185713C-28.596102,-22.148193,-28.680363,-22.109566,-28.764118,-22.069815C-28.880577,-22.101944,-28.98831,-22.159882,-29.07933,-22.239319C-29.163433,-22.305843,-29.231686,-22.390203,-29.279289,-22.48629z"/>
    <path transform="matrix(-1,-0,-0,1,-422.011353,343.352417)" style="stroke:none;fill:#b45a00;fill-rule:evenodd" d="M-34.892315,-9.893793L-34.747559,-9.848C-34.456654,-9.754509,-34.1703,-9.661522,-33.880108,-9.566328L-33.735718,-9.519845C-33.44915,-9.427029,-33.160706,-9.340225,-32.87051,-9.259479L-32.74308,-9.222887C-32.200714,-9.060354,-31.648756,-8.931616,-31.090445,-8.837423L-30.979465,-8.821087C-30.416609,-8.752668,-29.850496,-8.714144,-29.28356,-8.705679L-29.227316,-8.703682C-28.943123,-8.701873,-28.658985,-8.711358,-28.375547,-8.732115L-28.052418,-8.749252C-27.657495,-8.769238,-27.262911,-8.794369,-26.868633,-8.82464L-26.789938,-8.831027C-26.396702,-8.874405,-26.003895,-8.921509,-25.611549,-8.97234L-25.532227,-8.979834C-25.452581,-8.987032,-25.372797,-8.992658,-25.292927,-8.99671C-24.47298,-9.024414,-23.650324,-9.049072,-22.830256,-9.070447L-22.699577,-9.076105L-22.615244,-9.079501C-22.246758,-9.101912,-21.87944,-9.140337,-21.514294,-9.194673L-21.425089,-9.210912C-20.984898,-9.310581,-20.571722,-9.504906,-20.214226,-9.780404L-20.098654,-9.86846C-19.686066,-10.192902,-19.255768,-10.533051,-18.84483,-10.859687L-18.729422,-10.948842L-18.613276,-11.037335C-18.246887,-11.285278,-18.040222,-11.425049,-17.674198,-11.672193L-17.502563,-11.807246C-17.111046,-12.131367,-16.723526,-12.460659,-16.340458,-12.794731C-16.293474,-12.834845,-16.24719,-12.87414,-16.199995,-12.913988L-16.129396,-12.974105C-16.010502,-13.073303,-15.897429,-13.179295,-15.790757,-13.291534L-15.780856,-13.305101C-15.757501,-13.327271,-15.744474,-13.358335,-15.745186,-13.390527L-15.747777,-13.397214L-15.751802,-13.403594L-15.757296,-13.409737L-15.764291,-13.415711C-15.768868,-13.41911,-15.773707,-13.422144,-15.778806,-13.424698C-15.806409,-13.437183,-15.835847,-13.44512,-15.865985,-13.44821C-15.973368,-13.467892,-16.079969,-13.487049,-16.187464,-13.505988L-16.294621,-13.525575C-16.509714,-13.563116,-16.722469,-13.61298,-16.931845,-13.67492L-17.043293,-13.71324C-17.671154,-13.944778,-18.295589,-14.179306,-18.920607,-14.418334L-19.031149,-14.457306L-19.141829,-14.49537C-19.716192,-14.704094,-20.301863,-14.880272,-20.896053,-15.023065C-21.355707,-15.099921,-21.820333,-15.143655,-22.286261,-15.153913L-22.375387,-15.143145C-22.592575,-15.120773,-22.810318,-15.099686,-23.02774,-15.079968L-23.123318,-15.06962C-23.28359,-15.052483,-23.442993,-15.028017,-23.601028,-14.9963C-24.053591,-14.918388,-24.49815,-14.79958,-24.929241,-14.641325C-25.50996,-14.423799,-26.082767,-14.185849,-26.646688,-13.92788C-26.913906,-13.812054,-27.181656,-13.694439,-27.447788,-13.575984L-27.528496,-13.542799C-27.60968,-13.50984,-27.691734,-13.479002,-27.774534,-13.450336L-27.940109,-13.391747C-28.33243,-13.260492,-28.727945,-13.13862,-29.126102,-13.026302L-29.509106,-12.913495C-29.825361,-12.818796,-30.144104,-12.732656,-30.46501,-12.655158L-30.517273,-12.643404C-30.761522,-12.59486,-31.00666,-12.548351,-31.251715,-12.50405L-31.303583,-12.493127C-31.372465,-12.478417,-31.440973,-12.461953,-31.509022,-12.443754C-32.106461,-12.293377,-32.70203,-12.134556,-33.295029,-11.967486C-33.640312,-11.881424,-33.986465,-11.794266,-34.331409,-11.706561L-34.446568,-11.678244C-34.600655,-11.640493,-34.754997,-11.604567,-34.909912,-11.570382C-34.980942,-11.562045,-35.045292,-11.523316,-35.084194,-11.463339C-35.123096,-11.403362,-35.132221,-11.328815,-35.110916,-11.260542L-35.106636,-11.241895C-35.065475,-10.931184,-35.117928,-10.615044,-35.257225,-10.334273C-35.301193,-10.25941,-35.315945,-10.170568,-35.298557,-10.085505L-35.295128,-10.080993L-35.29118,-10.07663C-35.233559,-10.036074,-35.169621,-10.005349,-35.101963,-9.985673L-35.086742,-9.979416C-35.042156,-9.959096,-34.997742,-9.938537,-34.953396,-9.917688L-34.938404,-9.911239C-34.923275,-9.904821,-34.907898,-9.899002,-34.892315,-9.893793z"/>
    <path transform="matrix(-1,-0,-0,1,-422.011353,343.352417)" style="stroke:none;fill:#b45a00;fill-rule:evenodd" d="M-43.748863,-6.831449C-43.411301,-7.150406,-43.076614,-7.465195,-42.737663,-7.782545C-42.737663,-7.782547,-42.736553,-7.781452,-42.736546,-7.781448L-42.735973,-7.780887L-42.73539,-7.780319C-42.735367,-7.780296,-42.734184,-7.779152,-42.7342,-7.779166L-42.733589,-7.778582L-42.732975,-7.777995C-42.880749,-7.372738,-43.02116,-6.965055,-43.15427,-6.55474L-43.227325,-6.58802L-43.299648,-6.621491C-43.435658,-6.68586,-43.572239,-6.749817,-43.70879,-6.813083L-43.748863,-6.831449z"/>
    <path transform="translate(-418.681671,371.078766)" style="stroke:none;fill:#b45a00;fill-rule:evenodd" d="M33.342773,3.07251L32.27124,3.211914L32.132568,3.021484C31.406101,2.189018,30.158588,2.067304,29.284912,2.743652C28.866732,3.105522,28.619194,3.62619,28.602539,4.178955C28.533825,4.786514,28.685913,5.398584,29.031006,5.90332C29.584612,6.686389,30.644121,6.918446,31.474365,6.438477C31.922037,6.142587,32.224781,5.672124,32.308594,5.14209L32.347412,4.930176L33.545654,5.031494C33.464893,6.341513,32.465824,7.410845,31.164307,7.580322C30.492334,7.692647,29.802322,7.610133,29.175781,7.342529C28.041557,6.7665,27.342884,5.586666,27.383057,4.315186C27.332081,3.104654,28.036903,1.98861,29.151855,1.514404C30.111292,1.133779,31.19949,1.274522,32.030518,1.886719L31.529541,-0.611084L27.820557,-0.611084L27.820557,-1.70166L32.442627,-1.70166L33.342773,3.07251zM36.776123,4.841309C36.932362,5.263252,37.074036,5.690392,37.200928,6.12207L37.406982,5.430908L37.63208,4.765137L39.077637,0.73291L40.282227,0.73291L37.720703,7.466064L36.655762,7.466064L34.106934,0.73291L35.279785,0.73291L36.776123,4.841309zM14.255127,7.466064L10.901123,7.466064C10.186168,7.487759,9.473989,7.367347,8.805908,7.111816C8.041764,6.772855,7.432973,6.15901,7.100342,5.39209C6.728469,4.568505,6.547513,3.671406,6.571045,2.768066C6.558191,2.015613,6.681684,1.267044,6.935547,0.558594C7.275346,-0.429262,8.03698,-1.214694,9.013916,-1.584717C9.676374,-1.774776,10.364875,-1.85711,11.053467,-1.828613L14.255127,-1.828613L14.255127,7.466064zM4.697021,7.466064L3.467041,7.466064L3.467041,-1.828613L4.697021,-1.828613L4.697021,7.466064zM-4.860352,5.468994L0.021484,-1.828613L1.283203,-1.828613L1.283203,7.466064L0.104004,7.466064L0.104004,0.162354L-4.777832,7.466064L-6.039551,7.466064L-6.039551,-1.828613L-4.860352,-1.828613L-4.860352,5.468994zM-7.057617,7.466064L-8.36377,7.466064L-9.384521,4.651123L-13.270996,4.651123L-14.35498,7.466064L-15.756348,7.466064L-11.952148,-1.828613L-10.627197,-1.828613L-7.057617,7.466064zM-16.727295,7.466064L-22.534912,7.466064L-22.534912,6.369385L-17.957275,6.369385L-17.957275,-1.828613L-16.727295,-1.828613L-16.727295,7.466064zM-23.028564,7.466064L-24.334717,7.466064L-25.355469,4.651123L-29.241943,4.651123L-30.326172,7.466064L-31.727295,7.466064L-27.92334,-1.828613L-26.598145,-1.828613L-23.028564,7.466064zM-32.698486,7.466064L-36.242432,7.466064C-36.945908,7.497318,-37.648056,7.378724,-38.302246,7.118164C-38.903412,6.844075,-39.360817,6.328865,-39.561768,5.699463C-39.807178,5.039714,-39.771076,4.307925,-39.461914,3.675537C-39.147446,3.098248,-38.605034,2.679236,-37.967041,2.520752L-38.272949,2.346436C-39.186813,1.76697,-39.525261,0.596702,-39.061768,-0.381104C-38.706295,-1.142711,-37.980484,-1.664184,-37.145264,-1.758057C-36.82777,-1.807296,-36.506828,-1.830891,-36.185547,-1.828613L-32.698486,-1.828613L-32.698486,7.466064zM11.07251,-0.731689C10.902188,-0.732071,10.73189,-0.728083,10.561768,-0.719727C10.132346,-0.724994,9.706516,-0.638745,9.312988,-0.466797C8.596807,-0.058523,8.100434,0.647602,7.95874,1.459717C7.760372,2.48244,7.802906,3.536857,8.083008,4.540283C8.215051,4.980231,8.448531,5.383052,8.764648,5.716309C9.167562,6.077499,9.68042,6.29243,10.220459,6.326416C10.492815,6.356802,10.766731,6.37115,11.040771,6.369385L13.025146,6.369385L13.025146,-0.731689L11.07251,-0.731689zM-36.077637,3.173828C-36.536213,3.157311,-36.994686,3.209652,-37.437744,3.329102C-38.059376,3.52846,-38.470997,4.119285,-38.442627,4.771484C-38.476818,5.569882,-37.875423,6.255174,-37.079346,6.324951C-36.801952,6.361506,-36.522133,6.376362,-36.242432,6.369385L-33.928467,6.369385L-33.928467,3.173828L-36.077637,3.173828zM22.765381,4.676514L19.259277,4.676514L19.259277,3.528809L22.765381,3.528809L22.765381,4.676514zM-11.383057,-0.44873L-11.533691,0.00708C-11.969315,1.227257,-12.421738,2.441658,-12.890625,3.649414L-9.739502,3.649414L-10.760254,0.923096C-10.973088,0.345309,-11.14051,-0.248215,-11.260986,-0.852051L-11.383057,-0.44873zM-27.354248,-0.44873L-27.504883,0.00708C-27.940521,1.227341,-28.392792,2.441551,-28.861572,3.649414L-25.710449,3.649414L-26.731201,0.923096C-26.944183,0.345341,-27.111687,-0.248189,-27.232178,-0.852051L-27.354248,-0.44873zM-35.786133,-0.731689C-36.261101,-0.751879,-36.736645,-0.70811,-37.199951,-0.601563C-37.670223,-0.445282,-38.00156,-0.023451,-38.041992,0.470459C-38.121422,0.900245,-37.988369,1.342045,-37.684814,1.656494C-37.390427,1.900846,-37.022816,2.039368,-36.640381,2.050049C-36.406853,2.069567,-36.172569,2.078609,-35.938232,2.077148L-33.928467,2.077148L-33.928467,-0.731689L-35.786133,-0.731689z"/>
    <circle transform="matrix(1,0,0,-1,-319.416595,445.999908)" style="stroke:#ff0000;stroke-width:0.05mm;fill:none" r="1.425" cx="0" cy="0"/>
    <circle transform="matrix(1,0,0,-1,-461.291687,445.999908)" style="stroke:#ff0000;stroke-width:0.05mm;fill:none" r="1.425" cx="0" cy="0"/>
    <circle transform="matrix(1,0,0,-1,-508.583374,445.999908)" style="stroke:#ff0000;stroke-width:0.05mm;fill:none" r="1.425" cx="0" cy="0"/>
    <circle transform="matrix(1,0,0,-1,-414,445.999908)" style="stroke:#ff0000;stroke-width:0.05mm;fill:none" r="1.425" cx="0" cy="0"/>
    <circle transform="matrix(1,0,0,-1,-366.708313,445.999908)" style="stroke:#ff0000;stroke-width:0.05mm;fill:none" r="1.425" cx="0" cy="0"/>
    <circle transform="matrix(1,0,0,-1,-414,258.999908)" style="stroke:#ff0000;stroke-width:0.05mm;fill:none" r="1.425" cx="0" cy="0"/>
    <circle transform="matrix(1,0,0,-1,-366.708313,258.999908)" style="stroke:#ff0000;stroke-width:0.05mm;fill:none" r="1.425" cx="0" cy="0"/>
    <circle transform="matrix(1,0,0,-1,-461.291687,258.999908)" style="stroke:#ff0000;stroke-width:0.05mm;fill:none" r="1.425" cx="0" cy="0"/>
    <circle transform="matrix(1,0,0,-1,-319.416595,258.999908)" style="stroke:#ff0000;stroke-width:0.05mm;fill:none" r="1.425" cx="0" cy="0"/>
    <circle transform="matrix(1,0,0,-1,-508.583374,258.999908)" style="stroke:#ff0000;stroke-width:0.05mm;fill:none" r="1.425" cx="0" cy="0"/>
    <path transform="matrix(1,0,0,-1,-414,320.696655)" style="stroke:none;fill:#b45a00;fill-rule:evenodd" d="M133.770981,-96.902756L133.770981,-95.520203C134.611313,-94.270615,135.060135,-92.798912,135.060135,-91.293045L135.060135,31C135.060135,32.505867,134.611313,33.977566,133.770981,35.227154L133.770981,36.609707C135.148712,35.065933,135.910141,33.069145,135.910141,31L135.910141,-91.293045C135.910141,-93.36219,135.148697,-95.358978,133.770981,-96.902756z"/>
    <path transform="matrix(1,0,0,-1,-414,320.696655)" style="stroke:none;fill:#b45a00;fill-rule:evenodd" d="M-133.770981,36.609707L-133.770981,35.227154C-134.611313,33.977566,-135.060135,32.505867,-135.060135,31L-135.060135,-91.293045C-135.060135,-92.798912,-134.611313,-94.270615,-133.770981,-95.520203L-133.770981,-96.902756C-135.148697,-95.358978,-135.910141,-93.36219,-135.910141,-91.293045L-135.910141,31C-135.910141,33.069145,-135.148697,35.065929,-133.770981,36.609707z"/>
    <path transform="matrix(1,0,0,-1,-414,320.696655)" style="stroke:none;fill:#b45a00;fill-rule:evenodd" d="M-127.485146,-98.86805L127.485146,-98.86805C128.44426,-98.86805,129.394638,-98.685913,130.285782,-98.331306L132.11586,-98.331306C130.740875,-99.235954,129.131027,-99.718048,127.485146,-99.718048L-127.485146,-99.718048C-129.131042,-99.718048,-130.740875,-99.235954,-132.11586,-98.331306L-130.285782,-98.331306C-129.394638,-98.685913,-128.44426,-98.86805,-127.485146,-98.86805z"/>
    <path transform="matrix(1,0,0,-1,-414,320.696655)" style="stroke:#ff0000;stroke-width:0.05mm;fill:none" d="M-130.074997,-10.706058C-130.074997,-10.195192,-130.489136,-9.781054,-131,-9.781054C-131.510864,-9.781054,-131.925003,-10.195192,-131.925003,-10.706058L-131.925003,-19.706057C-131.925003,-20.216923,-131.510864,-20.63106,-131,-20.63106C-130.489136,-20.63106,-130.074997,-20.216921,-130.074997,-19.706057L-130.074997,-10.706058z"/>
    <path transform="matrix(1,0,0,-1,-414,320.696655)" style="stroke:#ff0000;stroke-width:0.05mm;fill:none" d="M-130.074997,-45.706059C-130.074997,-45.195194,-130.489136,-44.781055,-131,-44.781055C-131.510864,-44.781055,-131.925003,-45.195194,-131.925003,-45.706059L-131.925003,-54.706059C-131.925003,-55.216923,-131.510864,-55.631062,-131,-55.631062C-130.489136,-55.631062,-130.074997,-55.216923,-130.074997,-54.706059L-130.074997,-45.706059z"/>
    <path transform="matrix(1,0,0,-1,-414,320.696655)" style="stroke:#ff0000;stroke-width:0.05mm;fill:none" d="M130.074997,-19.706057C130.074997,-20.216923,130.489136,-20.63106,131,-20.63106C131.510864,-20.63106,131.925003,-20.216921,131.925003,-19.706057L131.925003,-10.706058C131.925003,-10.195192,131.510864,-9.781054,131,-9.781054C130.489136,-9.781054,130.074997,-10.195192,130.074997,-10.706058L130.074997,-19.706057z"/>
    <path transform="matrix(1,0,0,-1,-414,320.696655)" style="stroke:#ff0000;stroke-width:0.05mm;fill:none" d="M130.074997,-54.706059L130.074997,-45.706059C130.074997,-45.195194,130.489136,-44.781055,131,-44.781055C131.510864,-44.781055,131.925003,-45.195194,131.925003,-45.706059L131.925003,-54.706059C131.925003,-55.216923,131.510864,-55.631062,131,-55.631062C130.489136,-55.631062,130.074997,-55.216923,130.074997,-54.706059z"/>
    <path transform="matrix(1,0,0,-1,-414,320.696655)" style="stroke:none;fill:#b45a00;fill-rule:evenodd" d="M132.433472,37.818695L130.784546,37.818695C129.755875,38.316444,128.627914,38.574997,127.485146,38.575001L-127.485146,38.575001C-128.627914,38.575001,-129.755875,38.316441,-130.784546,37.818695L-132.433472,37.818695C-130.994797,38.862747,-129.262741,39.424999,-127.485146,39.424999L127.485146,39.424999C129.262741,39.424999,130.994797,38.862747,132.433472,37.818695z"/>
    <path transform="matrix(1,0,0,-1,-414,320.696655)" style="stroke:#ff0000;stroke-width:0.05mm;fill:none" d="M133.98465,-132.950424C140.304977,-130.328796,144.425018,-124.159454,144.425003,-117.316971L144.425003,-33.370514C144.113693,-33.173443,143.925003,-32.830666,143.925003,-32.462219L143.925003,-28.14427C143.925003,-27.775826,144.113693,-27.433048,144.425003,-27.235975L144.425003,55.418755C144.425003,64.766174,136.847412,72.34375,127.5,72.343758L-127.5,72.343758C-136.847412,72.34375,-144.424988,64.766174,-144.425003,55.418755L-144.425003,-27.235975C-144.113693,-27.433048,-143.925003,-27.775826,-143.925003,-28.14427L-143.925003,-32.462219C-143.925003,-32.830666,-144.113693,-33.173443,-144.425003,-33.370514L-144.425003,-117.316971C-144.425018,-124.159447,-140.304993,-130.328812,-133.98465,-132.950424L-125.074997,-132.950424L-125.074997,-132.950241L-87.025002,-132.950241L-87.025002,-118.525421C-87.025009,-117.931709,-86.543709,-117.450417,-85.949997,-117.450424L-81.900002,-117.450424C-81.306297,-117.450417,-80.824997,-117.931717,-80.824997,-118.525421L-80.824997,-132.950241L80.824997,-132.950241L80.824997,-118.525421C80.825005,-117.931717,81.306297,-117.450424,81.900002,-117.450424L85.949997,-117.450424C86.543701,-117.450424,87.025002,-117.931717,87.025002,-118.525421L87.025002,-132.950241L125.074997,-132.950241L125.074997,-132.950424L133.98465,-132.950424z"/>
</svg>
