0
SECTION
2
HEADER
9
$INSUNITS
70
4
9
$ACADVER
1
AC1014
9
$HANDSEED
5
FFFF
0
ENDSEC
0
SECTION
2
TABLES
0
TABLE
2
VPORT
5
8
100
AcDbSymbolTable
0
ENDTAB
0
TABLE
2
LTYPE
5
5
100
AcDbSymbolTable
70
3
0
LTYPE
5
14
100
AcDbSymbolTableRecord
100
AcDbLinetypeTableRecord
2
BYBLOCK
70
0
0
LTYPE
5
15
100
AcDbSymbolTableRecord
100
AcDbLinetypeTableRecord
2
BYLAYER
70
0
0
LTYPE
5
16
100
AcDbSymbolTableRecord
100
AcDbLinetypeTableRecord
2
DASHED
70
0
3
Dashed __ __ __ __ __ __ __ __ __ __ __ __ __ _
72
65
73
2
40
0.75
49
0.5
74
0
49
-0.25
74
0
0
ENDTAB
0
TABLE
2
LAYER
5
2
100
AcDbSymbolTable
70
3
0
LAYER
5
50
100
AcDbSymbolTableRecord
100
AcDbLayerTableRecord
2
0
70
0
6
CONTINUOUS
0
LAYER
5
51
100
AcDbSymbolTableRecord
100
AcDbLayerTableRecord
2
CUTOUTS
70
0
62
1
6
CONTINUOUS
0
LAYER
5
52
100
AcDbSymbolTableRecord
100
AcDbLayerTableRecord
2
PERIMETER
70
0
62
5
6
CONTINUOUS
0
ENDTAB
0
TABLE
2
STYLE
5
3
100
AcDbSymbolTable
70
1
0
STYLE
5
11
100
AcDbSymbolTableRecord
100
AcDbTextStyleTableRecord
2
STANDARD
70
0
0
ENDTAB
0
TABLE
2
VIEW
5
6
100
AcDbSymbolTable
0
ENDTAB
0
TABLE
2
UCS
5
7
100
AcDbSymbolTable
0
ENDTAB
0
TABLE
2
APPID
5
9
100
AcDbSymbolTable
70
1
0
APPID
5
12
100
AcDbSymbolTableRecord
100
AcDbRegAppTableRecord
2
ACAD
70
0
0
ENDTAB
0
TABLE
2
DIMSTYLE
5
A
100
AcDbSymbolTable
0
ENDTAB
0
TABLE
2
BLOCK_RECORD
5
1
100
AcDbSymbolTable
70
2
0
BLOCK_RECORD
5
1F
100
AcDbSymbolTableRecord
100
AcDbBlockTableRecord
2
*MODEL_SPACE
0
BLOCK_RECORD
5
1B
100
AcDbSymbolTableRecord
100
AcDbBlockTableRecord
2
*PAPER_SPACE
0
ENDTAB
0
ENDSEC
0
SECTION
2
BLOCKS
0
BLOCK
5
20
100
AcDbEntity
100
AcDbBlockBegin
2
*MODEL_SPACE
0
ENDBLK
5
21
100
AcDbEntity
100
AcDbBlockEnd
0
BLOCK
5
1C
100
AcDbEntity
100
AcDbBlockBegin
2
*PAPER_SPACE
0
ENDBLK
5
1D
100
AcDbEntity
100
AcDbBlockEnd
0
ENDSEC
0
SECTION
2
ENTITIES
0
CIRCLE
5
100
100
AcDbEntity
8
CUTOUTS
100
AcDbCircle
10
-119.99943667826275
20
23.442279407876931
30
0
40
1.6750000000000043
210
0
220
0
230
1
0
CIRCLE
5
101
100
AcDbEntity
8
CUTOUTS
100
AcDbCircle
10
46.721235033484867
20
-73.929539450685951
30
0
40
1.6750000000000043
210
0
220
0
230
1
0
CIRCLE
5
102
100
AcDbEntity
8
CUTOUTS
100
AcDbCircle
10
-46.358376885332888
20
-73.941736363241418
30
0
40
1.6750000000000043
210
0
220
0
230
1
0
CIRCLE
5
103
100
AcDbEntity
8
CUTOUTS
100
AcDbCircle
10
-89.467221385235391
20
72.992699573321204
30
0
40
1.6750000000000043
210
0
220
0
230
1
0
CIRCLE
5
104
100
AcDbEntity
8
CUTOUTS
100
AcDbCircle
10
0
20
76.000001132488251
30
0
40
1.675
210
0
220
0
230
1
0
CIRCLE
5
105
100
AcDbEntity
8
CUTOUTS
100
AcDbCircle
10
89.104363237039394
20
73.004896485862403
30
0
40
1.6750000000000043
210
0
220
0
230
1
0
CIRCLE
5
106
100
AcDbEntity
8
CUTOUTS
100
AcDbCircle
10
119.99943667826469
20
23.805342488325465
30
0
40
1.6750000000000043
210
0
220
0
230
1
0
LWPOLYLINE
5
107
100
AcDbEntity
8
CUTOUTS
100
AcDbPolyline
90
4
70
1
43
0.0
10
116.21680599364046
20
67.817269983631874
10
106.21680599364049
20
67.817269983631874
42
-0.99999999999999989
10
106.21680599364046
20
69.667269983631883
10
116.21680599364042
20
69.667269983631883
42
-0.99999999999999989
0
LWPOLYLINE
5
108
100
AcDbEntity
8
CUTOUTS
100
AcDbPolyline
90
4
70
1
43
0.0
10
-114.81392741540679
20
-67.817269983631888
42
3.2507817778014045
10
-114.46364983489499
20
-69.667269983631869
10
-106.21680599364046
20
-69.667269983631869
42
0.99999999999999989
10
-106.21680599364049
20
-67.817269983631888
0
LWPOLYLINE
5
109
100
AcDbEntity
8
CUTOUTS
100
AcDbPolyline
90
4
70
1
43
0.0
10
114.46364983489501
20
-69.667269983631869
10
106.21680599364049
20
-69.667269983631869
42
-0.99999999999999989
10
106.21680599364046
20
-67.817269983631888
10
114.81392741540681
20
-67.817269983631888
42
-3.2507817778013712
0
LWPOLYLINE
5
10A
100
AcDbEntity
8
CUTOUTS
100
AcDbPolyline
90
4
70
1
43
0.0
10
-106.21680599364046
20
67.817269983631874
10
-116.21680599364042
20
67.817269983631874
42
-0.99999999999999989
10
-116.21680599364046
20
69.667269983631883
10
-106.21680599364049
20
69.667269983631883
42
-0.99999999999999989
0
LWPOLYLINE
5
10B
100
AcDbEntity
8
PERIMETER
100
AcDbPolyline
90
42
70
1
43
0.0
10
121.9129285014691
20
-52.033140136404043
42
0.6610719974289162
10
121.91292850146911
20
-57.608715894072745
42
-0.30065726599569215
10
123.17499999999997
20
-59.517844556970857
10
123.17499999999994
20
-71.920958748527426
42
-0.40440601199427173
10
118.56041360450989
20
-76.693263482666694
10
9.7966079692923813e-11
20
-80.678487469395293
10
-118.56041360450213
20
-76.693263482708957
42
-0.40440601199437903
10
-123.17499999999416
20
-71.920958748569831
10
-123.17499999999468
20
-59.517844556968683
42
-0.30065726599539583
10
-121.91292850146597
20
-57.608715894071416
42
0.66107199742813694
10
-121.91292850146618
20
-52.033140136405287
42
-0.30065726599539516
10
-123.17499999999507
20
-50.124011473508084
10
-123.1749999999961
20
-24.517844556969308
42
-0.30065726599548226
10
-121.91292850146682
20
-22.608715894071775
42
0.66107199742835743
10
-121.91292850146704
20
-17.03314013640491
42
-0.30065726599548764
10
-123.17499999999652
20
-15.124011473507487
10
-123.17499999999733
20
5.1240114735069628
42
-0.30065726599555526
10
-121.91292850146753
20
7.0331401364047084
42
0.66107199742854661
10
-121.91292850146779
20
12.60871589407216
42
-0.30065726599555331
10
-123.17499999999774
20
14.517844556969814
10
-123.17499999999903
20
46.124011473506236
42
-0.3006572659956524
10
-121.91292850146854
20
48.033140136404278
42
0.66107199742880374
10
-121.91292850146878
20
53.608715894072589
42
-0.30065726599564713
10
-123.1749999999994
20
55.517844556970523
10
-123.1750000000001
20
72.42095874854796
42
-0.40440601199435078
10
-118.56041360450895
20
77.193263482687456
10
-2.7036151095671812e-11
20
81.178487469392024
10
118.56041360450887
20
77.193263482683804
42
-0.40440601199433612
10
123.17499999999994
20
72.420958748544493
10
123.17499999999994
20
55.517844556970843
42
-0.30065726599569004
10
121.9129285014691
20
53.608715894072738
42
0.6610719974289162
10
121.91292850146914
20
48.033140136404029
42
-0.30065726599568382
10
123.17499999999995
20
46.124011473505931
10
123.17499999999994
20
14.51784455697085
42
-0.30065726599569331
10
121.9129285014691
20
12.60871589407274
42
0.66107199742891365
10
121.9129285014691
20
7.0331401364040484
42
-0.30065726599569342
10
123.17499999999995
20
5.1240114735059317
10
123.17499999999994
20
-15.124011473505927
42
-0.30065726599569365
10
121.9129285014691
20
-17.033140136404043
42
0.66107199742891365
10
121.9129285014691
20
-22.608715894072727
42
-0.30065726599569337
10
123.17499999999997
20
-24.517844556970854
10
123.17499999999997
20
-50.124011473505931
42
-0.30065726599569548
0
ENDSEC
0
SECTION
2
OBJECTS
0
DICTIONARY
5
C
100
AcDbDictionary
3
ACAD_GROUP
350
D
3
ACAD_MLINESTYLE
350
17
0
DICTIONARY
5
D
100
AcDbDictionary
0
DICTIONARY
5
1A
330
C
100
AcDbDictionary
0
DICTIONARY
5
17
100
AcDbDictionary
0
ENDSEC
0
EOF
