0
SECTION
2
HEADER
9
$INSUNITS
70
4
9
$ACADVER
1
AC1014
9
$HANDSEED
5
FFFF
0
ENDSEC
0
SECTION
2
TABLES
0
TABLE
2
VPORT
5
8
100
AcDbSymbolTable
0
ENDTAB
0
TABLE
2
LTYPE
5
5
100
AcDbSymbolTable
70
3
0
LTYPE
5
14
100
AcDbSymbolTableRecord
100
AcDbLinetypeTableRecord
2
BYBLOCK
70
0
0
LTYPE
5
15
100
AcDbSymbolTableRecord
100
AcDbLinetypeTableRecord
2
BYLAYER
70
0
0
LTYPE
5
16
100
AcDbSymbolTableRecord
100
AcDbLinetypeTableRecord
2
DASHED
70
0
3
Dashed __ __ __ __ __ __ __ __ __ __ __ __ __ _
72
65
73
2
40
0.75
49
0.5
74
0
49
-0.25
74
0
0
ENDTAB
0
TABLE
2
LAYER
5
2
100
AcDbSymbolTable
70
3
0
LAYER
5
50
100
AcDbSymbolTableRecord
100
AcDbLayerTableRecord
2
0
70
0
6
CONTINUOUS
0
LAYER
5
51
100
AcDbSymbolTableRecord
100
AcDbLayerTableRecord
2
CUTOUTS
70
0
62
1
6
CONTINUOUS
0
LAYER
5
52
100
AcDbSymbolTableRecord
100
AcDbLayerTableRecord
2
PERIMETER
70
0
62
5
6
CONTINUOUS
0
ENDTAB
0
TABLE
2
STYLE
5
3
100
AcDbSymbolTable
70
1
0
STYLE
5
11
100
AcDbSymbolTableRecord
100
AcDbTextStyleTableRecord
2
STANDARD
70
0
0
ENDTAB
0
TABLE
2
VIEW
5
6
100
AcDbSymbolTable
0
ENDTAB
0
TABLE
2
UCS
5
7
100
AcDbSymbolTable
0
ENDTAB
0
TABLE
2
APPID
5
9
100
AcDbSymbolTable
70
1
0
APPID
5
12
100
AcDbSymbolTableRecord
100
AcDbRegAppTableRecord
2
ACAD
70
0
0
ENDTAB
0
TABLE
2
DIMSTYLE
5
A
100
AcDbSymbolTable
0
ENDTAB
0
TABLE
2
BLOCK_RECORD
5
1
100
AcDbSymbolTable
70
2
0
BLOCK_RECORD
5
1F
100
AcDbSymbolTableRecord
100
AcDbBlockTableRecord
2
*MODEL_SPACE
0
BLOCK_RECORD
5
1B
100
AcDbSymbolTableRecord
100
AcDbBlockTableRecord
2
*PAPER_SPACE
0
ENDTAB
0
ENDSEC
0
SECTION
2
BLOCKS
0
BLOCK
5
20
100
AcDbEntity
100
AcDbBlockBegin
2
*MODEL_SPACE
0
ENDBLK
5
21
100
AcDbEntity
100
AcDbBlockEnd
0
BLOCK
5
1C
100
AcDbEntity
100
AcDbBlockBegin
2
*PAPER_SPACE
0
ENDBLK
5
1D
100
AcDbEntity
100
AcDbBlockEnd
0
ENDSEC
0
SECTION
2
ENTITIES
0
CIRCLE
5
100
100
AcDbEntity
8
CUTOUTS
100
AcDbCircle
10
-116.0000017285347
20
-69.000001028180122
30
0
40
1.6750000000000043
210
0
220
0
230
1
0
CIRCLE
5
101
100
AcDbEntity
8
CUTOUTS
100
AcDbCircle
10
116.0000017285347
20
-69.000001028180122
30
0
40
1.6750000000000043
210
0
220
0
230
1
0
CIRCLE
5
102
100
AcDbEntity
8
CUTOUTS
100
AcDbCircle
10
-89.104363237039394
20
73.004896485862403
30
0
40
1.6750000000000043
210
0
220
0
230
1
0
CIRCLE
5
103
100
AcDbEntity
8
CUTOUTS
100
AcDbCircle
10
0
20
76.000001132488251
30
0
40
1.675
210
0
220
0
230
1
0
CIRCLE
5
104
100
AcDbEntity
8
CUTOUTS
100
AcDbCircle
10
89.467221385235391
20
72.992699573321204
30
0
40
1.6750000000000043
210
0
220
0
230
1
0
CIRCLE
5
105
100
AcDbEntity
8
CUTOUTS
100
AcDbCircle
10
119.99943667826275
20
23.442279407876931
30
0
40
1.6750000000000043
210
0
220
0
230
1
0
CIRCLE
5
106
100
AcDbEntity
8
CUTOUTS
100
AcDbCircle
10
-46.721235033484867
20
-73.929539450685951
30
0
40
1.6750000000000043
210
0
220
0
230
1
0
CIRCLE
5
107
100
AcDbEntity
8
CUTOUTS
100
AcDbCircle
10
46.358376885332888
20
-73.941736363241418
30
0
40
1.6750000000000043
210
0
220
0
230
1
0
CIRCLE
5
108
100
AcDbEntity
8
CUTOUTS
100
AcDbCircle
10
-119.99943667826469
20
23.805342488325465
30
0
40
1.6750000000000043
210
0
220
0
230
1
0
LWPOLYLINE
5
109
100
AcDbEntity
8
CUTOUTS
100
AcDbPolyline
90
17
70
1
43
0.0
10
-116.32500000000016
20
60.838053753349747
10
-108.3689339828222
20
68.794119770527743
10
-104.99874153547796
20
68.794119770527757
10
2.7036151095671812e-11
20
72.323489233907054
10
105.99329573393692
20
68.760689377305681
10
108.36893398281937
20
68.760689377305681
10
116.32499999999737
20
60.804623360127714
10
116.32499999999737
20
-60.452244605516306
10
108.36893398281937
20
-68.408310622694302
10
101.67799999999737
20
-68.408310622694287
10
101.67799999999737
20
-68.297671250538599
10
101.56999091633614
20
-68.409371892201165
10
-9.6509467084615608e-11
20
-71.823489233910351
10
-100.5705554742533
20
-68.442966360807674
10
-100.57160571038875
20
-68.441880229472247
10
-108.36893398282216
20
-68.441880229472247
10
-116.32500000000016
20
-60.485814212294279
0
LWPOLYLINE
5
10A
100
AcDbEntity
8
PERIMETER
100
AcDbPolyline
90
10
70
1
43
0.0
10
-118.5604136045099
20
-76.693263482666708
10
-9.8374641765985871e-11
20
-80.678487469395293
10
118.56041360450214
20
-76.693263482708971
42
0.40440601199438009
10
123.17499999999416
20
-71.920958748569831
10
123.1750000000001
20
72.42095874854796
42
0.40440601199435078
10
118.56041360450895
20
77.193263482687485
10
2.7426949600339867e-11
20
81.17848746939201
10
-118.56041360450885
20
77.19326348268379
42
0.40440601199433512
10
-123.1749999999999
20
72.420958748544493
10
-123.17499999999997
20
-71.920958748527426
42
0.40440601199427234
0
ENDSEC
0
SECTION
2
OBJECTS
0
DICTIONARY
5
C
100
AcDbDictionary
3
ACAD_GROUP
350
D
3
ACAD_MLINESTYLE
350
17
0
DICTIONARY
5
D
100
AcDbDictionary
0
DICTIONARY
5
1A
330
C
100
AcDbDictionary
0
DICTIONARY
5
17
100
AcDbDictionary
0
ENDSEC
0
EOF
