0
SECTION
2
HEADER
9
$INSUNITS
70
4
9
$ACADVER
1
AC1014
9
$HANDSEED
5
FFFF
0
ENDSEC
0
SECTION
2
TABLES
0
TABLE
2
VPORT
5
8
100
AcDbSymbolTable
0
ENDTAB
0
TABLE
2
LTYPE
5
5
100
AcDbSymbolTable
70
3
0
LTYPE
5
14
100
AcDbSymbolTableRecord
100
AcDbLinetypeTableRecord
2
BYBLOCK
70
0
0
LTYPE
5
15
100
AcDbSymbolTableRecord
100
AcDbLinetypeTableRecord
2
BYLAYER
70
0
0
LTYPE
5
16
100
AcDbSymbolTableRecord
100
AcDbLinetypeTableRecord
2
DASHED
70
0
3
Dashed __ __ __ __ __ __ __ __ __ __ __ __ __ _
72
65
73
2
40
0.75
49
0.5
74
0
49
-0.25
74
0
0
ENDTAB
0
TABLE
2
LAYER
5
2
100
AcDbSymbolTable
70
3
0
LAYER
5
50
100
AcDbSymbolTableRecord
100
AcDbLayerTableRecord
2
0
70
0
6
CONTINUOUS
0
LAYER
5
51
100
AcDbSymbolTableRecord
100
AcDbLayerTableRecord
2
CUTOUTS
70
0
62
1
6
CONTINUOUS
0
LAYER
5
52
100
AcDbSymbolTableRecord
100
AcDbLayerTableRecord
2
PERIMETER
70
0
62
5
6
CONTINUOUS
0
ENDTAB
0
TABLE
2
STYLE
5
3
100
AcDbSymbolTable
70
1
0
STYLE
5
11
100
AcDbSymbolTableRecord
100
AcDbTextStyleTableRecord
2
STANDARD
70
0
0
ENDTAB
0
TABLE
2
VIEW
5
6
100
AcDbSymbolTable
0
ENDTAB
0
TABLE
2
UCS
5
7
100
AcDbSymbolTable
0
ENDTAB
0
TABLE
2
APPID
5
9
100
AcDbSymbolTable
70
1
0
APPID
5
12
100
AcDbSymbolTableRecord
100
AcDbRegAppTableRecord
2
ACAD
70
0
0
ENDTAB
0
TABLE
2
DIMSTYLE
5
A
100
AcDbSymbolTable
0
ENDTAB
0
TABLE
2
BLOCK_RECORD
5
1
100
AcDbSymbolTable
70
2
0
BLOCK_RECORD
5
1F
100
AcDbSymbolTableRecord
100
AcDbBlockTableRecord
2
*MODEL_SPACE
0
BLOCK_RECORD
5
1B
100
AcDbSymbolTableRecord
100
AcDbBlockTableRecord
2
*PAPER_SPACE
0
ENDTAB
0
ENDSEC
0
SECTION
2
BLOCKS
0
BLOCK
5
20
100
AcDbEntity
100
AcDbBlockBegin
2
*MODEL_SPACE
0
ENDBLK
5
21
100
AcDbEntity
100
AcDbBlockEnd
0
BLOCK
5
1C
100
AcDbEntity
100
AcDbBlockBegin
2
*PAPER_SPACE
0
ENDBLK
5
1D
100
AcDbEntity
100
AcDbBlockEnd
0
ENDSEC
0
SECTION
2
ENTITIES
0
CIRCLE
5
100
100
AcDbEntity
8
CUTOUTS
100
AcDbCircle
10
-112.173180037474
20
-88.887888739108121
30
0
40
3.9250000000000007
210
0
220
0
230
1
0
CIRCLE
5
101
100
AcDbEntity
8
CUTOUTS
100
AcDbCircle
10
112.173180037474
20
-88.887888739108121
30
0
40
3.9250000000000007
210
0
220
0
230
1
0
CIRCLE
5
102
100
AcDbEntity
8
CUTOUTS
100
AcDbCircle
10
112.173180037474
20
85.64084244318218
30
1.0658141036401503e-13
40
3.9250000000000007
210
0
220
0
230
1
0
CIRCLE
5
103
100
AcDbEntity
8
CUTOUTS
100
AcDbCircle
10
-112.173180037474
20
85.64084244318218
30
1.0658141036401503e-13
40
3.9250000000000007
210
0
220
0
230
1
0
LWPOLYLINE
5
104
100
AcDbEntity
8
CUTOUTS
100
AcDbPolyline
90
10
70
1
43
0.0
10
8.8817841970012523e-14
20
-76.326030709577395
10
-115.3217799615382
20
-72.449668357929056
42
-0.40440601199433718
10
-118.82500000000005
20
-68.826714502168869
10
-118.82500000000002
20
69.326714502170503
42
-0.40440601199433929
10
-115.32177996153814
20
72.949668357930705
10
-2.7071678232459817e-11
20
76.826030709577424
10
115.32177996148593
20
72.94966835792907
42
-0.40440601199422671
10
118.82499999994775
20
69.326714502170219
10
118.82499999999938
20
-68.826714502167505
42
-0.40440601199444554
10
115.32177996153756
20
-72.44966835792907
0
LWPOLYLINE
5
105
100
AcDbEntity
8
PERIMETER
100
AcDbPolyline
90
23
70
1
43
0.0
10
119.76344787915336
20
86.908445902557006
42
0.14709818044812431
10
123.62449510607598
20
79.164224888361602
42
-0.19092173182510722
10
124.97499999999994
20
75.756342814986596
10
124.97500000000001
20
-80.299888739108113
42
-0.40835950120577064
10
123.72553437663427
20
-81.574633025469083
42
-0.0051143670530337656
10
123.65730934267552
20
-81.650152146155634
42
0.15459614752180481
10
119.8072734815799
20
-89.867273504082945
42
-0.78833757947797034
10
105.34921380626743
20
-91.379555405774795
42
0.24796626560064861
10
95.027334175300723
20
-81.862888739120635
10
-95.027334175347931
20
-81.862888739133126
42
0.24796626559978355
10
-105.34921380626743
20
-91.379555405774795
42
-0.78833757947807415
10
-119.80727348158014
20
-89.867273504081041
42
0.15459614752173914
10
-123.657309342671
20
-81.650152146155591
42
-0.0051143670530677393
10
-123.72553437662971
20
-81.574633025469026
42
-0.40835950120538445
10
-124.97499999999383
20
-80.299888739108169
10
-124.97500000000025
20
75.75634281498975
42
-0.1909217318251363
10
-123.62449510607604
20
79.164224888365254
42
0.14709818044809245
10
-119.76344787915315
20
86.908445902558483
42
-0.73908144019181343
10
-105.58757247592081
20
88.724874255642163
42
0.30362404206969873
10
-91.39621857998506
20
79.907362258653748
10
-2.7267077484793845e-11
20
82.979504059660186
10
91.396218579983369
20
79.907362258650579
42
0.30362404206974458
10
105.58757247592034
20
88.724874255641097
42
-0.73908144019195043
0
ENDSEC
0
SECTION
2
OBJECTS
0
DICTIONARY
5
C
100
AcDbDictionary
3
ACAD_GROUP
350
D
3
ACAD_MLINESTYLE
350
17
0
DICTIONARY
5
D
100
AcDbDictionary
0
DICTIONARY
5
1A
330
C
100
AcDbDictionary
0
DICTIONARY
5
17
100
AcDbDictionary
0
ENDSEC
0
EOF
