999
"DXF R12 Output" (www.mydxf.blogspot.com)
 0 
SECTION
 2 
HEADER
 9 
$ACADVER
 1 
AC1009
 9 
$EXTMIN
 10 
 0 
 20 
 0 
 9 
$EXTMAX
 10 
 8.5 
 20 
 11 
 0 
ENDSEC
 0 
SECTION
 2 
ENTITIES
0
LINE
8
Layer 1
10
0.793749
20
297.794000
11
-0.793749
21
296.206000
0
LINE
8
Layer 1
10
0.000000
20
298.323000
11
0.000000
21
295.677000
0
LINE
8
Layer 1
10
2.116660
20
295.942000
11
1.058330
21
294.883670
0
LINE
8
Layer 1
10
1.587500
20
296.471000
11
0.529170
21
295.412670
0
LINE
8
Layer 1
10
1.058330
20
297.000000
11
0.000000
21
295.941670
0
LINE
8
CUTOUTS
10
-93.133300
20
102.000000
11
-93.247248
21
102.564405
0
LINE
8
CUTOUTS
10
-93.247248
20
102.564405
11
-93.557995
21
103.025305
0
LINE
8
CUTOUTS
10
-93.557995
20
103.025305
11
-94.018895
21
103.336052
0
LINE
8
CUTOUTS
10
-94.018895
20
103.336052
11
-94.583300
21
103.450000
0
LINE
8
CUTOUTS
10
-94.583300
20
103.450000
11
-95.147705
21
103.336052
0
LINE
8
CUTOUTS
10
-95.147705
20
103.336052
11
-95.608605
21
103.025305
0
LINE
8
CUTOUTS
10
-95.608605
20
103.025305
11
-95.919352
21
102.564405
0
LINE
8
CUTOUTS
10
-95.919352
20
102.564405
11
-96.033300
21
102.000000
0
LINE
8
CUTOUTS
10
-96.033300
20
102.000000
11
-95.839037
21
101.275000
0
LINE
8
CUTOUTS
10
-95.839037
20
101.275000
11
-95.308300
21
100.744263
0
LINE
8
CUTOUTS
10
-95.308300
20
100.744263
11
-94.583300
21
100.550000
0
LINE
8
CUTOUTS
10
-94.583300
20
100.550000
11
-93.858300
21
100.744263
0
LINE
8
CUTOUTS
10
-93.858300
20
100.744263
11
-93.327563
21
101.275000
0
LINE
8
CUTOUTS
10
-93.327563
20
101.275000
11
-93.133300
21
102.000000
0
LINE
8
CUTOUTS
10
-93.133300
20
102.000000
11
-93.133300
21
102.000000
0
LINE
8
CUTOUTS
10
-45.841600
20
102.000000
11
-45.955548
21
102.564405
0
LINE
8
CUTOUTS
10
-45.955548
20
102.564405
11
-46.266295
21
103.025305
0
LINE
8
CUTOUTS
10
-46.266295
20
103.025305
11
-46.727195
21
103.336052
0
LINE
8
CUTOUTS
10
-46.727195
20
103.336052
11
-47.291600
21
103.450000
0
LINE
8
CUTOUTS
10
-47.291600
20
103.450000
11
-47.856005
21
103.336052
0
LINE
8
CUTOUTS
10
-47.856005
20
103.336052
11
-48.316905
21
103.025305
0
LINE
8
CUTOUTS
10
-48.316905
20
103.025305
11
-48.627652
21
102.564405
0
LINE
8
CUTOUTS
10
-48.627652
20
102.564405
11
-48.741600
21
102.000000
0
LINE
8
CUTOUTS
10
-48.741600
20
102.000000
11
-48.627652
21
101.435595
0
LINE
8
CUTOUTS
10
-48.627652
20
101.435595
11
-48.316905
21
100.974695
0
LINE
8
CUTOUTS
10
-48.316905
20
100.974695
11
-47.856005
21
100.663948
0
LINE
8
CUTOUTS
10
-47.856005
20
100.663948
11
-47.291600
21
100.550000
0
LINE
8
CUTOUTS
10
-47.291600
20
100.550000
11
-46.727195
21
100.663948
0
LINE
8
CUTOUTS
10
-46.727195
20
100.663948
11
-46.266295
21
100.974695
0
LINE
8
CUTOUTS
10
-46.266295
20
100.974695
11
-45.955548
21
101.435595
0
LINE
8
CUTOUTS
10
-45.955548
20
101.435595
11
-45.841600
21
102.000000
0
LINE
8
CUTOUTS
10
-45.841600
20
102.000000
11
-45.841600
21
102.000000
0
LINE
8
CUTOUTS
10
48.741600
20
102.000000
11
48.627652
21
102.564405
0
LINE
8
CUTOUTS
10
48.627652
20
102.564405
11
48.316905
21
103.025305
0
LINE
8
CUTOUTS
10
48.316905
20
103.025305
11
47.856005
21
103.336052
0
LINE
8
CUTOUTS
10
47.856005
20
103.336052
11
47.291600
21
103.450000
0
LINE
8
CUTOUTS
10
47.291600
20
103.450000
11
46.727195
21
103.336052
0
LINE
8
CUTOUTS
10
46.727195
20
103.336052
11
46.266295
21
103.025305
0
LINE
8
CUTOUTS
10
46.266295
20
103.025305
11
45.955548
21
102.564405
0
LINE
8
CUTOUTS
10
45.955548
20
102.564405
11
45.841600
21
102.000000
0
LINE
8
CUTOUTS
10
45.841600
20
102.000000
11
45.955548
21
101.435595
0
LINE
8
CUTOUTS
10
45.955548
20
101.435595
11
46.266295
21
100.974695
0
LINE
8
CUTOUTS
10
46.266295
20
100.974695
11
46.727195
21
100.663948
0
LINE
8
CUTOUTS
10
46.727195
20
100.663948
11
47.291600
21
100.550000
0
LINE
8
CUTOUTS
10
47.291600
20
100.550000
11
47.856005
21
100.663948
0
LINE
8
CUTOUTS
10
47.856005
20
100.663948
11
48.316905
21
100.974695
0
LINE
8
CUTOUTS
10
48.316905
20
100.974695
11
48.627652
21
101.435595
0
LINE
8
CUTOUTS
10
48.627652
20
101.435595
11
48.741600
21
102.000000
0
LINE
8
CUTOUTS
10
48.741600
20
102.000000
11
48.741600
21
102.000000
0
LINE
8
CUTOUTS
10
1.450000
20
102.000000
11
1.255737
21
102.725000
0
LINE
8
CUTOUTS
10
1.255737
20
102.725000
11
0.725000
21
103.255737
0
LINE
8
CUTOUTS
10
0.725000
20
103.255737
11
0.000000
21
103.450000
0
LINE
8
CUTOUTS
10
0.000000
20
103.450000
11
-0.725000
21
103.255737
0
LINE
8
CUTOUTS
10
-0.725000
20
103.255737
11
-1.255737
21
102.725000
0
LINE
8
CUTOUTS
10
-1.255737
20
102.725000
11
-1.450000
21
102.000000
0
LINE
8
CUTOUTS
10
-1.450000
20
102.000000
11
-1.255737
21
101.275000
0
LINE
8
CUTOUTS
10
-1.255737
20
101.275000
11
-0.725000
21
100.744263
0
LINE
8
CUTOUTS
10
-0.725000
20
100.744263
11
-0.000000
21
100.550000
0
LINE
8
CUTOUTS
10
-0.000000
20
100.550000
11
0.725000
21
100.744263
0
LINE
8
CUTOUTS
10
0.725000
20
100.744263
11
1.255737
21
101.275000
0
LINE
8
CUTOUTS
10
1.255737
20
101.275000
11
1.450000
21
102.000000
0
LINE
8
CUTOUTS
10
1.450000
20
102.000000
11
1.450000
21
102.000000
0
LINE
8
CUTOUTS
10
96.033300
20
102.000000
11
95.919352
21
102.564405
0
LINE
8
CUTOUTS
10
95.919352
20
102.564405
11
95.608605
21
103.025305
0
LINE
8
CUTOUTS
10
95.608605
20
103.025305
11
95.147705
21
103.336052
0
LINE
8
CUTOUTS
10
95.147705
20
103.336052
11
94.583300
21
103.450000
0
LINE
8
CUTOUTS
10
94.583300
20
103.450000
11
94.018895
21
103.336052
0
LINE
8
CUTOUTS
10
94.018895
20
103.336052
11
93.557995
21
103.025305
0
LINE
8
CUTOUTS
10
93.557995
20
103.025305
11
93.247248
21
102.564405
0
LINE
8
CUTOUTS
10
93.247248
20
102.564405
11
93.133300
21
102.000000
0
LINE
8
CUTOUTS
10
93.133300
20
102.000000
11
93.247248
21
101.435595
0
LINE
8
CUTOUTS
10
93.247248
20
101.435595
11
93.557995
21
100.974695
0
LINE
8
CUTOUTS
10
93.557995
20
100.974695
11
94.018895
21
100.663948
0
LINE
8
CUTOUTS
10
94.018895
20
100.663948
11
94.583300
21
100.550000
0
LINE
8
CUTOUTS
10
94.583300
20
100.550000
11
95.147705
21
100.663948
0
LINE
8
CUTOUTS
10
95.147705
20
100.663948
11
95.608605
21
100.974695
0
LINE
8
CUTOUTS
10
95.608605
20
100.974695
11
95.919352
21
101.435595
0
LINE
8
CUTOUTS
10
95.919352
20
101.435595
11
96.033300
21
102.000000
0
LINE
8
CUTOUTS
10
96.033300
20
102.000000
11
96.033300
21
102.000000
0
LINE
8
CUTOUTS
10
-144.185000
20
94.895900
11
-144.379263
21
95.620900
0
LINE
8
CUTOUTS
10
-144.379263
20
95.620900
11
-144.910000
21
96.151637
0
LINE
8
CUTOUTS
10
-144.910000
20
96.151637
11
-145.635000
21
96.345900
0
LINE
8
CUTOUTS
10
-145.635000
20
96.345900
11
-146.360000
21
96.151637
0
LINE
8
CUTOUTS
10
-146.360000
20
96.151637
11
-146.890737
21
95.620900
0
LINE
8
CUTOUTS
10
-146.890737
20
95.620900
11
-147.085000
21
94.895900
0
LINE
8
CUTOUTS
10
-147.085000
20
94.895900
11
-146.890737
21
94.170900
0
LINE
8
CUTOUTS
10
-146.890737
20
94.170900
11
-146.360000
21
93.640163
0
LINE
8
CUTOUTS
10
-146.360000
20
93.640163
11
-145.635000
21
93.445900
0
LINE
8
CUTOUTS
10
-145.635000
20
93.445900
11
-144.910000
21
93.640163
0
LINE
8
CUTOUTS
10
-144.910000
20
93.640163
11
-144.379263
21
94.170900
0
LINE
8
CUTOUTS
10
-144.379263
20
94.170900
11
-144.185000
21
94.895900
0
LINE
8
CUTOUTS
10
-144.185000
20
94.895900
11
-144.185000
21
94.895900
0
LINE
8
CUTOUTS
10
147.085000
20
94.895900
11
146.890737
21
95.620900
0
LINE
8
CUTOUTS
10
146.890737
20
95.620900
11
146.360000
21
96.151637
0
LINE
8
CUTOUTS
10
146.360000
20
96.151637
11
145.635000
21
96.345900
0
LINE
8
CUTOUTS
10
145.635000
20
96.345900
11
144.910000
21
96.151637
0
LINE
8
CUTOUTS
10
144.910000
20
96.151637
11
144.379263
21
95.620900
0
LINE
8
CUTOUTS
10
144.379263
20
95.620900
11
144.185000
21
94.895900
0
LINE
8
CUTOUTS
10
144.185000
20
94.895900
11
144.379263
21
94.170900
0
LINE
8
CUTOUTS
10
144.379263
20
94.170900
11
144.910000
21
93.640163
0
LINE
8
CUTOUTS
10
144.910000
20
93.640163
11
145.635000
21
93.445900
0
LINE
8
CUTOUTS
10
145.635000
20
93.445900
11
146.360000
21
93.640163
0
LINE
8
CUTOUTS
10
146.360000
20
93.640163
11
146.890737
21
94.170900
0
LINE
8
CUTOUTS
10
146.890737
20
94.170900
11
147.085000
21
94.895900
0
LINE
8
CUTOUTS
10
147.085000
20
94.895900
11
147.085000
21
94.895900
0
LINE
8
CUTOUTS
10
-145.328000
20
49.825000
11
-145.522263
21
50.550000
0
LINE
8
CUTOUTS
10
-145.522263
20
50.550000
11
-146.053000
21
51.080737
0
LINE
8
CUTOUTS
10
-146.053000
20
51.080737
11
-146.778000
21
51.275000
0
LINE
8
CUTOUTS
10
-146.778000
20
51.275000
11
-147.503000
21
51.080737
0
LINE
8
CUTOUTS
10
-147.503000
20
51.080737
11
-148.033737
21
50.550000
0
LINE
8
CUTOUTS
10
-148.033737
20
50.550000
11
-148.228000
21
49.825000
0
LINE
8
CUTOUTS
10
-148.228000
20
49.825000
11
-148.033737
21
49.100000
0
LINE
8
CUTOUTS
10
-148.033737
20
49.100000
11
-147.503000
21
48.569263
0
LINE
8
CUTOUTS
10
-147.503000
20
48.569263
11
-146.778000
21
48.375000
0
LINE
8
CUTOUTS
10
-146.778000
20
48.375000
11
-146.053000
21
48.569263
0
LINE
8
CUTOUTS
10
-146.053000
20
48.569263
11
-145.522263
21
49.100000
0
LINE
8
CUTOUTS
10
-145.522263
20
49.100000
11
-145.328000
21
49.825000
0
LINE
8
CUTOUTS
10
-145.328000
20
49.825000
11
-145.328000
21
49.825000
0
LINE
8
CUTOUTS
10
148.228000
20
49.825000
11
148.033737
21
50.550000
0
LINE
8
CUTOUTS
10
148.033737
20
50.550000
11
147.503000
21
51.080737
0
LINE
8
CUTOUTS
10
147.503000
20
51.080737
11
146.778000
21
51.275000
0
LINE
8
CUTOUTS
10
146.778000
20
51.275000
11
146.053000
21
51.080737
0
LINE
8
CUTOUTS
10
146.053000
20
51.080737
11
145.522263
21
50.550000
0
LINE
8
CUTOUTS
10
145.522263
20
50.550000
11
145.328000
21
49.825000
0
LINE
8
CUTOUTS
10
145.328000
20
49.825000
11
145.522263
21
49.100000
0
LINE
8
CUTOUTS
10
145.522263
20
49.100000
11
146.053000
21
48.569263
0
LINE
8
CUTOUTS
10
146.053000
20
48.569263
11
146.778000
21
48.375000
0
LINE
8
CUTOUTS
10
146.778000
20
48.375000
11
147.503000
21
48.569263
0
LINE
8
CUTOUTS
10
147.503000
20
48.569263
11
148.033737
21
49.100000
0
LINE
8
CUTOUTS
10
148.033737
20
49.100000
11
148.228000
21
49.825000
0
LINE
8
CUTOUTS
10
148.228000
20
49.825000
11
148.228000
21
49.825000
0
LINE
8
CUTOUTS
10
-145.328000
20
2.533350
11
-145.522263
21
3.258350
0
LINE
8
CUTOUTS
10
-145.522263
20
3.258350
11
-146.053000
21
3.789087
0
LINE
8
CUTOUTS
10
-146.053000
20
3.789087
11
-146.778000
21
3.983350
0
LINE
8
CUTOUTS
10
-146.778000
20
3.983350
11
-147.503000
21
3.789087
0
LINE
8
CUTOUTS
10
-147.503000
20
3.789087
11
-148.033737
21
3.258350
0
LINE
8
CUTOUTS
10
-148.033737
20
3.258350
11
-148.228000
21
2.533350
0
LINE
8
CUTOUTS
10
-148.228000
20
2.533350
11
-148.033737
21
1.808350
0
LINE
8
CUTOUTS
10
-148.033737
20
1.808350
11
-147.503000
21
1.277613
0
LINE
8
CUTOUTS
10
-147.503000
20
1.277613
11
-146.778000
21
1.083350
0
LINE
8
CUTOUTS
10
-146.778000
20
1.083350
11
-146.053000
21
1.277613
0
LINE
8
CUTOUTS
10
-146.053000
20
1.277613
11
-145.522263
21
1.808350
0
LINE
8
CUTOUTS
10
-145.522263
20
1.808350
11
-145.328000
21
2.533350
0
LINE
8
CUTOUTS
10
-145.328000
20
2.533350
11
-145.328000
21
2.533350
0
LINE
8
CUTOUTS
10
148.228000
20
2.533350
11
148.033737
21
3.258350
0
LINE
8
CUTOUTS
10
148.033737
20
3.258350
11
147.503000
21
3.789087
0
LINE
8
CUTOUTS
10
147.503000
20
3.789087
11
146.778000
21
3.983350
0
LINE
8
CUTOUTS
10
146.778000
20
3.983350
11
146.053000
21
3.789087
0
LINE
8
CUTOUTS
10
146.053000
20
3.789087
11
145.522263
21
3.258350
0
LINE
8
CUTOUTS
10
145.522263
20
3.258350
11
145.328000
21
2.533350
0
LINE
8
CUTOUTS
10
145.328000
20
2.533350
11
145.522263
21
1.808350
0
LINE
8
CUTOUTS
10
145.522263
20
1.808350
11
146.053000
21
1.277613
0
LINE
8
CUTOUTS
10
146.053000
20
1.277613
11
146.778000
21
1.083350
0
LINE
8
CUTOUTS
10
146.778000
20
1.083350
11
147.503000
21
1.277613
0
LINE
8
CUTOUTS
10
147.503000
20
1.277613
11
148.033737
21
1.808350
0
LINE
8
CUTOUTS
10
148.033737
20
1.808350
11
148.228000
21
2.533350
0
LINE
8
CUTOUTS
10
148.228000
20
2.533350
11
148.228000
21
2.533350
0
LINE
8
CUTOUTS
10
-145.328000
20
-44.758300
11
-145.522263
21
-44.033300
0
LINE
8
CUTOUTS
10
-145.522263
20
-44.033300
11
-146.053000
21
-43.502563
0
LINE
8
CUTOUTS
10
-146.053000
20
-43.502563
11
-146.778000
21
-43.308300
0
LINE
8
CUTOUTS
10
-146.778000
20
-43.308300
11
-147.503000
21
-43.502563
0
LINE
8
CUTOUTS
10
-147.503000
20
-43.502563
11
-148.033737
21
-44.033300
0
LINE
8
CUTOUTS
10
-148.033737
20
-44.033300
11
-148.228000
21
-44.758300
0
LINE
8
CUTOUTS
10
-148.228000
20
-44.758300
11
-148.033737
21
-45.483300
0
LINE
8
CUTOUTS
10
-148.033737
20
-45.483300
11
-147.503000
21
-46.014037
0
LINE
8
CUTOUTS
10
-147.503000
20
-46.014037
11
-146.778000
21
-46.208300
0
LINE
8
CUTOUTS
10
-146.778000
20
-46.208300
11
-146.053000
21
-46.014037
0
LINE
8
CUTOUTS
10
-146.053000
20
-46.014037
11
-145.522263
21
-45.483300
0
LINE
8
CUTOUTS
10
-145.522263
20
-45.483300
11
-145.328000
21
-44.758300
0
LINE
8
CUTOUTS
10
-145.328000
20
-44.758300
11
-145.328000
21
-44.758300
0
LINE
8
CUTOUTS
10
148.228000
20
-44.758300
11
148.033737
21
-44.033300
0
LINE
8
CUTOUTS
10
148.033737
20
-44.033300
11
147.503000
21
-43.502563
0
LINE
8
CUTOUTS
10
147.503000
20
-43.502563
11
146.778000
21
-43.308300
0
LINE
8
CUTOUTS
10
146.778000
20
-43.308300
11
146.053000
21
-43.502563
0
LINE
8
CUTOUTS
10
146.053000
20
-43.502563
11
145.522263
21
-44.033300
0
LINE
8
CUTOUTS
10
145.522263
20
-44.033300
11
145.328000
21
-44.758300
0
LINE
8
CUTOUTS
10
145.328000
20
-44.758300
11
145.522263
21
-45.483300
0
LINE
8
CUTOUTS
10
145.522263
20
-45.483300
11
146.053000
21
-46.014037
0
LINE
8
CUTOUTS
10
146.053000
20
-46.014037
11
146.778000
21
-46.208300
0
LINE
8
CUTOUTS
10
146.778000
20
-46.208300
11
147.503000
21
-46.014037
0
LINE
8
CUTOUTS
10
147.503000
20
-46.014037
11
148.033737
21
-45.483300
0
LINE
8
CUTOUTS
10
148.033737
20
-45.483300
11
148.228000
21
-44.758300
0
LINE
8
CUTOUTS
10
148.228000
20
-44.758300
11
148.228000
21
-44.758300
0
LINE
8
CUTOUTS
10
-138.211000
20
-83.862100
11
-138.324948
21
-83.297695
0
LINE
8
CUTOUTS
10
-138.324948
20
-83.297695
11
-138.635695
21
-82.836795
0
LINE
8
CUTOUTS
10
-138.635695
20
-82.836795
11
-139.096595
21
-82.526048
0
LINE
8
CUTOUTS
10
-139.096595
20
-82.526048
11
-139.661000
21
-82.412100
0
LINE
8
CUTOUTS
10
-139.661000
20
-82.412100
11
-140.225405
21
-82.526048
0
LINE
8
CUTOUTS
10
-140.225405
20
-82.526048
11
-140.686305
21
-82.836795
0
LINE
8
CUTOUTS
10
-140.686305
20
-82.836795
11
-140.997052
21
-83.297695
0
LINE
8
CUTOUTS
10
-140.997052
20
-83.297695
11
-141.111000
21
-83.862100
0
LINE
8
CUTOUTS
10
-141.111000
20
-83.862100
11
-140.916737
21
-84.587100
0
LINE
8
CUTOUTS
10
-140.916737
20
-84.587100
11
-140.386000
21
-85.117837
0
LINE
8
CUTOUTS
10
-140.386000
20
-85.117837
11
-139.661000
21
-85.312100
0
LINE
8
CUTOUTS
10
-139.661000
20
-85.312100
11
-138.936000
21
-85.117837
0
LINE
8
CUTOUTS
10
-138.936000
20
-85.117837
11
-138.405263
21
-84.587100
0
LINE
8
CUTOUTS
10
-138.405263
20
-84.587100
11
-138.211000
21
-83.862100
0
LINE
8
CUTOUTS
10
-138.211000
20
-83.862100
11
-138.211000
21
-83.862100
0
LINE
8
CUTOUTS
10
141.111000
20
-83.862100
11
140.997052
21
-83.297695
0
LINE
8
CUTOUTS
10
140.997052
20
-83.297695
11
140.686305
21
-82.836795
0
LINE
8
CUTOUTS
10
140.686305
20
-82.836795
11
140.225405
21
-82.526048
0
LINE
8
CUTOUTS
10
140.225405
20
-82.526048
11
139.661000
21
-82.412100
0
LINE
8
CUTOUTS
10
139.661000
20
-82.412100
11
139.096595
21
-82.526048
0
LINE
8
CUTOUTS
10
139.096595
20
-82.526048
11
138.635695
21
-82.836795
0
LINE
8
CUTOUTS
10
138.635695
20
-82.836795
11
138.324948
21
-83.297695
0
LINE
8
CUTOUTS
10
138.324948
20
-83.297695
11
138.211000
21
-83.862100
0
LINE
8
CUTOUTS
10
138.211000
20
-83.862100
11
138.324948
21
-84.426505
0
LINE
8
CUTOUTS
10
138.324948
20
-84.426505
11
138.635695
21
-84.887405
0
LINE
8
CUTOUTS
10
138.635695
20
-84.887405
11
139.096595
21
-85.198152
0
LINE
8
CUTOUTS
10
139.096595
20
-85.198152
11
139.661000
21
-85.312100
0
LINE
8
CUTOUTS
10
139.661000
20
-85.312100
11
140.225405
21
-85.198152
0
LINE
8
CUTOUTS
10
140.225405
20
-85.198152
11
140.686305
21
-84.887405
0
LINE
8
CUTOUTS
10
140.686305
20
-84.887405
11
140.997052
21
-84.426505
0
LINE
8
CUTOUTS
10
140.997052
20
-84.426505
11
141.111000
21
-83.862100
0
LINE
8
CUTOUTS
10
141.111000
20
-83.862100
11
141.111000
21
-83.862100
0
LINE
8
CUTOUTS
10
-93.133300
20
-84.999500
11
-93.247248
21
-84.435095
0
LINE
8
CUTOUTS
10
-93.247248
20
-84.435095
11
-93.557995
21
-83.974195
0
LINE
8
CUTOUTS
10
-93.557995
20
-83.974195
11
-94.018895
21
-83.663448
0
LINE
8
CUTOUTS
10
-94.018895
20
-83.663448
11
-94.583300
21
-83.549500
0
LINE
8
CUTOUTS
10
-94.583300
20
-83.549500
11
-95.147705
21
-83.663448
0
LINE
8
CUTOUTS
10
-95.147705
20
-83.663448
11
-95.608605
21
-83.974195
0
LINE
8
CUTOUTS
10
-95.608605
20
-83.974195
11
-95.919352
21
-84.435095
0
LINE
8
CUTOUTS
10
-95.919352
20
-84.435095
11
-96.033300
21
-84.999500
0
LINE
8
CUTOUTS
10
-96.033300
20
-84.999500
11
-95.839037
21
-85.724500
0
LINE
8
CUTOUTS
10
-95.839037
20
-85.724500
11
-95.308300
21
-86.255237
0
LINE
8
CUTOUTS
10
-95.308300
20
-86.255237
11
-94.583300
21
-86.449500
0
LINE
8
CUTOUTS
10
-94.583300
20
-86.449500
11
-93.858300
21
-86.255237
0
LINE
8
CUTOUTS
10
-93.858300
20
-86.255237
11
-93.327563
21
-85.724500
0
LINE
8
CUTOUTS
10
-93.327563
20
-85.724500
11
-93.133300
21
-84.999500
0
LINE
8
CUTOUTS
10
-93.133300
20
-84.999500
11
-93.133300
21
-84.999500
0
LINE
8
CUTOUTS
10
96.033300
20
-84.999500
11
95.919352
21
-84.435095
0
LINE
8
CUTOUTS
10
95.919352
20
-84.435095
11
95.608605
21
-83.974195
0
LINE
8
CUTOUTS
10
95.608605
20
-83.974195
11
95.147705
21
-83.663448
0
LINE
8
CUTOUTS
10
95.147705
20
-83.663448
11
94.583300
21
-83.549500
0
LINE
8
CUTOUTS
10
94.583300
20
-83.549500
11
94.018895
21
-83.663448
0
LINE
8
CUTOUTS
10
94.018895
20
-83.663448
11
93.557995
21
-83.974195
0
LINE
8
CUTOUTS
10
93.557995
20
-83.974195
11
93.247248
21
-84.435095
0
LINE
8
CUTOUTS
10
93.247248
20
-84.435095
11
93.133300
21
-84.999500
0
LINE
8
CUTOUTS
10
93.133300
20
-84.999500
11
93.247248
21
-85.563905
0
LINE
8
CUTOUTS
10
93.247248
20
-85.563905
11
93.557995
21
-86.024805
0
LINE
8
CUTOUTS
10
93.557995
20
-86.024805
11
94.018895
21
-86.335552
0
LINE
8
CUTOUTS
10
94.018895
20
-86.335552
11
94.583300
21
-86.449500
0
LINE
8
CUTOUTS
10
94.583300
20
-86.449500
11
95.147705
21
-86.335552
0
LINE
8
CUTOUTS
10
95.147705
20
-86.335552
11
95.608605
21
-86.024805
0
LINE
8
CUTOUTS
10
95.608605
20
-86.024805
11
95.919352
21
-85.563905
0
LINE
8
CUTOUTS
10
95.919352
20
-85.563905
11
96.033300
21
-84.999500
0
LINE
8
CUTOUTS
10
96.033300
20
-84.999500
11
96.033300
21
-84.999500
0
LINE
8
CUTOUTS
10
-45.841600
20
-84.999500
11
-45.955548
21
-84.435095
0
LINE
8
CUTOUTS
10
-45.955548
20
-84.435095
11
-46.266295
21
-83.974195
0
LINE
8
CUTOUTS
10
-46.266295
20
-83.974195
11
-46.727195
21
-83.663448
0
LINE
8
CUTOUTS
10
-46.727195
20
-83.663448
11
-47.291600
21
-83.549500
0
LINE
8
CUTOUTS
10
-47.291600
20
-83.549500
11
-47.856005
21
-83.663448
0
LINE
8
CUTOUTS
10
-47.856005
20
-83.663448
11
-48.316905
21
-83.974195
0
LINE
8
CUTOUTS
10
-48.316905
20
-83.974195
11
-48.627652
21
-84.435095
0
LINE
8
CUTOUTS
10
-48.627652
20
-84.435095
11
-48.741600
21
-84.999500
0
LINE
8
CUTOUTS
10
-48.741600
20
-84.999500
11
-48.627652
21
-85.563905
0
LINE
8
CUTOUTS
10
-48.627652
20
-85.563905
11
-48.316905
21
-86.024805
0
LINE
8
CUTOUTS
10
-48.316905
20
-86.024805
11
-47.856005
21
-86.335552
0
LINE
8
CUTOUTS
10
-47.856005
20
-86.335552
11
-47.291600
21
-86.449500
0
LINE
8
CUTOUTS
10
-47.291600
20
-86.449500
11
-46.727195
21
-86.335552
0
LINE
8
CUTOUTS
10
-46.727195
20
-86.335552
11
-46.266295
21
-86.024805
0
LINE
8
CUTOUTS
10
-46.266295
20
-86.024805
11
-45.955548
21
-85.563905
0
LINE
8
CUTOUTS
10
-45.955548
20
-85.563905
11
-45.841600
21
-84.999500
0
LINE
8
CUTOUTS
10
-45.841600
20
-84.999500
11
-45.841600
21
-84.999500
0
LINE
8
CUTOUTS
10
48.741600
20
-84.999500
11
48.627652
21
-84.435095
0
LINE
8
CUTOUTS
10
48.627652
20
-84.435095
11
48.316905
21
-83.974195
0
LINE
8
CUTOUTS
10
48.316905
20
-83.974195
11
47.856005
21
-83.663448
0
LINE
8
CUTOUTS
10
47.856005
20
-83.663448
11
47.291600
21
-83.549500
0
LINE
8
CUTOUTS
10
47.291600
20
-83.549500
11
46.727195
21
-83.663448
0
LINE
8
CUTOUTS
10
46.727195
20
-83.663448
11
46.266295
21
-83.974195
0
LINE
8
CUTOUTS
10
46.266295
20
-83.974195
11
45.955548
21
-84.435095
0
LINE
8
CUTOUTS
10
45.955548
20
-84.435095
11
45.841600
21
-84.999500
0
LINE
8
CUTOUTS
10
45.841600
20
-84.999500
11
45.955548
21
-85.563905
0
LINE
8
CUTOUTS
10
45.955548
20
-85.563905
11
46.266295
21
-86.024805
0
LINE
8
CUTOUTS
10
46.266295
20
-86.024805
11
46.727195
21
-86.335552
0
LINE
8
CUTOUTS
10
46.727195
20
-86.335552
11
47.291600
21
-86.449500
0
LINE
8
CUTOUTS
10
47.291600
20
-86.449500
11
47.856005
21
-86.335552
0
LINE
8
CUTOUTS
10
47.856005
20
-86.335552
11
48.316905
21
-86.024805
0
LINE
8
CUTOUTS
10
48.316905
20
-86.024805
11
48.627652
21
-85.563905
0
LINE
8
CUTOUTS
10
48.627652
20
-85.563905
11
48.741600
21
-84.999500
0
LINE
8
CUTOUTS
10
48.741600
20
-84.999500
11
48.741600
21
-84.999500
0
LINE
8
CUTOUTS
10
1.450000
20
-84.999500
11
1.255737
21
-84.274500
0
LINE
8
CUTOUTS
10
1.255737
20
-84.274500
11
0.725000
21
-83.743763
0
LINE
8
CUTOUTS
10
0.725000
20
-83.743763
11
0.000000
21
-83.549500
0
LINE
8
CUTOUTS
10
0.000000
20
-83.549500
11
-0.725000
21
-83.743763
0
LINE
8
CUTOUTS
10
-0.725000
20
-83.743763
11
-1.255737
21
-84.274500
0
LINE
8
CUTOUTS
10
-1.255737
20
-84.274500
11
-1.450000
21
-84.999500
0
LINE
8
CUTOUTS
10
-1.450000
20
-84.999500
11
-1.255737
21
-85.724500
0
LINE
8
CUTOUTS
10
-1.255737
20
-85.724500
11
-0.725000
21
-86.255237
0
LINE
8
CUTOUTS
10
-0.725000
20
-86.255237
11
-0.000000
21
-86.449500
0
LINE
8
CUTOUTS
10
-0.000000
20
-86.449500
11
0.725000
21
-86.255237
0
LINE
8
CUTOUTS
10
0.725000
20
-86.255237
11
1.255737
21
-85.724500
0
LINE
8
CUTOUTS
10
1.255737
20
-85.724500
11
1.450000
21
-84.999500
0
LINE
8
CUTOUTS
10
1.450000
20
-84.999500
11
1.450000
21
-84.999500
0
LINE
8
CUTOUTS
10
53.772900
20
-1.812960
11
54.028000
21
1.032860
0
LINE
8
CUTOUTS
10
54.028000
20
1.032860
11
55.022400
21
4.748700
0
LINE
8
CUTOUTS
10
55.022400
20
4.748700
11
57.721800
21
4.748700
0
LINE
8
CUTOUTS
10
57.721800
20
4.748700
11
55.092100
21
-4.226500
0
LINE
8
CUTOUTS
10
55.092100
20
-4.226500
11
52.914500
21
-4.226500
0
LINE
8
CUTOUTS
10
52.914500
20
-4.226500
11
52.659200
21
-6.873560
0
LINE
8
CUTOUTS
10
52.659200
20
-6.873560
11
51.691500
21
-10.404500
0
LINE
8
CUTOUTS
10
51.691500
20
-10.404500
11
48.993500
21
-10.404500
0
LINE
8
CUTOUTS
10
48.993500
20
-10.404500
11
51.739700
21
-1.812960
0
LINE
8
CUTOUTS
10
51.739700
20
-1.812960
11
53.772900
21
-1.812960
0
LINE
8
CUTOUTS
10
53.772900
20
-1.812960
11
53.772900
21
-1.812960
0
LINE
8
CUTOUTS
10
32.973600
20
-10.404500
11
30.216100
21
-10.404500
0
LINE
8
CUTOUTS
10
30.216100
20
-10.404500
11
30.216100
21
4.748700
0
LINE
8
CUTOUTS
10
30.216100
20
4.748700
11
32.973600
21
4.748700
0
LINE
8
CUTOUTS
10
32.973600
20
4.748700
11
32.973600
21
-10.404500
0
LINE
8
CUTOUTS
10
32.973600
20
-10.404500
11
32.973600
21
-10.404500
0
LINE
8
CUTOUTS
10
11.020600
20
-7.990970
11
19.056500
21
-7.990970
0
LINE
8
CUTOUTS
10
19.056500
20
-7.990970
11
19.056500
21
-10.404500
0
LINE
8
CUTOUTS
10
19.056500
20
-10.404500
11
11.020600
21
-10.404500
0
LINE
8
CUTOUTS
10
11.020600
20
-10.404500
11
11.020600
21
-7.990970
0
LINE
8
CUTOUTS
10
11.020600
20
-7.990970
11
11.020600
21
-7.990970
0
LINE
8
CUTOUTS
10
-6.322990
20
-4.667100
11
-6.562610
21
2.335160
0
LINE
8
CUTOUTS
10
-6.562610
20
2.335160
11
-7.532280
21
2.335160
0
LINE
8
CUTOUTS
10
-7.532280
20
2.335160
11
-7.785210
21
-4.667110
0
LINE
8
CUTOUTS
10
-7.785210
20
-4.667110
11
-9.032470
21
-10.404500
0
LINE
8
CUTOUTS
10
-9.032470
20
-10.404500
11
-14.101500
21
-10.404500
0
LINE
8
CUTOUTS
10
-14.101500
20
-10.404500
11
-14.101500
21
-7.977740
0
LINE
8
CUTOUTS
10
-14.101500
20
-7.977740
11
-10.812200
21
-7.977740
0
LINE
8
CUTOUTS
10
-10.812200
20
-7.977740
11
-9.987910
21
0.291995
0
LINE
8
CUTOUTS
10
-9.987910
20
0.291995
11
-8.834410
21
4.748700
0
LINE
8
CUTOUTS
10
-8.834410
20
4.748700
11
-5.365540
21
4.748700
0
LINE
8
CUTOUTS
10
-5.365540
20
4.748700
11
-4.107030
21
0.291484
0
LINE
8
CUTOUTS
10
-4.107030
20
0.291484
11
-3.296060
21
-7.977740
0
LINE
8
CUTOUTS
10
-3.296060
20
-7.977740
11
-0.006667
21
-7.977740
0
LINE
8
CUTOUTS
10
-0.006667
20
-7.977740
11
-0.006667
21
-10.404500
0
LINE
8
CUTOUTS
10
-0.006667
20
-10.404500
11
-5.062600
21
-10.404500
0
LINE
8
CUTOUTS
10
-5.062600
20
-10.404500
11
-6.322990
21
-4.667100
0
LINE
8
CUTOUTS
10
-6.322990
20
-4.667100
11
-6.322990
21
-4.667100
0
LINE
8
CUTOUTS
10
-2.856770
20
0.103923
11
-2.856770
21
4.748700
0
LINE
8
CUTOUTS
10
-2.856770
20
4.748700
11
-0.006667
21
4.748700
0
LINE
8
CUTOUTS
10
-0.006667
20
4.748700
11
-0.006667
21
-7.004620
0
LINE
8
CUTOUTS
10
-0.006667
20
-7.004620
11
-2.410020
21
-7.004620
0
LINE
8
CUTOUTS
10
-2.410020
20
-7.004620
11
-2.856770
21
0.103923
0
LINE
8
CUTOUTS
10
-2.856770
20
0.103923
11
-2.856770
21
0.103923
0
LINE
8
CUTOUTS
10
13.679700
20
4.748700
11
16.437200
21
4.748700
0
LINE
8
CUTOUTS
10
16.437200
20
4.748700
11
16.437200
21
-7.004620
0
LINE
8
CUTOUTS
10
16.437200
20
-7.004620
11
13.679700
21
-7.004620
0
LINE
8
CUTOUTS
10
13.679700
20
-7.004620
11
13.679700
21
4.748700
0
LINE
8
CUTOUTS
10
13.679700
20
4.748700
11
13.679700
21
4.748700
0
LINE
8
CUTOUTS
10
34.343700
20
-4.174830
11
34.343700
21
-1.759190
0
LINE
8
CUTOUTS
10
34.343600
20
-1.759730
11
34.905900
21
-1.650321
0
LINE
8
CUTOUTS
10
34.905900
20
-1.650321
11
35.299300
21
-1.343160
0
LINE
8
CUTOUTS
10
35.299300
20
-1.343160
11
35.528712
21
-0.789976
0
LINE
8
CUTOUTS
10
35.528712
20
-0.789976
11
35.600400
21
0.022982
0
LINE
8
CUTOUTS
10
35.600400
20
0.024103
11
35.600400
21
1.029520
0
LINE
8
CUTOUTS
10
35.600400
20
1.028390
11
35.517875
21
1.572498
0
LINE
8
CUTOUTS
10
35.517875
20
1.572498
11
35.269300
21
1.988700
0
LINE
8
CUTOUTS
10
35.269300
20
1.988700
11
35.268800
21
1.989250
0
LINE
8
CUTOUTS
10
35.268800
20
1.989250
11
35.268200
21
1.989790
0
LINE
8
CUTOUTS
10
35.268200
20
1.989790
11
34.875125
21
2.234455
0
LINE
8
CUTOUTS
10
34.875125
20
2.234455
11
34.343600
21
2.321650
0
LINE
8
CUTOUTS
10
34.343700
20
2.320680
11
34.343700
21
4.736330
0
LINE
8
CUTOUTS
10
34.343600
20
4.735410
11
36.142625
21
4.515349
0
LINE
8
CUTOUTS
10
36.142625
20
4.515349
11
36.816294
21
4.247488
0
LINE
8
CUTOUTS
10
36.816294
20
4.247488
11
37.341800
21
3.875850
0
LINE
8
CUTOUTS
10
37.341800
20
3.875850
11
37.747986
21
3.381295
0
LINE
8
CUTOUTS
10
37.747986
20
3.381295
11
38.051862
21
2.750411
0
LINE
8
CUTOUTS
10
38.051862
20
2.750411
11
38.344700
21
1.066080
0
LINE
8
CUTOUTS
10
38.344700
20
1.066080
11
38.344700
21
1.065610
0
LINE
8
CUTOUTS
10
38.344700
20
1.065610
11
38.344700
21
1.065150
0
LINE
8
CUTOUTS
10
38.344700
20
1.065150
11
38.357900
21
0.472769
0
LINE
8
CUTOUTS
10
38.357900
20
0.472769
11
38.344700
21
-0.106195
0
LINE
8
CUTOUTS
10
38.344700
20
-0.106195
11
38.344700
21
-0.107290
0
LINE
8
CUTOUTS
10
38.344700
20
-0.107290
11
38.344600
21
-0.108388
0
LINE
8
CUTOUTS
10
38.344600
20
-0.108388
11
38.222500
21
-1.051683
0
LINE
8
CUTOUTS
10
38.222500
20
-1.051683
11
37.916200
21
-1.775360
0
LINE
8
CUTOUTS
10
37.916200
20
-1.775360
11
37.401038
21
-2.298256
0
LINE
8
CUTOUTS
10
37.401038
20
-2.298256
11
36.658700
21
-2.668130
0
LINE
8
CUTOUTS
10
36.658700
20
-2.668130
11
36.624800
21
-2.679680
0
LINE
8
CUTOUTS
10
36.624900
20
-2.679930
11
36.624900
21
-3.214390
0
LINE
8
CUTOUTS
10
36.624800
20
-3.214780
11
36.659400
21
-3.226020
0
LINE
8
CUTOUTS
10
36.659400
20
-3.226020
11
37.382875
21
-3.584035
0
LINE
8
CUTOUTS
10
37.382875
20
-3.584035
11
37.889900
21
-4.105640
0
LINE
8
CUTOUTS
10
37.889900
20
-4.105640
11
38.199388
21
-4.814694
0
LINE
8
CUTOUTS
10
38.199388
20
-4.814694
11
38.344700
21
-5.734580
0
LINE
8
CUTOUTS
10
38.344700
20
-5.734580
11
38.344800
21
-5.735220
0
LINE
8
CUTOUTS
10
38.344800
20
-5.735220
11
38.344800
21
-5.735850
0
LINE
8
CUTOUTS
10
38.344800
20
-5.735850
11
38.357900
21
-6.221180
0
LINE
8
CUTOUTS
10
38.357900
20
-6.220060
11
38.357900
21
-6.735990
0
LINE
8
CUTOUTS
10
38.357900
20
-6.737120
11
38.114688
21
-8.426311
0
LINE
8
CUTOUTS
10
38.114688
20
-8.426311
11
37.813723
21
-9.060919
0
LINE
8
CUTOUTS
10
37.813723
20
-9.060919
11
37.395900
21
-9.557030
0
LINE
8
CUTOUTS
10
37.395900
20
-9.557030
11
36.850873
21
-9.921647
0
LINE
8
CUTOUTS
10
36.850873
20
-9.921647
11
36.159963
21
-10.185904
0
LINE
8
CUTOUTS
10
36.159963
20
-10.185904
11
34.343600
21
-10.404400
0
LINE
8
CUTOUTS
10
34.343700
20
-10.405800
11
34.343700
21
-7.990120
0
LINE
8
CUTOUTS
10
34.343600
20
-7.990710
11
34.863663
21
-7.914694
0
LINE
8
CUTOUTS
10
34.863663
20
-7.914694
11
35.264700
21
-7.701750
0
LINE
8
CUTOUTS
10
35.264700
20
-7.701750
11
35.265200
21
-7.701280
0
LINE
8
CUTOUTS
10
35.265200
20
-7.701280
11
35.265800
21
-7.700790
0
LINE
8
CUTOUTS
10
35.265800
20
-7.700790
11
35.516463
21
-7.351591
0
LINE
8
CUTOUTS
10
35.516463
20
-7.351591
11
35.600400
21
-6.882640
0
LINE
8
CUTOUTS
10
35.600400
20
-6.881510
11
35.600400
21
-5.796720
0
LINE
8
CUTOUTS
10
35.600400
20
-5.797850
11
35.519113
21
-5.117868
0
LINE
8
CUTOUTS
10
35.519113
20
-5.117868
11
35.272600
21
-4.603380
0
LINE
8
CUTOUTS
10
35.272600
20
-4.603380
11
34.878788
21
-4.285965
0
LINE
8
CUTOUTS
10
34.878788
20
-4.285965
11
34.343600
21
-4.173930
0
LINE
8
CUTOUTS
10
56.018900
20
-5.199620
11
57.654300
21
-10.404500
0
LINE
8
CUTOUTS
10
57.654300
20
-10.404500
11
54.969500
21
-10.404500
0
LINE
8
CUTOUTS
10
54.969500
20
-10.404500
11
54.028000
21
-6.874040
0
LINE
8
CUTOUTS
10
54.028000
20
-6.874040
11
53.887400
21
-5.199620
0
LINE
8
CUTOUTS
10
53.887400
20
-5.199620
11
56.018900
21
-5.199620
0
LINE
8
CUTOUTS
10
56.018900
20
-5.199620
11
56.018900
21
-5.199620
0
LINE
8
CUTOUTS
10
48.266500
20
-0.917302
11
48.266500
21
-0.917312
0
LINE
8
CUTOUTS
10
48.266500
20
-0.917312
11
48.279700
21
-2.847750
0
LINE
8
CUTOUTS
10
48.279700
20
-2.847750
11
48.266500
21
-4.791390
0
LINE
8
CUTOUTS
10
48.266500
20
-4.791390
11
48.200400
21
-6.827870
0
LINE
8
CUTOUTS
10
48.200400
20
-6.827870
11
48.200400
21
-6.828010
0
LINE
8
CUTOUTS
10
48.200400
20
-6.828010
11
48.200400
21
-6.828140
0
LINE
8
CUTOUTS
10
48.200400
20
-6.828140
11
47.946562
21
-8.450846
0
LINE
8
CUTOUTS
10
47.946562
20
-8.450846
11
47.314200
21
-9.573730
0
LINE
8
CUTOUTS
10
47.314200
20
-9.573730
11
46.272112
21
-10.251579
0
LINE
8
CUTOUTS
10
46.272112
20
-10.251579
11
44.754900
21
-10.572300
0
LINE
8
CUTOUTS
10
44.755000
20
-10.572400
11
44.755000
21
-8.281160
0
LINE
8
CUTOUTS
10
44.754900
20
-8.281380
11
45.290600
21
-7.847030
0
LINE
8
CUTOUTS
10
45.290600
20
-7.847030
11
45.482500
21
-6.990390
0
LINE
8
CUTOUTS
10
45.482500
20
-6.990390
11
45.561900
21
-4.913420
0
LINE
8
CUTOUTS
10
45.561900
20
-4.913420
11
45.561900
21
-4.912940
0
LINE
8
CUTOUTS
10
45.561900
20
-4.912940
11
45.561900
21
-4.912460
0
LINE
8
CUTOUTS
10
45.561900
20
-4.912460
11
45.588400
21
-2.847750
0
LINE
8
CUTOUTS
10
45.588400
20
-2.847750
11
45.561900
21
-0.783039
0
LINE
8
CUTOUTS
10
45.561900
20
-0.783039
11
45.482500
21
1.294420
0
LINE
8
CUTOUTS
10
45.482500
20
1.294420
11
45.290600
21
2.164760
0
LINE
8
CUTOUTS
10
45.290600
20
2.164760
11
44.754900
21
2.599120
0
LINE
8
CUTOUTS
10
44.755000
20
2.598500
11
44.755000
21
4.889780
0
LINE
8
CUTOUTS
10
44.754900
20
4.890670
11
46.276425
21
4.574560
0
LINE
8
CUTOUTS
10
46.276425
20
4.574560
11
47.314200
21
3.891460
0
LINE
8
CUTOUTS
10
47.314200
20
3.891460
11
47.941500
21
2.767123
0
LINE
8
CUTOUTS
10
47.941500
20
2.767123
11
48.200400
21
1.132380
0
LINE
8
CUTOUTS
10
48.200400
20
1.132380
11
48.266500
21
-0.917292
0
LINE
8
CUTOUTS
10
48.266500
20
-0.917292
11
48.266500
21
-0.917302
0
LINE
8
CUTOUTS
10
25.453600
20
-10.404500
11
25.453600
21
4.748700
0
LINE
8
CUTOUTS
10
25.453600
20
4.748700
11
28.211100
21
4.748700
0
LINE
8
CUTOUTS
10
28.211100
20
4.748700
11
28.211100
21
-10.404500
0
LINE
8
CUTOUTS
10
28.211100
20
-10.404500
11
25.453600
21
-10.404500
0
LINE
8
CUTOUTS
10
25.453600
20
-10.404500
11
25.453600
21
-10.404500
0
LINE
8
CUTOUTS
10
10.219500
20
-0.917302
11
10.219500
21
-0.917312
0
LINE
8
CUTOUTS
10
10.219500
20
-0.917312
11
10.232700
21
-2.847750
0
LINE
8
CUTOUTS
10
10.232700
20
-2.847750
11
10.219500
21
-4.791390
0
LINE
8
CUTOUTS
10
10.219500
20
-4.791390
11
10.153400
21
-6.827870
0
LINE
8
CUTOUTS
10
10.153400
20
-6.827870
11
10.153400
21
-6.828010
0
LINE
8
CUTOUTS
10
10.153400
20
-6.828010
11
10.153300
21
-6.828140
0
LINE
8
CUTOUTS
10
10.153300
20
-6.828140
11
9.899541
21
-8.450846
0
LINE
8
CUTOUTS
10
9.899541
20
-8.450846
11
9.267190
21
-9.573730
0
LINE
8
CUTOUTS
10
9.267190
20
-9.573730
11
8.225067
21
-10.251579
0
LINE
8
CUTOUTS
10
8.225067
20
-10.251579
11
6.707910
21
-10.572300
0
LINE
8
CUTOUTS
10
6.707920
20
-10.572400
11
6.707920
21
-8.281160
0
LINE
8
CUTOUTS
10
6.707910
20
-8.281380
11
7.243540
21
-7.847030
0
LINE
8
CUTOUTS
10
7.243540
20
-7.847030
11
7.435480
21
-6.990390
0
LINE
8
CUTOUTS
10
7.435480
20
-6.990390
11
7.514850
21
-4.913420
0
LINE
8
CUTOUTS
10
7.514850
20
-4.913420
11
7.514870
21
-4.912940
0
LINE
8
CUTOUTS
10
7.514870
20
-4.912940
11
7.514880
21
-4.912460
0
LINE
8
CUTOUTS
10
7.514880
20
-4.912460
11
7.541350
21
-2.847750
0
LINE
8
CUTOUTS
10
7.541350
20
-2.847750
11
7.514880
21
-0.783039
0
LINE
8
CUTOUTS
10
7.514880
20
-0.783039
11
7.435510
21
1.294420
0
LINE
8
CUTOUTS
10
7.435510
20
1.294420
11
7.243540
21
2.164760
0
LINE
8
CUTOUTS
10
7.243540
20
2.164760
11
6.707910
21
2.599120
0
LINE
8
CUTOUTS
10
6.707920
20
2.598500
11
6.707920
21
4.889780
0
LINE
8
CUTOUTS
10
6.707910
20
4.890670
11
8.229406
21
4.574560
0
LINE
8
CUTOUTS
10
8.229406
20
4.574560
11
9.267190
21
3.891460
0
LINE
8
CUTOUTS
10
9.267190
20
3.891460
11
9.894491
21
2.767123
0
LINE
8
CUTOUTS
10
9.894491
20
2.767123
11
10.153400
21
1.132380
0
LINE
8
CUTOUTS
10
10.153400
20
1.132380
11
10.219500
21
-0.917292
0
LINE
8
CUTOUTS
10
10.219500
20
-0.917292
11
10.219500
21
-0.917302
0
LINE
8
CUTOUTS
10
-11.698200
20
-7.004620
11
-14.101500
21
-7.004620
0
LINE
8
CUTOUTS
10
-14.101500
20
-7.004620
11
-14.101500
21
4.748700
0
LINE
8
CUTOUTS
10
-14.101500
20
4.748700
11
-11.251400
21
4.748700
0
LINE
8
CUTOUTS
10
-11.251400
20
4.748700
11
-11.251400
21
0.103923
0
LINE
8
CUTOUTS
10
-11.251400
20
0.103923
11
-11.698200
21
-7.004620
0
LINE
8
CUTOUTS
10
-11.698200
20
-7.004620
11
-11.698200
21
-7.004620
0
LINE
8
CUTOUTS
10
4.583860
20
-0.756584
11
4.557390
21
-2.821290
0
LINE
8
CUTOUTS
10
4.557390
20
-2.821290
11
4.583860
21
-4.886000
0
LINE
8
CUTOUTS
10
4.583860
20
-4.886000
11
4.650000
21
-6.962980
0
LINE
8
CUTOUTS
10
4.650000
20
-6.962980
11
4.842340
21
-7.821180
0
LINE
8
CUTOUTS
10
4.842340
20
-7.821180
11
5.377600
21
-8.243380
0
LINE
8
CUTOUTS
10
5.377600
20
-8.244120
11
5.377600
21
-10.572400
0
LINE
8
CUTOUTS
10
5.377600
20
-10.573700
11
3.794770
21
-10.275344
0
LINE
8
CUTOUTS
10
3.794770
20
-10.275344
11
2.725690
21
-9.600150
0
LINE
8
CUTOUTS
10
2.725690
20
-9.600160
11
2.090105
21
-8.464436
0
LINE
8
CUTOUTS
10
2.090105
20
-8.464436
11
1.852800
21
-6.828800
0
LINE
8
CUTOUTS
10
1.852800
20
-6.828800
11
1.826350
21
-4.779200
0
LINE
8
CUTOUTS
10
1.826350
20
-4.779200
11
1.813130
21
-2.834520
0
LINE
8
CUTOUTS
10
1.813130
20
-2.834520
11
1.826340
21
-0.904082
0
LINE
8
CUTOUTS
10
1.826340
20
-0.904082
11
1.826350
21
-0.903572
0
LINE
8
CUTOUTS
10
1.826350
20
-0.903572
11
1.826350
21
-0.903062
0
LINE
8
CUTOUTS
10
1.826350
20
-0.903062
11
1.852800
21
1.159780
0
LINE
8
CUTOUTS
10
1.852800
20
1.159780
11
2.094954
21
2.806660
0
LINE
8
CUTOUTS
10
2.094954
20
2.806660
11
2.725720
21
3.944380
0
LINE
8
CUTOUTS
10
2.725720
20
3.944380
11
3.789407
21
4.620886
0
LINE
8
CUTOUTS
10
3.789407
20
4.620886
11
5.377600
21
4.930530
0
LINE
8
CUTOUTS
10
5.377600
20
4.929470
11
5.377600
21
2.624950
0
LINE
8
CUTOUTS
10
5.377600
20
2.624990
11
4.841630
21
2.190610
0
LINE
8
CUTOUTS
10
4.841630
20
2.190610
11
4.650000
21
1.320380
0
LINE
8
CUTOUTS
10
4.650000
20
1.320380
11
4.583860
21
-0.756584
0
LINE
8
CUTOUTS
10
20.214900
20
-10.404500
11
20.214900
21
4.748700
0
LINE
8
CUTOUTS
10
20.214900
20
4.748700
11
22.972400
21
4.748700
0
LINE
8
CUTOUTS
10
22.972400
20
4.748700
11
22.972400
21
-1.746810
0
LINE
8
CUTOUTS
10
22.972400
20
-1.746810
11
24.082000
21
-1.746810
0
LINE
8
CUTOUTS
10
24.082000
20
-1.746810
11
24.730000
21
-4.173580
0
LINE
8
CUTOUTS
10
24.730000
20
-4.173580
11
22.972400
21
-4.173580
0
LINE
8
CUTOUTS
10
22.972400
20
-4.173580
11
22.972400
21
-10.404500
0
LINE
8
CUTOUTS
10
22.972400
20
-10.404500
11
20.214900
21
-10.404500
0
LINE
8
CUTOUTS
10
20.214900
20
-10.404500
11
20.214900
21
-10.404500
0
LINE
8
CUTOUTS
10
42.617700
20
-4.886000
11
42.683800
21
-6.962980
0
LINE
8
CUTOUTS
10
42.683800
20
-6.962980
11
42.876100
21
-7.821180
0
LINE
8
CUTOUTS
10
42.876100
20
-7.821180
11
43.411400
21
-8.243380
0
LINE
8
CUTOUTS
10
43.411500
20
-8.244120
11
43.411500
21
-10.572400
0
LINE
8
CUTOUTS
10
43.411400
20
-10.573700
11
41.828575
21
-10.275346
0
LINE
8
CUTOUTS
10
41.828575
20
-10.275346
11
40.759500
21
-9.600170
0
LINE
8
CUTOUTS
10
40.759500
20
-9.600170
11
40.133863
21
-8.464340
0
LINE
8
CUTOUTS
10
40.133863
20
-8.464340
11
39.886600
21
-6.828800
0
LINE
8
CUTOUTS
10
39.886600
20
-6.828800
11
39.860200
21
-4.779200
0
LINE
8
CUTOUTS
10
39.860200
20
-4.779200
11
39.846900
21
-2.834520
0
LINE
8
CUTOUTS
10
39.846900
20
-2.834520
11
39.860100
21
-0.904082
0
LINE
8
CUTOUTS
10
39.860100
20
-0.904082
11
39.860200
21
-0.903572
0
LINE
8
CUTOUTS
10
39.860200
20
-0.903572
11
39.860200
21
-0.903062
0
LINE
8
CUTOUTS
10
39.860200
20
-0.903062
11
39.886600
21
1.159780
0
LINE
8
CUTOUTS
10
39.886600
20
1.159780
11
40.128763
21
2.806660
0
LINE
8
CUTOUTS
10
40.128763
20
2.806660
11
40.759500
21
3.944380
0
LINE
8
CUTOUTS
10
40.759500
20
3.944380
11
41.823212
21
4.620886
0
LINE
8
CUTOUTS
10
41.823212
20
4.620886
11
43.411400
21
4.930530
0
LINE
8
CUTOUTS
10
43.411500
20
4.929470
11
43.411500
21
2.624950
0
LINE
8
CUTOUTS
10
43.411400
20
2.624990
11
42.875400
21
2.190610
0
LINE
8
CUTOUTS
10
42.875400
20
2.190610
11
42.683800
21
1.320380
0
LINE
8
CUTOUTS
10
42.683800
20
1.320380
11
42.617700
21
-0.756584
0
LINE
8
CUTOUTS
10
42.617700
20
-0.756584
11
42.591200
21
-2.821290
0
LINE
8
CUTOUTS
10
42.591200
20
-2.821290
11
42.617700
21
-4.886000
0
LINE
8
CUTOUTS
10
50.786700
20
-0.826604
11
48.928300
21
4.748700
0
LINE
8
CUTOUTS
10
48.928300
20
4.748700
11
51.625500
21
4.748700
0
LINE
8
CUTOUTS
10
51.625500
20
4.748700
11
52.659100
21
1.032950
0
LINE
8
CUTOUTS
10
52.659100
20
1.032950
11
52.800200
21
-0.826604
0
LINE
8
CUTOUTS
10
52.800200
20
-0.826604
11
50.786700
21
-0.826604
0
LINE
8
CUTOUTS
10
50.786700
20
-0.826604
11
50.786700
21
-0.826604
0
LINE
8
CUTOUTS
10
-31.783300
20
-6.128620
11
-31.782800
21
-6.127840
0
LINE
8
CUTOUTS
10
-31.782800
20
-6.127840
11
-31.484256
21
-5.819959
0
LINE
8
CUTOUTS
10
-31.484256
20
-5.819959
11
-31.085775
21
-5.672680
0
LINE
8
CUTOUTS
10
-31.085775
20
-5.672680
11
-30.655831
21
-5.721631
0
LINE
8
CUTOUTS
10
-30.655831
20
-5.721631
11
-30.262900
21
-6.002440
0
LINE
8
CUTOUTS
10
-30.262900
20
-6.002440
11
-30.124887
21
-6.277881
0
LINE
8
CUTOUTS
10
-30.124887
20
-6.277881
11
-30.152100
21
-6.559240
0
LINE
8
CUTOUTS
10
-30.152100
20
-6.559240
11
-30.476150
21
-6.969496
0
LINE
8
CUTOUTS
10
-30.476150
20
-6.969496
11
-30.999100
21
-7.136400
0
LINE
8
CUTOUTS
10
-30.999100
20
-7.136400
11
-31.471000
21
-6.997490
0
LINE
8
CUTOUTS
10
-31.471000
20
-6.997490
11
-31.471500
21
-6.997220
0
LINE
8
CUTOUTS
10
-31.471500
20
-6.997220
11
-31.472000
21
-6.996960
0
LINE
8
CUTOUTS
10
-31.472000
20
-6.996960
11
-31.842750
21
-6.597312
0
LINE
8
CUTOUTS
10
-31.842750
20
-6.597312
11
-31.783300
21
-6.128620
0
LINE
8
CUTOUTS
10
-37.741700
20
-14.754300
11
-37.741300
21
-14.754900
0
LINE
8
CUTOUTS
10
-37.741300
20
-14.754900
11
-36.941800
21
-15.886600
0
LINE
8
CUTOUTS
10
-36.941800
20
-15.886600
11
-36.026900
21
-16.453100
0
LINE
8
CUTOUTS
10
-36.026900
20
-16.453100
11
-36.026200
21
-16.453400
0
LINE
8
CUTOUTS
10
-36.026200
20
-16.453400
11
-36.025400
21
-16.453700
0
LINE
8
CUTOUTS
10
-36.025400
20
-16.453700
11
-34.764200
21
-16.865500
0
LINE
8
CUTOUTS
10
-34.764200
20
-16.865500
11
-33.770600
21
-17.156900
0
LINE
8
CUTOUTS
10
-33.770600
20
-17.156900
11
-33.770100
21
-17.157100
0
LINE
8
CUTOUTS
10
-33.770100
20
-17.157100
11
-33.769600
21
-17.157200
0
LINE
8
CUTOUTS
10
-33.769600
20
-17.157200
11
-32.555900
21
-17.473700
0
LINE
8
CUTOUTS
10
-32.555900
20
-17.473700
11
-32.371200
21
-17.593250
0
LINE
8
CUTOUTS
10
-32.371200
20
-17.593250
11
-32.311900
21
-17.816900
0
LINE
8
CUTOUTS
10
-32.311900
20
-17.816900
11
-32.312200
21
-17.820000
0
LINE
8
CUTOUTS
10
-32.312200
20
-17.820000
11
-32.312200
21
-17.823100
0
LINE
8
CUTOUTS
10
-32.312200
20
-17.823100
11
-32.506613
21
-18.126925
0
LINE
8
CUTOUTS
10
-32.506613
20
-18.126925
11
-32.844200
21
-18.238000
0
LINE
8
CUTOUTS
10
-32.844200
20
-18.238000
11
-32.844700
21
-18.237900
0
LINE
8
CUTOUTS
10
-32.844700
20
-18.237900
11
-32.845100
21
-18.237700
0
LINE
8
CUTOUTS
10
-32.845100
20
-18.237700
11
-34.405300
21
-17.827800
0
LINE
8
CUTOUTS
10
-34.405300
20
-17.827800
11
-34.405500
21
-17.827800
0
LINE
8
CUTOUTS
10
-34.405500
20
-17.827800
11
-34.405700
21
-17.827700
0
LINE
8
CUTOUTS
10
-34.405700
20
-17.827700
11
-36.188400
21
-17.339300
0
LINE
8
CUTOUTS
10
-36.188400
20
-17.339300
11
-37.391800
21
-16.737900
0
LINE
8
CUTOUTS
10
-37.391800
20
-16.737900
11
-38.187188
21
-15.957012
0
LINE
8
CUTOUTS
10
-38.187188
20
-15.957012
11
-38.450045
21
-15.473920
0
LINE
8
CUTOUTS
10
-38.450045
20
-15.473920
11
-38.588900
21
-14.908600
0
LINE
8
CUTOUTS
10
-38.588900
20
-14.908600
11
-38.575150
21
-14.670175
0
LINE
8
CUTOUTS
10
-38.575150
20
-14.670175
11
-38.405100
21
-14.578300
0
LINE
8
CUTOUTS
10
-38.405100
20
-14.578300
11
-38.180700
21
-14.551900
0
LINE
8
CUTOUTS
10
-38.180700
20
-14.551900
11
-38.179000
21
-14.551700
0
LINE
8
CUTOUTS
10
-38.179000
20
-14.551700
11
-38.177300
21
-14.551300
0
LINE
8
CUTOUTS
10
-38.177300
20
-14.551300
11
-37.912262
21
-14.540100
0
LINE
8
CUTOUTS
10
-37.912262
20
-14.540100
11
-37.742100
21
-14.753600
0
LINE
8
CUTOUTS
10
-37.742100
20
-14.753600
11
-37.741700
21
-14.754300
0
LINE
8
CUTOUTS
10
-32.748000
20
-31.643400
11
-32.747900
21
-31.643800
0
LINE
8
CUTOUTS
10
-32.747900
20
-31.643800
11
-32.745000
21
-31.997100
0
LINE
8
CUTOUTS
10
-32.745000
20
-31.997100
11
-32.971600
21
-32.184500
0
LINE
8
CUTOUTS
10
-32.971600
20
-32.184500
11
-32.972000
21
-32.184700
0
LINE
8
CUTOUTS
10
-32.972000
20
-32.184700
11
-32.972500
21
-32.185000
0
LINE
8
CUTOUTS
10
-32.972500
20
-32.185000
11
-33.343137
21
-32.269375
0
LINE
8
CUTOUTS
10
-33.343137
20
-32.269375
11
-33.654600
21
-32.089600
0
LINE
8
CUTOUTS
10
-33.654600
20
-32.089600
11
-33.946700
21
-31.397700
0
LINE
8
CUTOUTS
10
-33.946700
20
-31.397700
11
-34.383800
21
-29.953600
0
LINE
8
CUTOUTS
10
-34.383800
20
-29.953600
11
-34.873200
21
-28.181200
0
LINE
8
CUTOUTS
10
-34.873200
20
-28.181200
11
-35.415700
21
-26.381600
0
LINE
8
CUTOUTS
10
-35.415800
20
-26.381300
11
-35.534600
21
-25.944700
0
LINE
8
CUTOUTS
10
-35.534500
20
-25.945800
11
-35.534600
21
-25.945800
0
LINE
8
CUTOUTS
10
-35.534600
20
-25.945800
11
-35.851700
21
-24.796400
0
LINE
8
CUTOUTS
10
-35.851700
20
-24.796400
11
-35.851700
21
-24.796200
0
LINE
8
CUTOUTS
10
-35.851700
20
-24.796200
11
-35.851800
21
-24.796000
0
LINE
8
CUTOUTS
10
-35.851800
20
-24.796000
11
-35.982700
21
-24.170000
0
LINE
8
CUTOUTS
10
-35.982700
20
-24.170000
11
-35.982700
21
-24.168700
0
LINE
8
CUTOUTS
10
-35.982700
20
-24.168700
11
-35.982900
21
-24.167300
0
LINE
8
CUTOUTS
10
-35.982900
20
-24.167300
11
-35.826400
21
-23.896625
0
LINE
8
CUTOUTS
10
-35.826400
20
-23.896625
11
-35.492900
21
-23.723300
0
LINE
8
CUTOUTS
10
-35.492900
20
-23.723300
11
-35.450500
21
-23.720400
0
LINE
8
CUTOUTS
10
-35.450500
20
-23.720400
11
-35.165400
21
-23.780387
0
LINE
8
CUTOUTS
10
-35.165400
20
-23.780387
11
-34.965500
21
-24.011300
0
LINE
8
CUTOUTS
10
-34.965500
20
-24.011300
11
-34.809600
21
-24.428100
0
LINE
8
CUTOUTS
10
-34.809600
20
-24.428100
11
-34.625700
21
-24.993000
0
LINE
8
CUTOUTS
10
-34.625700
20
-24.993000
11
-34.480300
21
-25.627200
0
LINE
8
CUTOUTS
10
-34.480300
20
-25.627200
11
-34.480200
21
-25.627800
0
LINE
8
CUTOUTS
10
-34.480200
20
-25.627800
11
-34.480100
21
-25.628300
0
LINE
8
CUTOUTS
10
-34.480100
20
-25.628300
11
-34.346800
21
-26.054900
0
LINE
8
CUTOUTS
10
-34.346800
20
-26.054900
11
-34.149600
21
-26.659100
0
LINE
8
CUTOUTS
10
-34.149600
20
-26.659100
11
-34.149400
21
-26.659800
0
LINE
8
CUTOUTS
10
-34.149400
20
-26.659800
11
-34.149300
21
-26.660500
0
LINE
8
CUTOUTS
10
-34.149300
20
-26.660500
11
-33.884800
21
-27.678600
0
LINE
8
CUTOUTS
10
-33.884800
20
-27.678600
11
-33.566800
21
-28.725400
0
LINE
8
CUTOUTS
10
-33.566800
20
-28.725400
11
-33.421300
21
-29.228100
0
LINE
8
CUTOUTS
10
-33.421300
20
-29.228100
11
-33.421000
21
-29.229200
0
LINE
8
CUTOUTS
10
-33.421000
20
-29.229200
11
-33.420600
21
-29.230300
0
LINE
8
CUTOUTS
10
-33.420600
20
-29.230300
11
-33.223100
21
-29.782800
0
LINE
8
CUTOUTS
10
-33.223100
20
-29.782800
11
-32.906100
21
-30.985000
0
LINE
8
CUTOUTS
10
-32.906100
20
-30.985000
11
-32.748000
21
-31.643100
0
LINE
8
CUTOUTS
10
-32.748000
20
-31.643100
11
-32.748000
21
-31.643400
0
LINE
8
CUTOUTS
10
-53.090700
20
-25.083000
11
-53.090600
21
-25.082900
0
LINE
8
CUTOUTS
10
-53.090600
20
-25.082900
11
-50.841300
21
-22.965900
0
LINE
8
CUTOUTS
10
-50.841300
20
-22.965900
11
-50.840800
21
-22.965400
0
LINE
8
CUTOUTS
10
-50.840800
20
-22.965400
11
-50.840300
21
-22.965000
0
LINE
8
CUTOUTS
10
-50.840300
20
-22.965000
11
-50.485000
21
-22.609600
0
LINE
8
CUTOUTS
10
-50.485000
20
-22.609600
11
-50.484100
21
-22.608700
0
LINE
8
CUTOUTS
10
-50.484100
20
-22.608700
11
-50.483100
21
-22.607800
0
LINE
8
CUTOUTS
10
-50.483100
20
-22.607800
11
-49.986100
21
-22.162900
0
LINE
8
CUTOUTS
10
-49.986100
20
-22.162900
11
-49.606387
21
-22.135850
0
LINE
8
CUTOUTS
10
-49.606387
20
-22.135850
11
-49.222100
21
-22.404300
0
LINE
8
CUTOUTS
10
-49.222100
20
-22.404300
11
-49.221700
21
-22.404700
0
LINE
8
CUTOUTS
10
-49.221700
20
-22.404700
11
-49.221400
21
-22.405200
0
LINE
8
CUTOUTS
10
-49.221400
20
-22.405200
11
-49.197312
21
-22.640525
0
LINE
8
CUTOUTS
10
-49.197312
20
-22.640525
11
-49.350000
21
-22.920700
0
LINE
8
CUTOUTS
10
-49.350000
20
-22.920700
11
-50.804400
21
-24.348600
0
LINE
8
CUTOUTS
10
-50.804400
20
-24.348600
11
-53.489100
21
-26.861500
0
LINE
8
CUTOUTS
10
-53.489100
20
-26.861500
11
-56.267500
21
-29.454600
0
LINE
8
CUTOUTS
10
-56.267500
20
-29.454600
11
-56.267600
21
-29.454700
0
LINE
8
CUTOUTS
10
-56.267600
20
-29.454700
11
-56.267700
21
-29.454800
0
LINE
8
CUTOUTS
10
-56.267700
20
-29.454800
11
-56.596488
21
-29.737262
0
LINE
8
CUTOUTS
10
-56.596488
20
-29.737262
11
-56.983400
21
-29.851500
0
LINE
8
CUTOUTS
10
-56.983400
20
-29.851500
11
-56.986800
21
-29.851200
0
LINE
8
CUTOUTS
10
-56.986800
20
-29.851200
11
-56.990300
21
-29.851400
0
LINE
8
CUTOUTS
10
-56.990300
20
-29.851400
11
-57.510900
21
-29.629300
0
LINE
8
CUTOUTS
10
-57.510900
20
-29.629300
11
-57.511000
21
-29.629100
0
LINE
8
CUTOUTS
10
-57.511000
20
-29.629100
11
-57.511100
21
-29.628900
0
LINE
8
CUTOUTS
10
-57.511100
20
-29.628900
11
-57.538562
21
-29.333313
0
LINE
8
CUTOUTS
10
-57.538562
20
-29.333313
11
-57.376800
21
-29.051600
0
LINE
8
CUTOUTS
10
-57.376800
20
-29.051600
11
-57.376800
21
-29.051600
0
LINE
8
CUTOUTS
10
-57.376900
20
-29.050900
11
-55.630700
21
-27.423700
0
LINE
8
CUTOUTS
10
-55.630700
20
-27.423700
11
-53.090700
21
-25.082200
0
LINE
8
CUTOUTS
10
-50.098700
20
-13.251700
11
-51.344800
21
-13.715700
0
LINE
8
CUTOUTS
10
-51.344800
20
-13.715700
11
-51.344800
21
-13.715700
0
LINE
8
CUTOUTS
10
-51.344800
20
-13.715700
11
-51.344800
21
-13.715700
0
LINE
8
CUTOUTS
10
-51.344800
20
-13.715700
11
-53.327300
21
-14.561600
0
LINE
8
CUTOUTS
10
-53.327300
20
-14.561600
11
-54.748400
21
-14.956300
0
LINE
8
CUTOUTS
10
-54.748400
20
-14.956300
11
-56.142300
21
-15.127300
0
LINE
8
CUTOUTS
10
-56.142300
20
-15.127300
11
-56.142500
21
-15.127300
0
LINE
8
CUTOUTS
10
-56.142500
20
-15.127300
11
-56.142600
21
-15.127300
0
LINE
8
CUTOUTS
10
-56.142600
20
-15.127300
11
-57.245000
21
-15.035200
0
LINE
8
CUTOUTS
10
-57.245000
20
-15.035200
11
-57.245400
21
-15.035200
0
LINE
8
CUTOUTS
10
-57.245400
20
-15.035200
11
-57.245700
21
-15.035100
0
LINE
8
CUTOUTS
10
-57.245700
20
-15.035100
11
-58.454800
21
-14.811900
0
LINE
8
CUTOUTS
10
-58.454800
20
-14.811900
11
-59.945700
21
-14.244400
0
LINE
8
CUTOUTS
10
-59.945700
20
-14.244400
11
-59.946100
21
-14.244300
0
LINE
8
CUTOUTS
10
-59.946100
20
-14.244300
11
-59.946500
21
-14.244200
0
LINE
8
CUTOUTS
10
-59.946500
20
-14.244200
11
-62.744500
21
-13.408600
0
LINE
8
CUTOUTS
10
-62.744500
20
-13.408600
11
-62.614300
21
-13.175400
0
LINE
8
CUTOUTS
10
-62.614300
20
-13.175400
11
-62.613800
21
-13.175000
0
LINE
8
CUTOUTS
10
-62.613800
20
-13.175000
11
-62.613400
21
-13.174500
0
LINE
8
CUTOUTS
10
-62.613400
20
-13.174500
11
-61.326388
21
-12.024062
0
LINE
8
CUTOUTS
10
-61.326388
20
-12.024062
11
-59.898900
21
-11.039900
0
LINE
8
CUTOUTS
10
-59.898900
20
-11.039900
11
-58.621800
21
-10.122000
0
LINE
8
CUTOUTS
10
-58.621800
20
-10.122000
11
-57.580175
21
-9.424898
0
LINE
8
CUTOUTS
10
-57.580175
20
-9.424898
11
-56.375800
21
-9.102120
0
LINE
8
CUTOUTS
10
-56.375800
20
-9.102120
11
-55.638200
21
-9.088990
0
LINE
8
CUTOUTS
10
-55.638200
20
-9.088990
11
-55.505900
21
-9.075760
0
LINE
8
CUTOUTS
10
-55.505900
20
-9.075760
11
-55.501700
21
-9.075760
0
LINE
8
CUTOUTS
10
-55.501700
20
-9.075760
11
-55.497600
21
-9.075080
0
LINE
8
CUTOUTS
10
-55.497600
20
-9.075080
11
-55.040000
21
-8.996320
0
LINE
8
CUTOUTS
10
-55.040000
20
-8.996320
11
-52.555000
21
-8.930240
0
LINE
8
CUTOUTS
10
-52.555000
20
-8.930240
11
-51.823400
21
-8.890330
0
LINE
8
CUTOUTS
10
-51.823400
20
-8.890320
11
-50.160100
21
-8.718550
0
LINE
8
CUTOUTS
10
-50.160100
20
-8.718550
11
-50.159700
21
-8.718550
0
LINE
8
CUTOUTS
10
-50.159700
20
-8.718550
11
-50.159400
21
-8.718530
0
LINE
8
CUTOUTS
10
-50.159400
20
-8.718530
11
-48.113700
21
-8.758170
0
LINE
8
CUTOUTS
10
-48.113700
20
-8.758170
11
-46.862500
21
-8.916280
0
LINE
8
CUTOUTS
10
-46.862500
20
-8.916280
11
-45.730000
21
-9.192900
0
LINE
8
CUTOUTS
10
-45.730000
20
-9.192900
11
-45.729200
21
-9.193120
0
LINE
8
CUTOUTS
10
-45.729200
20
-9.193120
11
-45.728400
21
-9.193330
0
LINE
8
CUTOUTS
10
-45.728400
20
-9.193330
11
-44.647300
21
-9.509750
0
LINE
8
CUTOUTS
10
-44.647300
20
-9.509750
11
-43.246800
21
-9.998610
0
LINE
8
CUTOUTS
10
-43.246800
20
-9.998610
11
-43.079400
21
-10.105100
0
LINE
8
CUTOUTS
10
-43.079400
20
-10.105100
11
-43.098200
21
-10.148000
0
LINE
8
CUTOUTS
10
-43.098200
20
-10.148000
11
-43.098700
21
-10.148700
0
LINE
8
CUTOUTS
10
-43.098700
20
-10.148700
11
-43.099100
21
-10.149300
0
LINE
8
CUTOUTS
10
-43.099100
20
-10.149300
11
-43.305075
21
-10.708638
0
LINE
8
CUTOUTS
10
-43.305075
20
-10.708638
11
-43.345300
21
-11.286200
0
LINE
8
CUTOUTS
10
-43.345300
20
-11.286200
11
-43.345400
21
-11.287100
0
LINE
8
CUTOUTS
10
-43.345400
20
-11.287100
11
-43.345400
21
-11.287900
0
LINE
8
CUTOUTS
10
-43.345400
20
-11.287900
11
-43.396650
21
-11.472313
0
LINE
8
CUTOUTS
10
-43.396650
20
-11.472313
11
-43.546600
21
-11.557200
0
LINE
8
CUTOUTS
10
-43.546600
20
-11.557200
11
-43.547400
21
-11.557400
0
LINE
8
CUTOUTS
10
-43.547400
20
-11.557400
11
-43.548200
21
-11.557600
0
LINE
8
CUTOUTS
10
-43.548200
20
-11.557600
11
-44.062800
21
-11.689500
0
LINE
8
CUTOUTS
10
-44.062800
20
-11.689500
11
-45.503200
21
-12.059600
0
LINE
8
CUTOUTS
10
-45.503200
20
-12.059600
11
-45.503700
21
-12.059700
0
LINE
8
CUTOUTS
10
-45.503700
20
-12.059700
11
-45.504200
21
-12.059800
0
LINE
8
CUTOUTS
10
-45.504200
20
-12.059800
11
-46.852800
21
-12.390300
0
LINE
8
CUTOUTS
10
-46.852800
20
-12.390300
11
-47.898400
21
-12.655100
0
LINE
8
CUTOUTS
10
-47.898400
20
-12.655100
11
-48.970000
21
-12.906400
0
LINE
8
CUTOUTS
10
-48.970000
20
-12.906400
11
-48.970600
21
-12.906600
0
LINE
8
CUTOUTS
10
-48.970600
20
-12.906600
11
-48.971200
21
-12.906700
0
LINE
8
CUTOUTS
10
-48.971200
20
-12.906700
11
-50.098700
21
-13.251700
0
LINE
8
CUTOUTS
10
-39.167900
20
-7.785140
11
-40.993700
21
-7.914000
0
LINE
8
CUTOUTS
10
-40.993700
20
-7.914000
11
-41.279100
21
-6.648810
0
LINE
8
CUTOUTS
10
-41.279100
20
-6.648810
11
-40.964900
21
-6.533390
0
LINE
8
CUTOUTS
10
-40.964900
20
-6.533390
11
-40.129300
21
-6.323920
0
LINE
8
CUTOUTS
10
-40.129300
20
-6.323920
11
-38.742000
21
-6.310810
0
LINE
8
CUTOUTS
10
-38.742000
20
-6.310810
11
-37.990738
21
-6.389736
0
LINE
8
CUTOUTS
10
-37.990738
20
-6.389736
11
-37.244200
21
-6.548380
0
LINE
8
CUTOUTS
10
-37.244200
20
-6.548380
11
-37.061700
21
-6.646580
0
LINE
8
CUTOUTS
10
-37.061700
20
-6.646580
11
-37.111000
21
-6.824830
0
LINE
8
CUTOUTS
10
-37.111000
20
-6.824830
11
-37.111200
21
-6.825340
0
LINE
8
CUTOUTS
10
-37.111200
20
-6.825340
11
-37.111400
21
-6.825860
0
LINE
8
CUTOUTS
10
-37.111400
20
-6.825860
11
-37.390600
21
-7.716680
0
LINE
8
CUTOUTS
10
-37.390600
20
-7.716680
11
-37.390700
21
-7.716930
0
LINE
8
CUTOUTS
10
-37.390700
20
-7.716930
11
-37.390800
21
-7.717180
0
LINE
8
CUTOUTS
10
-37.390800
20
-7.717180
11
-37.494962
21
-7.941486
0
LINE
8
CUTOUTS
10
-37.494962
20
-7.941486
11
-37.744400
21
-7.944520
0
LINE
8
CUTOUTS
10
-37.744400
20
-7.944520
11
-39.167900
21
-7.785140
0
LINE
8
CUTOUTS
10
-57.246100
20
-7.944410
11
-58.038450
21
-8.145469
0
LINE
8
CUTOUTS
10
-58.038450
20
-8.145469
11
-58.760900
21
-8.507530
0
LINE
8
CUTOUTS
10
-58.760900
20
-8.507530
11
-58.761100
21
-8.507630
0
LINE
8
CUTOUTS
10
-58.761100
20
-8.507630
11
-58.761200
21
-8.507720
0
LINE
8
CUTOUTS
10
-58.761200
20
-8.507720
11
-60.072300
21
-9.514080
0
LINE
8
CUTOUTS
10
-60.072300
20
-9.514070
11
-61.285100
21
-10.238900
0
LINE
8
CUTOUTS
10
-61.285100
20
-10.238900
11
-61.898500
21
-10.581500
0
LINE
8
CUTOUTS
10
-61.898400
20
-10.580400
11
-61.898400
21
4.204510
0
LINE
8
CUTOUTS
10
-61.898500
20
4.203390
11
-61.885300
21
4.822040
0
LINE
8
CUTOUTS
10
-61.885300
20
4.822040
11
-61.885200
21
4.823600
0
LINE
8
CUTOUTS
10
-61.885200
20
4.823600
11
-61.885200
21
4.825160
0
LINE
8
CUTOUTS
10
-61.885200
20
4.825160
11
-61.830500
21
4.948630
0
LINE
8
CUTOUTS
10
-61.830500
20
4.948630
11
-61.826600
21
4.949600
0
LINE
8
CUTOUTS
10
-61.826600
20
4.949600
11
-61.822900
21
4.951180
0
LINE
8
CUTOUTS
10
-61.822900
20
4.951180
11
-61.273300
21
5.147500
0
LINE
8
CUTOUTS
10
-61.273300
20
5.147500
11
-61.272500
21
5.147720
0
LINE
8
CUTOUTS
10
-61.272500
20
5.147720
11
-61.271700
21
5.147970
0
LINE
8
CUTOUTS
10
-61.271700
20
5.147970
11
-59.180400
21
5.823010
0
LINE
8
CUTOUTS
10
-59.180400
20
5.823010
11
-57.620000
21
6.352000
0
LINE
8
CUTOUTS
10
-57.620000
20
6.352000
11
-55.940400
21
6.880970
0
LINE
8
CUTOUTS
10
-55.940400
20
6.880980
11
-53.982200
21
7.542520
0
LINE
8
CUTOUTS
10
-53.982200
20
7.542520
11
-53.982000
21
7.542610
0
LINE
8
CUTOUTS
10
-53.982000
20
7.542610
11
-53.981700
21
7.542700
0
LINE
8
CUTOUTS
10
-53.981700
20
7.542700
11
-51.746700
21
8.256830
0
LINE
8
CUTOUTS
10
-51.746700
20
8.256830
11
-51.746500
21
8.256910
0
LINE
8
CUTOUTS
10
-51.746500
20
8.256910
11
-51.746200
21
8.256990
0
LINE
8
CUTOUTS
10
-51.746200
20
8.256990
11
-49.245900
21
9.116890
0
LINE
8
CUTOUTS
10
-49.245900
20
9.116890
11
-46.362400
21
10.056000
0
LINE
8
CUTOUTS
10
-46.362400
20
10.056000
11
-43.769500
21
10.915900
0
LINE
8
CUTOUTS
10
-43.769500
20
10.915900
11
-41.190000
21
11.749300
0
LINE
8
CUTOUTS
10
-41.190000
20
11.749300
11
-39.577100
21
12.304600
0
LINE
8
CUTOUTS
10
-39.577100
20
12.304600
11
-39.152500
21
12.343500
0
LINE
8
CUTOUTS
10
-39.152500
20
12.343500
11
-37.781000
21
11.921300
0
LINE
8
CUTOUTS
10
-37.781000
20
11.921300
11
-37.780900
21
11.921300
0
LINE
8
CUTOUTS
10
-37.780900
20
11.922400
11
-36.788900
21
11.604900
0
LINE
8
CUTOUTS
10
-36.788900
20
11.604900
11
-35.359900
21
11.128700
0
LINE
8
CUTOUTS
10
-35.359900
20
11.127500
11
-35.359300
21
11.127400
0
LINE
8
CUTOUTS
10
-35.359300
20
11.127400
11
-34.329100
21
10.797200
0
LINE
8
CUTOUTS
10
-34.329100
20
10.797200
11
-34.328600
21
10.797000
0
LINE
8
CUTOUTS
10
-34.328600
20
10.797000
11
-34.328100
21
10.796800
0
LINE
8
CUTOUTS
10
-34.328100
20
10.796800
11
-33.230100
21
10.426400
0
LINE
8
CUTOUTS
10
-33.230100
20
10.426400
11
-31.894400
21
10.003200
0
LINE
8
CUTOUTS
10
-31.894400
20
10.003200
11
-30.359800
21
9.460840
0
LINE
8
CUTOUTS
10
-30.359800
20
9.460840
11
-30.359700
21
9.460790
0
LINE
8
CUTOUTS
10
-30.359700
20
9.460790
11
-30.359500
21
9.460750
0
LINE
8
CUTOUTS
10
-30.359500
20
9.460750
11
-28.388400
21
8.838970
0
LINE
8
CUTOUTS
10
-28.388400
20
8.838970
11
-26.986400
21
8.349590
0
LINE
8
CUTOUTS
10
-26.986400
20
8.349590
11
-26.986200
21
8.349530
0
LINE
8
CUTOUTS
10
-26.986100
20
8.350530
11
-25.398700
21
7.834590
0
LINE
8
CUTOUTS
10
-25.398700
20
7.834590
11
-23.969900
21
7.358340
0
LINE
8
CUTOUTS
10
-23.969900
20
7.357330
11
-23.969700
21
7.357270
0
LINE
8
CUTOUTS
10
-23.969700
20
7.357270
11
-22.607100
21
6.907480
0
LINE
8
CUTOUTS
10
-22.607100
20
6.907480
11
-21.125900
21
6.418130
0
LINE
8
CUTOUTS
10
-21.125900
20
6.418130
11
-19.935300
21
6.047720
0
LINE
8
CUTOUTS
10
-19.935300
20
6.047720
11
-19.935000
21
6.047620
0
LINE
8
CUTOUTS
10
-19.935000
20
6.047620
11
-19.934700
21
6.047530
0
LINE
8
CUTOUTS
10
-19.934700
20
6.047530
11
-17.963600
21
5.386070
0
LINE
8
CUTOUTS
10
-17.963600
20
5.386070
11
-17.963300
21
5.385990
0
LINE
8
CUTOUTS
10
-17.963300
20
5.385990
11
-17.963000
21
5.385910
0
LINE
8
CUTOUTS
10
-17.963000
20
5.385910
11
-16.932800
21
5.068950
0
LINE
8
CUTOUTS
10
-16.932800
20
5.068950
11
-16.730975
21
4.953333
0
LINE
8
CUTOUTS
10
-16.730975
20
4.953333
11
-16.662200
21
4.719320
0
LINE
8
CUTOUTS
10
-16.662200
20
4.720450
11
-16.662200
21
-10.514200
0
LINE
8
CUTOUTS
10
-16.662200
20
-10.513300
11
-17.472800
21
-10.094100
0
LINE
8
CUTOUTS
10
-17.472800
20
-10.094100
11
-17.473100
21
-10.093900
0
LINE
8
CUTOUTS
10
-17.473100
20
-10.093900
11
-17.473500
21
-10.093700
0
LINE
8
CUTOUTS
10
-17.473500
20
-10.093700
11
-18.195800
21
-9.660730
0
LINE
8
CUTOUTS
10
-18.195800
20
-9.660730
11
-18.195900
21
-9.660650
0
LINE
8
CUTOUTS
10
-18.195900
20
-9.660650
11
-18.196000
21
-9.660580
0
LINE
8
CUTOUTS
10
-18.196000
20
-9.660580
11
-19.666800
21
-8.521130
0
LINE
8
CUTOUTS
10
-19.666800
20
-8.521140
11
-20.765600
21
-8.091330
0
LINE
8
CUTOUTS
10
-20.765600
20
-8.091330
11
-20.765900
21
-8.091250
0
LINE
8
CUTOUTS
10
-20.765900
20
-8.091250
11
-20.766200
21
-8.091170
0
LINE
8
CUTOUTS
10
-20.766200
20
-8.091170
11
-22.093600
21
-7.799130
0
LINE
8
CUTOUTS
10
-22.093600
20
-7.799130
11
-22.094200
21
-7.799020
0
LINE
8
CUTOUTS
10
-22.094200
20
-7.799020
11
-22.094800
21
-7.798930
0
LINE
8
CUTOUTS
10
-22.094800
20
-7.798930
11
-23.431400
21
-7.666560
0
LINE
8
CUTOUTS
10
-23.431400
20
-7.666560
11
-23.645300
21
-7.597660
0
LINE
8
CUTOUTS
10
-23.645300
20
-7.597660
11
-23.645900
21
-7.597170
0
LINE
8
CUTOUTS
10
-23.645900
20
-7.597170
11
-23.646500
21
-7.596700
0
LINE
8
CUTOUTS
10
-23.646500
20
-7.596700
11
-23.761300
21
-7.435560
0
LINE
8
CUTOUTS
10
-23.761300
20
-7.435560
11
-24.039200
21
-6.390580
0
LINE
8
CUTOUTS
10
-24.039200
20
-6.390580
11
-24.478800
21
-5.351450
0
LINE
8
CUTOUTS
10
-24.478800
20
-5.351450
11
-24.479200
21
-5.350780
0
LINE
8
CUTOUTS
10
-24.479200
20
-5.350780
11
-24.479600
21
-5.350120
0
LINE
8
CUTOUTS
10
-24.479600
20
-5.350120
11
-25.303300
21
-4.048270
0
LINE
8
CUTOUTS
10
-25.303300
20
-4.048270
11
-25.303400
21
-4.048030
0
LINE
8
CUTOUTS
10
-25.303400
20
-4.048030
11
-25.303600
21
-4.047800
0
LINE
8
CUTOUTS
10
-25.303600
20
-4.047800
11
-26.208400
21
-3.155570
0
LINE
8
CUTOUTS
10
-26.208400
20
-3.155570
11
-26.208600
21
-3.155430
0
LINE
8
CUTOUTS
10
-26.208600
20
-3.155430
11
-26.208700
21
-3.155300
0
LINE
8
CUTOUTS
10
-26.208700
20
-3.155300
11
-26.950300
21
-2.601235
0
LINE
8
CUTOUTS
10
-26.950300
20
-2.601235
11
-27.801400
21
-2.218230
0
LINE
8
CUTOUTS
10
-27.801400
20
-2.218230
11
-27.801700
21
-2.218150
0
LINE
8
CUTOUTS
10
-27.801700
20
-2.218150
11
-27.801900
21
-2.218080
0
LINE
8
CUTOUTS
10
-27.801900
20
-2.218080
11
-29.051600
21
-1.899020
0
LINE
8
CUTOUTS
10
-29.051600
20
-1.899020
11
-30.314400
21
-1.726280
0
LINE
8
CUTOUTS
10
-30.314400
20
-1.726280
11
-30.314700
21
-1.726270
0
LINE
8
CUTOUTS
10
-30.314700
20
-1.726270
11
-30.314900
21
-1.726260
0
LINE
8
CUTOUTS
10
-30.314900
20
-1.726260
11
-31.095200
21
-1.819860
0
LINE
8
CUTOUTS
10
-31.095200
20
-1.819860
11
-32.426200
21
-2.153020
0
LINE
8
CUTOUTS
10
-32.426200
20
-2.153030
11
-33.345775
21
-2.626954
0
LINE
8
CUTOUTS
10
-33.345775
20
-2.626954
11
-34.174000
21
-3.260170
0
LINE
8
CUTOUTS
10
-34.174000
20
-3.260170
11
-35.210200
21
-4.196830
0
LINE
8
CUTOUTS
10
-35.210200
20
-4.196830
11
-35.215300
21
-4.171070
0
LINE
8
CUTOUTS
10
-35.215300
20
-4.171070
11
-35.265062
21
-2.309266
0
LINE
8
CUTOUTS
10
-35.265062
20
-2.309266
11
-35.533900
21
-0.455989
0
LINE
8
CUTOUTS
10
-35.533900
20
-0.455989
11
-35.533900
21
-0.455885
0
LINE
8
CUTOUTS
10
-35.533900
20
-0.455885
11
-35.533900
21
-0.455781
0
LINE
8
CUTOUTS
10
-35.533900
20
-0.455781
11
-35.999100
21
1.125720
0
LINE
8
CUTOUTS
10
-35.999100
20
1.125720
11
-35.999200
21
1.126030
0
LINE
8
CUTOUTS
10
-35.999200
20
1.126030
11
-35.999400
21
1.126340
0
LINE
8
CUTOUTS
10
-35.999400
20
1.126340
11
-36.370838
21
2.018710
0
LINE
8
CUTOUTS
10
-36.370838
20
2.018710
11
-36.866100
21
2.858040
0
LINE
8
CUTOUTS
10
-36.866100
20
2.858040
11
-37.666663
21
3.816587
0
LINE
8
CUTOUTS
10
-37.666663
20
3.816587
11
-38.149092
21
4.212810
0
LINE
8
CUTOUTS
10
-38.149092
20
4.212810
11
-38.728000
21
4.501940
0
LINE
8
CUTOUTS
10
-38.728000
20
4.501940
11
-38.728100
21
4.501950
0
LINE
8
CUTOUTS
10
-38.728100
20
4.501950
11
-38.728100
21
4.501960
0
LINE
8
CUTOUTS
10
-38.728100
20
4.501960
11
-39.200012
21
4.590501
0
LINE
8
CUTOUTS
10
-39.200012
20
4.590501
11
-39.673800
21
4.515190
0
LINE
8
CUTOUTS
10
-39.673800
20
4.515200
11
-40.433650
21
4.100844
0
LINE
8
CUTOUTS
10
-40.433650
20
4.100844
11
-41.057000
21
3.509360
0
LINE
8
CUTOUTS
10
-41.057000
20
3.509360
11
-41.057000
21
3.509320
0
LINE
8
CUTOUTS
10
-41.057000
20
3.509320
11
-41.057100
21
3.509280
0
LINE
8
CUTOUTS
10
-41.057100
20
3.509280
11
-41.725050
21
2.639725
0
LINE
8
CUTOUTS
10
-41.725050
20
2.639725
11
-42.243300
21
1.669970
0
LINE
8
CUTOUTS
10
-42.243300
20
1.669970
11
-42.611863
21
0.738579
0
LINE
8
CUTOUTS
10
-42.611863
20
0.738579
11
-42.842200
21
-0.248226
0
LINE
8
CUTOUTS
10
-42.842200
20
-0.248227
11
-42.960600
21
-0.826295
0
LINE
8
CUTOUTS
10
-42.960600
20
-0.826295
11
-43.173200
21
-1.732170
0
LINE
8
CUTOUTS
10
-43.173200
20
-1.732170
11
-43.173200
21
-1.732300
0
LINE
8
CUTOUTS
10
-43.173200
20
-1.732300
11
-43.173200
21
-1.732430
0
LINE
8
CUTOUTS
10
-43.173200
20
-1.732430
11
-43.266000
21
-3.693390
0
LINE
8
CUTOUTS
10
-43.266000
20
-3.693390
11
-43.266000
21
-3.693900
0
LINE
8
CUTOUTS
10
-43.266000
20
-3.693900
11
-43.266000
21
-3.694410
0
LINE
8
CUTOUTS
10
-43.266000
20
-3.694410
11
-43.220100
21
-4.309380
0
LINE
8
CUTOUTS
10
-43.220100
20
-4.309380
11
-43.418800
21
-4.148540
0
LINE
8
CUTOUTS
10
-43.418800
20
-4.148540
11
-44.054600
21
-3.499460
0
LINE
8
CUTOUTS
10
-44.054600
20
-3.499460
11
-44.934500
21
-2.726770
0
LINE
8
CUTOUTS
10
-44.934500
20
-2.726770
11
-44.934800
21
-2.726560
0
LINE
8
CUTOUTS
10
-44.934800
20
-2.726560
11
-44.935100
21
-2.726340
0
LINE
8
CUTOUTS
10
-44.935100
20
-2.726340
11
-45.863775
21
-2.190464
0
LINE
8
CUTOUTS
10
-45.863775
20
-2.190464
11
-46.900600
21
-1.872110
0
LINE
8
CUTOUTS
10
-46.900600
20
-1.872110
11
-48.110800
21
-1.699730
0
LINE
8
CUTOUTS
10
-48.110800
20
-1.699730
11
-49.509600
21
-1.885910
0
LINE
8
CUTOUTS
10
-49.509600
20
-1.885910
11
-49.509900
21
-1.885960
0
LINE
8
CUTOUTS
10
-49.509900
20
-1.885960
11
-49.510200
21
-1.886020
0
LINE
8
CUTOUTS
10
-49.510200
20
-1.886020
11
-50.815600
21
-2.232790
0
LINE
8
CUTOUTS
10
-50.815600
20
-2.232790
11
-51.694222
21
-2.688596
0
LINE
8
CUTOUTS
10
-51.694222
20
-2.688596
11
-52.472700
21
-3.268084
0
LINE
8
CUTOUTS
10
-52.472700
20
-3.268084
11
-53.748500
21
-4.751690
0
LINE
8
CUTOUTS
10
-53.748500
20
-4.751690
11
-54.235475
21
-5.673656
0
LINE
8
CUTOUTS
10
-54.235475
20
-5.673656
11
-54.600500
21
-6.640930
0
LINE
8
CUTOUTS
10
-54.600500
20
-6.640930
11
-54.735700
21
-7.238800
0
LINE
8
CUTOUTS
10
-54.735700
20
-7.238800
11
-54.815275
21
-7.561464
0
LINE
8
CUTOUTS
10
-54.815275
20
-7.561464
11
-55.124200
21
-7.652880
0
LINE
8
CUTOUTS
10
-55.124200
20
-7.652880
11
-55.124900
21
-7.652910
0
LINE
8
CUTOUTS
10
-55.124900
20
-7.652910
11
-55.125500
21
-7.652960
0
LINE
8
CUTOUTS
10
-55.125500
20
-7.652960
11
-55.726200
21
-7.680050
0
LINE
8
CUTOUTS
10
-55.726200
20
-7.680050
11
-57.246100
21
-7.944410
0
LINE
8
CUTOUTS
10
-41.446300
20
-4.749810
11
-41.474000
21
-4.040150
0
LINE
8
CUTOUTS
10
-41.474000
20
-4.040150
11
-41.474200
21
-4.039180
0
LINE
8
CUTOUTS
10
-41.474200
20
-4.039180
11
-41.474500
21
-4.038220
0
LINE
8
CUTOUTS
10
-41.474500
20
-4.038220
11
-41.477488
21
-3.838757
0
LINE
8
CUTOUTS
10
-41.477488
20
-3.838757
11
-41.321400
21
-3.775300
0
LINE
8
CUTOUTS
10
-41.321400
20
-3.775300
11
-41.290700
21
-3.770370
0
LINE
8
CUTOUTS
10
-41.290700
20
-3.770370
11
-41.289900
21
-3.770250
0
LINE
8
CUTOUTS
10
-41.289900
20
-3.770250
11
-41.289100
21
-3.770110
0
LINE
8
CUTOUTS
10
-41.289100
20
-3.770110
11
-40.601200
21
-3.637820
0
LINE
8
CUTOUTS
10
-40.601200
20
-3.637820
11
-39.231100
21
-3.421170
0
LINE
8
CUTOUTS
10
-39.231000
20
-3.420770
11
-39.231000
21
-3.436640
0
LINE
8
CUTOUTS
10
-39.231100
20
-3.436440
11
-39.184900
21
-3.440000
0
LINE
8
CUTOUTS
10
-39.184900
20
-3.440000
11
-38.686500
21
-3.465940
0
LINE
8
CUTOUTS
10
-38.686500
20
-3.465940
11
-37.112700
21
-3.743660
0
LINE
8
CUTOUTS
10
-37.112700
20
-3.743660
11
-37.110700
21
-3.744020
0
LINE
8
CUTOUTS
10
-37.110700
20
-3.744020
11
-37.108600
21
-3.744210
0
LINE
8
CUTOUTS
10
-37.108600
20
-3.744210
11
-36.886512
21
-3.785546
0
LINE
8
CUTOUTS
10
-36.886512
20
-3.785546
11
-36.831300
21
-3.930000
0
LINE
8
CUTOUTS
10
-36.831300
20
-3.930000
11
-36.836300
21
-4.072590
0
LINE
8
CUTOUTS
10
-36.836300
20
-4.072590
11
-36.928700
21
-4.652720
0
LINE
8
CUTOUTS
10
-36.928700
20
-4.652720
11
-37.020900
21
-5.456940
0
LINE
8
CUTOUTS
10
-37.020900
20
-5.456940
11
-37.092600
21
-5.549090
0
LINE
8
CUTOUTS
10
-37.092600
20
-5.549090
11
-37.558900
21
-5.483950
0
LINE
8
CUTOUTS
10
-37.558900
20
-5.483950
11
-37.559100
21
-5.483920
0
LINE
8
CUTOUTS
10
-37.559100
20
-5.483920
11
-37.559200
21
-5.483890
0
LINE
8
CUTOUTS
10
-37.559200
20
-5.483890
11
-38.544100
21
-5.324560
0
LINE
8
CUTOUTS
10
-38.544100
20
-5.324550
11
-39.935900
21
-5.324520
0
LINE
8
CUTOUTS
10
-39.935900
20
-5.324520
11
-40.194100
21
-5.338320
0
LINE
8
CUTOUTS
10
-40.194100
20
-5.338330
11
-41.241700
21
-5.523960
0
LINE
8
CUTOUTS
10
-41.241700
20
-5.523960
11
-41.393600
21
-5.408680
0
LINE
8
CUTOUTS
10
-41.393600
20
-5.408680
11
-41.393600
21
-5.408520
0
LINE
8
CUTOUTS
10
-41.393600
20
-5.408520
11
-41.393600
21
-5.408360
0
LINE
8
CUTOUTS
10
-41.393600
20
-5.408360
11
-41.446300
21
-4.749810
0
LINE
8
CUTOUTS
10
-47.443200
20
-7.110800
11
-47.954500
21
-7.023950
0
LINE
8
CUTOUTS
10
-47.954500
20
-7.023950
11
-48.350012
21
-6.606000
0
LINE
8
CUTOUTS
10
-48.350012
20
-6.606000
11
-48.277900
21
-6.045400
0
LINE
8
CUTOUTS
10
-48.277900
20
-6.045400
11
-47.696700
21
-5.678930
0
LINE
8
CUTOUTS
10
-47.696700
20
-5.678930
11
-47.464000
21
-5.647200
0
LINE
8
CUTOUTS
10
-47.464000
20
-5.647200
11
-47.463500
21
-5.647350
0
LINE
8
CUTOUTS
10
-47.463500
20
-5.647350
11
-47.463100
21
-5.647490
0
LINE
8
CUTOUTS
10
-47.463100
20
-5.647490
11
-46.745400
21
-6.043200
0
LINE
8
CUTOUTS
10
-46.745400
20
-6.043200
11
-46.637300
21
-6.490260
0
LINE
8
CUTOUTS
10
-46.637300
20
-6.490260
11
-46.666700
21
-6.585130
0
LINE
8
CUTOUTS
10
-46.666700
20
-6.585130
11
-46.667500
21
-6.585960
0
LINE
8
CUTOUTS
10
-46.667500
20
-6.585960
11
-46.668200
21
-6.586820
0
LINE
8
CUTOUTS
10
-46.668200
20
-6.586820
11
-46.987600
21
-6.963106
0
LINE
8
CUTOUTS
10
-46.987600
20
-6.963106
11
-47.443200
21
-7.110800
0
LINE
8
CUTOUTS
10
-64.025600
20
-26.523800
11
-64.161100
21
-26.190600
0
LINE
8
CUTOUTS
10
-64.161100
20
-26.190600
11
-64.028513
21
-25.895638
0
LINE
8
CUTOUTS
10
-64.028513
20
-25.895638
11
-63.753800
21
-25.700500
0
LINE
8
CUTOUTS
10
-63.753800
20
-25.700500
11
-63.753600
21
-25.700400
0
LINE
8
CUTOUTS
10
-63.753600
20
-25.700400
11
-63.753500
21
-25.700400
0
LINE
8
CUTOUTS
10
-63.753500
20
-25.700400
11
-62.523200
21
-25.131500
0
LINE
8
CUTOUTS
10
-62.523200
20
-25.131500
11
-62.523100
21
-25.131500
0
LINE
8
CUTOUTS
10
-62.523100
20
-25.131500
11
-62.523000
21
-25.131400
0
LINE
8
CUTOUTS
10
-62.523000
20
-25.131400
11
-60.247000
21
-24.086000
0
LINE
8
CUTOUTS
10
-60.246900
20
-24.087300
11
-57.310300
21
-22.698300
0
LINE
8
CUTOUTS
10
-57.310200
20
-22.697000
11
-55.300100
21
-21.731600
0
LINE
8
CUTOUTS
10
-55.300100
20
-21.731600
11
-55.300000
21
-21.731600
0
LINE
8
CUTOUTS
10
-55.300000
20
-21.731600
11
-55.300000
21
-21.731600
0
LINE
8
CUTOUTS
10
-55.300000
20
-21.731600
11
-54.397700
21
-21.417500
0
LINE
8
CUTOUTS
10
-54.397700
20
-21.417500
11
-54.396900
21
-21.417400
0
LINE
8
CUTOUTS
10
-54.396900
20
-21.417400
11
-54.396200
21
-21.417200
0
LINE
8
CUTOUTS
10
-54.396200
20
-21.417200
11
-53.996288
21
-21.488762
0
LINE
8
CUTOUTS
10
-53.996288
20
-21.488762
11
-53.822800
21
-21.712500
0
LINE
8
CUTOUTS
10
-53.822800
20
-21.712500
11
-53.822800
21
-21.714200
0
LINE
8
CUTOUTS
10
-53.822800
20
-21.714200
11
-53.822700
21
-21.716000
0
LINE
8
CUTOUTS
10
-53.822700
20
-21.716000
11
-53.925538
21
-22.092937
0
LINE
8
CUTOUTS
10
-53.925538
20
-22.092937
11
-54.205300
21
-22.276300
0
LINE
8
CUTOUTS
10
-54.205300
20
-22.276300
11
-56.638600
21
-23.440100
0
LINE
8
CUTOUTS
10
-56.638600
20
-23.440100
11
-56.638600
21
-23.440100
0
LINE
8
CUTOUTS
10
-56.638600
20
-23.440100
11
-56.638700
21
-23.440100
0
LINE
8
CUTOUTS
10
-56.638700
20
-23.440100
11
-59.311000
21
-24.710100
0
LINE
8
CUTOUTS
10
-59.311000
20
-24.710100
11
-62.286100
21
-26.072100
0
LINE
8
CUTOUTS
10
-62.286100
20
-26.072100
11
-63.647900
21
-26.653800
0
LINE
8
CUTOUTS
10
-63.647900
20
-26.653800
11
-63.866038
21
-26.662150
0
LINE
8
CUTOUTS
10
-63.866038
20
-26.662150
11
-64.025600
21
-26.523800
0
LINE
8
CUTOUTS
10
-38.635800
20
-25.297600
11
-38.622600
21
-31.237500
0
LINE
8
CUTOUTS
10
-38.622600
20
-31.237500
11
-38.569400
21
-33.253300
0
LINE
8
CUTOUTS
10
-38.569400
20
-33.253300
11
-38.569400
21
-33.253600
0
LINE
8
CUTOUTS
10
-38.569400
20
-33.253600
11
-38.569300
21
-33.253900
0
LINE
8
CUTOUTS
10
-38.569300
20
-33.253900
11
-38.746138
21
-33.855625
0
LINE
8
CUTOUTS
10
-38.746138
20
-33.855625
11
-39.000020
21
-34.027338
0
LINE
8
CUTOUTS
10
-39.000020
20
-34.027338
11
-39.343500
21
-34.045900
0
LINE
8
CUTOUTS
10
-39.343500
20
-34.045900
11
-39.344200
21
-34.045800
0
LINE
8
CUTOUTS
10
-39.344200
20
-34.045800
11
-39.344900
21
-34.045700
0
LINE
8
CUTOUTS
10
-39.344900
20
-34.045700
11
-39.702500
21
-33.724600
0
LINE
8
CUTOUTS
10
-39.702500
20
-33.724600
11
-39.713200
21
-33.671700
0
LINE
8
CUTOUTS
10
-39.713100
20
-33.670500
11
-39.713100
21
-24.648300
0
LINE
8
CUTOUTS
10
-39.713200
20
-24.649400
11
-39.599338
21
-24.209763
0
LINE
8
CUTOUTS
10
-39.599338
20
-24.209763
11
-39.197700
21
-24.010500
0
LINE
8
CUTOUTS
10
-39.197700
20
-24.010500
11
-39.197500
21
-24.010500
0
LINE
8
CUTOUTS
10
-39.197500
20
-24.010500
11
-39.197300
21
-24.010400
0
LINE
8
CUTOUTS
10
-39.197300
20
-24.010400
11
-38.855475
21
-24.083350
0
LINE
8
CUTOUTS
10
-38.855475
20
-24.083350
11
-38.662000
21
-24.350400
0
LINE
8
CUTOUTS
10
-38.662000
20
-24.350400
11
-38.661900
21
-24.350800
0
LINE
8
CUTOUTS
10
-38.661900
20
-24.350800
11
-38.661900
21
-24.351300
0
LINE
8
CUTOUTS
10
-38.661900
20
-24.351300
11
-38.635800
21
-25.297600
0
LINE
8
CUTOUTS
10
-14.476300
20
-25.766600
11
-14.475500
21
-25.766900
0
LINE
8
CUTOUTS
10
-14.475500
20
-25.766900
11
-14.179900
21
-26.200600
0
LINE
8
CUTOUTS
10
-14.179900
20
-26.200600
11
-14.185300
21
-26.259500
0
LINE
8
CUTOUTS
10
-14.185300
20
-26.259500
11
-14.185400
21
-26.259700
0
LINE
8
CUTOUTS
10
-14.185400
20
-26.259700
11
-14.185500
21
-26.259900
0
LINE
8
CUTOUTS
10
-14.185500
20
-26.259900
11
-14.731800
21
-26.656800
0
LINE
8
CUTOUTS
10
-14.731800
20
-26.656800
11
-14.860000
21
-26.653700
0
LINE
8
CUTOUTS
10
-14.860000
20
-26.653700
11
-16.035400
21
-26.138700
0
LINE
8
CUTOUTS
10
-16.035400
20
-26.137900
11
-18.456200
21
-24.986900
0
LINE
8
CUTOUTS
10
-18.456200
20
-24.987800
11
-18.456500
21
-24.987700
0
LINE
8
CUTOUTS
10
-18.456500
20
-24.987700
11
-21.697600
21
-23.479500
0
LINE
8
CUTOUTS
10
-21.697600
20
-23.479500
11
-21.698200
21
-23.479300
0
LINE
8
CUTOUTS
10
-21.698200
20
-23.479300
11
-21.698700
21
-23.479000
0
LINE
8
CUTOUTS
10
-21.698700
20
-23.479000
11
-23.800600
21
-22.527300
0
LINE
8
CUTOUTS
10
-23.800600
20
-22.527300
11
-24.429300
21
-22.200100
0
LINE
8
CUTOUTS
10
-24.429300
20
-22.200100
11
-24.430700
21
-22.199100
0
LINE
8
CUTOUTS
10
-24.430700
20
-22.199100
11
-24.432200
21
-22.198300
0
LINE
8
CUTOUTS
10
-24.432200
20
-22.198300
11
-24.592375
21
-21.982650
0
LINE
8
CUTOUTS
10
-24.592375
20
-21.982650
11
-24.570000
21
-21.692900
0
LINE
8
CUTOUTS
10
-24.570000
20
-21.692900
11
-24.569900
21
-21.692700
0
LINE
8
CUTOUTS
10
-24.569900
20
-21.692700
11
-24.569800
21
-21.692500
0
LINE
8
CUTOUTS
10
-24.569800
20
-21.692500
11
-24.416325
21
-21.483150
0
LINE
8
CUTOUTS
10
-24.416325
20
-21.483150
11
-24.154400
21
-21.392300
0
LINE
8
CUTOUTS
10
-24.154400
20
-21.392300
11
-23.827600
21
-21.441400
0
LINE
8
CUTOUTS
10
-23.827600
20
-21.441400
11
-21.872400
21
-22.339800
0
LINE
8
CUTOUTS
10
-21.872400
20
-22.339800
11
-20.284500
21
-23.094000
0
LINE
8
CUTOUTS
10
-20.284400
20
-23.094000
11
-17.532200
21
-24.337800
0
LINE
8
CUTOUTS
10
-17.532200
20
-24.338700
11
-14.476300
21
-25.767400
0
LINE
8
CUTOUTS
10
-34.642300
20
-5.713190
11
-33.652113
21
-4.666789
0
LINE
8
CUTOUTS
10
-33.652113
20
-4.666789
11
-32.576200
21
-3.760870
0
LINE
8
CUTOUTS
10
-32.576200
20
-3.760870
11
-31.906863
21
-3.378260
0
LINE
8
CUTOUTS
10
-31.906863
20
-3.378260
11
-31.164700
21
-3.120990
0
LINE
8
CUTOUTS
10
-31.164700
20
-3.120980
11
-29.857800
21
-3.056400
0
LINE
8
CUTOUTS
10
-29.857800
20
-3.056400
11
-28.653800
21
-3.358020
0
LINE
8
CUTOUTS
10
-28.653800
20
-3.358020
11
-27.695812
21
-3.827160
0
LINE
8
CUTOUTS
10
-27.695812
20
-3.827160
11
-26.875000
21
-4.522080
0
LINE
8
CUTOUTS
10
-26.875000
20
-4.522080
11
-26.199375
21
-5.322707
0
LINE
8
CUTOUTS
10
-26.199375
20
-5.322707
11
-25.694600
21
-6.225200
0
LINE
8
CUTOUTS
10
-25.694600
20
-6.225200
11
-25.486200
21
-6.844225
0
LINE
8
CUTOUTS
10
-25.486200
20
-6.844225
11
-25.406500
21
-7.501290
0
LINE
8
CUTOUTS
10
-25.406500
20
-7.501290
11
-25.446500
21
-7.671630
0
LINE
8
CUTOUTS
10
-25.446500
20
-7.671630
11
-25.601100
21
-7.694250
0
LINE
8
CUTOUTS
10
-25.601100
20
-7.694250
11
-25.630200
21
-7.692710
0
LINE
8
CUTOUTS
10
-25.630200
20
-7.692720
11
-27.047200
21
-7.600010
0
LINE
8
CUTOUTS
10
-27.047200
20
-7.600010
11
-27.047300
21
-7.600010
0
LINE
8
CUTOUTS
10
-27.047300
20
-7.600010
11
-27.047300
21
-7.600000
0
LINE
8
CUTOUTS
10
-27.047300
20
-7.600000
11
-27.296150
21
-7.528580
0
LINE
8
CUTOUTS
10
-27.296150
20
-7.528580
11
-27.383900
21
-7.287510
0
LINE
8
CUTOUTS
10
-27.383900
20
-7.287510
11
-27.553587
21
-6.544946
0
LINE
8
CUTOUTS
10
-27.553587
20
-6.544946
11
-27.894500
21
-5.863020
0
LINE
8
CUTOUTS
10
-27.894500
20
-5.863020
11
-27.894500
21
-5.862980
0
LINE
8
CUTOUTS
10
-27.894500
20
-5.862980
11
-27.894600
21
-5.862940
0
LINE
8
CUTOUTS
10
-27.894600
20
-5.862940
11
-28.573975
21
-5.078270
0
LINE
8
CUTOUTS
10
-28.573975
20
-5.078270
11
-29.468900
21
-4.572840
0
LINE
8
CUTOUTS
10
-29.468900
20
-4.572830
11
-30.433788
21
-4.352465
0
LINE
8
CUTOUTS
10
-30.433788
20
-4.352465
11
-31.452900
21
-4.412900
0
LINE
8
CUTOUTS
10
-31.452900
20
-4.412900
11
-32.439813
21
-4.788314
0
LINE
8
CUTOUTS
10
-32.439813
20
-4.788314
11
-33.274400
21
-5.403300
0
LINE
8
CUTOUTS
10
-33.274400
20
-5.403300
11
-33.858600
21
-5.974160
0
LINE
8
CUTOUTS
10
-33.858600
20
-5.974160
11
-34.015900
21
-6.002960
0
LINE
8
CUTOUTS
10
-34.015900
20
-6.002970
11
-34.642300
21
-5.713190
0
LINE
8
CUTOUTS
10
-35.785900
20
-7.783740
11
-35.789100
21
-7.781100
0
LINE
8
CUTOUTS
10
-35.789200
20
-7.781770
11
-35.368000
21
-6.553780
0
LINE
8
CUTOUTS
10
-35.368000
20
-6.553780
11
-34.770900
21
-6.831620
0
LINE
8
CUTOUTS
10
-34.770900
20
-6.831620
11
-35.785900
21
-7.784600
0
LINE
8
CUTOUTS
10
-32.658000
20
-13.413400
11
-31.217300
21
-13.743800
0
LINE
8
CUTOUTS
10
-31.217300
20
-13.743800
11
-31.216900
21
-13.743900
0
LINE
8
CUTOUTS
10
-31.216900
20
-13.743900
11
-31.216600
21
-13.744000
0
LINE
8
CUTOUTS
10
-31.216600
20
-13.744000
11
-29.553200
21
-14.219200
0
LINE
8
CUTOUTS
10
-29.553200
20
-14.219200
11
-27.280300
21
-15.078200
0
LINE
8
CUTOUTS
10
-27.280300
20
-15.078200
11
-27.280300
21
-15.078200
0
LINE
8
CUTOUTS
10
-27.280300
20
-15.078200
11
-27.280200
21
-15.078200
0
LINE
8
CUTOUTS
10
-27.280200
20
-15.078200
11
-25.490300
21
-15.794000
0
LINE
8
CUTOUTS
10
-25.490300
20
-15.794000
11
-25.490100
21
-15.794000
0
LINE
8
CUTOUTS
10
-25.490100
20
-15.794000
11
-25.490000
21
-15.794100
0
LINE
8
CUTOUTS
10
-25.490000
20
-15.794100
11
-23.564200
21
-16.192600
0
LINE
8
CUTOUTS
10
-23.564200
20
-16.192600
11
-21.968700
21
-16.272400
0
LINE
8
CUTOUTS
10
-21.968700
20
-16.272400
11
-21.968700
21
-16.272400
0
LINE
8
CUTOUTS
10
-21.968700
20
-16.272400
11
-21.968700
21
-16.272400
0
LINE
8
CUTOUTS
10
-21.968700
20
-16.272400
11
-20.452600
21
-16.112800
0
LINE
8
CUTOUTS
10
-20.452600
20
-16.112800
11
-20.452400
21
-16.112800
0
LINE
8
CUTOUTS
10
-20.452400
20
-16.112800
11
-20.452200
21
-16.112700
0
LINE
8
CUTOUTS
10
-20.452200
20
-16.112700
11
-18.646600
21
-15.661200
0
LINE
8
CUTOUTS
10
-18.646600
20
-15.661200
11
-18.646400
21
-15.661200
0
LINE
8
CUTOUTS
10
-18.646400
20
-15.661200
11
-18.646300
21
-15.661100
0
LINE
8
CUTOUTS
10
-18.646300
20
-15.661100
11
-17.283175
21
-15.156762
0
LINE
8
CUTOUTS
10
-17.283175
20
-15.156762
11
-15.889000
21
-14.763500
0
LINE
8
CUTOUTS
10
-15.889000
20
-14.763500
11
-15.889000
21
-14.763500
0
LINE
8
CUTOUTS
10
-15.889000
20
-14.763500
11
-15.889000
21
-14.763500
0
LINE
8
CUTOUTS
10
-15.889000
20
-14.763500
11
-14.770600
21
-14.618800
0
LINE
8
CUTOUTS
10
-14.770600
20
-14.618800
11
-14.642700
21
-14.636500
0
LINE
8
CUTOUTS
10
-14.642700
20
-14.636500
11
-14.639700
21
-14.640500
0
LINE
8
CUTOUTS
10
-14.639700
20
-14.640500
11
-14.288900
21
-15.146800
0
LINE
8
CUTOUTS
10
-14.288900
20
-15.146800
11
-14.288800
21
-15.146900
0
LINE
8
CUTOUTS
10
-14.288800
20
-15.146900
11
-14.288700
21
-15.147100
0
LINE
8
CUTOUTS
10
-14.288700
20
-15.147100
11
-13.337700
21
-17.101700
0
LINE
8
CUTOUTS
10
-13.337700
20
-17.101700
11
-13.337500
21
-17.102200
0
LINE
8
CUTOUTS
10
-13.337500
20
-17.102200
11
-13.337300
21
-17.102700
0
LINE
8
CUTOUTS
10
-13.337300
20
-17.102700
11
-12.811000
21
-18.668700
0
LINE
8
CUTOUTS
10
-12.811000
20
-18.668700
11
-12.810900
21
-18.668900
0
LINE
8
CUTOUTS
10
-12.810900
20
-18.668900
11
-12.810900
21
-18.669100
0
LINE
8
CUTOUTS
10
-12.810900
20
-18.669100
11
-12.640700
21
-19.993500
0
LINE
8
CUTOUTS
10
-12.640700
20
-19.993500
11
-12.784400
21
-21.024800
0
LINE
8
CUTOUTS
10
-12.784400
20
-21.024800
11
-12.856400
21
-21.115300
0
LINE
8
CUTOUTS
10
-12.856400
20
-21.115300
11
-12.861200
21
-21.118500
0
LINE
8
CUTOUTS
10
-12.861200
20
-21.118500
11
-12.865200
21
-21.122800
0
LINE
8
CUTOUTS
10
-12.865200
20
-21.122800
11
-13.480538
21
-21.482937
0
LINE
8
CUTOUTS
10
-13.480538
20
-21.482937
11
-14.196600
21
-21.596700
0
LINE
8
CUTOUTS
10
-14.196600
20
-21.596700
11
-14.196900
21
-21.596700
0
LINE
8
CUTOUTS
10
-14.196900
20
-21.596700
11
-14.197300
21
-21.596700
0
LINE
8
CUTOUTS
10
-14.197300
20
-21.596700
11
-15.818400
21
-21.649300
0
LINE
8
CUTOUTS
10
-15.818400
20
-21.649300
11
-16.277300
21
-21.596500
0
LINE
8
CUTOUTS
10
-16.277300
20
-21.596500
11
-17.716500
21
-21.477800
0
LINE
8
CUTOUTS
10
-17.716500
20
-21.477800
11
-17.716700
21
-21.477800
0
LINE
8
CUTOUTS
10
-17.716700
20
-21.477800
11
-17.716900
21
-21.477700
0
LINE
8
CUTOUTS
10
-17.716900
20
-21.477700
11
-19.194500
21
-21.200600
0
LINE
8
CUTOUTS
10
-19.194500
20
-21.200600
11
-19.194800
21
-21.200600
0
LINE
8
CUTOUTS
10
-19.194800
20
-21.200600
11
-19.195100
21
-21.200500
0
LINE
8
CUTOUTS
10
-19.195100
20
-21.200500
11
-20.952400
21
-20.804100
0
LINE
8
CUTOUTS
10
-20.952400
20
-20.804100
11
-22.627800
21
-20.289600
0
LINE
8
CUTOUTS
10
-22.627800
20
-20.289600
11
-22.628200
21
-20.289500
0
LINE
8
CUTOUTS
10
-22.628200
20
-20.289500
11
-22.628600
21
-20.289300
0
LINE
8
CUTOUTS
10
-22.628600
20
-20.289300
11
-24.702200
21
-19.523300
0
LINE
8
CUTOUTS
10
-24.702200
20
-19.523300
11
-24.702500
21
-19.523200
0
LINE
8
CUTOUTS
10
-24.702500
20
-19.523200
11
-24.702800
21
-19.523100
0
LINE
8
CUTOUTS
10
-24.702800
20
-19.523100
11
-27.690800
21
-18.227400
0
LINE
8
CUTOUTS
10
-27.690800
20
-18.227400
11
-27.690900
21
-18.227400
0
LINE
8
CUTOUTS
10
-27.690900
20
-18.227400
11
-27.690900
21
-18.227300
0
LINE
8
CUTOUTS
10
-27.690900
20
-18.227300
11
-30.401000
21
-16.931800
0
LINE
8
CUTOUTS
10
-30.401000
20
-16.931800
11
-33.230700
21
-15.464000
0
LINE
8
CUTOUTS
10
-33.230700
20
-15.464000
11
-36.246400
21
-13.797500
0
LINE
8
CUTOUTS
10
-36.246400
20
-13.797500
11
-36.346500
21
-13.712525
0
LINE
8
CUTOUTS
10
-36.346500
20
-13.712525
11
-36.286400
21
-13.583600
0
LINE
8
CUTOUTS
10
-36.286400
20
-13.583600
11
-36.285800
21
-13.582900
0
LINE
8
CUTOUTS
10
-36.285800
20
-13.582900
11
-36.285200
21
-13.582100
0
LINE
8
CUTOUTS
10
-36.285200
20
-13.582100
11
-35.713500
21
-12.850800
0
LINE
8
CUTOUTS
10
-35.713500
20
-12.850800
11
-35.713300
21
-12.850500
0
LINE
8
CUTOUTS
10
-35.713300
20
-12.850500
11
-35.713100
21
-12.850300
0
LINE
8
CUTOUTS
10
-35.713100
20
-12.850300
11
-35.487400
21
-12.739100
0
LINE
8
CUTOUTS
10
-35.487400
20
-12.739100
11
-34.454900
21
-12.950900
0
LINE
8
CUTOUTS
10
-34.454900
20
-12.950900
11
-33.664100
21
-13.135400
0
LINE
8
CUTOUTS
10
-33.664100
20
-13.135400
11
-32.658000
21
-13.413400
0
LINE
8
CUTOUTS
10
-29.035100
20
-27.179000
11
-29.035100
21
-27.179100
0
LINE
8
CUTOUTS
10
-29.035100
20
-27.179100
11
-28.426500
21
-28.052200
0
LINE
8
CUTOUTS
10
-28.426500
20
-28.052200
11
-28.426500
21
-28.052300
0
LINE
8
CUTOUTS
10
-28.426500
20
-28.052300
11
-28.426400
21
-28.052400
0
LINE
8
CUTOUTS
10
-28.426400
20
-28.052400
11
-27.433800
21
-29.389200
0
LINE
8
CUTOUTS
10
-27.433800
20
-29.389200
11
-26.638800
21
-30.396200
0
LINE
8
CUTOUTS
10
-26.638800
20
-30.396200
11
-26.504850
21
-30.730675
0
LINE
8
CUTOUTS
10
-26.504850
20
-30.730675
11
-26.635500
21
-31.043400
0
LINE
8
CUTOUTS
10
-26.635500
20
-31.043400
11
-27.016713
21
-31.204087
0
LINE
8
CUTOUTS
10
-27.016713
20
-31.204087
11
-27.397700
21
-31.169100
0
LINE
8
CUTOUTS
10
-27.397700
20
-31.169100
11
-27.447200
21
-31.127200
0
LINE
8
CUTOUTS
10
-27.447200
20
-31.127200
11
-27.447300
21
-31.127100
0
LINE
8
CUTOUTS
10
-27.447300
20
-31.127100
11
-27.447400
21
-31.127100
0
LINE
8
CUTOUTS
10
-27.447400
20
-31.127100
11
-28.346300
21
-29.963700
0
LINE
8
CUTOUTS
10
-28.346300
20
-29.963700
11
-30.065600
21
-27.622800
0
LINE
8
CUTOUTS
10
-30.065600
20
-27.622800
11
-31.044400
21
-26.300100
0
LINE
8
CUTOUTS
10
-31.044400
20
-26.300100
11
-31.044600
21
-26.299800
0
LINE
8
CUTOUTS
10
-31.044600
20
-26.299800
11
-31.044900
21
-26.299500
0
LINE
8
CUTOUTS
10
-31.044900
20
-26.299500
11
-31.164513
21
-26.067175
0
LINE
8
CUTOUTS
10
-31.164513
20
-26.067175
11
-31.125500
21
-25.858400
0
LINE
8
CUTOUTS
10
-31.125500
20
-25.858400
11
-31.124000
21
-25.856500
0
LINE
8
CUTOUTS
10
-31.124000
20
-25.856500
11
-31.122600
21
-25.854500
0
LINE
8
CUTOUTS
10
-31.122600
20
-25.854500
11
-30.924737
21
-25.576438
0
LINE
8
CUTOUTS
10
-30.924737
20
-25.576438
11
-30.621200
21
-25.504700
0
LINE
8
CUTOUTS
10
-30.621200
20
-25.504700
11
-30.610100
21
-25.507700
0
LINE
8
CUTOUTS
10
-30.610100
20
-25.507700
11
-30.598800
21
-25.505400
0
LINE
8
CUTOUTS
10
-30.598800
20
-25.505400
11
-30.296725
21
-25.554237
0
LINE
8
CUTOUTS
10
-30.296725
20
-25.554237
11
-30.079400
21
-25.764700
0
LINE
8
CUTOUTS
10
-30.079400
20
-25.764700
11
-30.079400
21
-25.764700
0
LINE
8
CUTOUTS
10
-30.079400
20
-25.764700
11
-30.079300
21
-25.764700
0
LINE
8
CUTOUTS
10
-30.079300
20
-25.764700
11
-29.035200
21
-27.179000
0
LINE
8
CUTOUTS
10
-29.035200
20
-27.179000
11
-29.035100
21
-27.179000
0
LINE
8
CUTOUTS
10
-48.548500
20
-27.822000
11
-50.718000
21
-30.917600
0
LINE
8
CUTOUTS
10
-50.718000
20
-30.917600
11
-51.160925
21
-31.240825
0
LINE
8
CUTOUTS
10
-51.160925
20
-31.240825
11
-51.440166
21
-31.235919
0
LINE
8
CUTOUTS
10
-51.440166
20
-31.235919
11
-51.726700
21
-31.056600
0
LINE
8
CUTOUTS
10
-51.726700
20
-31.056600
11
-51.854337
21
-30.835838
0
LINE
8
CUTOUTS
10
-51.854337
20
-30.835838
11
-51.798000
21
-30.587700
0
LINE
8
CUTOUTS
10
-51.797900
20
-30.588100
11
-51.482000
21
-30.074900
0
LINE
8
CUTOUTS
10
-51.482100
20
-30.074400
11
-50.319300
21
-28.475600
0
LINE
8
CUTOUTS
10
-50.319300
20
-28.475600
11
-48.520200
21
-25.962100
0
LINE
8
CUTOUTS
10
-48.520200
20
-25.962100
11
-48.519900
21
-25.961800
0
LINE
8
CUTOUTS
10
-48.519900
20
-25.961800
11
-48.519700
21
-25.961400
0
LINE
8
CUTOUTS
10
-48.519700
20
-25.961400
11
-48.264012
21
-25.644037
0
LINE
8
CUTOUTS
10
-48.264012
20
-25.644037
11
-47.847900
21
-25.506300
0
LINE
8
CUTOUTS
10
-47.847900
20
-25.506300
11
-47.846100
21
-25.506400
0
LINE
8
CUTOUTS
10
-47.846100
20
-25.506400
11
-47.844300
21
-25.506300
0
LINE
8
CUTOUTS
10
-47.844300
20
-25.506300
11
-47.445525
21
-25.680912
0
LINE
8
CUTOUTS
10
-47.445525
20
-25.680912
11
-47.365200
21
-26.131000
0
LINE
8
CUTOUTS
10
-47.365200
20
-26.131000
11
-47.365400
21
-26.131600
0
LINE
8
CUTOUTS
10
-47.365400
20
-26.131600
11
-47.365500
21
-26.132200
0
LINE
8
CUTOUTS
10
-47.365500
20
-26.132200
11
-47.516500
21
-26.406300
0
LINE
8
CUTOUTS
10
-47.516500
20
-26.406300
11
-48.548500
21
-27.822000
0
LINE
8
CUTOUTS
10
-57.332200
20
-20.778100
11
-57.332200
21
-20.778100
0
LINE
8
CUTOUTS
10
-57.332200
20
-20.778100
11
-58.572500
21
-21.108000
0
LINE
8
CUTOUTS
10
-58.572500
20
-21.108000
11
-58.573000
21
-21.108200
0
LINE
8
CUTOUTS
10
-58.573000
20
-21.108200
11
-58.573500
21
-21.108300
0
LINE
8
CUTOUTS
10
-58.573500
20
-21.108300
11
-59.735600
21
-21.319500
0
LINE
8
CUTOUTS
10
-59.735600
20
-21.319500
11
-60.789800
21
-21.504100
0
LINE
8
CUTOUTS
10
-60.789800
20
-21.504100
11
-60.790100
21
-21.504100
0
LINE
8
CUTOUTS
10
-60.790100
20
-21.504100
11
-60.790400
21
-21.504100
0
LINE
8
CUTOUTS
10
-60.790400
20
-21.504100
11
-62.732000
21
-21.675800
0
LINE
8
CUTOUTS
10
-62.732000
20
-21.675800
11
-62.732700
21
-21.675900
0
LINE
8
CUTOUTS
10
-62.732700
20
-21.675900
11
-62.733300
21
-21.675900
0
LINE
8
CUTOUTS
10
-62.733300
20
-21.675900
11
-63.637500
21
-21.662700
0
LINE
8
CUTOUTS
10
-63.637500
20
-21.662700
11
-64.824200
21
-21.504400
0
LINE
8
CUTOUTS
10
-64.824200
20
-21.504400
11
-65.478900
21
-21.274400
0
LINE
8
CUTOUTS
10
-65.478900
20
-21.274400
11
-65.721800
21
-20.835600
0
LINE
8
CUTOUTS
10
-65.721800
20
-20.835600
11
-65.721900
21
-20.834700
0
LINE
8
CUTOUTS
10
-65.721900
20
-20.834700
11
-65.722000
21
-20.833900
0
LINE
8
CUTOUTS
10
-65.722000
20
-20.833900
11
-65.735100
21
-19.817800
0
LINE
8
CUTOUTS
10
-65.735100
20
-19.817000
11
-65.721600
21
-19.817000
0
LINE
8
CUTOUTS
10
-65.721700
20
-19.817800
11
-65.721700
21
-19.767800
0
LINE
8
CUTOUTS
10
-65.721700
20
-19.767800
11
-65.709400
21
-18.957400
0
LINE
8
CUTOUTS
10
-65.709400
20
-18.957400
11
-65.393200
21
-17.798300
0
LINE
8
CUTOUTS
10
-65.393200
20
-17.798300
11
-65.393200
21
-17.798200
0
LINE
8
CUTOUTS
10
-65.393200
20
-17.798200
11
-65.393200
21
-17.798200
0
LINE
8
CUTOUTS
10
-65.393200
20
-17.798200
11
-65.025800
21
-16.773900
0
LINE
8
CUTOUTS
10
-65.025800
20
-16.773900
11
-64.009000
21
-14.912000
0
LINE
8
CUTOUTS
10
-64.009000
20
-14.912000
11
-63.651800
21
-14.616000
0
LINE
8
CUTOUTS
10
-63.651800
20
-14.616000
11
-63.258100
21
-14.683200
0
LINE
8
CUTOUTS
10
-63.258100
20
-14.683200
11
-63.257800
21
-14.683200
0
LINE
8
CUTOUTS
10
-63.257800
20
-14.683200
11
-63.257400
21
-14.683300
0
LINE
8
CUTOUTS
10
-63.257400
20
-14.683300
11
-60.970600
21
-15.304600
0
LINE
8
CUTOUTS
10
-60.970600
20
-15.304600
11
-59.475300
21
-15.833900
0
LINE
8
CUTOUTS
10
-59.475300
20
-15.833900
11
-57.946400
21
-16.166200
0
LINE
8
CUTOUTS
10
-57.946400
20
-16.166200
11
-57.946300
21
-16.166200
0
LINE
8
CUTOUTS
10
-57.946300
20
-16.166200
11
-57.946200
21
-16.166200
0
LINE
8
CUTOUTS
10
-57.946200
20
-16.166200
11
-55.716800
21
-16.312100
0
LINE
8
CUTOUTS
10
-55.716800
20
-16.312100
11
-54.279312
21
-16.164025
0
LINE
8
CUTOUTS
10
-54.279312
20
-16.164025
11
-52.882100
21
-15.766500
0
LINE
8
CUTOUTS
10
-52.882100
20
-15.766500
11
-52.882000
21
-15.766500
0
LINE
8
CUTOUTS
10
-52.882000
20
-15.766500
11
-52.881900
21
-15.766400
0
LINE
8
CUTOUTS
10
-52.881900
20
-15.766400
11
-50.698300
21
-14.893000
0
LINE
8
CUTOUTS
10
-50.698300
20
-14.893000
11
-49.245400
21
-14.351500
0
LINE
8
CUTOUTS
10
-49.245400
20
-14.351500
11
-48.084700
21
-13.995300
0
LINE
8
CUTOUTS
10
-48.084700
20
-13.995300
11
-48.084200
21
-13.995200
0
LINE
8
CUTOUTS
10
-48.084200
20
-13.995200
11
-48.083800
21
-13.995100
0
LINE
8
CUTOUTS
10
-48.083800
20
-13.995100
11
-47.225400
21
-13.770600
0
LINE
8
CUTOUTS
10
-47.225400
20
-13.770600
11
-46.207800
21
-13.532700
0
LINE
8
CUTOUTS
10
-46.207800
20
-13.532700
11
-46.207200
21
-13.532600
0
LINE
8
CUTOUTS
10
-46.207200
20
-13.532600
11
-46.206600
21
-13.532400
0
LINE
8
CUTOUTS
10
-46.206600
20
-13.532400
11
-44.830700
21
-13.175200
0
LINE
8
CUTOUTS
10
-44.830700
20
-13.175200
11
-43.695700
21
-12.898000
0
LINE
8
CUTOUTS
10
-43.695700
20
-12.898000
11
-42.893700
21
-12.779700
0
LINE
8
CUTOUTS
10
-42.893700
20
-12.779700
11
-42.891200
21
-12.779500
0
LINE
8
CUTOUTS
10
-42.891200
20
-12.779500
11
-42.888700
21
-12.779000
0
LINE
8
CUTOUTS
10
-42.888700
20
-12.779000
11
-42.723800
21
-12.856300
0
LINE
8
CUTOUTS
10
-42.723800
20
-12.856300
11
-42.182100
21
-13.543400
0
LINE
8
CUTOUTS
10
-42.182100
20
-13.543400
11
-42.162300
21
-13.668500
0
LINE
8
CUTOUTS
10
-42.162300
20
-13.668500
11
-42.197400
21
-13.692900
0
LINE
8
CUTOUTS
10
-42.197400
20
-13.692900
11
-42.198300
21
-13.693500
0
LINE
8
CUTOUTS
10
-42.198300
20
-13.693500
11
-42.199200
21
-13.694100
0
LINE
8
CUTOUTS
10
-42.199200
20
-13.694100
11
-42.818000
21
-14.155300
0
LINE
8
CUTOUTS
10
-42.818000
20
-14.155300
11
-45.276500
21
-15.516700
0
LINE
8
CUTOUTS
10
-45.276500
20
-15.516700
11
-45.276600
21
-15.516800
0
LINE
8
CUTOUTS
10
-45.276600
20
-15.516800
11
-45.276800
21
-15.516800
0
LINE
8
CUTOUTS
10
-45.276800
20
-15.516800
11
-48.277900
21
-17.037200
0
LINE
8
CUTOUTS
10
-48.277900
20
-17.037200
11
-48.278000
21
-17.037300
0
LINE
8
CUTOUTS
10
-48.278000
20
-17.037300
11
-48.278100
21
-17.037300
0
LINE
8
CUTOUTS
10
-48.278100
20
-17.037300
11
-51.928100
21
-18.743300
0
LINE
8
CUTOUTS
10
-51.928100
20
-18.743300
11
-54.254700
21
-19.721500
0
LINE
8
CUTOUTS
10
-54.254700
20
-19.721500
11
-54.254800
21
-19.721500
0
LINE
8
CUTOUTS
10
-54.254800
20
-19.721500
11
-54.254800
21
-19.721600
0
LINE
8
CUTOUTS
10
-54.254800
20
-19.721600
11
-55.826700
21
-20.315900
0
LINE
8
CUTOUTS
10
-55.826700
20
-20.315900
11
-57.332200
21
-20.778100
0
LINE
8
CUTOUTS
10
-57.332200
20
-20.778100
11
-57.332200
21
-20.778100
0
LINE
8
CUTOUTS
10
-39.521800
20
-8.705240
11
-38.316200
21
-8.797270
0
LINE
8
CUTOUTS
10
-38.316200
20
-8.797270
11
-38.315300
21
-8.797410
0
LINE
8
CUTOUTS
10
-38.315300
20
-8.797410
11
-38.314400
21
-8.797530
0
LINE
8
CUTOUTS
10
-38.314400
20
-8.797530
11
-37.407800
21
-9.034450
0
LINE
8
CUTOUTS
10
-37.407800
20
-9.034460
11
-37.204287
21
-9.181884
0
LINE
8
CUTOUTS
10
-37.204287
20
-9.181884
11
-37.154000
21
-9.438980
0
LINE
8
CUTOUTS
10
-37.154000
20
-9.438980
11
-37.047400
21
-10.080100
0
LINE
8
CUTOUTS
10
-37.047400
20
-10.080100
11
-37.047300
21
-10.080900
0
LINE
8
CUTOUTS
10
-37.047300
20
-10.080900
11
-37.047100
21
-10.081700
0
LINE
8
CUTOUTS
10
-37.047100
20
-10.081700
11
-36.771800
21
-11.143900
0
LINE
8
CUTOUTS
10
-36.771800
20
-11.143900
11
-36.928400
21
-11.848000
0
LINE
8
CUTOUTS
10
-36.928400
20
-11.848000
11
-37.200525
21
-12.514300
0
LINE
8
CUTOUTS
10
-37.200525
20
-12.514300
11
-37.679800
21
-13.049800
0
LINE
8
CUTOUTS
10
-37.679800
20
-13.049800
11
-37.679900
21
-13.049900
0
LINE
8
CUTOUTS
10
-37.679900
20
-13.049900
11
-37.680000
21
-13.049900
0
LINE
8
CUTOUTS
10
-37.680000
20
-13.049900
11
-38.331987
21
-13.415012
0
LINE
8
CUTOUTS
10
-38.331987
20
-13.415012
11
-39.077800
21
-13.539900
0
LINE
8
CUTOUTS
10
-39.077800
20
-13.539900
11
-39.077900
21
-13.539900
0
LINE
8
CUTOUTS
10
-39.077900
20
-13.539900
11
-39.078000
21
-13.539900
0
LINE
8
CUTOUTS
10
-39.078000
20
-13.539900
11
-40.092337
21
-13.412450
0
LINE
8
CUTOUTS
10
-40.092337
20
-13.412450
11
-40.958100
21
-12.866500
0
LINE
8
CUTOUTS
10
-40.958100
20
-12.866500
11
-41.352463
21
-12.328587
0
LINE
8
CUTOUTS
10
-41.352463
20
-12.328587
11
-41.552500
21
-11.704200
0
LINE
8
CUTOUTS
10
-41.552500
20
-11.704200
11
-41.595087
21
-11.010812
0
LINE
8
CUTOUTS
10
-41.595087
20
-11.010812
11
-41.462400
21
-10.312700
0
LINE
8
CUTOUTS
10
-41.462400
20
-10.312700
11
-41.462300
21
-10.312400
0
LINE
8
CUTOUTS
10
-41.462300
20
-10.312400
11
-41.462200
21
-10.312100
0
LINE
8
CUTOUTS
10
-41.462200
20
-10.312100
11
-41.196700
21
-9.237840
0
LINE
8
CUTOUTS
10
-41.196700
20
-9.237840
11
-41.100387
21
-9.037304
0
LINE
8
CUTOUTS
10
-41.100387
20
-9.037304
11
-40.890600
21
-8.969840
0
LINE
8
CUTOUTS
10
-40.890600
20
-8.969840
11
-40.889100
21
-8.969930
0
LINE
8
CUTOUTS
10
-40.889100
20
-8.969930
11
-40.887700
21
-8.969930
0
LINE
8
CUTOUTS
10
-40.887700
20
-8.969930
11
-40.717900
21
-8.929030
0
LINE
8
CUTOUTS
10
-40.717900
20
-8.929030
11
-39.521800
21
-8.705240
0
LINE
8
CUTOUTS
10
-38.618800
20
0.059295
11
-38.618900
21
0.059310
0
LINE
8
CUTOUTS
10
-38.618900
20
0.059310
11
-39.224900
21
0.138379
0
LINE
8
CUTOUTS
10
-39.224900
20
0.138379
11
-39.427600
21
0.138430
0
LINE
8
CUTOUTS
10
-39.427600
20
0.138430
11
-41.101300
21
-0.098897
0
LINE
8
CUTOUTS
10
-41.101300
20
-0.098897
11
-41.206100
21
-0.045943
0
LINE
8
CUTOUTS
10
-41.206100
20
-0.045943
11
-41.079800
21
0.492762
0
LINE
8
CUTOUTS
10
-41.079800
20
0.492762
11
-41.079500
21
0.493580
0
LINE
8
CUTOUTS
10
-41.079500
20
0.493580
11
-41.079200
21
0.494409
0
LINE
8
CUTOUTS
10
-41.079200
20
0.494409
11
-40.564800
21
1.694550
0
LINE
8
CUTOUTS
10
-40.564800
20
1.694550
11
-40.028913
21
2.527861
0
LINE
8
CUTOUTS
10
-40.028913
20
2.527861
11
-39.299300
21
3.182530
0
LINE
8
CUTOUTS
10
-39.299300
20
3.182530
11
-39.297900
21
3.183440
0
LINE
8
CUTOUTS
10
-39.297900
20
3.183440
11
-39.296600
21
3.184430
0
LINE
8
CUTOUTS
10
-39.296600
20
3.184430
11
-39.114700
21
3.168640
0
LINE
8
CUTOUTS
10
-39.114700
20
3.168640
11
-38.562363
21
2.672128
0
LINE
8
CUTOUTS
10
-38.562363
20
2.672128
11
-38.110600
21
2.071020
0
LINE
8
CUTOUTS
10
-38.110600
20
2.071020
11
-38.110600
21
2.070960
0
LINE
8
CUTOUTS
10
-38.110600
20
2.070960
11
-38.110500
21
2.070890
0
LINE
8
CUTOUTS
10
-38.110500
20
2.070890
11
-37.717637
21
1.338168
0
LINE
8
CUTOUTS
10
-37.717637
20
1.338168
11
-37.429100
21
0.548857
0
LINE
8
CUTOUTS
10
-37.429100
20
0.548857
11
-37.428900
21
0.548137
0
LINE
8
CUTOUTS
10
-37.428900
20
0.548137
11
-37.428600
21
0.547425
0
LINE
8
CUTOUTS
10
-37.428600
20
0.547425
11
-37.286100
21
0.067416
0
LINE
8
CUTOUTS
10
-37.286100
20
0.067416
11
-37.323800
21
-0.129717
0
LINE
8
CUTOUTS
10
-37.323800
20
-0.129717
11
-37.466200
21
-0.126132
0
LINE
8
CUTOUTS
10
-37.466200
20
-0.126132
11
-38.618600
21
0.059279
0
LINE
8
CUTOUTS
10
-38.618600
20
0.059279
11
-38.618800
21
0.059295
0
LINE
8
CUTOUTS
10
-37.823700
20
-2.586720
11
-38.651900
21
-2.453790
0
LINE
8
CUTOUTS
10
-38.651900
20
-2.453790
11
-38.652500
21
-2.453790
0
LINE
8
CUTOUTS
10
-38.652500
20
-2.453790
11
-38.653000
21
-2.453800
0
LINE
8
CUTOUTS
10
-38.653000
20
-2.453800
11
-39.544812
21
-2.441852
0
LINE
8
CUTOUTS
10
-39.544812
20
-2.441852
11
-40.448700
21
-2.521120
0
LINE
8
CUTOUTS
10
-40.448700
20
-2.521120
11
-40.449100
21
-2.521210
0
LINE
8
CUTOUTS
10
-40.449100
20
-2.521210
11
-40.449400
21
-2.521290
0
LINE
8
CUTOUTS
10
-40.449400
20
-2.521290
11
-41.285000
21
-2.693840
0
LINE
8
CUTOUTS
10
-41.285000
20
-2.693840
11
-41.457000
21
-2.681450
0
LINE
8
CUTOUTS
10
-41.457000
20
-2.681450
11
-41.472700
21
-2.557560
0
LINE
8
CUTOUTS
10
-41.472700
20
-2.557560
11
-41.419900
21
-1.395980
0
LINE
8
CUTOUTS
10
-41.419900
20
-1.395980
11
-41.419700
21
-1.394260
0
LINE
8
CUTOUTS
10
-41.419700
20
-1.394260
11
-41.419700
21
-1.392540
0
LINE
8
CUTOUTS
10
-41.419700
20
-1.392540
11
-41.344200
21
-1.240300
0
LINE
8
CUTOUTS
10
-41.344200
20
-1.240300
11
-40.574000
21
-1.031560
0
LINE
8
CUTOUTS
10
-40.574000
20
-1.031550
11
-39.749300
21
-0.884955
0
LINE
8
CUTOUTS
10
-39.749300
20
-0.884952
11
-38.881450
21
-0.832718
0
LINE
8
CUTOUTS
10
-38.881450
20
-0.832718
11
-37.997100
21
-0.965854
0
LINE
8
CUTOUTS
10
-37.997100
20
-0.965854
11
-37.996500
21
-0.965926
0
LINE
8
CUTOUTS
10
-37.996500
20
-0.965926
11
-37.996000
21
-0.965986
0
LINE
8
CUTOUTS
10
-37.996000
20
-0.965986
11
-37.273200
21
-1.124030
0
LINE
8
CUTOUTS
10
-37.273200
20
-1.124030
11
-37.022650
21
-1.229739
0
LINE
8
CUTOUTS
10
-37.022650
20
-1.229739
11
-36.955700
21
-1.485140
0
LINE
8
CUTOUTS
10
-36.955700
20
-1.485140
11
-36.955700
21
-1.485950
0
LINE
8
CUTOUTS
10
-36.955700
20
-1.485950
11
-36.955700
21
-1.486760
0
LINE
8
CUTOUTS
10
-36.955700
20
-1.486760
11
-36.955600
21
-2.736030
0
LINE
8
CUTOUTS
10
-36.955600
20
-2.736030
11
-37.823700
21
-2.586720
0
LINE
8
CUTOUTS
10
-49.120100
20
-4.520540
11
-49.121400
21
-4.521040
0
LINE
8
CUTOUTS
10
-49.121400
20
-4.521040
11
-49.990687
21
-5.058941
0
LINE
8
CUTOUTS
10
-49.990687
20
-5.058941
11
-50.665800
21
-5.836040
0
LINE
8
CUTOUTS
10
-50.665800
20
-5.836040
11
-50.665900
21
-5.836300
0
LINE
8
CUTOUTS
10
-50.665900
20
-5.836300
11
-50.666100
21
-5.836560
0
LINE
8
CUTOUTS
10
-50.666100
20
-5.836560
11
-51.007050
21
-6.518483
0
LINE
8
CUTOUTS
10
-51.007050
20
-6.518483
11
-51.176700
21
-7.261050
0
LINE
8
CUTOUTS
10
-51.176700
20
-7.261050
11
-51.259375
21
-7.502745
0
LINE
8
CUTOUTS
10
-51.259375
20
-7.502745
11
-51.513200
21
-7.573530
0
LINE
8
CUTOUTS
10
-51.513200
20
-7.573530
11
-51.513300
21
-7.573540
0
LINE
8
CUTOUTS
10
-51.513300
20
-7.573540
11
-51.513400
21
-7.573550
0
LINE
8
CUTOUTS
10
-51.513400
20
-7.573550
11
-52.930300
21
-7.666250
0
LINE
8
CUTOUTS
10
-52.930300
20
-7.666240
11
-53.102038
21
-7.654673
0
LINE
8
CUTOUTS
10
-53.102038
20
-7.654673
11
-53.151600
21
-7.506290
0
LINE
8
CUTOUTS
10
-53.151600
20
-7.506290
11
-53.154100
21
-7.475100
0
LINE
8
CUTOUTS
10
-53.154100
20
-7.475100
11
-53.079325
21
-6.827205
0
LINE
8
CUTOUTS
10
-53.079325
20
-6.827205
11
-52.866100
21
-6.199050
0
LINE
8
CUTOUTS
10
-52.866100
20
-6.199050
11
-52.866100
21
-6.199000
0
LINE
8
CUTOUTS
10
-52.866100
20
-6.199000
11
-52.866100
21
-6.198950
0
LINE
8
CUTOUTS
10
-52.866100
20
-6.198950
11
-52.366300
21
-5.286333
0
LINE
8
CUTOUTS
10
-52.366300
20
-5.286333
11
-51.686500
21
-4.496580
0
LINE
8
CUTOUTS
10
-51.686500
20
-4.496580
11
-51.686100
21
-4.496140
0
LINE
8
CUTOUTS
10
-51.686100
20
-4.496140
11
-51.685700
21
-4.495690
0
LINE
8
CUTOUTS
10
-51.685700
20
-4.495690
11
-50.864875
21
-3.800724
0
LINE
8
CUTOUTS
10
-50.864875
20
-3.800724
11
-49.906800
21
-3.331560
0
LINE
8
CUTOUTS
10
-49.906800
20
-3.331560
11
-48.703100
21
-3.029950
0
LINE
8
CUTOUTS
10
-48.703100
20
-3.029950
11
-47.396700
21
-3.094310
0
LINE
8
CUTOUTS
10
-47.396700
20
-3.094310
11
-46.654238
21
-3.351591
0
LINE
8
CUTOUTS
10
-46.654238
20
-3.351591
11
-45.984600
21
-3.734250
0
LINE
8
CUTOUTS
10
-45.984600
20
-3.734250
11
-44.907750
21
-4.641068
0
LINE
8
CUTOUTS
10
-44.907750
20
-4.641068
11
-43.916700
21
-5.688690
0
LINE
8
CUTOUTS
10
-43.916700
20
-5.688690
11
-44.544700
21
-5.976510
0
LINE
8
CUTOUTS
10
-44.544700
20
-5.976510
11
-44.546400
21
-5.977200
0
LINE
8
CUTOUTS
10
-44.546400
20
-5.977200
11
-44.548000
21
-5.978020
0
LINE
8
CUTOUTS
10
-44.548000
20
-5.978020
11
-44.706000
21
-5.944070
0
LINE
8
CUTOUTS
10
-44.706000
20
-5.944070
11
-45.311700
21
-5.351260
0
LINE
8
CUTOUTS
10
-45.311700
20
-5.351260
11
-45.311800
21
-5.351130
0
LINE
8
CUTOUTS
10
-45.311800
20
-5.351130
11
-45.312000
21
-5.351000
0
LINE
8
CUTOUTS
10
-45.312000
20
-5.351000
11
-46.151900
21
-4.735529
0
LINE
8
CUTOUTS
10
-46.151900
20
-4.735529
11
-47.134000
21
-4.360020
0
LINE
8
CUTOUTS
10
-47.134000
20
-4.360020
11
-48.148713
21
-4.299615
0
LINE
8
CUTOUTS
10
-48.148713
20
-4.299615
11
-49.118800
21
-4.520100
0
LINE
8
CUTOUTS
10
-49.118800
20
-4.520100
11
-49.120100
21
-4.520540
0
LINE
8
CUTOUTS
10
-44.485800
20
-17.051100
11
-42.725200
21
-16.548100
0
LINE
8
CUTOUTS
10
-42.725200
20
-16.548100
11
-41.579600
21
-15.914450
0
LINE
8
CUTOUTS
10
-41.579600
20
-15.914450
11
-40.777500
21
-14.870400
0
LINE
8
CUTOUTS
10
-40.777500
20
-14.870400
11
-40.517700
21
-14.465100
0
LINE
8
CUTOUTS
10
-40.517700
20
-14.465100
11
-40.121200
21
-14.550600
0
LINE
8
CUTOUTS
10
-40.121200
20
-14.550600
11
-40.121000
21
-14.550700
0
LINE
8
CUTOUTS
10
-40.121000
20
-14.550700
11
-40.120900
21
-14.550700
0
LINE
8
CUTOUTS
10
-40.120900
20
-14.550700
11
-39.943862
21
-14.664487
0
LINE
8
CUTOUTS
10
-39.943862
20
-14.664487
11
-39.892600
21
-14.859800
0
LINE
8
CUTOUTS
10
-39.892600
20
-14.859800
11
-39.992300
21
-15.338600
0
LINE
8
CUTOUTS
10
-39.992300
20
-15.338600
11
-39.992800
21
-15.339500
0
LINE
8
CUTOUTS
10
-39.992800
20
-15.339500
11
-39.993200
21
-15.340400
0
LINE
8
CUTOUTS
10
-39.993200
20
-15.340400
11
-40.423213
21
-16.029612
0
LINE
8
CUTOUTS
10
-40.423213
20
-16.029612
11
-40.964225
21
-16.589600
0
LINE
8
CUTOUTS
10
-40.964225
20
-16.589600
11
-41.610950
21
-17.024638
0
LINE
8
CUTOUTS
10
-41.610950
20
-17.024638
11
-42.358100
21
-17.339000
0
LINE
8
CUTOUTS
10
-42.358100
20
-17.339000
11
-42.358200
21
-17.339000
0
LINE
8
CUTOUTS
10
-42.358200
20
-17.339000
11
-42.358200
21
-17.339000
0
LINE
8
CUTOUTS
10
-42.358200
20
-17.339000
11
-43.585700
21
-17.668900
0
LINE
8
CUTOUTS
10
-43.585700
20
-17.668900
11
-43.585900
21
-17.669000
0
LINE
8
CUTOUTS
10
-43.585900
20
-17.669000
11
-43.586200
21
-17.669000
0
LINE
8
CUTOUTS
10
-43.586200
20
-17.669000
11
-44.631300
21
-17.933600
0
LINE
8
CUTOUTS
10
-44.631200
20
-17.933100
11
-45.545300
21
-18.171300
0
LINE
8
CUTOUTS
10
-45.545300
20
-18.172100
11
-45.546900
21
-18.172600
0
LINE
8
CUTOUTS
10
-45.546900
20
-18.172600
11
-45.783400
21
-18.235600
0
LINE
8
CUTOUTS
10
-45.783400
20
-18.235600
11
-46.195900
21
-17.974700
0
LINE
8
CUTOUTS
10
-46.195900
20
-17.974700
11
-46.136575
21
-17.645812
0
LINE
8
CUTOUTS
10
-46.136575
20
-17.645812
11
-45.913900
21
-17.447800
0
LINE
8
CUTOUTS
10
-45.913900
20
-17.447800
11
-45.913600
21
-17.447700
0
LINE
8
CUTOUTS
10
-45.913600
20
-17.447700
11
-45.913400
21
-17.447600
0
LINE
8
CUTOUTS
10
-45.913400
20
-17.447600
11
-44.485800
21
-17.051100
0
LINE
8
CUTOUTS
10
-45.375100
20
-32.273400
11
-45.600088
21
-32.103387
0
LINE
8
CUTOUTS
10
-45.600088
20
-32.103387
11
-45.744600
21
-31.795000
0
LINE
8
CUTOUTS
10
-45.744600
20
-31.795000
11
-45.654800
21
-31.488600
0
LINE
8
CUTOUTS
10
-45.654800
20
-31.488600
11
-45.496000
21
-30.985900
0
LINE
8
CUTOUTS
10
-45.496000
20
-30.985900
11
-45.244800
21
-29.967800
0
LINE
8
CUTOUTS
10
-45.244800
20
-29.967800
11
-45.244700
21
-29.967500
0
LINE
8
CUTOUTS
10
-45.244700
20
-29.967500
11
-45.244700
21
-29.967200
0
LINE
8
CUTOUTS
10
-45.244700
20
-29.967200
11
-45.047100
21
-29.401200
0
LINE
8
CUTOUTS
10
-45.047100
20
-29.401200
11
-44.913900
21
-28.921800
0
LINE
8
CUTOUTS
10
-44.913900
20
-28.921800
11
-44.663000
21
-27.997700
0
LINE
8
CUTOUTS
10
-44.663000
20
-27.997700
11
-44.662900
21
-27.997300
0
LINE
8
CUTOUTS
10
-44.662900
20
-27.997300
11
-44.662800
21
-27.996900
0
LINE
8
CUTOUTS
10
-44.662800
20
-27.996900
11
-44.239500
21
-26.607800
0
LINE
8
CUTOUTS
10
-44.239500
20
-26.607800
11
-43.975000
21
-25.642300
0
LINE
8
CUTOUTS
10
-43.975000
20
-25.642300
11
-43.974900
21
-25.642200
0
LINE
8
CUTOUTS
10
-43.974900
20
-25.642200
11
-43.974900
21
-25.642100
0
LINE
8
CUTOUTS
10
-43.974900
20
-25.642100
11
-43.644200
21
-24.530800
0
LINE
8
CUTOUTS
10
-43.644200
20
-24.530800
11
-43.484913
21
-24.081762
0
LINE
8
CUTOUTS
10
-43.484913
20
-24.081762
11
-43.144200
21
-23.769600
0
LINE
8
CUTOUTS
10
-43.144200
20
-23.769600
11
-43.143600
21
-23.769400
0
LINE
8
CUTOUTS
10
-43.143600
20
-23.769400
11
-43.142900
21
-23.769100
0
LINE
8
CUTOUTS
10
-43.142900
20
-23.769100
11
-42.697450
21
-23.794850
0
LINE
8
CUTOUTS
10
-42.697450
20
-23.794850
11
-42.485400
21
-24.158100
0
LINE
8
CUTOUTS
10
-42.485400
20
-24.158100
11
-42.642900
21
-25.034700
0
LINE
8
CUTOUTS
10
-42.642900
20
-25.034700
11
-42.946500
21
-25.984800
0
LINE
8
CUTOUTS
10
-42.946500
20
-25.984800
11
-42.946600
21
-25.985100
0
LINE
8
CUTOUTS
10
-42.946600
20
-25.985100
11
-42.946700
21
-25.985400
0
LINE
8
CUTOUTS
10
-42.946700
20
-25.985400
11
-43.317100
21
-27.414100
0
LINE
8
CUTOUTS
10
-43.317100
20
-27.414100
11
-43.753400
21
-28.776000
0
LINE
8
CUTOUTS
10
-43.753400
20
-28.776000
11
-43.753500
21
-28.776200
0
LINE
8
CUTOUTS
10
-43.753500
20
-28.776200
11
-43.753500
21
-28.776400
0
LINE
8
CUTOUTS
10
-43.753500
20
-28.776400
11
-44.124300
21
-30.179900
0
LINE
8
CUTOUTS
10
-44.124300
20
-30.179900
11
-44.256400
21
-30.628800
0
LINE
8
CUTOUTS
10
-44.256400
20
-30.628800
11
-44.454000
21
-31.327500
0
LINE
8
CUTOUTS
10
-44.454000
20
-31.327500
11
-44.703200
21
-32.036400
0
LINE
8
CUTOUTS
10
-44.703200
20
-32.036400
11
-44.980875
21
-32.244525
0
LINE
8
CUTOUTS
10
-44.980875
20
-32.244525
11
-45.375100
21
-32.273400
0
LINE
8
CUTOUTS
10
-20.882100
20
-29.407100
11
-20.882200
21
-29.408600
0
LINE
8
CUTOUTS
10
-20.882200
20
-29.408600
11
-21.164162
21
-29.817550
0
LINE
8
CUTOUTS
10
-21.164162
20
-29.817550
11
-21.650800
21
-29.807100
0
LINE
8
CUTOUTS
10
-21.650800
20
-29.807100
11
-21.651000
21
-29.807000
0
LINE
8
CUTOUTS
10
-21.651000
20
-29.807000
11
-21.651200
21
-29.806800
0
LINE
8
CUTOUTS
10
-21.651200
20
-29.806800
11
-22.544900
21
-29.057400
0
LINE
8
CUTOUTS
10
-22.544900
20
-29.057400
11
-24.396800
21
-27.350900
0
LINE
8
CUTOUTS
10
-24.396800
20
-27.350900
11
-24.396900
21
-27.350900
0
LINE
8
CUTOUTS
10
-24.396900
20
-27.350900
11
-24.397000
21
-27.350800
0
LINE
8
CUTOUTS
10
-24.397000
20
-27.350800
11
-27.028900
21
-24.970200
0
LINE
8
CUTOUTS
10
-27.028900
20
-24.970200
11
-29.145500
21
-22.919700
0
LINE
8
CUTOUTS
10
-29.145500
20
-22.919700
11
-29.145900
21
-22.919400
0
LINE
8
CUTOUTS
10
-29.145900
20
-22.919400
11
-29.146200
21
-22.919100
0
LINE
8
CUTOUTS
10
-29.146200
20
-22.919100
11
-29.290900
21
-22.722713
0
LINE
8
CUTOUTS
10
-29.290900
20
-22.722713
11
-29.279300
21
-22.485900
0
LINE
8
CUTOUTS
10
-29.279300
20
-22.485900
11
-28.764100
21
-22.069400
0
LINE
8
CUTOUTS
10
-28.764100
20
-22.069400
11
-28.355300
21
-22.290300
0
LINE
8
CUTOUTS
10
-28.355300
20
-22.290300
11
-28.354100
21
-22.291400
0
LINE
8
CUTOUTS
10
-28.354100
20
-22.291400
11
-28.352900
21
-22.292500
0
LINE
8
CUTOUTS
10
-28.352900
20
-22.292500
11
-27.441700
21
-23.164200
0
LINE
8
CUTOUTS
10
-27.441700
20
-23.164200
11
-27.441200
21
-23.164600
0
LINE
8
CUTOUTS
10
-27.441200
20
-23.164600
11
-27.440700
21
-23.165100
0
LINE
8
CUTOUTS
10
-27.440700
20
-23.165100
11
-24.927500
21
-25.427000
0
LINE
8
CUTOUTS
10
-24.927500
20
-25.427000
11
-24.927500
21
-25.427000
0
LINE
8
CUTOUTS
10
-24.927500
20
-25.427000
11
-24.927400
21
-25.427000
0
LINE
8
CUTOUTS
10
-24.927400
20
-25.427000
11
-23.010000
21
-27.251900
0
LINE
8
CUTOUTS
10
-23.010000
20
-27.251900
11
-23.009800
21
-27.252100
0
LINE
8
CUTOUTS
10
-23.009800
20
-27.252100
11
-23.009700
21
-27.252300
0
LINE
8
CUTOUTS
10
-23.009700
20
-27.252300
11
-20.986000
21
-29.130400
0
LINE
8
CUTOUTS
10
-20.986000
20
-29.130400
11
-20.984700
21
-29.131700
0
LINE
8
CUTOUTS
10
-20.984700
20
-29.131700
11
-20.983300
21
-29.132800
0
LINE
8
CUTOUTS
10
-20.983300
20
-29.132800
11
-20.881900
21
-29.405700
0
LINE
8
CUTOUTS
10
-20.881900
20
-29.405700
11
-20.882100
21
-29.407100
0
LINE
8
CUTOUTS
10
-25.292900
20
-8.996320
11
-25.292800
21
-8.996330
0
LINE
8
CUTOUTS
10
-25.292800
20
-8.996330
11
-22.699900
21
-9.075710
0
LINE
8
CUTOUTS
10
-22.699900
20
-9.075710
11
-22.699500
21
-9.075720
0
LINE
8
CUTOUTS
10
-22.699500
20
-9.075720
11
-22.699200
21
-9.075730
0
LINE
8
CUTOUTS
10
-22.699200
20
-9.075730
11
-21.514300
21
-9.194290
0
LINE
8
CUTOUTS
10
-21.514300
20
-9.194290
11
-20.831775
21
-9.408473
0
LINE
8
CUTOUTS
10
-20.831775
20
-9.408473
11
-20.214200
21
-9.780020
0
LINE
8
CUTOUTS
10
-20.214200
20
-9.780010
11
-18.613500
21
-11.036800
0
LINE
8
CUTOUTS
10
-18.613500
20
-11.036800
11
-18.613300
21
-11.036900
0
LINE
8
CUTOUTS
10
-18.613300
20
-11.036900
11
-18.613000
21
-11.037100
0
LINE
8
CUTOUTS
10
-18.613000
20
-11.037100
11
-17.674200
21
-11.671800
0
LINE
8
CUTOUTS
10
-17.674200
20
-11.671800
11
-16.340400
21
-12.794300
0
LINE
8
CUTOUTS
10
-16.340400
20
-12.794300
11
-15.790700
21
-13.291100
0
LINE
8
CUTOUTS
10
-15.790700
20
-13.291100
11
-15.766300
21
-13.416800
0
LINE
8
CUTOUTS
10
-15.766300
20
-13.416800
11
-15.864700
21
-13.447700
0
LINE
8
CUTOUTS
10
-15.864700
20
-13.447700
11
-15.866000
21
-13.447800
0
LINE
8
CUTOUTS
10
-15.866000
20
-13.447800
11
-15.867200
21
-13.448000
0
LINE
8
CUTOUTS
10
-15.867200
20
-13.448000
11
-16.931100
21
-13.674300
0
LINE
8
CUTOUTS
10
-16.931100
20
-13.674300
11
-16.931800
21
-13.674500
0
LINE
8
CUTOUTS
10
-16.931800
20
-13.674500
11
-16.932500
21
-13.674800
0
LINE
8
CUTOUTS
10
-16.932500
20
-13.674800
11
-19.141800
21
-14.495000
0
LINE
8
CUTOUTS
10
-19.141800
20
-14.495000
11
-19.141800
21
-14.495000
0
LINE
8
CUTOUTS
10
-19.141800
20
-14.495000
11
-19.141800
21
-14.495000
0
LINE
8
CUTOUTS
10
-19.141800
20
-14.495000
11
-20.896000
21
-15.022700
0
LINE
8
CUTOUTS
10
-20.896000
20
-15.022700
11
-22.286200
21
-15.153500
0
LINE
8
CUTOUTS
10
-22.286200
20
-15.153500
11
-23.600300
21
-14.996100
0
LINE
8
CUTOUTS
10
-23.600300
20
-14.996100
11
-23.601000
21
-14.995900
0
LINE
8
CUTOUTS
10
-23.601000
20
-14.995900
11
-23.601700
21
-14.995800
0
LINE
8
CUTOUTS
10
-23.601700
20
-14.995800
11
-24.929000
21
-14.641000
0
LINE
8
CUTOUTS
10
-24.929000
20
-14.641000
11
-24.929200
21
-14.640900
0
LINE
8
CUTOUTS
10
-24.929200
20
-14.640900
11
-24.929400
21
-14.640800
0
LINE
8
CUTOUTS
10
-24.929400
20
-14.640800
11
-26.646100
21
-13.927700
0
LINE
8
CUTOUTS
10
-26.646100
20
-13.927700
11
-26.646700
21
-13.927500
0
LINE
8
CUTOUTS
10
-26.646700
20
-13.927500
11
-26.647200
21
-13.927300
0
LINE
8
CUTOUTS
10
-26.647200
20
-13.927300
11
-27.774500
21
-13.449900
0
LINE
8
CUTOUTS
10
-27.774500
20
-13.449900
11
-29.126100
21
-13.025900
0
LINE
8
CUTOUTS
10
-29.126100
20
-13.025900
11
-30.464900
21
-12.654800
0
LINE
8
CUTOUTS
10
-30.464900
20
-12.654800
11
-30.465000
21
-12.654800
0
LINE
8
CUTOUTS
10
-30.465000
20
-12.654800
11
-30.465100
21
-12.654700
0
LINE
8
CUTOUTS
10
-30.465100
20
-12.654700
11
-31.508400
21
-12.443500
0
LINE
8
CUTOUTS
10
-31.508400
20
-12.443500
11
-31.509000
21
-12.443400
0
LINE
8
CUTOUTS
10
-31.509000
20
-12.443400
11
-31.509500
21
-12.443200
0
LINE
8
CUTOUTS
10
-31.509500
20
-12.443200
11
-33.294500
21
-11.967200
0
LINE
8
CUTOUTS
10
-33.294500
20
-11.967200
11
-33.295000
21
-11.967100
0
LINE
8
CUTOUTS
10
-33.295000
20
-11.967100
11
-33.295500
21
-11.967000
0
LINE
8
CUTOUTS
10
-33.295500
20
-11.967000
11
-34.909900
21
-11.570000
0
LINE
8
CUTOUTS
10
-34.909900
20
-11.570000
11
-35.094850
21
-11.449063
0
LINE
8
CUTOUTS
10
-35.094850
20
-11.449063
11
-35.110900
21
-11.260400
0
LINE
8
CUTOUTS
10
-35.110900
20
-11.260400
11
-35.110900
21
-11.260200
0
LINE
8
CUTOUTS
10
-35.110900
20
-11.260200
11
-35.110800
21
-11.259900
0
LINE
8
CUTOUTS
10
-35.110800
20
-11.259900
11
-35.118338
21
-10.768737
0
LINE
8
CUTOUTS
10
-35.118338
20
-10.768737
11
-35.257200
21
-10.333900
0
LINE
8
CUTOUTS
10
-35.257200
20
-10.333900
11
-35.292000
21
-10.077100
0
LINE
8
CUTOUTS
10
-35.292000
20
-10.077100
11
-35.102700
21
-9.985560
0
LINE
8
CUTOUTS
10
-35.102700
20
-9.985560
11
-35.101900
21
-9.985290
0
LINE
8
CUTOUTS
10
-35.101900
20
-9.985290
11
-35.101200
21
-9.984990
0
LINE
8
CUTOUTS
10
-35.101200
20
-9.984990
11
-34.892300
21
-9.893400
0
LINE
8
CUTOUTS
10
-34.892300
20
-9.893410
11
-32.870800
21
-9.259180
0
LINE
8
CUTOUTS
10
-32.870800
20
-9.259180
11
-32.870500
21
-9.259090
0
LINE
8
CUTOUTS
10
-32.870500
20
-9.259090
11
-32.870100
21
-9.259000
0
LINE
8
CUTOUTS
10
-32.870100
20
-9.259000
11
-31.090400
21
-8.837040
0
LINE
8
CUTOUTS
10
-31.090400
20
-8.837040
11
-29.283500
21
-8.705290
0
LINE
8
CUTOUTS
10
-29.283500
20
-8.705290
11
-28.375500
21
-8.731730
0
LINE
8
CUTOUTS
10
-28.375500
20
-8.731730
11
-26.868700
21
-8.824250
0
LINE
8
CUTOUTS
10
-26.868700
20
-8.824250
11
-26.868600
21
-8.824250
0
LINE
8
CUTOUTS
10
-26.868600
20
-8.824250
11
-26.868500
21
-8.824260
0
LINE
8
CUTOUTS
10
-26.868500
20
-8.824260
11
-25.293000
21
-8.996320
0
LINE
8
CUTOUTS
10
-25.293000
20
-8.996320
11
-25.292900
21
-8.996320
0
LINE
8
CUTOUTS
10
-43.154200
20
-6.554360
11
-42.732900
21
-7.777610
0
LINE
8
CUTOUTS
10
-42.732900
20
-7.777610
11
-42.737600
21
-7.782160
0
LINE
8
CUTOUTS
10
-42.737600
20
-7.782160
11
-43.748800
21
-6.831070
0
LINE
8
CUTOUTS
10
-43.748800
20
-6.831070
11
-43.154200
21
-6.554360
0
LINE
8
PERIMETER
10
124.950000
20
109.772000
11
124.950000
21
109.772000
0
LINE
8
PERIMETER
10
124.950000
20
109.772000
11
86.899900
21
109.772000
0
LINE
8
PERIMETER
10
86.899900
20
109.772000
11
86.899900
21
95.222400
0
LINE
8
PERIMETER
10
86.899900
20
95.222400
11
86.621652
21
94.550648
0
LINE
8
PERIMETER
10
86.621652
20
94.550648
11
85.949900
21
94.272400
0
LINE
8
PERIMETER
10
85.949900
20
94.272400
11
81.899900
21
94.272400
0
LINE
8
PERIMETER
10
81.899900
20
94.272400
11
81.228148
21
94.550648
0
LINE
8
PERIMETER
10
81.228148
20
94.550648
11
80.949900
21
95.222400
0
LINE
8
PERIMETER
10
80.949900
20
95.222400
11
80.949900
21
109.772000
0
LINE
8
PERIMETER
10
80.949900
20
109.772000
11
-80.949900
21
109.772000
0
LINE
8
PERIMETER
10
-80.949900
20
109.772000
11
-80.949900
21
95.222400
0
LINE
8
PERIMETER
10
-80.949900
20
95.222400
11
-81.228148
21
94.550648
0
LINE
8
PERIMETER
10
-81.228148
20
94.550648
11
-81.899900
21
94.272400
0
LINE
8
PERIMETER
10
-81.899900
20
94.272400
11
-85.949900
21
94.272400
0
LINE
8
PERIMETER
10
-85.949900
20
94.272400
11
-86.621652
21
94.550648
0
LINE
8
PERIMETER
10
-86.621652
20
94.550648
11
-86.899900
21
95.222400
0
LINE
8
PERIMETER
10
-86.899900
20
95.222400
11
-86.899900
21
109.772000
0
LINE
8
PERIMETER
10
-86.899900
20
109.772000
11
-124.950000
21
109.772000
0
LINE
8
PERIMETER
10
-124.950000
20
109.772000
11
-124.950000
21
109.772000
0
LINE
8
PERIMETER
10
-124.950000
20
109.772000
11
-134.050000
21
109.772000
0
LINE
8
PERIMETER
10
-134.050000
20
109.772000
11
-134.050000
21
109.772000
0
LINE
8
PERIMETER
10
-134.050000
20
109.772000
11
-134.500000
21
109.772000
0
LINE
8
PERIMETER
10
-134.500000
20
109.772000
11
-136.243242
21
109.683975
0
LINE
8
PERIMETER
10
-136.243242
20
109.683975
11
-137.936129
21
109.425613
0
LINE
8
PERIMETER
10
-137.936129
20
109.425613
11
-139.570091
21
109.005483
0
LINE
8
PERIMETER
10
-139.570091
20
109.005483
11
-141.136557
21
108.432157
0
LINE
8
PERIMETER
10
-141.136557
20
108.432157
11
-142.626957
21
107.714203
0
LINE
8
PERIMETER
10
-142.626957
20
107.714203
11
-144.032722
21
106.860192
0
LINE
8
PERIMETER
10
-144.032722
20
106.860192
11
-145.345281
21
105.878693
0
LINE
8
PERIMETER
10
-145.345281
20
105.878693
11
-146.556065
21
104.778277
0
LINE
8
PERIMETER
10
-146.556065
20
104.778277
11
-147.656502
21
103.567513
0
LINE
8
PERIMETER
10
-147.656502
20
103.567513
11
-148.638024
21
102.254971
0
LINE
8
PERIMETER
10
-148.638024
20
102.254971
11
-149.492060
21
100.849221
0
LINE
8
PERIMETER
10
-149.492060
20
100.849221
11
-150.210040
21
99.358833
0
LINE
8
PERIMETER
10
-150.210040
20
99.358833
11
-150.783394
21
97.792377
0
LINE
8
PERIMETER
10
-150.783394
20
97.792377
11
-151.203552
21
96.158423
0
LINE
8
PERIMETER
10
-151.203552
20
96.158423
11
-151.461944
21
94.465541
0
LINE
8
PERIMETER
10
-151.461944
20
94.465541
11
-151.550000
21
92.722300
0
LINE
8
PERIMETER
10
-151.550000
20
92.722300
11
-151.550000
21
-78.721500
0
LINE
8
PERIMETER
10
-151.550000
20
-78.721500
11
-151.466569
21
-80.406683
0
LINE
8
PERIMETER
10
-151.466569
20
-80.406683
11
-151.219362
21
-82.063323
0
LINE
8
PERIMETER
10
-151.219362
20
-82.063323
11
-150.813011
21
-83.680239
0
LINE
8
PERIMETER
10
-150.813011
20
-83.680239
11
-150.252146
21
-85.246253
0
LINE
8
PERIMETER
10
-150.252146
20
-85.246253
11
-149.541399
21
-86.750182
0
LINE
8
PERIMETER
10
-149.541399
20
-86.750182
11
-148.685400
21
-88.180849
0
LINE
8
PERIMETER
10
-148.685400
20
-88.180849
11
-147.688780
21
-89.527071
0
LINE
8
PERIMETER
10
-147.688780
20
-89.527071
11
-146.556171
21
-90.777671
0
LINE
8
PERIMETER
10
-146.556171
20
-90.777671
11
-145.305571
21
-91.910280
0
LINE
8
PERIMETER
10
-145.305571
20
-91.910280
11
-143.959349
21
-92.906900
0
LINE
8
PERIMETER
10
-143.959349
20
-92.906900
11
-142.528682
21
-93.762899
0
LINE
8
PERIMETER
10
-142.528682
20
-93.762899
11
-141.024753
21
-94.473646
0
LINE
8
PERIMETER
10
-141.024753
20
-94.473646
11
-139.458739
21
-95.034511
0
LINE
8
PERIMETER
10
-139.458739
20
-95.034511
11
-137.841823
21
-95.440862
0
LINE
8
PERIMETER
10
-137.841823
20
-95.440862
11
-136.185183
21
-95.688069
0
LINE
8
PERIMETER
10
-136.185183
20
-95.688069
11
-134.500000
21
-95.771500
0
LINE
8
PERIMETER
10
-134.500000
20
-95.771500
11
134.500000
21
-95.771500
0
LINE
8
PERIMETER
10
134.500000
20
-95.771500
11
136.185183
21
-95.688069
0
LINE
8
PERIMETER
10
136.185183
20
-95.688069
11
137.841823
21
-95.440862
0
LINE
8
PERIMETER
10
137.841823
20
-95.440862
11
139.458739
21
-95.034511
0
LINE
8
PERIMETER
10
139.458739
20
-95.034511
11
141.024753
21
-94.473646
0
LINE
8
PERIMETER
10
141.024753
20
-94.473646
11
142.528682
21
-93.762899
0
LINE
8
PERIMETER
10
142.528682
20
-93.762899
11
143.959349
21
-92.906900
0
LINE
8
PERIMETER
10
143.959349
20
-92.906900
11
145.305571
21
-91.910280
0
LINE
8
PERIMETER
10
145.305571
20
-91.910280
11
146.556171
21
-90.777671
0
LINE
8
PERIMETER
10
146.556171
20
-90.777671
11
147.688780
21
-89.527071
0
LINE
8
PERIMETER
10
147.688780
20
-89.527071
11
148.685400
21
-88.180849
0
LINE
8
PERIMETER
10
148.685400
20
-88.180849
11
149.541399
21
-86.750182
0
LINE
8
PERIMETER
10
149.541399
20
-86.750182
11
150.252146
21
-85.246253
0
LINE
8
PERIMETER
10
150.252146
20
-85.246253
11
150.813011
21
-83.680239
0
LINE
8
PERIMETER
10
150.813011
20
-83.680239
11
151.219362
21
-82.063323
0
LINE
8
PERIMETER
10
151.219362
20
-82.063323
11
151.466569
21
-80.406683
0
LINE
8
PERIMETER
10
151.466569
20
-80.406683
11
151.550000
21
-78.721500
0
LINE
8
PERIMETER
10
151.550000
20
-78.721500
11
151.550000
21
92.722300
0
LINE
8
PERIMETER
10
151.550000
20
92.722300
11
151.461944
21
94.465541
0
LINE
8
PERIMETER
10
151.461944
20
94.465541
11
151.203552
21
96.158423
0
LINE
8
PERIMETER
10
151.203552
20
96.158423
11
150.783394
21
97.792377
0
LINE
8
PERIMETER
10
150.783394
20
97.792377
11
150.210040
21
99.358833
0
LINE
8
PERIMETER
10
150.210040
20
99.358833
11
149.492060
21
100.849221
0
LINE
8
PERIMETER
10
149.492060
20
100.849221
11
148.638024
21
102.254971
0
LINE
8
PERIMETER
10
148.638024
20
102.254971
11
147.656502
21
103.567513
0
LINE
8
PERIMETER
10
147.656502
20
103.567513
11
146.556065
21
104.778277
0
LINE
8
PERIMETER
10
146.556065
20
104.778277
11
145.345281
21
105.878693
0
LINE
8
PERIMETER
10
145.345281
20
105.878693
11
144.032722
21
106.860192
0
LINE
8
PERIMETER
10
144.032722
20
106.860192
11
142.626957
21
107.714203
0
LINE
8
PERIMETER
10
142.626957
20
107.714203
11
141.136557
21
108.432157
0
LINE
8
PERIMETER
10
141.136557
20
108.432157
11
139.570091
21
109.005483
0
LINE
8
PERIMETER
10
139.570091
20
109.005483
11
137.936129
21
109.425613
0
LINE
8
PERIMETER
10
137.936129
20
109.425613
11
136.243242
21
109.683975
0
LINE
8
PERIMETER
10
136.243242
20
109.683975
11
134.500000
21
109.772000
0
LINE
8
PERIMETER
10
134.500000
20
109.772000
11
134.050000
21
109.772000
0
LINE
8
PERIMETER
10
134.050000
20
109.772000
11
134.050000
21
109.772000
0
LINE
8
PERIMETER
10
134.050000
20
109.772000
11
124.950000
21
109.772000
0
LINE
8
PERIMETER
10
124.950000
20
109.772000
11
124.950000
21
109.772000
 0 
ENDSEC
 0 
EOF