0
SECTION
2
HEADER
9
$INSUNITS
70
4
9
$ACADVER
1
AC1014
9
$HANDSEED
5
FFFF
0
ENDSEC
0
SECTION
2
TABLES
0
TABLE
2
VPORT
5
8
100
AcDbSymbolTable
0
ENDTAB
0
TABLE
2
LTYPE
5
5
100
AcDbSymbolTable
70
3
0
LTYPE
5
14
100
AcDbSymbolTableRecord
100
AcDbLinetypeTableRecord
2
BYBLOCK
70
0
0
LTYPE
5
15
100
AcDbSymbolTableRecord
100
AcDbLinetypeTableRecord
2
BYLAYER
70
0
0
LTYPE
5
16
100
AcDbSymbolTableRecord
100
AcDbLinetypeTableRecord
2
DASHED
70
0
3
Dashed __ __ __ __ __ __ __ __ __ __ __ __ __ _
72
65
73
2
40
0.75
49
0.5
74
0
49
-0.25
74
0
0
ENDTAB
0
TABLE
2
LAYER
5
2
100
AcDbSymbolTable
70
3
0
LAYER
5
50
100
AcDbSymbolTableRecord
100
AcDbLayerTableRecord
2
0
70
0
6
CONTINUOUS
0
LAYER
5
51
100
AcDbSymbolTableRecord
100
AcDbLayerTableRecord
2
CUTOUTS
70
0
62
1
6
CONTINUOUS
0
LAYER
5
52
100
AcDbSymbolTableRecord
100
AcDbLayerTableRecord
2
PERIMETER
70
0
62
5
6
CONTINUOUS
0
ENDTAB
0
TABLE
2
STYLE
5
3
100
AcDbSymbolTable
70
1
0
STYLE
5
11
100
AcDbSymbolTableRecord
100
AcDbTextStyleTableRecord
2
STANDARD
70
0
0
ENDTAB
0
TABLE
2
VIEW
5
6
100
AcDbSymbolTable
0
ENDTAB
0
TABLE
2
UCS
5
7
100
AcDbSymbolTable
0
ENDTAB
0
TABLE
2
APPID
5
9
100
AcDbSymbolTable
70
1
0
APPID
5
12
100
AcDbSymbolTableRecord
100
AcDbRegAppTableRecord
2
ACAD
70
0
0
ENDTAB
0
TABLE
2
DIMSTYLE
5
A
100
AcDbSymbolTable
0
ENDTAB
0
TABLE
2
BLOCK_RECORD
5
1
100
AcDbSymbolTable
70
2
0
BLOCK_RECORD
5
1F
100
AcDbSymbolTableRecord
100
AcDbBlockTableRecord
2
*MODEL_SPACE
0
BLOCK_RECORD
5
1B
100
AcDbSymbolTableRecord
100
AcDbBlockTableRecord
2
*PAPER_SPACE
0
ENDTAB
0
ENDSEC
0
SECTION
2
BLOCKS
0
BLOCK
5
20
100
AcDbEntity
100
AcDbBlockBegin
2
*MODEL_SPACE
0
ENDBLK
5
21
100
AcDbEntity
100
AcDbBlockEnd
0
BLOCK
5
1C
100
AcDbEntity
100
AcDbBlockBegin
2
*PAPER_SPACE
0
ENDBLK
5
1D
100
AcDbEntity
100
AcDbBlockEnd
0
ENDSEC
0
SECTION
2
ENTITIES
0
CIRCLE
5
100
100
AcDbEntity
8
CUTOUTS
100
AcDbCircle
10
-214.90303125038335
20
-133.0969727133255
30
-1.7763568394002505e-14
40
3.2985000000000042
210
0
220
0
230
1
0
CIRCLE
5
101
100
AcDbEntity
8
CUTOUTS
100
AcDbCircle
10
-154.3845472555189
20
-131.15251473326794
30
7.1054273576010019e-14
40
3.3124999999999893
210
0
220
0
230
1
0
CIRCLE
5
102
100
AcDbEntity
8
CUTOUTS
100
AcDbCircle
10
-244.47348628152616
20
-131.1516879000848
30
-3.5527136788005009e-14
40
3.282500000000006
210
0
220
0
230
1
0
LWPOLYLINE
5
103
100
AcDbEntity
8
CUTOUTS
100
AcDbPolyline
90
42
70
1
43
0.0
10
-239.22252426528101
20
-87.438193251969253
10
-239.60761124173763
20
-87.823345415329442
10
-240.05378429818808
20
-88.13574664100868
10
-240.54737633315295
20
-88.365938730516916
10
-240.830275803353
20
-88.441735760249443
10
-240.83027580335298
20
-88.548379285119637
42
-0.41421356237309503
10
-241.455275803353
20
-89.17337928511968
10
-241.75527580335299
20
-89.173379285119708
42
-0.41421356237306173
10
-242.38027580335302
20
-88.54837928511968
10
-242.38027580335302
20
-88.447556796838441
10
-242.68490129860768
20
-88.365938730516959
10
-243.1784919901956
20
-88.135747267507313
10
-243.62463318199661
20
-87.823342271236399
10
-244.00986750935292
20
-87.438191755254678
10
-244.3222370756975
20
-86.992024015488951
10
-244.5523665067586
20
-86.498389308395801
10
-244.69339382907296
20
-85.972265389431641
10
-244.74084945740049
20
-85.429663918521271
10
-244.69339385822136
20
-84.88708140553635
10
-244.55236636540252
20
-84.360956850479255
10
-244.32223691912822
20
-83.867303485838548
10
-244.00986803340797
20
-83.421146030444305
10
-243.62463318192962
20
-83.036004302842258
10
-243.17849151055785
20
-82.723589658290621
10
-242.68490186414039
20
-82.493398682707792
10
-242.38027580335302
20
-82.411785856475234
10
-242.38027580335299
20
-82.248379285119711
42
-0.4142135623730534
10
-241.75527580335302
20
-81.623379285119682
10
-241.45527580335298
20
-81.623379285119725
42
-0.41421356237306173
10
-240.830275803353
20
-82.248379285119682
10
-240.830275803353
20
-82.417606508532813
10
-240.54737576762025
20
-82.493398682707792
10
-240.05378477781053
20
-82.72359028479643
10
-239.60761124171131
20
-83.036001158670572
10
-239.22252374119833
20
-83.421144533748333
10
-238.91003802944621
20
-83.867309241572784
10
-238.67991126635812
20
-84.360956850479297
10
-238.53888377353928
20
-84.887081405536392
10
-238.49142817436021
20
-85.429663918521314
10
-238.53888380268774
20
-85.972265389431669
10
-238.67991112500204
20
-86.498389308395815
10
-238.91003787281858
20
-86.992018259846873
0
LWPOLYLINE
5
104
100
AcDbEntity
8
CUTOUTS
100
AcDbPolyline
90
5
70
1
43
0.0
10
-9.7752241834744709
20
-118.44342952066087
10
-9.7720682694655281
20
-124.04418119519937
10
-9.8017132451478979
20
-126.88111323141766
10
-10.714163384126492
20
-126.87157843755018
10
-10.625999191431523
20
-118.43453921095309
0
SPLINE
5
105
100
AcDbEntity
8
CUTOUTS
100
AcDbSpline
70
0
71
3
72
17
73
13
74
0
42
0.000000001
43
0.0000000001
44
0.0000000001
40
-7.4754243539812865e-05
40
-7.4754243539812865e-05
40
-7.4754243539812865e-05
40
-7.4754243539812865e-05
40
0
40
0
40
0
40
0.030129568601723462
40
0.030129568601723462
40
0.030129568601723462
40
0.054291968750208426
40
0.054291968750208426
40
0.054291968750208426
40
0.055313278334093115
40
0.055313278334093115
40
0.055313278334093115
40
0.055313278334093115
10
-1.7559590261778013
20
-125.54391128082759
30
0
10
-1.7559463080190973
20
-125.54416368618278
30
0
10
-1.7559335898603934
20
-125.54441609153804
30
0
10
-1.7559208717016894
20
-125.54466849689331
30
0
10
-1.7507948398282125
20
-125.64640003885883
30
0
10
-1.7460907720035224
20
-125.75403742365279
30
0
10
-1.7146866871028632
20
-125.86089471809024
30
0
10
-1.6895021889211226
20
-125.94658889914911
30
0
10
-1.6497411554407926
20
-126.02294469956171
30
0
10
-1.6125265982393
20
-126.09536453303065
30
0
10
-1.6109535929212637
20
-126.09842561427799
30
0
10
-1.6093805876032274
20
-126.10148669552531
30
0
10
-1.6078075822852089
20
-126.10454777677263
30
0
0
SPLINE
5
106
100
AcDbEntity
8
CUTOUTS
100
AcDbSpline
70
0
71
3
72
14
73
10
74
0
42
0.000000001
43
0.0000000001
44
0.0000000001
40
-0.0010099466910623747
40
-0.0010099466910623747
40
-0.0010099466910623747
40
-0.0010099466910623747
40
0
40
0
40
0
40
0.022415818217221755
40
0.022415818217221755
40
0.022415818217221755
40
0.042770592766127394
40
0.042770592766127394
40
0.042770592766127394
40
0.042770592766127394
10
-1.6078075822851112
20
-126.10454777677269
30
0
10
-1.6054659644492919
20
-126.1070699563942
30
0
10
-1.6031243466134726
20
-126.10959213601572
30
0
10
-1.6007827287776444
20
-126.11211431563723
30
0
10
-1.5488104017167637
20
-126.16809422072268
30
0
10
-1.4930310255850998
20
-126.22966840042383
30
0
10
-1.4185583534445734
20
-126.27524163814903
30
0
10
-1.3509331417844372
20
-126.31662460130345
30
0
10
-1.2781572233191085
20
-126.33814601145068
30
1.7763568394002505e-14
10
-1.2082526706037742
20
-126.35564365060682
30
1.7763568394002505e-14
0
LINE
5
107
100
AcDbEntity
8
CUTOUTS
100
AcDbLine
10
-1.2082526706037742
20
-126.35564365060685
30
1.7763568394002505e-14
11
-1.2154514261757319
21
-127.04454218511289
31
1.7763568394002505e-14
0
SPLINE
5
108
100
AcDbEntity
8
CUTOUTS
100
AcDbSpline
70
0
71
3
72
11
73
7
74
0
42
0.000000001
43
0.0000000001
44
0.0000000001
40
0.008049019324129587
40
0.008049019324129587
40
0.008049019324129587
40
0.008049019324129587
40
0.074233622443699215
40
0.074233622443699215
40
0.074233622443699215
40
0.13156686412153407
40
0.13156686412153407
40
0.13156686412153407
40
0.13156686412153407
10
-1.2154514261757141
20
-127.04454218511289
30
1.7763568394002505e-14
10
-1.4391105118175507
20
-127.02014802944581
30
0
10
-1.6532640618776295
20
-126.9890066514546
30
0
10
-1.8353078465336836
20
-126.90389874614979
30
0
10
-1.9930055558147608
20
-126.83017295686433
30
0
10
-2.1384471927596413
20
-126.71026728533705
30
0
10
-2.2876031442994647
20
-126.58479040095574
30
0
0
SPLINE
5
109
100
AcDbEntity
8
CUTOUTS
100
AcDbSpline
70
0
71
3
72
11
73
7
74
0
42
0.000000001
43
0.0000000001
44
0.0000000001
40
0.001252003666248055
40
0.001252003666248055
40
0.001252003666248055
40
0.001252003666248055
40
0.060694031651076938
40
0.060694031651076938
40
0.060694031651076938
40
0.13823132058018334
40
0.13823132058018334
40
0.13823132058018334
40
0.13823132058018334
10
-2.2876031442994913
20
-126.58479040095577
30
0
10
-2.3901005720198851
20
-126.41226023052033
30
0
10
-2.4887649466695292
20
-126.24348871952765
30
0
10
-2.5477741547707753
20
-126.06814147780233
30
0
10
-2.6247468653787118
20
-125.8394152683256
30
0
10
-2.6396367196344714
20
-125.58334818957283
30
0
10
-2.6538668817825259
20
-125.32047626315396
30
0
0
SPLINE
5
10A
100
AcDbEntity
8
CUTOUTS
100
AcDbSpline
70
0
71
3
72
11
73
7
74
0
42
0.000000001
43
0.0000000001
44
0.0000000001
40
8.475571713273656e-05
40
8.475571713273656e-05
40
8.475571713273656e-05
40
8.475571713273656e-05
40
0.041435862694661915
40
0.041435862694661915
40
0.041435862694661915
40
0.089381761271694143
40
0.089381761271694143
40
0.089381761271694143
40
0.089381761271694143
10
-2.6538668817825615
20
-125.32047626315396
30
0
10
-2.6582052822610356
20
-125.18270232179107
30
0
10
-2.662528250751218
20
-125.04524263506333
30
0
10
-2.6651136832833275
20
-124.90806606549249
30
0
10
-2.6681114479146393
20
-124.74901218828036
30
0
10
-2.6687881136593026
20
-124.58955070288637
30
0
10
-2.6694621058696475
20
-124.42972396610129
30
0
0
SPLINE
5
10B
100
AcDbEntity
8
CUTOUTS
100
AcDbSpline
70
0
71
3
72
11
73
7
74
0
42
0.000000001
43
0.0000000001
44
0.0000000001
40
0
40
0
40
0
40
0
40
0.052501982753760147
40
0.052501982753760147
40
0.052501982753760147
40
0.10748240524757341
40
0.10748240524757341
40
0.10748240524757341
40
0.10748240524757341
10
-2.6694627838485561
20
-124.42972396896027
30
0
10
-2.6694566501963477
20
-124.25471637503929
30
0
10
-2.6694502719391808
20
-124.07982024970862
30
0
10
-2.6686648338347849
20
-123.90503915488517
30
0
10
-2.6678423178733199
20
-123.72200724002602
30
0
10
-2.6661643786910014
20
-123.53886253519995
30
0
10
-2.664484789089415
20
-123.35560115059435
30
0
0
SPLINE
5
10C
100
AcDbEntity
8
CUTOUTS
100
AcDbSpline
70
0
71
3
72
11
73
7
74
0
42
0.000000001
43
0.0000000001
44
0.0000000001
40
0
40
0
40
0
40
0
40
0.055937627553873909
40
0.055937627553873909
40
0.055937627553873909
40
0.11125224760012303
40
0.11125224760012303
40
0.11125224760012303
40
0.11125224760012303
10
-2.664485052195201
20
-123.35560114818273
30
0
10
-2.6622823433509177
20
-123.16915445377056
30
0
10
-2.6600806706050326
20
-122.98281489294992
30
0
10
-2.6570824353215281
20
-122.7965953006313
30
0
10
-2.6541175930003744
20
-122.61244973628197
30
0
10
-2.6503704405939663
20
-122.42821079245479
30
0
10
-2.6466209092892088
20
-122.2438659300247
30
0
0
SPLINE
5
10D
100
AcDbEntity
8
CUTOUTS
100
AcDbSpline
70
0
71
3
72
11
73
7
74
0
42
0.000000001
43
0.0000000001
44
0.0000000001
40
3.0182039258700511e-05
40
3.0182039258700511e-05
40
3.0182039258700511e-05
40
3.0182039258700511e-05
40
0.052508379786865629
40
0.052508379786865629
40
0.052508379786865629
40
0.099916758662332503
40
0.099916758662332503
40
0.099916758662332503
40
0.099916758662332503
10
-2.6466203021186461
20
-122.24386594481913
30
0
10
-2.6423590968564534
20
-122.06898432236726
30
-1.7763568394002505e-14
10
-2.6381021585708639
20
-121.89439813296616
30
0
10
-2.6317940403066062
20
-121.72018114309751
30
0
10
-2.6260953373499705
20
-121.56279492526359
30
0
10
-2.6187042704862238
20
-121.40520272507123
30
0
10
-2.6112951360702583
20
-121.24734464766333
30
0
0
SPLINE
5
10E
100
AcDbEntity
8
CUTOUTS
100
AcDbSpline
70
0
71
3
72
11
73
7
74
0
42
0.000000001
43
0.0000000001
44
0.0000000001
40
0.00011506855233702653
40
0.00011506855233702653
40
0.00011506855233702653
40
0.00011506855233702653
40
0.078927660324758453
40
0.078927660324758453
40
0.078927660324758453
40
0.13842440207574769
40
0.13842440207574769
40
0.13842440207574769
40
0.13842440207574769
10
-2.6112951360700096
20
-121.24734464766334
30
0
10
-2.5904031303388129
20
-120.98057467311895
30
0
10
-2.5689856245850349
20
-120.72065339749513
30
0
10
-2.4848970359962506
20
-120.48998072186703
30
0
10
-2.4214173695246908
20
-120.31584265202045
30
0
10
-2.318886790641451
20
-120.14915328454487
30
0
10
-2.2124858898805764
20
-119.97884066509147
30
0
0
SPLINE
5
10F
100
AcDbEntity
8
CUTOUTS
100
AcDbSpline
70
0
71
3
72
11
73
7
74
0
42
0.000000001
43
0.0000000001
44
0.0000000001
40
0.0012604971652920216
40
0.0012604971652920216
40
0.0012604971652920216
40
0.0012604971652920216
40
0.058182178078658255
40
0.058182178078658255
40
0.058182178078658255
40
0.1238698895575063
40
0.1238698895575063
40
0.1238698895575063
40
0.1238698895575063
10
-2.2124858898806208
20
-119.97884066509145
30
0
10
-2.061181317340993
20
-119.85833772771494
30
-1.7763568394002505e-14
10
-1.9136967018886175
20
-119.74324796020413
30
-1.7763568394002505e-14
10
-1.7552871555397698
20
-119.673791367456
30
-1.7763568394002505e-14
10
-1.5724822838442976
20
-119.59363834752524
30
-1.7763568394002505e-14
10
-1.3594120754351036
20
-119.56717373923161
30
-1.7763568394002505e-14
10
-1.1371105802522594
20
-119.5475667135882
30
0
0
LINE
5
110
100
AcDbEntity
8
CUTOUTS
100
AcDbLine
10
-1.1371105802522596
20
-119.5475667135882
30
-9.8762684367386952e-31
11
-1.1443159470385664
21
-120.23709792075621
31
-2.311115933264683e-32
0
SPLINE
5
111
100
AcDbEntity
8
CUTOUTS
100
AcDbSpline
70
0
71
3
72
14
73
10
74
0
42
0.000000001
43
0.0000000001
44
0.0000000001
40
0.0057097847784496735
40
0.0057097847784496735
40
0.0057097847784496735
40
0.0057097847784496735
40
0.026682924846567511
40
0.026682924846567511
40
0.026682924846567511
40
0.049164767815068948
40
0.049164767815068948
40
0.049164767815068948
40
0.050189430636559423
40
0.050189430636559423
40
0.050189430636559423
40
0.050189430636559423
10
-1.1443159470385487
20
-120.23709792075621
30
0
10
-1.2162491489906122
20
-120.25426188502789
30
0
10
-1.2911063432259084
20
-120.2753547704674
30
0
10
-1.3610899199780946
20
-120.31635966085162
30
-1.7763568394002505e-14
10
-1.4361077655561527
20
-120.36031423816168
30
-1.7763568394002505e-14
10
-1.4937422949280077
20
-120.4198386288237
30
-1.7763568394002505e-14
10
-1.5475399698845582
20
-120.47418323348852
30
-1.7763568394002505e-14
10
-1.5499919253353511
20
-120.47666011654597
30
-1.7763568394002505e-14
10
-1.5524438807861529
20
-120.4791369996034
30
-1.7763568394002505e-14
10
-1.5548958362369458
20
-120.48161388266082
30
-1.7763568394002505e-14
0
SPLINE
5
112
100
AcDbEntity
8
CUTOUTS
100
AcDbSpline
70
0
71
3
72
17
73
13
74
0
42
0.000000001
43
0.0000000001
44
0.0000000001
40
-0.0010339152254396872
40
-0.0010339152254396872
40
-0.0010339152254396872
40
-0.0010339152254396872
40
0
40
0
40
0
40
0.023806638121157814
40
0.023806638121157814
40
0.023806638121157814
40
0.053394669167176854
40
0.053394669167176854
40
0.053394669167176854
40
0.053534938053575565
40
0.053534938053575565
40
0.053534938053575565
40
0.053534938053575565
10
-1.5548958362368925
20
-120.48161388266087
30
-1.7763568394002505e-14
10
-1.5565768597253105
20
-120.48466694591652
30
-1.7763568394002505e-14
10
-1.5582578832137461
20
-120.48772000917219
30
-1.7763568394002505e-14
10
-1.5599389067021818
20
-120.49077307242786
30
-1.7763568394002505e-14
10
-1.5986456757656253
20
-120.56107203921002
30
-1.7763568394002505e-14
10
-1.6400605834022042
20
-120.63529033129046
30
-1.7763568394002505e-14
10
-1.667107216310405
20
-120.71932655948216
30
-1.7763568394002505e-14
10
-1.7007220681893387
20
-120.82377081221836
30
-1.7763568394002505e-14
10
-1.7076994840497328
20
-120.92956445986999
30
-1.7763568394002505e-14
10
-1.7149801188963842
20
-121.02936753662047
30
-1.7763568394002505e-14
10
-1.7150146344253259
20
-121.02984067612788
30
-1.7763568394002505e-14
10
-1.7150491499542675
20
-121.03031381563531
30
-1.7763568394002505e-14
10
-1.7150836654832002
20
-121.03078695514242
30
-1.7763568394002505e-14
0
SPLINE
5
113
100
AcDbEntity
8
CUTOUTS
100
AcDbSpline
70
0
71
3
72
17
73
13
74
0
42
0.000000001
43
0.0000000001
44
0.0000000001
40
-0.00014231895796533027
40
-0.00014231895796533027
40
-0.00014231895796533027
40
-0.00014231895796533027
40
0
40
0
40
0
40
0.051655874569004556
40
0.051655874569004556
40
0.051655874569004556
40
0.10534226616598541
40
0.10534226616598541
40
0.10534226616598541
40
0.10535199656156365
40
0.10535199656156365
40
0.10535199656156365
40
0.10535199656156365
10
-1.7150836654716717
20
-121.03078695514321
30
-1.7763568394002505e-14
10
-1.7151002061437481
20
-121.03126106328315
30
-1.7763568394002505e-14
10
-1.7151167468158335
20
-121.03173517142272
30
-1.7763568394002505e-14
10
-1.7151332874879188
20
-121.03220927956231
30
-1.7763568394002505e-14
10
-1.721136864907572
20
-121.20429085562419
30
-1.7763568394002505e-14
10
-1.7271410342200622
20
-121.37638923505038
30
-1.7763568394002505e-14
10
-1.733030025093073
20
-121.54850837788101
30
-1.7763568394002505e-14
10
-1.7391505036012245
20
-121.72739327297647
30
-1.7763568394002505e-14
10
-1.7451453521365512
20
-121.9062649803985
30
-1.7763568394002505e-14
10
-1.7511396214424846
20
-122.08511922271154
30
-1.7763568394002505e-14
10
-1.7511407078744601
20
-122.08515163916759
30
-1.7763568394002505e-14
10
-1.7511417943064267
20
-122.08518405562356
30
-1.7763568394002505e-14
10
-1.7511428807382778
20
-122.08521647207598
30
-1.7763568394002505e-14
0
SPLINE
5
114
100
AcDbEntity
8
CUTOUTS
100
AcDbSpline
70
0
71
3
72
17
73
13
74
0
42
0.000000001
43
0.0000000001
44
0.0000000001
40
-9.7303139558514051e-06
40
-9.7303139558514051e-06
40
-9.7303139558514051e-06
40
-9.7303139558514051e-06
40
0
40
0
40
0
40
0.055478095570279953
40
0.055478095570279953
40
0.055478095570279953
40
0.11251187212752584
40
0.11251187212752584
40
0.11251187212752584
40
0.11253213633721695
40
0.11253213633721695
40
0.11253213633721695
40
0.11253213633721695
10
-1.7511428807386331
20
-122.08521647207368
30
-1.7763568394002505e-14
10
-1.7511438830569592
20
-122.08524889134773
30
-1.7763568394002505e-14
10
-1.7511448853751255
20
-122.08528131061635
30
-1.7763568394002505e-14
10
-1.7511458876933006
20
-122.08531372988519
30
-1.7763568394002505e-14
10
-1.7568606778189733
20
-122.27015455371321
30
0
10
-1.7625809701429873
20
-122.45515651689738
30
0
10
-1.7671113375794267
20
-122.64034881180459
30
0
10
-1.771768742658627
20
-122.8307341496445
30
0
10
-1.7751603313514874
20
-123.02098455962992
30
0
10
-1.7785495145744179
20
-123.21106923236117
30
0
10
-1.7785507187576777
20
-123.21113676980808
30
0
10
-1.7785519229409463
20
-123.21120430725502
30
0
10
-1.7785531271241706
20
-123.21127184470009
30
0
0
SPLINE
5
115
100
AcDbEntity
8
CUTOUTS
100
AcDbSpline
70
0
71
3
72
17
73
13
74
0
42
0.000000001
43
0.0000000001
44
0.0000000001
40
-2.0264189336913424e-05
40
-2.0264189336913424e-05
40
-2.0264189336913424e-05
40
-2.0264189336913424e-05
40
0
40
0
40
0
40
0.058046870376057706
40
0.058046870376057706
40
0.058046870376057706
40
0.11656884851389182
40
0.11656884851389182
40
0.11656884851389182
40
0.11659101542434941
40
0.11659101542434941
40
0.11659101542434941
40
0.11659101542434941
10
-1.7785531271321819
20
-123.21127184469879
30
0
10
-1.7785539663475902
20
-123.21133938865508
30
0
10
-1.7785548055629807
20
-123.21140693260827
30
0
10
-1.7785556447783712
20
-123.21147447656143
30
0
10
-1.780959581405287
20
-123.40495446382494
30
0
10
-1.7833678534117781
20
-123.59868349594807
30
0
10
-1.7838451958728652
20
-123.79266635730467
30
0
10
-1.7843264453337071
20
-123.98823694875738
30
0
10
-1.7828437857869173
20
-124.18356115020023
30
0
10
-1.7813642920726569
20
-124.37863425003542
30
0
10
-1.7813637316711539
20
-124.37870813967587
30
0
10
-1.7813631712696509
20
-124.3787820293164
30
0
10
-1.7813626108681213
20
-124.37885591895932
30
0
0
SPLINE
5
116
100
AcDbEntity
8
CUTOUTS
100
AcDbSpline
70
0
71
3
72
17
73
13
74
0
42
0.000000001
43
0.0000000001
44
0.0000000001
40
-2.2167488577773162e-05
40
-2.2167488577773162e-05
40
-2.2167488577773162e-05
40
-2.2167488577773162e-05
40
0
40
0
40
0
40
0.058458351301348521
40
0.058458351301348521
40
0.058458351301348521
40
0.11631229274811961
40
0.11631229274811961
40
0.11631229274811961
40
0.11638810903149621
40
0.11638810903149621
40
0.11638810903149621
40
0.11638810903149621
10
-1.7813626108795166
20
-124.37885591896125
30
0
10
-1.7813616136835642
20
-124.37892980528497
30
0
10
-1.7813606164875495
20
-124.37900369161271
30
0
10
-1.7813596192915349
20
-124.37907757794036
30
0
10
-1.7787298926488326
20
-124.57392477071232
30
0
10
-1.7760982192302255
20
-124.76898093869563
30
0
10
-1.7718308130579274
20
-124.96421046039517
30
0
10
-1.7676075282521364
20
-125.15742147414514
30
0
10
-1.7617911539580444
20
-125.35039081185343
30
0
10
-1.7559818650095871
20
-125.54315344758874
30
0
10
-1.755974252067648
20
-125.54340605866844
30
0
10
-1.7559666391257089
20
-125.54365866974814
30
0
10
-1.755959026183761
20
-125.54391128082861
30
0
0
SPLINE
5
117
100
AcDbEntity
8
CUTOUTS
100
AcDbSpline
70
0
71
3
72
14
73
10
74
0
42
0.000000001
43
0.0000000001
44
0.0000000001
40
-7.958034163533899e-05
40
-7.958034163533899e-05
40
-7.958034163533899e-05
40
-7.958034163533899e-05
40
0
40
0
40
0
40
0.014500490108731829
40
0.014500490108731829
40
0.014500490108731829
40
0.022771041960404852
40
0.022771041960404852
40
0.022771041960404852
40
0.022771041960404852
10
4.7115475071779302
20
-126.46070598082638
30
0
10
4.7118122067956127
20
-126.46068843393026
30
0
10
4.7120769064132686
20
-126.46067088703415
30
0
10
4.7123416060309067
20
-126.46065334013804
30
0
10
4.7605730424454764
20
-126.4574560857873
30
0
10
4.8091239561034618
20
-126.45423970692994
30
0
10
4.8579443416318826
20
-126.45037508626274
30
0
10
4.8857897128506336
20
-126.44817084727664
30
0
10
4.9135280024765917
20
-126.44577063952886
30
0
10
4.94116744609184
20
-126.44327763528827
30
0
0
LINE
5
118
100
AcDbEntity
8
CUTOUTS
100
AcDbLine
10
4.9411674460918391
20
-126.44327763528827
30
0
11
4.9345209667300862
21
-127.07932505294934
31
-5.5466782398352393e-31
0
SPLINE
5
119
100
AcDbEntity
8
CUTOUTS
100
AcDbSpline
70
0
71
3
72
11
73
7
74
0
42
0.000000001
43
0.0000000001
44
0.0000000001
40
0.0062330587786717457
40
0.0062330587786717457
40
0.0062330587786717457
40
0.0062330587786717457
40
0.015477690088790998
40
0.015477690088790998
40
0.015477690088790998
40
0.031199310270809764
40
0.031199310270809764
40
0.031199310270809764
40
0.031199310270809764
10
4.9345209667300773
20
-127.07932505294933
30
0
10
4.9046373656881572
20
-127.0845774271735
30
0
10
4.8750637475703131
20
-127.08947698975008
30
0
10
4.8457446283417385
20
-127.09362425525066
30
0
10
4.7958838993282784
20
-127.10067718476262
30
0
10
4.7447340743154234
20
-127.1058277021032
30
0
10
4.6925780240317385
20
-127.11104459579488
30
0
0
SPLINE
5
11A
100
AcDbEntity
8
CUTOUTS
100
AcDbSpline
70
0
71
3
72
11
73
7
74
0
42
0.000000001
43
0.0000000001
44
0.0000000001
40
0.00010258601763772301
40
0.00010258601763772301
40
0.00010258601763772301
40
0.00010258601763772301
40
0.016525986657585763
40
0.016525986657585763
40
0.016525986657585763
40
0.034036114685172675
40
0.034036114685172675
40
0.034036114685172675
40
0.034036114685172675
10
4.6925780240317652
20
-127.11104459579516
30
0
10
4.6379678605171284
20
-127.11500137115998
30
0
10
4.5842284242738343
20
-127.11886770503872
30
0
10
4.5312973439559281
20
-127.1208217541225
30
0
10
4.474863843164937
20
-127.12290510155944
30
0
10
4.4174167850080783
20
-127.12288598702955
30
0
10
4.3590349586088886
20
-127.12283961556126
30
0
0
SPLINE
5
11B
100
AcDbEntity
8
CUTOUTS
100
AcDbSpline
70
0
71
3
72
11
73
7
74
0
42
0.000000001
43
0.0000000001
44
0.0000000001
40
7.0856204524188466e-05
40
7.0856204524188466e-05
40
7.0856204524188466e-05
40
7.0856204524188466e-05
40
0.088405802504720604
40
0.088405802504720604
40
0.088405802504720604
40
0.15104628984188609
40
0.15104628984188609
40
0.15104628984188609
40
0.15104628984188609
10
4.3590349586088974
20
-127.12283961555985
30
0
10
4.0579128374740661
20
-127.1167796706072
30
1.7763568394002505e-14
10
3.7644324296970124
20
-127.10959440841746
30
0
10
3.504259508617106
20
-127.02224780203491
30
0
10
3.3197644786094651
20
-126.96030817088987
30
0
10
3.1423313948208156
20
-126.85484129092191
30
0
10
2.9611096395575478
20
-126.74518353891132
30
0
0
SPLINE
5
11C
100
AcDbEntity
8
CUTOUTS
100
AcDbSpline
70
0
71
3
72
11
73
7
74
0
42
0.000000001
43
0.0000000001
44
0.0000000001
40
0.0014973469910387306
40
0.0014973469910387306
40
0.0014973469910387306
40
0.0014973469910387306
40
0.060629661180566029
40
0.060629661180566029
40
0.060629661180566029
40
0.14016014899303766
40
0.14016014899303766
40
0.14016014899303766
40
0.14016014899303766
10
2.9611096395575478
20
-126.74518353891131
30
0
10
2.8435686110765337
20
-126.58193453582653
30
0
10
2.7315306453838142
20
-126.42274376248386
30
0
10
2.6684209487160162
20
-126.25460623332424
30
0
10
2.5835410479294465
20
-126.0284682934021
30
0
10
2.578958654146656
20
-125.76401353762398
30
0
10
2.5759900227010482
20
-125.49082418845147
30
0
0
LINE
5
11D
100
AcDbEntity
8
CUTOUTS
100
AcDbLine
10
2.5759900227010482
20
-125.49082418845147
30
0
11
2.6299904062408501
21
-120.32315531688684
31
-1.0477058897466563e-30
0
LINE
5
11E
100
AcDbEntity
8
CUTOUTS
100
AcDbLine
10
2.6299904062408501
20
-120.32315531688684
30
-1.0477058897466563e-30
11
2.0300237343508778
21
-120.31688586905685
31
4.9303806576313238e-31
0
LINE
5
11F
100
AcDbEntity
8
CUTOUTS
100
AcDbLine
10
2.0300237343508778
20
-120.31688586905685
30
4.9303806576313238e-31
11
2.0369462575106558
21
-119.65442191786747
31
4.622231866529366e-32
0
LINE
5
120
100
AcDbEntity
8
CUTOUTS
100
AcDbLine
10
2.0369462575106558
20
-119.65442191786747
30
4.622231866529366e-32
11
2.6369129294006379
21
-119.66069136569749
31
0
0
LINE
5
121
100
AcDbEntity
8
CUTOUTS
100
AcDbLine
10
2.6369129294006379
20
-119.66069136569749
30
0
11
2.6591172424830836
21
-117.53580761471213
31
-6.1629758220391547e-32
0
LINE
5
122
100
AcDbEntity
8
CUTOUTS
100
AcDbLine
10
2.6591172424830836
20
-117.53580761471213
30
-6.1629758220391547e-32
11
3.565318101138172
21
-117.54527710572395
31
0
0
LINE
5
123
100
AcDbEntity
8
CUTOUTS
100
AcDbLine
10
3.565318101138172
20
-117.54527710572395
30
0
11
3.4809410883998826
21
-125.61989498102147
31
-6.1629758220391547e-31
0
SPLINE
5
124
100
AcDbEntity
8
CUTOUTS
100
AcDbSpline
70
0
71
3
72
17
73
13
74
0
42
0.000000001
43
0.0000000001
44
0.0000000001
40
-5.7686852997677351e-06
40
-5.7686852997677351e-06
40
-5.7686852997677351e-06
40
-5.7686852997677351e-06
40
0
40
0
40
0
40
0.037891884124207326
40
0.037891884124207326
40
0.037891884124207326
40
0.064116816320689926
40
0.064116816320689926
40
0.064116816320689926
40
0.065951497657495986
40
0.065951497657495986
40
0.065951497657495986
40
0.065951497657495986
10
3.4809410883995797
20
-125.61989498103783
30
0
10
3.4809409130180571
20
-125.61991475983766
30
0
10
3.4809407376364101
20
-125.61993453865382
30
0
10
3.4809405622547542
20
-125.61995431747
30
0
10
3.4797885595206504
20
-125.74987241345335
30
0
10
3.4770089865721134
20
-125.8883770060084
30
0
10
3.5233141513122392
20
-126.02213757248784
30
0
10
3.5553619059627097
20
-126.11471311650112
30
0
10
3.6071558498740499
20
-126.19411105223301
30
0
10
3.6552003689025527
20
-126.26907115959229
30
0
10
3.6585615361207227
20
-126.27431532605749
30
0
10
3.6619227033388926
20
-126.27955949252269
30
0
10
3.6652838705570714
20
-126.28480365898794
30
0
0
SPLINE
5
125
100
AcDbEntity
8
CUTOUTS
100
AcDbSpline
70
0
71
3
72
14
73
10
74
0
42
0.000000001
43
0.0000000001
44
0.0000000001
40
-0.0018432445718865285
40
-0.0018432445718865285
40
-0.0018432445718865285
40
-0.0018432445718865285
40
0
40
0
40
0
40
0.02775187372849771
40
0.02775187372849771
40
0.02775187372849771
40
0.069653073036629626
40
0.069653073036629626
40
0.069653073036629626
40
0.069653073036629626
10
3.6652838705570536
20
-126.28480365898794
30
0
10
3.6707125945441001
20
-126.28785778453478
30
0
10
3.6761413185311644
20
-126.29091191008165
30
0
10
3.6815700425182198
20
-126.29396603562851
30
0
10
3.7633048621365619
20
-126.33994892244685
30
0
10
3.8490848903469823
20
-126.38883358953736
30
0
10
3.9457724939162011
20
-126.41982974908962
30
0
10
4.0917563862981856
20
-126.46662933717842
30
1.7763568394002505e-14
10
4.242253052882238
20
-126.46613899917784
30
1.7763568394002505e-14
10
4.3850623376271605
20
-126.46682870179723
30
0
0
SPLINE
5
126
100
AcDbEntity
8
CUTOUTS
100
AcDbSpline
70
0
71
3
72
14
73
10
74
0
42
0.000000001
43
0.0000000001
44
0.0000000001
40
1.0489103816517704e-05
40
1.0489103816517704e-05
40
1.0489103816517704e-05
40
1.0489103816517704e-05
40
0.017423417938265601
40
0.017423417938265601
40
0.017423417938265601
40
0.032205893151024859
40
0.032205893151024859
40
0.032205893151024859
40
0.032285464331585842
40
0.032285464331585842
40
0.032285464331585842
40
0.032285464331585842
10
4.3850623371698196
20
-126.46682877517344
30
0
10
4.4431167611541413
20
-126.46719037328421
30
0
10
4.5018627011954129
20
-126.46756486115149
30
0
10
4.561268124104493
20
-126.46628918706585
30
0
10
4.6116995707615152
20
-126.46520622045357
30
0
10
4.661519278916523
20
-126.46295733508482
30
0
10
4.7107524691993232
20
-126.46074175887948
30
0
10
4.7110174818590691
20
-126.46072983286494
30
0
10
4.7112824945188061
20
-126.46071790685041
30
0
10
4.7115475071782589
20
-126.46070598083585
30
0
0
LWPOLYLINE
5
127
100
AcDbEntity
8
CUTOUTS
100
AcDbPolyline
90
4
70
1
43
0.0
10
6.9815496406968593
20
-117.20595485233875
10
6.8786261073316712
20
-127.05541710904492
10
5.9661754468409081
20
-127.04588230972783
10
6.0690989802061051
20
-117.19642005302165
0
LWPOLYLINE
5
128
100
AcDbEntity
8
CUTOUTS
100
AcDbPolyline
90
4
70
1
43
0.0
10
11.240885417276418
20
-127.10100123637423
10
11.343808950641607
20
-117.25153897966807
10
12.256259611132378
20
-117.26107377898515
10
12.153336077767189
20
-127.11053603569133
0
SPLINE
5
129
100
AcDbEntity
8
CUTOUTS
100
AcDbSpline
70
0
71
3
72
17
73
13
74
0
42
0.000000001
43
0.0000000001
44
0.0000000001
40
-2.0275811859451999e-05
40
-2.0275811859451999e-05
40
-2.0275811859451999e-05
40
-2.0275811859451999e-05
40
0
40
0
40
0
40
0.058046870456327046
40
0.058046870456327046
40
0.058046870456327046
40
0.11656884684372566
40
0.11656884684372566
40
0.11656884684372566
40
0.11659103383994117
40
0.11659103383994117
40
0.11659103383994117
40
0.11659103383994117
10
17.214160156726237
20
-123.40973926206112
30
0
10
17.214159317150433
20
-123.40980684475647
30
0
10
17.214158477574657
20
-123.40987442745043
30
0
10
17.214157637998877
20
-123.40994201014448
30
0
10
17.211754047619799
20
-123.60342199951803
30
0
10
17.209346123587235
20
-123.79715097657252
30
0
10
17.208868684677576
20
-123.99113372552083
30
0
10
17.208387337993809
20
-124.18670419752515
30
0
10
17.20986944843375
20
-124.38202833712062
30
0
10
17.211348394762318
20
-124.57710143276833
30
0
10
17.211348955464096
20
-124.57717538936188
30
0
10
17.211349516165882
20
-124.57724934595549
30
0
10
17.211350076867671
20
-124.57732330254959
30
0
0
SPLINE
5
12A
100
AcDbEntity
8
CUTOUTS
100
AcDbSpline
70
0
71
3
72
17
73
13
74
0
42
0.000000001
43
0.0000000001
44
0.0000000001
40
-2.2187575301523931e-05
40
-2.2187575301523931e-05
40
-2.2187575301523931e-05
40
-2.2187575301523931e-05
40
0
40
0
40
0
40
0.058458354487698615
40
0.058458354487698615
40
0.058458354487698615
40
0.11631229593446971
40
0.11631229593446971
40
0.11631229593446971
40
0.1163880988042791
40
0.1163880988042791
40
0.1163880988042791
40
0.1163880988042791
10
17.211350076856149
20
-124.5773233025476
30
0
10
17.211351075144414
20
-124.57739725582543
30
0
10
17.211352073432657
20
-124.57747120910162
30
0
10
17.2113530717209
20
-124.57754516237787
30
0
10
17.213983295470278
20
-124.77239235767613
30
0
10
17.216615466331191
20
-124.96744848976951
30
0
10
17.220883069062616
20
-125.16267794204734
30
0
10
17.225106548165058
20
-125.35588887656215
30
0
10
17.230922823124708
20
-125.54885817786705
30
0
10
17.236732014303414
20
-125.74162081519455
30
0
10
17.236739625770355
20
-125.74187338158397
30
0
10
17.236747237237296
20
-125.74212594797338
30
0
10
17.23675484870423
20
-125.74237851436303
30
0
0
SPLINE
5
12B
100
AcDbEntity
8
CUTOUTS
100
AcDbSpline
70
0
71
3
72
17
73
13
74
0
42
0.000000001
43
0.0000000001
44
0.0000000001
40
-7.4741020016447343e-05
40
-7.4741020016447343e-05
40
-7.4741020016447343e-05
40
-7.4741020016447343e-05
40
0
40
0
40
0
40
0.030129560410377378
40
0.030129560410377378
40
0.030129560410377378
40
0.054292033986092073
40
0.054292033986092073
40
0.054292033986092073
40
0.055313310800697554
40
0.055313310800697554
40
0.055313310800697554
40
0.055313310800697554
10
17.236754848703661
20
-125.74237851436294
30
0
10
17.236767563594615
20
-125.74263087532771
30
0
10
17.236780278485568
20
-125.7428832362926
30
0
10
17.236792993376522
20
-125.74313559725744
30
0
10
17.24191861348644
20
-125.84486721581854
30
0
10
17.246622211280254
20
-125.95250484408814
30
0
10
17.278026653330649
20
-126.05936230798545
30
0
10
17.303211521309734
20
-126.14505690865734
30
0
10
17.342973448416885
20
-126.22141274885826
30
0
10
17.380188771195584
20
-126.29383252895822
30
0
10
17.381761753621525
20
-126.29689350043134
30
0
10
17.383334736047466
20
-126.29995447190444
30
0
10
17.384907718473421
20
-126.30301544337755
30
0
0
SPLINE
5
12C
100
AcDbEntity
8
CUTOUTS
100
AcDbSpline
70
0
71
3
72
14
73
10
74
0
42
0.000000001
43
0.0000000001
44
0.0000000001
40
-0.0010099151586581518
40
-0.0010099151586581518
40
-0.0010099151586581518
40
-0.0010099151586581518
40
0
40
0
40
0
40
0.022415818217221755
40
0.022415818217221755
40
0.022415818217221755
40
0.042770387592717916
40
0.042770387592717916
40
0.042770387592717916
40
0.042770387592717916
10
17.384907718473393
20
-126.30301544337749
30
0
10
17.387249263201639
20
-126.30553754336702
30
0
10
17.38959080792986
20
-126.30805964335651
30
0
10
17.391932352658088
20
-126.31058174334603
30
0
10
17.443904679764444
20
-126.36656162879066
30
1.7763568394002505e-14
10
17.499684053794205
20
-126.42813577581093
30
1.7763568394002505e-14
10
17.574156689730465
20
-126.47370903828136
30
1.7763568394002505e-14
10
17.641781186862406
20
-126.51509160677085
30
1.7763568394002505e-14
10
17.71455626523073
20
-126.53661306726971
30
1.7763568394002505e-14
10
17.784460020363547
20
-126.55411080100362
30
0
0
LINE
5
12D
100
AcDbEntity
8
CUTOUTS
100
AcDbLine
10
17.78446002036355
20
-126.55411080100362
30
-3.1159440014308803e-31
11
17.777261262157779
21
-127.2430095875572
31
-1.3789658401812609e-30
0
SPLINE
5
12E
100
AcDbEntity
8
CUTOUTS
100
AcDbSpline
70
0
71
3
72
11
73
7
74
0
42
0.000000001
43
0.0000000001
44
0.0000000001
40
0.0080490173357389942
40
0.0080490173357389942
40
0.0080490173357389942
40
0.0080490173357389942
40
0.074233564042818501
40
0.074233564042818501
40
0.074233564042818501
40
0.13156671609671491
40
0.13156671609671491
40
0.13156671609671491
40
0.13156671609671491
10
17.777261262157786
20
-127.24300958755721
30
0
10
17.553602340144039
20
-127.21861547313276
30
1.7763568394002505e-14
10
17.339448983019132
20
-127.18747411828944
30
0
10
17.157405492869266
20
-127.1023661712284
30
0
10
16.999708150808779
20
-127.02864039817985
30
0
10
16.854266899213719
20
-126.90873472803167
30
0
10
16.705111331091675
20
-126.7832578335353
30
0
0
SPLINE
5
12F
100
AcDbEntity
8
CUTOUTS
100
AcDbSpline
70
0
71
3
72
11
73
7
74
0
42
0.000000001
43
0.0000000001
44
0.0000000001
40
0.0012519952236277508
40
0.0012519952236277508
40
0.0012519952236277508
40
0.0012519952236277508
40
0.060694059041118589
40
0.060694059041118589
40
0.060694059041118589
40
0.13823133807315174
40
0.13823133807315174
40
0.13823133807315174
40
0.13823133807315174
10
16.705111331091693
20
-126.78325783353529
30
0
10
16.602613682712022
20
-126.61072764876928
30
0
10
16.503949088939045
20
-126.44195612461111
30
0
10
16.444939706652981
20
-126.26660882685343
30
0
10
16.367966825060741
20
-126.0378827113623
30
0
10
16.353076766370897
20
-125.78181568108833
30
0
10
16.338846410715728
20
-125.51894379966018
30
0
0
SPLINE
5
130
100
AcDbEntity
8
CUTOUTS
100
AcDbSpline
70
0
71
3
72
11
73
7
74
0
42
0.000000001
43
0.0000000001
44
0.0000000001
40
8.4775021671249255e-05
40
8.4775021671249255e-05
40
8.4775021671249255e-05
40
8.4775021671249255e-05
40
0.041435858199652877
40
0.041435858199652877
40
0.041435858199652877
40
0.089381672709653748
40
0.089381672709653748
40
0.089381672709653748
40
0.089381672709653748
10
16.338846410714947
20
-125.51894379966021
30
0
10
16.334508619692212
20
-125.38116992302838
30
0
10
16.330186253742447
20
-125.24371018664765
30
0
10
16.327600792927505
20
-125.10653346346054
30
0
10
16.324602999033637
20
-124.94747959547092
30
0
10
16.323925455745901
20
-124.78801826783075
30
0
10
16.323250586271627
20
-124.62819182266735
30
0
0
SPLINE
5
131
100
AcDbEntity
8
CUTOUTS
100
AcDbSpline
70
0
71
3
72
11
73
7
74
0
42
0.000000001
43
0.0000000001
44
0.0000000001
40
0
40
0
40
0
40
0
40
0.052501980625731144
40
0.052501980625731144
40
0.052501980625731144
40
0.10748233417360062
40
0.10748233417360062
40
0.10748233417360062
40
0.10748233417360062
10
16.323249904564356
20
-124.62819182554581
30
0
10
16.323257119597248
20
-124.4531842409293
30
0
10
16.323264578003869
20
-124.27828800204591
30
0
10
16.324050238225158
20
-124.10350666780187
30
0
10
16.324872985790488
20
-123.9204747243251
30
0
10
16.326550212666888
20
-123.7373301165043
30
0
10
16.328229088462145
20
-123.5540689577922
30
0
0
SPLINE
5
132
100
AcDbEntity
8
CUTOUTS
100
AcDbSpline
70
0
71
3
72
11
73
7
74
0
42
0.000000001
43
0.0000000001
44
0.0000000001
40
0
40
0
40
0
40
0
40
0.055937628053554997
40
0.055937628053554997
40
0.055937628053554997
40
0.11125224557486479
40
0.11125224557486479
40
0.11125224557486479
40
0.11125224557486479
10
16.328228823517943
20
-123.55406895536477
30
0
10
16.330432530700918
20
-123.36762227394337
30
0
10
16.332635202431625
20
-123.18128256426107
30
0
10
16.335633234530142
20
-122.9950626409825
30
0
10
16.33859787576748
20
-122.81091675940992
30
0
10
16.342343646104005
20
-122.62667763860092
30
0
10
16.346091790610984
20
-122.4423327591773
30
0
0
SPLINE
5
133
100
AcDbEntity
8
CUTOUTS
100
AcDbSpline
70
0
71
3
72
11
73
7
74
0
42
0.000000001
43
0.0000000001
44
0.0000000001
40
3.0222771022231205e-05
40
3.0222771022231205e-05
40
3.0222771022231205e-05
40
3.0222771022231205e-05
40
0.052508378722676295
40
0.052508378722676295
40
0.052508378722676295
40
0.099916770674710595
40
0.099916770674710595
40
0.099916770674710595
40
0.099916770674710595
10
16.346092399421515
20
-122.44233277401042
30
0
10
16.350353235787772
20
-122.26745127930512
30
0
10
16.354609806785714
20
-122.09286528885352
30
-1.7763568394002505e-14
10
16.360918050003235
20
-121.91864858821206
30
-1.7763568394002505e-14
10
16.366616871952331
20
-121.76126246290292
30
-1.7763568394002505e-14
10
16.374008467979184
20
-121.60367030632487
30
-1.7763568394002505e-14
10
16.381418136861239
20
-121.44581220803637
30
-1.7763568394002505e-14
0
SPLINE
5
134
100
AcDbEntity
8
CUTOUTS
100
AcDbSpline
70
0
71
3
72
11
73
7
74
0
42
0.000000001
43
0.0000000001
44
0.0000000001
40
0.00011505957280485109
40
0.00011505957280485109
40
0.00011505957280485109
40
0.00011505957280485109
40
0.078927669587541743
40
0.078927669587541743
40
0.078927669587541743
40
0.13842441317663537
40
0.13842441317663537
40
0.13842441317663537
40
0.13842441317663537
10
16.381418136861434
20
-121.44581220803637
30
-1.7763568394002505e-14
10
16.402310394227744
20
-121.17904221141012
30
-1.7763568394002505e-14
10
16.423728134397582
20
-120.91912089787149
30
-1.7763568394002505e-14
10
16.507816835917374
20
-120.68844815092007
30
-1.7763568394002505e-14
10
16.571296574910008
20
-120.51431006215745
30
-1.7763568394002505e-14
10
16.673827136600341
20
-120.34762067656125
30
-1.7763568394002505e-14
10
16.78022800857363
20
-120.17730804559827
30
-1.7763568394002505e-14
0
SPLINE
5
135
100
AcDbEntity
8
CUTOUTS
100
AcDbSpline
70
0
71
3
72
11
73
7
74
0
42
0.000000001
43
0.0000000001
44
0.0000000001
40
0.0012604952120059195
40
0.0012604952120059195
40
0.0012604952120059195
40
0.0012604952120059195
40
0.058182128857106961
40
0.058182128857106961
40
0.058182128857106961
40
0.12386978181281666
40
0.12386978181281666
40
0.12386978181281666
40
0.12386978181281666
10
16.780228008573623
20
-120.17730804559824
30
-1.7763568394002505e-14
10
16.931532382522889
20
-120.05680510439957
30
-1.7763568394002505e-14
10
17.079016799040776
20
-119.94171534027083
30
-1.7763568394002505e-14
10
17.23742615640047
20
-119.87225875478494
30
-1.7763568394002505e-14
10
17.420230798938618
20
-119.79210574808575
30
-1.7763568394002505e-14
10
17.633300804993084
20
-119.76564113598882
30
0
10
17.855602108124238
20
-119.7460341119192
30
0
0
LINE
5
136
100
AcDbEntity
8
CUTOUTS
100
AcDbLine
10
17.855602108124238
20
-119.7460341119192
30
5.5827454391839407e-31
11
17.848396738276904
21
-120.43556561201808
31
-3.9288970865499611e-31
0
SPLINE
5
137
100
AcDbEntity
8
CUTOUTS
100
AcDbSpline
70
0
71
3
72
14
73
10
74
0
42
0.000000001
43
0.0000000001
44
0.0000000001
40
0.0057097615899245674
40
0.0057097615899245674
40
0.0057097615899245674
40
0.0057097615899245674
40
0.026682699370487648
40
0.026682699370487648
40
0.026682699370487648
40
0.04916463223248
40
0.04916463223248
40
0.04916463223248
40
0.050189273686510077
40
0.050189273686510077
40
0.050189273686510077
40
0.050189273686510077
10
17.848396738276886
20
-120.43556561201808
30
0
10
17.776464393335985
20
-120.45272973726021
30
0
10
17.701608124963741
20
-120.47382270977322
30
0
10
17.631625267576734
20
-120.51482701149976
30
0
10
17.556607169600813
20
-120.55878155750158
30
0
10
17.498972224236155
20
-120.61830584581826
30
0
10
17.445174132212841
20
-120.6726504152101
30
0
10
17.442722218688623
20
-120.67512723510552
30
0
10
17.440270305164411
20
-120.67760405500096
30
-1.7763568394002505e-14
10
17.437818391640192
20
-120.68008087489638
30
-1.7763568394002505e-14
0
SPLINE
5
138
100
AcDbEntity
8
CUTOUTS
100
AcDbSpline
70
0
71
3
72
17
73
13
74
0
42
0.000000001
43
0.0000000001
44
0.0000000001
40
-0.0010338919623352366
40
-0.0010338919623352366
40
-0.0010338919623352366
40
-0.0010338919623352366
40
0
40
0
40
0
40
0.023806712645667166
40
0.023806712645667166
40
0.023806712645667166
40
0.053394710327796982
40
0.053394710327796982
40
0.053394710327796982
40
0.053534930749073485
40
0.053534930749073485
40
0.053534930749073485
40
0.053534930749073485
10
17.437818391640249
20
-120.68008087489629
30
-1.7763568394002505e-14
10
17.436137373383495
20
-120.6831338561188
30
-1.7763568394002505e-14
10
17.43445635512672
20
-120.68618683734138
30
-1.7763568394002505e-14
10
17.432775336869952
20
-120.68923981856395
30
-1.7763568394002505e-14
10
17.394067696179107
20
-120.75953869825968
30
-1.7763568394002505e-14
10
17.352651713616638
20
-120.833757064144
30
-1.7763568394002505e-14
10
17.32560487464238
20
-120.91779395095905
30
-1.7763568394002505e-14
10
17.291989909788139
20
-121.02223857753587
30
-1.7763568394002505e-14
10
17.285013772902424
20
-121.12803262621178
30
-1.7763568394002505e-14
10
17.27773429424964
20
-121.22783581660892
30
-1.7763568394002505e-14
10
17.277699796086765
20
-121.22830879371109
30
-1.7763568394002505e-14
10
17.277665297923875
20
-121.22878177081326
30
-1.7763568394002505e-14
10
17.277630799761006
20
-121.22925474791526
30
-1.7763568394002505e-14
0
SPLINE
5
139
100
AcDbEntity
8
CUTOUTS
100
AcDbSpline
70
0
71
3
72
17
73
13
74
0
42
0.000000001
43
0.0000000001
44
0.0000000001
40
-0.00014227007604722413
40
-0.00014227007604722413
40
-0.00014227007604722413
40
-0.00014227007604722413
40
0
40
0
40
0
40
0.051655876011352297
40
0.051655876011352297
40
0.051655876011352297
40
0.10534226760833315
40
0.10534226760833315
40
0.10534226760833315
40
0.10535199786591187
40
0.10535199786591187
40
0.10535199786591187
40
0.10535199786591187
10
17.277630799755606
20
-121.22925474791492
30
-1.7763568394002505e-14
10
17.27761426408394
20
-121.22972869319031
30
-1.7763568394002505e-14
10
17.277597728412275
20
-121.23020263846563
30
-1.7763568394002505e-14
10
17.277581192740605
20
-121.23067658374092
30
-1.7763568394002505e-14
10
17.271577367978388
20
-121.40275815603972
30
-1.7763568394002505e-14
10
17.265572950545316
20
-121.57485655290073
30
-1.7763568394002505e-14
10
17.259683856873025
20
-121.74697573942856
30
-1.7763568394002505e-14
10
17.253563271695604
20
-121.92586067494406
30
-1.7763568394002505e-14
10
17.247568475012905
20
-122.1047324062223
30
-1.7763568394002505e-14
10
17.241574258277488
20
-122.28358665035763
30
0
10
17.241573171870456
20
-122.28361906635433
30
0
10
17.241572085463417
20
-122.28365148235088
30
0
10
17.241570999056613
20
-122.2836838983411
30
0
0
SPLINE
5
13A
100
AcDbEntity
8
CUTOUTS
100
AcDbSpline
70
0
71
3
72
17
73
13
74
0
42
0.000000001
43
0.0000000001
44
0.0000000001
40
-9.7301797130298579e-06
40
-9.7301797130298579e-06
40
-9.7301797130298579e-06
40
-9.7301797130298579e-06
40
0
40
0
40
0
40
0.055478095570279953
40
0.055478095570279953
40
0.055478095570279953
40
0.11251187269908056
40
0.11251187269908056
40
0.11251187269908056
40
0.11253214853095436
40
0.11253214853095436
40
0.11253214853095436
40
0.11253214853095436
10
17.241570999055931
20
-122.28368389834787
30
0
10
17.241569996759996
20
-122.28371631716774
30
0
10
17.241568994464053
20
-122.28374873598798
30
0
10
17.241567992168108
20
-122.28378115480803
30
0
10
17.235853249680222
20
-122.46862197959443
30
0
10
17.230133005757349
20
-122.65362392442454
30
0
10
17.22560254382417
20
-122.83881617878073
30
0
10
17.220945041551747
20
-123.0292014768404
30
0
10
17.21755320385433
20
-123.21945186387511
30
0
10
17.214163771621482
20
-123.40953653352146
30
0
10
17.214162566659059
20
-123.40960410970196
30
0
10
17.214161361696636
20
-123.40967168588237
30
0
10
17.214160156734213
20
-123.40973926206247
30
0
0
LWPOLYLINE
5
13B
100
AcDbEntity
8
CUTOUTS
100
AcDbPolyline
90
10
70
1
43
0.0
10
21.964909084113067
20
-119.86266235713484
10
22.34034812680563
20
-121.42143965325936
10
22.685979223326047
20
-123.06412204317397
10
23.502247341843365
20
-123.07265176761389
10
24.659177831812134
20
-127.24121783206614
10
23.786532358657404
20
-127.23209898342938
10
23.33952651530419
20
-125.32322222078881
10
23.019220685388035
20
-123.70513925134634
10
22.201537296351752
20
-123.69659473781044
10
21.08684415225289
20
-119.85348687699636
0
LWPOLYLINE
5
13C
100
AcDbEntity
8
CUTOUTS
100
AcDbPolyline
90
5
70
1
43
0.0
10
21.842860878173429
20
-124.48038877960624
10
22.53073572501637
20
-124.48757683799003
10
22.331005121199841
20
-125.31179354918038
10
21.837911685562716
20
-127.2117365596101
10
20.967147147717338
20
-127.20263736610812
0
LWPOLYLINE
5
13D
100
AcDbEntity
8
CUTOUTS
100
AcDbPolyline
90
11
70
1
43
0.0
10
29.525560363978212
20
-121.5103705584979
10
29.275350625173925
20
-123.72050995192593
10
30.28655499476471
20
-123.7310766939429
10
30.073264257202229
20
-124.52264135701895
10
29.189072934072509
20
-124.51340185817369
10
28.860095754828553
20
-127.28511599673189
10
27.936176791263346
20
-127.27546135754501
10
29.122542487911289
20
-117.43732070325079
10
31.112754960991126
20
-117.45811774724547
10
31.188564290547205
20
-118.25270340777581
10
29.783202885112932
20
-118.23801785868368
0
LWPOLYLINE
5
13E
100
AcDbEntity
8
CUTOUTS
100
AcDbPolyline
90
4
70
1
43
0.0
10
34.152137887622317
20
-127.34041603858478
10
33.227187623460232
20
-127.33075062265718
10
33.303988432621061
20
-119.98115188288151
10
34.228938696783146
20
-119.99081729880911
0
LWPOLYLINE
5
13F
100
AcDbEntity
8
CUTOUTS
100
AcDbPolyline
90
4
70
1
43
0.0
10
37.060029933769023
20
-120.02040124012441
10
37.959980990588456
20
-120.02980542283099
10
37.883180181427633
20
-127.37940416260668
10
36.983229124608201
20
-127.36999997990011
0
SPLINE
5
140
100
AcDbEntity
8
CUTOUTS
100
AcDbSpline
70
0
71
3
72
11
73
7
74
0
42
0.000000001
43
0.0000000001
44
0.0000000001
40
0.00034682074398033672
40
0.00034682074398033672
40
0.00034682074398033672
40
0.00034682074398033672
40
0.020622669626495956
40
0.020622669626495956
40
0.020622669626495956
40
0.044229571169397498
40
0.044229571169397498
40
0.044229571169397498
40
0.044229571169397498
10
39.046221126301738
20
-119.99783505073792
30
0
10
39.112340997807237
20
-119.98333207062187
30
0
10
39.176229470634354
20
-119.96954020675085
30
0
10
39.238455510480023
20
-119.96205796128442
30
0
10
39.310904462164004
20
-119.95334648226967
30
0
10
39.387053708053259
20
-119.95247412985783
30
0
10
39.465937748097545
20
-119.95182266569957
30
0
0
SPLINE
5
141
100
AcDbEntity
8
CUTOUTS
100
AcDbSpline
70
0
71
3
72
11
73
7
74
0
42
0.000000001
43
0.0000000001
44
0.0000000001
40
0.00025163166719277064
40
0.00025163166719277064
40
0.00025163166719277064
40
0.00025163166719277064
40
0.058876218780138066
40
0.058876218780138066
40
0.058876218780138066
40
0.108069141174661
40
0.108069141174661
40
0.108069141174661
40
0.108069141174661
10
39.465937748097531
20
-119.9518226656995
30
0
10
39.666937154796138
20
-119.9640769126262
30
0
10
39.859334013040275
20
-119.97764899913635
30
0
10
40.018735817689887
20
-120.04561331754638
30
0
10
40.152492676234026
20
-120.10264337278073
30
0
10
40.277208977993489
20
-120.20396782261949
30
0
10
40.406014825661593
20
-120.31156833462353
30
0
0
SPLINE
5
142
100
AcDbEntity
8
CUTOUTS
100
AcDbSpline
70
0
71
3
72
11
73
7
74
0
42
0.000000001
43
0.0000000001
44
0.0000000001
40
0.0012619456170612114
40
0.0012619456170612114
40
0.0012619456170612114
40
0.0012619456170612114
40
0.055834659870891208
40
0.055834659870891208
40
0.055834659870891208
40
0.13034793259496852
40
0.13034793259496852
40
0.13034793259496852
40
0.13034793259496852
10
40.406014825661607
20
-120.31156833462353
30
0
10
40.50030470327804
20
-120.47023435811296
30
0
10
40.590508112810085
20
-120.62495439535465
30
0
10
40.642040709989885
20
-120.78475941772973
30
-1.7763568394002505e-14
10
40.712403024203859
20
-121.00295628364933
30
-1.7763568394002505e-14
10
40.716653231888536
20
-121.24937818057771
30
-1.7763568394002505e-14
10
40.71973629318385
20
-121.50332012146897
30
-1.7763568394002505e-14
0
LINE
5
143
100
AcDbEntity
8
CUTOUTS
100
AcDbLine
10
40.71973629318385
20
-121.50332012146896
30
-1.7763568394002505e-14
11
40.658030211016076
21
-127.40840040241757
31
-1.7763568394002505e-14
0
LINE
5
144
100
AcDbEntity
8
CUTOUTS
100
AcDbLine
10
40.658030211016076
20
-127.40840040241757
30
-1.7763568394002505e-14
11
39.751828160333169
21
-127.39893089894943
31
0
0
LINE
5
145
100
AcDbEntity
8
CUTOUTS
100
AcDbLine
10
39.751828160333169
20
-127.39893089894943
30
0
11
39.814400724600532
21
-121.41093097411321
31
-3.0814879110195774e-31
0
SPLINE
5
146
100
AcDbEntity
8
CUTOUTS
100
AcDbSpline
70
0
71
3
72
17
73
13
74
0
42
0.000000001
43
0.0000000001
44
0.0000000001
40
-8.0629063390522544e-05
40
-8.0629063390522544e-05
40
-8.0629063390522544e-05
40
-8.0629063390522544e-05
40
0
40
0
40
0
40
0.033692854632624669
40
0.033692854632624669
40
0.033692854632624669
40
0.059667955174668968
40
0.059667955174668968
40
0.059667955174668968
40
0.060958719402430368
40
0.060958719402430368
40
0.060958719402430368
40
0.060958719402430368
10
39.814400724600532
20
-121.41093097411317
30
0
10
39.814397533130141
20
-121.41065553589729
30
0
10
39.814394341659749
20
-121.41038009768141
30
0
10
39.814391150189358
20
-121.41010465946553
30
0
10
39.813057515102976
20
-121.29500596703784
30
0
10
39.812936416074763
20
-121.17206254127454
30
0
10
39.772556943245327
20
-121.05223472129884
30
0
10
39.741426874926205
20
-120.95985490648229
30
0
10
39.690264045588421
20
-120.88090410551017
30
0
10
39.642937138003063
20
-120.80651565274576
30
0
10
39.640585351944615
20
-120.80281911445395
30
0
10
39.638233565886154
20
-120.79912257616216
30
0
10
39.635881779827706
20
-120.79542603787039
30
0
0
SPLINE
5
147
100
AcDbEntity
8
CUTOUTS
100
AcDbSpline
70
0
71
3
72
17
73
13
74
0
42
0.000000001
43
0.0000000001
44
0.0000000001
40
-0.001284894965659361
40
-0.001284894965659361
40
-0.001284894965659361
40
-0.001284894965659361
40
0
40
0
40
0
40
0.024777500843186466
40
0.024777500843186466
40
0.024777500843186466
40
0.055017657119955959
40
0.055017657119955959
40
0.055017657119955959
40
0.055233173374743448
40
0.055233173374743448
40
0.055233173374743448
40
0.055233173374743448
10
39.635881779827706
20
-120.79542603787033
30
0
10
39.632413119356599
20
-120.79274953127701
30
0
10
39.628944458885471
20
-120.79007302468369
30
0
10
39.62547579841435
20
-120.78739651809036
30
0
10
39.55858726663169
20
-120.73578362665154
30
0
10
39.487030648404449
20
-120.67926895309461
30
0
10
39.398910862243028
20
-120.64376837751794
30
0
10
39.291363449714957
20
-120.60044104760892
30
0
10
39.17936092353429
20
-120.59654792480303
30
0
10
39.075753022137604
20
-120.59154830656189
30
0
10
39.075014626916648
20
-120.59151267516538
30
0
10
39.074276231695691
20
-120.59147704376886
30
0
10
39.073537836474713
20
-120.59144141237235
30
0
0
SPLINE
5
148
100
AcDbEntity
8
CUTOUTS
100
AcDbSpline
70
0
71
3
72
17
73
13
74
0
42
0.000000001
43
0.0000000001
44
0.0000000001
40
-0.00022147462180538337
40
-0.00022147462180538337
40
-0.00022147462180538337
40
-0.00022147462180538337
40
0
40
0
40
0
40
0.010478974199807358
40
0.010478974199807358
40
0.010478974199807358
40
0.020732495964541083
40
0.020732495964541083
40
0.020732495964541083
40
0.020887541824029576
40
0.020887541824029576
40
0.020887541824029576
40
0.020887541824029576
10
39.073537836474294
20
-120.59144141237688
30
0
10
39.072798626062585
20
-120.59144947403966
30
0
10
39.072059415650806
20
-120.59145753570247
30
0
10
39.071320205239019
20
-120.59146559736526
30
0
10
39.036344790132766
20
-120.5918470313901
30
0
10
38.999612200207075
20
-120.59218554718663
30
0
10
38.961325008778161
20
-120.59530218014699
30
0
10
38.923861556426679
20
-120.5983517595507
30
0
10
38.888331785292564
20
-120.60378263960163
30
-1.7763568394002505e-14
10
38.854492452456896
20
-120.60889787307742
30
-1.7763568394002505e-14
10
38.853980760126738
20
-120.6089752216986
30
-1.7763568394002505e-14
10
38.853469067796588
20
-120.60905257031978
30
-1.7763568394002505e-14
10
38.852957375466424
20
-120.60912991894097
30
-1.7763568394002505e-14
0
SPLINE
5
149
100
AcDbEntity
8
CUTOUTS
100
AcDbSpline
70
0
71
3
72
11
73
7
74
0
42
0.000000001
43
0.0000000001
44
0.0000000001
40
-0.00015497235861586136
40
-0.00015497235861586136
40
-0.00015497235861586136
40
-0.00015497235861586136
40
0
40
0
40
0
40
0.0082541598438986927
40
0.0082541598438986927
40
0.0082541598438986927
40
0.0082541598438986927
10
38.852957375466247
20
-120.60912991894187
30
-1.7763568394002505e-14
10
38.85244932237611
20
-120.60922837651127
30
-1.7763568394002505e-14
10
38.851941269285852
20
-120.60932683408069
30
-1.7763568394002505e-14
10
38.851433216195595
20
-120.60942529165013
30
-1.7763568394002505e-14
10
38.824373220118531
20
-120.61466935274032
30
-1.7763568394002505e-14
10
38.795822184879619
20
-120.62015560226895
30
-1.7763568394002505e-14
10
38.766275406009235
20
-120.62775960882271
30
-1.7763568394002505e-14
0
LINE
5
14A
100
AcDbEntity
8
CUTOUTS
100
AcDbLine
10
38.766275406009235
20
-120.62775960882271
30
-1.7763568394002505e-14
11
38.771556914881124
21
-120.12233562471236
31
-1.7763568394002508e-14
0
SPLINE
5
14B
100
AcDbEntity
8
CUTOUTS
100
AcDbSpline
70
0
71
3
72
11
73
7
74
0
42
0.000000001
43
0.0000000001
44
0.0000000001
40
0.0040439383982557552
40
0.0040439383982557552
40
0.0040439383982557552
40
0.0040439383982557552
40
0.017980825939536559
40
0.017980825939536559
40
0.017980825939536559
40
0.036279157901737975
40
0.036279157901737975
40
0.036279157901737975
40
0.036279157901737975
10
38.771556914881138
20
-120.12233562471236
30
-1.7763568394002505e-14
10
38.809865737808138
20
-120.09778521698334
30
-1.7763568394002505e-14
10
38.847000058674624
20
-120.07530972639597
30
-1.7763568394002505e-14
10
38.884135419341789
20
-120.0576015966685
30
-1.7763568394002505e-14
10
38.932892012591992
20
-120.03435184056458
30
0
10
38.987930230306837
20
-120.01641791229873
30
0
10
39.046221126301717
20
-119.99783505073785
30
0
0
LWPOLYLINE
5
14C
100
AcDbEntity
8
CUTOUTS
100
AcDbPolyline
90
7
70
1
43
0.0
10
49.175937746759658
20
-126.84737372474871
10
49.507532026418545
20
-123.86565947628586
10
50.043699551827089
20
-120.15607617529433
10
50.984537583005803
20
-120.16590761298801
10
49.793047818555642
20
-127.50385823199409
10
48.140563106213222
20
-127.48659032832654
10
48.045799600679509
20
-126.83556416518557
0
SPLINE
5
14D
100
AcDbEntity
8
CUTOUTS
100
AcDbSpline
70
0
71
3
72
11
73
7
74
0
42
0.000000001
43
0.0000000001
44
0.0000000001
40
0.00015805869515240817
40
0.00015805869515240817
40
0.00015805869515240817
40
0.00015805869515240817
40
0.07822090999926018
40
0.07822090999926018
40
0.07822090999926018
40
0.1392356806114928
40
0.1392356806114928
40
0.1392356806114928
40
0.1392356806114928
10
51.930528045990869
20
-119.32879117442887
30
-1.7763568394002505e-14
10
51.949802272063906
20
-119.06366647628501
30
-1.7763568394002505e-14
10
51.969803178588819
20
-118.80588577393786
30
-1.7763568394002505e-14
10
52.055646498431905
20
-118.58029700249688
30
-1.7763568394002505e-14
10
52.122742567577703
20
-118.40397437384289
30
-1.7763568394002505e-14
10
52.234041982933881
20
-118.23678569385882
30
-1.7763568394002505e-14
10
52.349780999570008
20
-118.0657353590374
30
0
0
SPLINE
5
14E
100
AcDbEntity
8
CUTOUTS
100
AcDbSpline
70
0
71
3
72
11
73
7
74
0
42
0.000000001
43
0.0000000001
44
0.0000000001
40
0.0011670769931387528
40
0.0011670769931387528
40
0.0011670769931387528
40
0.0011670769931387528
40
0.060540032007969397
40
0.060540032007969397
40
0.060540032007969397
40
0.12614314433658028
40
0.12614314433658028
40
0.12614314433658028
40
0.12614314433658028
10
52.349780999570001
20
-118.0657353590374
30
0
10
52.508827381293685
20
-117.94197478414978
30
0
10
52.66402409258842
20
-117.82339040313168
30
0
10
52.830733389100295
20
-117.75123877259358
30
0
10
53.014935922098033
20
-117.67151608535825
30
0
10
53.227400125760582
20
-117.64215572535932
30
0
10
53.448519151442284
20
-117.61914965266961
30
0
0
LINE
5
14F
100
AcDbEntity
8
CUTOUTS
100
AcDbLine
10
53.448519151442284
20
-117.61914965266959
30
0
11
53.440612753630546
21
-118.3757673501684
31
-5.0998624927374005e-30
0
SPLINE
5
150
100
AcDbEntity
8
CUTOUTS
100
AcDbSpline
70
0
71
3
72
14
73
10
74
0
42
0.000000001
43
0.0000000001
44
0.0000000001
40
0.0057482328362958961
40
0.0057482328362958961
40
0.0057482328362958961
40
0.0057482328362958961
40
0.027867781717008846
40
0.027867781717008846
40
0.027867781717008846
40
0.051577602197896824
40
0.051577602197896824
40
0.051577602197896824
40
0.05248782789934784
40
0.05248782789934784
40
0.05248782789934784
40
0.05248782789934784
10
53.440612753630546
20
-118.3757673501684
30
0
10
53.364839447351102
20
-118.393346148492
30
0
10
53.286087403939533
20
-118.41489746532696
30
0
10
53.212526570679501
20
-118.45734025728632
30
0
10
53.133677125764251
20
-118.50283444812588
30
0
10
53.072745921724042
20
-118.56504058812048
30
0
10
53.015697484253394
20
-118.62205618653134
30
0
10
53.013507381040455
20
-118.62424502904487
30
0
10
53.011317277827523
20
-118.62643387155843
30
0
10
53.009127174614569
20
-118.62862271407198
30
0
0
SPLINE
5
151
100
AcDbEntity
8
CUTOUTS
100
AcDbSpline
70
0
71
3
72
17
73
13
74
0
42
0.000000001
43
0.0000000001
44
0.0000000001
40
-0.00091627143393883167
40
-0.00091627143393883167
40
-0.00091627143393883167
40
-0.00091627143393883167
40
0
40
0
40
0
40
0.023688805195398264
40
0.023688805195398264
40
0.023688805195398264
40
0.050227862062627568
40
0.050227862062627568
40
0.050227862062627568
40
0.050348691651674264
40
0.050348691651674264
40
0.050348691651674264
40
0.050348691651674264
10
53.009127174614619
20
-118.62862271407204
30
0
10
53.007537256894068
20
-118.63127973218886
30
0
10
53.005947339173503
20
-118.63393675030566
30
0
10
53.004357421452937
20
-118.63659376842249
30
0
10
52.963252515456645
20
-118.70528693317546
30
0
10
52.918860342863503
20
-118.77826592466137
30
0
10
52.890666959280665
20
-118.86275949736749
30
0
10
52.859081330372284
20
-118.95741938892667
30
0
10
52.852308814895153
20
-119.05309364399162
30
0
10
52.845240065005939
20
-119.14267626625046
30
0
10
52.845207881716661
20
-119.14308412669131
30
0
10
52.845175698427397
20
-119.14349198713214
30
0
10
52.845143515138119
20
-119.14389984757301
30
0
0
SPLINE
5
152
100
AcDbEntity
8
CUTOUTS
100
AcDbSpline
70
0
71
3
72
17
73
13
74
0
42
0.000000001
43
0.0000000001
44
0.0000000001
40
-0.00012273035229794211
40
-0.00012273035229794211
40
-0.00012273035229794211
40
-0.00012273035229794211
40
0
40
0
40
0
40
0.046115206452498003
40
0.046115206452498003
40
0.046115206452498003
40
0.09564870527530675
40
0.09564870527530675
40
0.09564870527530675
40
0.095681079538138342
40
0.095681079538138342
40
0.095681079538138342
40
0.095681079538138342
10
52.845143515136847
20
-119.14389984757294
30
0
10
52.845124694883843
20
-119.14430854271933
30
0
10
52.845105874630846
20
-119.14471723786576
30
0
10
52.845087054377842
20
-119.1451259330122
30
0
10
52.838015455247806
20
-119.29869072527167
30
0
10
52.830923473400247
20
-119.45263525119441
30
0
10
52.826165704797731
20
-119.60703146622654
30
0
10
52.821055266319803
20
-119.77287230971095
30
0
10
52.818664021088544
20
-119.93838707034902
30
0
10
52.816275347231041
20
-120.10349336139201
30
0
10
52.816273786033932
20
-120.10360127209057
30
0
10
52.816272224836823
20
-120.10370918278916
30
0
10
52.816270663639713
20
-120.10381709348776
30
0
0
SPLINE
5
153
100
AcDbEntity
8
CUTOUTS
100
AcDbSpline
70
0
71
3
72
14
73
10
74
0
42
0.000000001
43
0.0000000001
44
0.0000000001
40
-3.2376159719156754e-05
40
-3.2376159719156754e-05
40
-3.2376159719156754e-05
40
-3.2376159719156754e-05
40
0
40
0
40
0
40
0.051408341642072947
40
0.051408341642072947
40
0.051408341642072947
40
0.09540721959618223
40
0.09540721959618223
40
0.09540721959618223
40
0.09540721959618223
10
52.816270663587623
20
-120.10381709348748
30
0
10
52.816270034100235
20
-120.10392501766545
30
0
10
52.816269404612854
20
-120.10403294184343
30
0
10
52.816268775125465
20
-120.10414086602141
30
0
10
52.815269246370107
20
-120.27550779347823
30
0
10
52.814265468437171
20
-120.4472123088479
30
0
10
52.815585279611682
20
-120.61923667114813
30
0
10
52.816714866930297
20
-120.76646723101875
30
0
10
52.819543194470882
20
-120.91343888025625
30
0
10
52.822618876691443
20
-121.06016292412869
30
0
0
LINE
5
154
100
AcDbEntity
8
CUTOUTS
100
AcDbLine
10
52.82261887669145
20
-121.06016292412868
30
0
11
51.929995858207477
21
-121.05083531693239
31
0
0
SPLINE
5
155
100
AcDbEntity
8
CUTOUTS
100
AcDbSpline
70
0
71
3
72
11
73
7
74
0
42
0.000000001
43
0.0000000001
44
0.0000000001
40
0.0073655181433239115
40
0.0073655181433239115
40
0.0073655181433239115
40
0.0073655181433239115
40
0.035631923128945753
40
0.035631923128945753
40
0.035631923128945753
40
0.067518516952364133
40
0.067518516952364133
40
0.067518516952364133
40
0.067518516952364133
10
51.929995858207477
20
-121.05083531693239
30
-1.7763568394002505e-14
10
51.929276386157696
20
-120.95656922091031
30
-1.7763568394002505e-14
10
51.928468164367345
20
-120.86221446490651
30
-1.7763568394002505e-14
10
51.927231308286082
20
-120.7677754253592
30
-1.7763568394002505e-14
10
51.925836043217828
20
-120.66124120932956
30
-1.7763568394002505e-14
10
51.923898609108647
20
-120.55484169927253
30
-1.7763568394002505e-14
10
51.921963825517352
20
-120.44856985756134
30
-1.7763568394002505e-14
0
SPLINE
5
156
100
AcDbEntity
8
CUTOUTS
100
AcDbSpline
70
0
71
3
72
11
73
7
74
0
42
0.000000001
43
0.0000000001
44
0.0000000001
40
3.7879073031571891e-06
40
3.7879073031571891e-06
40
3.7879073031571891e-06
40
3.7879073031571891e-06
40
0.029149137787086575
40
0.029149137787086575
40
0.029149137787086575
40
0.056571969339501177
40
0.056571969339501177
40
0.056571969339501177
40
0.056571969339501177
10
51.921963835082103
20
-120.44856985739203
30
-1.7763568394002505e-14
10
51.920244390206378
20
-120.35143015920845
30
-1.7763568394002505e-14
10
51.918532241781051
20
-120.25459158766802
30
-1.7763568394002505e-14
10
51.917987024834446
20
-120.15804744147562
30
-1.7763568394002505e-14
10
51.91747403073596
20
-120.06720914756849
30
-1.7763568394002505e-14
10
51.917991003186629
20
-119.9760812688549
30
-1.7763568394002505e-14
10
51.918511195603216
20
-119.88466996420644
30
-1.7763568394002505e-14
0
SPLINE
5
157
100
AcDbEntity
8
CUTOUTS
100
AcDbSpline
70
0
71
3
72
11
73
7
74
0
42
0.000000001
43
0.0000000001
44
0.0000000001
40
5.9317302774669182e-05
40
5.9317302774669182e-05
40
5.9317302774669182e-05
40
5.9317302774669182e-05
40
0.027266116493540681
40
0.027266116493540681
40
0.027266116493540681
40
0.055780328492013087
40
0.055780328492013087
40
0.055780328492013087
40
0.055780328492013087
10
51.91851354118343
20
-119.88466999610786
30
-1.7763568394002505e-14
10
51.919746873580522
20
-119.79398834688793
30
-1.7763568394002505e-14
10
51.920979846028388
20
-119.70349980875552
30
-1.7763568394002505e-14
10
51.922908260611898
20
-119.61321937387687
30
-1.7763568394002505e-14
10
51.924929344454554
20
-119.51860054564227
30
-1.7763568394002505e-14
10
51.927723142581129
20
-119.4237965897363
30
-1.7763568394002505e-14
10
51.930528045991167
20
-119.32879117442887
30
-1.7763568394002505e-14
0
LINE
5
158
100
AcDbEntity
8
CUTOUTS
100
AcDbLine
10
54.259383169478106
20
-118.37807307613467
30
0
11
54.267240426450734
21
-117.62615800420872
31
-1.5407439555097887e-32
0
SPLINE
5
159
100
AcDbEntity
8
CUTOUTS
100
AcDbSpline
70
0
71
3
72
11
73
7
74
0
42
0.000000001
43
0.0000000001
44
0.0000000001
40
0.0080460055404591724
40
0.0080460055404591724
40
0.0080460055404591724
40
0.0080460055404591724
40
0.07731322026033198
40
0.07731322026033198
40
0.07731322026033198
40
0.13738803829145549
40
0.13738803829145549
40
0.13738803829145549
40
0.13738803829145549
10
54.267240426450726
20
-117.62615800420872
30
0
10
54.501045032582375
20
-117.65098892675516
30
0
10
54.725813650687563
20
-117.68233005961405
30
-1.7763568394002505e-14
10
54.91956846629914
20
-117.76868340107967
30
-1.7763568394002505e-14
10
55.087610235231125
20
-117.84357685963586
30
0
10
55.243662372778417
20
-117.96503351354416
30
0
10
55.403463301866623
20
-118.0916905122395
30
0
0
SPLINE
5
15A
100
AcDbEntity
8
CUTOUTS
100
AcDbSpline
70
0
71
3
72
11
73
7
74
0
42
0.000000001
43
0.0000000001
44
0.0000000001
40
0.0012310610129538976
40
0.0012310610129538976
40
0.0012310610129538976
40
0.0012310610129538976
40
0.062496000481885555
40
0.062496000481885555
40
0.062496000481885555
40
0.14164188851885778
40
0.14164188851885778
40
0.14164188851885778
40
0.14164188851885778
10
55.403463301866623
20
-118.0916905122395
30
0
10
55.515299255222665
20
-118.26607630299739
30
0
10
55.622921487832329
20
-118.43663252560526
30
0
10
55.687486419882077
20
-118.61539634771715
30
0
10
55.77089544513241
20
-118.84633465554168
30
0
10
55.788503470447672
20
-119.10787281859059
30
0
10
55.805379180039914
20
-119.37656503577584
30
0
0
SPLINE
5
15B
100
AcDbEntity
8
CUTOUTS
100
AcDbSpline
70
0
71
3
72
11
73
7
74
0
42
0.000000001
43
0.0000000001
44
0.0000000001
40
0.00014100396150103711
40
0.00014100396150103711
40
0.00014100396150103711
40
0.00014100396150103711
40
0.016805789034979892
40
0.016805789034979892
40
0.016805789034979892
40
0.037174672581570131
40
0.037174672581570131
40
0.037174672581570131
40
0.037174672581570131
10
55.805379180039722
20
-119.37656503577584
30
0
10
55.80677474696995
20
-119.43209438876332
30
0
10
55.808159513880398
20
-119.487400693068
30
0
10
55.809043636231763
20
-119.54249142632679
30
0
10
55.810124273343874
20
-119.6098272320571
30
0
10
55.810466711246661
20
-119.67744928361354
30
0
10
55.810808094328436
20
-119.74534614511738
30
0
0
SPLINE
5
15C
100
AcDbEntity
8
CUTOUTS
100
AcDbSpline
70
0
71
3
72
11
73
7
74
0
42
0.000000001
43
0.0000000001
44
0.0000000001
40
0
40
0
40
0
40
0
40
0.022657416939663999
40
0.022657416939663999
40
0.022657416939663999
40
0.046251329916504595
40
0.046251329916504595
40
0.046251329916504595
40
0.046251329916504595
10
55.81080852736136
20
-119.74534614294021
30
0
10
55.810931608240288
20
-119.82087133649551
30
0
10
55.811054143832422
20
-119.89626720288355
30
0
10
55.810787442468751
20
-119.97153232626204
30
0
10
55.810509717572657
20
-120.04990837309526
30
0
10
55.809808939984492
20
-120.12841757252831
30
0
10
55.809106596981621
20
-120.20706143688025
30
0
0
SPLINE
5
15D
100
AcDbEntity
8
CUTOUTS
100
AcDbSpline
70
0
71
3
72
11
73
7
74
0
42
0.000000001
43
0.0000000001
44
0.0000000001
40
2.2313124854146876e-05
40
2.2313124854146876e-05
40
2.2313124854146876e-05
40
2.2313124854146876e-05
40
0.023359489209527223
40
0.023359489209527223
40
0.023359489209527223
40
0.045313848658213085
40
0.045313848658213085
40
0.045313848658213085
40
0.045313848658213085
10
55.809106265082356
20
-120.20706143292863
30
0
10
55.808180141305726
20
-120.28484691508865
30
0
10
55.807254882612099
20
-120.3624908048516
30
0
10
55.805892385069981
20
-120.43998543656576
30
0
10
55.804610620700579
20
-120.51288821596906
30
0
10
55.802937351608435
20
-120.58591751275083
30
0
10
55.801260672379549
20
-120.65908009404752
30
0
0
SPLINE
5
15E
100
AcDbEntity
8
CUTOUTS
100
AcDbSpline
70
0
71
3
72
11
73
7
74
0
42
0.000000001
43
0.0000000001
44
0.0000000001
40
2.6185997361698835e-05
40
2.6185997361698835e-05
40
2.6185997361698835e-05
40
2.6185997361698835e-05
40
0.019222719960908113
40
0.019222719960908113
40
0.019222719960908113
40
0.034248133293980902
40
0.034248133293980902
40
0.034248133293980902
40
0.034248133293980902
10
55.801260215363868
20
-120.65908008197746
30
0
10
55.799570753831318
20
-120.72304814592252
30
0
10
55.797886669539771
20
-120.78668809441714
30
0
10
55.795381647206604
20
-120.84996784831438
30
0
10
55.793420928879236
20
-120.89949785512324
30
0
10
55.790939258488336
20
-120.94926277370776
30
0
10
55.788438793945289
20
-120.99928191270462
30
0
0
SPLINE
5
15F
100
AcDbEntity
8
CUTOUTS
100
AcDbSpline
70
0
71
3
72
11
73
7
74
0
42
0.000000001
43
0.0000000001
44
0.0000000001
40
0.00014010500622981166
40
0.00014010500622981166
40
0.00014010500622981166
40
0.00014010500622981166
40
0.055157396704422559
40
0.055157396704422559
40
0.055157396704422559
40
0.10345882965722231
40
0.10345882965722231
40
0.10345882965722231
40
0.10345882965722231
10
55.788438793945417
20
-120.99928191270463
30
0
10
55.772351165077922
20
-121.18274197907516
30
0
10
55.756279357040214
20
-121.36301895795879
30
0
10
55.718658858109791
20
-121.53537918388284
30
0
10
55.685630623701108
20
-121.68669971674132
30
0
10
55.634854660871127
20
-121.83714416786097
30
0
10
55.582904755704405
20
-121.99012112260974
30
0
0
SPLINE
5
160
100
AcDbEntity
8
CUTOUTS
100
AcDbSpline
70
0
71
3
72
11
73
7
74
0
42
0.000000001
43
0.0000000001
44
0.0000000001
40
0.00038551216567657041
40
0.00038551216567657041
40
0.00038551216567657041
40
0.00038551216567657041
40
0.044722573965012551
40
0.044722573965012551
40
0.044722573965012551
40
0.087834782533398881
40
0.087834782533398881
40
0.087834782533398881
40
0.087834782533398881
10
55.582904755704419
20
-121.99012112260974
30
0
10
55.520813862772975
20
-122.12523612580434
30
0
10
55.459873631253899
20
-122.25667506237473
30
1.7763568394002505e-14
10
55.382893934539325
20
-122.37275373137842
30
1.7763568394002505e-14
10
55.308040874692679
20
-122.48562561745598
30
1.7763568394002505e-14
10
55.213814244673365
20
-122.59031915745219
30
1.7763568394002505e-14
10
55.116761902323994
20
-122.69746151200694
30
1.7763568394002505e-14
0
SPLINE
5
161
100
AcDbEntity
8
CUTOUTS
100
AcDbSpline
70
0
71
3
72
11
73
7
74
0
42
0.000000001
43
0.0000000001
44
0.0000000001
40
0.00034935537900053509
40
0.00034935537900053509
40
0.00034935537900053509
40
0.00034935537900053509
40
0.045000640646070379
40
0.045000640646070379
40
0.045000640646070379
40
0.093365738329141121
40
0.093365738329141121
40
0.093365738329141121
40
0.093365738329141121
10
55.116761902323994
20
-122.69746151200692
30
1.7763568394002505e-14
10
55.006780064519909
20
-122.79818151526085
30
0
10
54.898264440108953
20
-122.8972951129621
30
0
10
54.783795807480402
20
-122.98498226161827
30
0
10
54.65980639562779
20
-123.07996267449866
30
0
10
54.524892458990195
20
-123.16455361050464
30
0
10
54.387902161765858
20
-123.2502634871955
30
0
0
LINE
5
162
100
AcDbEntity
8
CUTOUTS
100
AcDbLine
10
54.387902161765858
20
-123.2502634871955
30
0
11
53.631829453096685
21
-123.68700329607523
31
0
0
SPLINE
5
163
100
AcDbEntity
8
CUTOUTS
100
AcDbSpline
70
0
71
3
72
17
73
13
74
0
42
0.000000001
43
0.0000000001
44
0.0000000001
40
-0.00029912208515826789
40
-0.00029912208515826789
40
-0.00029912208515826789
40
-0.00029912208515826789
40
0
40
0
40
0
40
0.032552908302216382
40
0.032552908302216382
40
0.032552908302216382
40
0.066500941046848921
40
0.066500941046848921
40
0.066500941046848921
40
0.066871036631224512
40
0.066871036631224512
40
0.066871036631224512
40
0.066871036631224512
10
53.631829453096856
20
-123.68700329607513
30
0
10
53.630999885972599
20
-123.68757624457844
30
0
10
53.630170318848336
20
-123.68814919308177
30
0
10
53.629340751724079
20
-123.68872214158507
30
0
10
53.539060482005311
20
-123.75107507711169
30
0
10
53.444441792754674
20
-123.81580365353578
30
0
10
53.362768413742458
20
-123.90036136175253
30
0
10
53.277594747557828
20
-123.9885429712328
30
0
10
53.214395767313619
20
-124.09011430461061
30
1.7763568394002505e-14
10
53.153462782227486
20
-124.18703898643066
30
1.7763568394002505e-14
10
53.152798501357587
20
-124.18809564255648
30
1.7763568394002505e-14
10
53.152134220487682
20
-124.18915229868227
30
1.7763568394002505e-14
10
53.151469939617783
20
-124.19020895480807
30
1.7763568394002505e-14
0
SPLINE
5
164
100
AcDbEntity
8
CUTOUTS
100
AcDbSpline
70
0
71
3
72
17
73
13
74
0
42
0.000000001
43
0.0000000001
44
0.0000000001
40
-0.00037313560051440591
40
-0.00037313560051440591
40
-0.00037313560051440591
40
-0.00037313560051440591
40
0
40
0
40
0
40
0.036100521350615457
40
0.036100521350615457
40
0.036100521350615457
40
0.0740404437836579
40
0.0740404437836579
40
0.0740404437836579
40
0.074254862252569651
40
0.074254862252569651
40
0.074254862252569651
40
0.074254862252569651
10
53.151469939617797
20
-124.19020895480807
30
1.7763568394002505e-14
10
53.150914205868098
20
-124.19132651967941
30
1.7763568394002505e-14
10
53.150358472118391
20
-124.19244408455073
30
1.7763568394002505e-14
10
53.149802738368692
20
-124.19356164942207
30
1.7763568394002505e-14
10
53.096036016381291
20
-124.30168500844448
30
1.7763568394002505e-14
10
53.0409004314116
20
-124.41221252897174
30
1.7763568394002505e-14
10
52.997766510259012
20
-124.53012121206997
30
1.7763568394002505e-14
10
52.952434820811412
20
-124.65403760229276
30
1.7763568394002505e-14
10
52.922458081607942
20
-124.78036832652377
30
1.7763568394002505e-14
10
52.892989069828019
20
-124.90383382564042
30
1.7763568394002505e-14
10
52.892822524933329
20
-124.90453159415408
30
1.7763568394002505e-14
10
52.89265598003864
20
-124.90522936266771
30
1.7763568394002505e-14
10
52.892489435143951
20
-124.90592713118134
30
1.7763568394002505e-14
0
SPLINE
5
165
100
AcDbEntity
8
CUTOUTS
100
AcDbSpline
70
0
71
3
72
17
73
13
74
0
42
0.000000001
43
0.0000000001
44
0.0000000001
40
-0.00021490318689631831
40
-0.00021490318689631831
40
-0.00021490318689631831
40
-0.00021490318689631831
40
0
40
0
40
0
40
0.039542793880978935
40
0.039542793880978935
40
0.039542793880978935
40
0.080132894777520031
40
0.080132894777520031
40
0.080132894777520031
40
0.080214654559169388
40
0.080214654559169388
40
0.080214654559169388
40
0.080214654559169388
10
52.892489435143901
20
-124.90592713118141
30
1.7763568394002505e-14
10
52.892363175933809
20
-124.90663330163756
30
1.7763568394002505e-14
10
52.892236916723725
20
-124.90733947209365
30
1.7763568394002505e-14
10
52.892110657513641
20
-124.90804564254978
30
1.7763568394002505e-14
10
52.86887860594657
20
-125.03798300269014
30
1.7763568394002505e-14
10
52.845269799641493
20
-125.16966398514646
30
1.7763568394002505e-14
10
52.831022775864966
20
-125.30414228953103
30
1.7763568394002505e-14
10
52.816398413855907
20
-125.4421823066273
30
1.7763568394002505e-14
10
52.812033104420628
20
-125.57944318982457
30
1.7763568394002505e-14
10
52.807659486779563
20
-125.71487266947454
30
1.7763568394002505e-14
10
52.80765067709406
20
-125.7151454622107
30
1.7763568394002505e-14
10
52.807641867408563
20
-125.71541825494688
30
1.7763568394002505e-14
10
52.807633057723066
20
-125.71569104768285
30
1.7763568394002505e-14
0
LINE
5
166
100
AcDbEntity
8
CUTOUTS
100
AcDbLine
10
52.807633057723073
20
-125.71569104768285
30
1.7763568394002505e-14
11
52.788620215614735
21
-127.53516094553532
31
1.7763568394002505e-14
0
LINE
5
167
100
AcDbEntity
8
CUTOUTS
100
AcDbLine
10
52.788620215614735
20
-127.53516094553532
30
1.7763568394002505e-14
11
51.867986889195222
21
-127.52554064014001
31
0
0
SPLINE
5
168
100
AcDbEntity
8
CUTOUTS
100
AcDbSpline
70
0
71
3
72
11
73
7
74
0
42
0.000000001
43
0.0000000001
44
0.0000000001
40
0.0073075483314089338
40
0.0073075483314089338
40
0.0073075483314089338
40
0.0073075483314089338
40
0.021334983994966455
40
0.021334983994966455
40
0.021334983994966455
40
0.037824108287615378
40
0.037824108287615378
40
0.037824108287615378
40
0.037824108287615378
10
51.867986889195208
20
-127.52554064014001
30
0
10
51.867260316987675
20
-127.47880674596631
30
0
10
51.866551410497479
20
-127.43209045104499
30
0
10
51.865893470904055
20
-127.38539128210375
30
0
10
51.865120068837342
20
-127.33049682958199
30
0
10
51.864416306341681
20
-127.27556947315583
30
0
10
51.863712155396648
20
-127.22061020840242
30
0
0
SPLINE
5
169
100
AcDbEntity
8
CUTOUTS
100
AcDbSpline
70
0
71
3
72
11
73
7
74
0
42
0.000000001
43
0.0000000001
44
0.0000000001
40
4.2486770870465979e-06
40
4.2486770870465979e-06
40
4.2486770870465979e-06
40
4.2486770870465979e-06
40
0.013363089048778431
40
0.013363089048778431
40
0.013363089048778431
40
0.025289982372361283
40
0.025289982372361283
40
0.025289982372361283
40
0.025289982372361283
10
51.863712167429945
20
-127.22061020825508
30
0
10
51.863166914812851
20
-127.17608398991304
30
0
10
51.862621032223359
20
-127.13150411198174
30
0
10
51.861978599712025
20
-127.08687194723566
30
0
10
51.861405030164292
20
-127.04702394749047
30
0
10
51.860755803588383
20
-127.00722484123122
30
0
10
51.860107209017173
20
-126.96747353551555
30
0
0
SPLINE
5
16A
100
AcDbEntity
8
CUTOUTS
100
AcDbSpline
70
0
71
3
72
11
73
7
74
0
42
0.000000001
43
0.0000000001
44
0.0000000001
40
0
40
0
40
0
40
0
40
0.012033484674784382
40
0.012033484674784382
40
0.012033484674784382
40
0.025627502523369025
40
0.025627502523369025
40
0.025627502523369025
40
0.025627502523369025
10
51.860106596954473
20
-126.96747354550209
30
0
10
51.859614242492135
20
-126.92736385336028
30
0
10
51.859126029907117
20
-126.88749613480093
30
0
10
51.859023234364663
20
-126.8478696371738
30
0
10
51.85890710803249
20
-126.80310427364211
30
0
10
51.859281333567765
20
-126.75806439293686
30
0
10
51.859659334660869
20
-126.71275114049971
30
0
0
LINE
5
16B
100
AcDbEntity
8
CUTOUTS
100
AcDbLine
10
51.859659501213073
20
-126.71275114224011
30
0
11
51.863638440165936
21
-126.33197905099367
31
1.9259299443872359e-32
0
SPLINE
5
16C
100
AcDbEntity
8
CUTOUTS
100
AcDbSpline
70
0
71
3
72
11
73
7
74
0
42
0.000000001
43
0.0000000001
44
0.0000000001
40
0
40
0
40
0
40
0
40
0.02750035892654857
40
0.02750035892654857
40
0.02750035892654857
40
0.062406050983047981
40
0.062406050983047981
40
0.062406050983047981
40
0.062406050983047981
10
51.863637842443168
20
-126.33197904474768
30
0
10
51.864961655308186
20
-126.24032001082313
30
0
10
51.866283955653145
20
-126.14878807930957
30
0
10
51.868068797317321
20
-126.05739253981723
30
0
10
51.870334263512341
20
-125.94138588821757
30
0
10
51.873352055930432
20
-125.82523334326046
30
0
10
51.876376640132406
20
-125.70892001660441
30
0
0
SPLINE
5
16D
100
AcDbEntity
8
CUTOUTS
100
AcDbSpline
70
0
71
3
72
11
73
7
74
0
42
0.000000001
43
0.0000000001
44
0.0000000001
40
9.7165253493424665e-05
40
9.7165253493424665e-05
40
9.7165253493424665e-05
40
9.7165253493424665e-05
40
0.075798536153097104
40
0.075798536153097104
40
0.075798536153097104
40
0.14003653808236977
40
0.14003653808236977
40
0.14003653808236977
40
0.14003653808236977
10
51.876376640132094
20
-125.7089200166044
30
0
10
51.889543057678011
20
-125.45597440388246
30
0
10
51.902774025286419
20
-125.2060415256979
30
0
10
51.944922300092031
20
-124.96408385778983
30
0
10
51.98068811154436
20
-124.75876555307252
30
0
10
52.038100366154858
20
-124.55445310663551
30
0
10
52.096446727735753
20
-124.34776124991173
30
0
0
SPLINE
5
16E
100
AcDbEntity
8
CUTOUTS
100
AcDbSpline
70
0
71
3
72
11
73
7
74
0
42
0.000000001
43
0.0000000001
44
0.0000000001
40
0.00036138693775604268
40
0.00036138693775604268
40
0.00036138693775604268
40
0.00036138693775604268
40
0.056740978964924603
40
0.056740978964924603
40
0.056740978964924603
40
0.1087437048765208
40
0.1087437048765208
40
0.1087437048765208
40
0.1087437048765208
10
52.096446727735859
20
-124.34776124991176
30
0
10
52.165208582134909
20
-124.171558595058
30
0
10
52.233009785930157
20
-123.99918097339585
30
0
10
52.323511352129401
20
-123.8446710558857
30
0
10
52.406987091708395
20
-123.70215606771352
30
1.7763568394002505e-14
10
52.513411847601496
20
-123.56863235610794
30
1.7763568394002505e-14
10
52.622437788302101
20
-123.4325801367627
30
1.7763568394002505e-14
0
SPLINE
5
16F
100
AcDbEntity
8
CUTOUTS
100
AcDbSpline
70
0
71
3
72
11
73
7
74
0
42
0.000000001
43
0.0000000001
44
0.0000000001
40
0.00039168269822575789
40
0.00039168269822575789
40
0.00039168269822575789
40
0.00039168269822575789
40
0.051112937941709138
40
0.051112937941709138
40
0.051112937941709138
40
0.10302365302817865
40
0.10302365302817865
40
0.10302365302817865
40
0.10302365302817865
10
52.622437788302065
20
-123.43258013676265
30
1.7763568394002505e-14
10
52.741791105209018
20
-123.31200567112816
30
1.7763568394002505e-14
10
52.859360674585439
20
-123.19367488927931
30
1.7763568394002505e-14
10
52.986451480004078
20
-123.0919118799645
30
1.7763568394002505e-14
10
53.116522681091794
20
-122.98776243497298
30
1.7763568394002505e-14
10
53.261284456406642
20
-122.8971919014125
30
1.7763568394002505e-14
10
53.40864078125815
20
-122.80526272829972
30
1.7763568394002505e-14
0
LINE
5
170
100
AcDbEntity
8
CUTOUTS
100
AcDbLine
10
53.408640781258157
20
-122.80526272829972
30
1.7763568394002505e-14
11
54.120144734701661
21
-122.39338501592214
31
1.7763568394002505e-14
0
SPLINE
5
171
100
AcDbEntity
8
CUTOUTS
100
AcDbSpline
70
0
71
3
72
17
73
13
74
0
42
0.000000001
43
0.0000000001
44
0.0000000001
40
-0.00022463187364684572
40
-0.00022463187364684572
40
-0.00022463187364684572
40
-0.00022463187364684572
40
0
40
0
40
0
40
0.048004386739345477
40
0.048004386739345477
40
0.048004386739345477
40
0.087492958148680772
40
0.087492958148680772
40
0.087492958148680772
40
0.08814467640229301
40
0.08814467640229301
40
0.08814467640229301
40
0.08814467640229301
10
54.120144734702002
20
-122.39338501592192
30
0
10
54.12078203670081
20
-122.39296206319976
30
0
10
54.121419338699674
20
-122.39253911047756
30
0
10
54.122056640698531
20
-122.39211615775538
30
0
10
54.258249653408576
20
-122.3017301153896
30
0
10
54.401028337832386
20
-122.20829021536937
30
0
10
54.511585371423138
20
-122.07617510816712
30
-1.7763568394002505e-14
10
54.60252996237184
20
-121.96749677271967
30
-1.7763568394002505e-14
10
54.663854360032722
20
-121.84198210566697
30
-1.7763568394002505e-14
10
54.72326900620358
20
-121.72201493659335
30
-1.7763568394002505e-14
10
54.724249583825397
20
-121.72003500186464
30
-1.7763568394002505e-14
10
54.725230161447207
20
-121.71805506713598
30
-1.7763568394002505e-14
10
54.726210739069032
20
-121.71607513240728
30
-1.7763568394002505e-14
0
SPLINE
5
172
100
AcDbEntity
8
CUTOUTS
100
AcDbSpline
70
0
71
3
72
17
73
13
74
0
42
0.000000001
43
0.0000000001
44
0.0000000001
40
-0.00066116957219063783
40
-0.00066116957219063783
40
-0.00066116957219063783
40
-0.00066116957219063783
40
0
40
0
40
0
40
0.037252026933859719
40
0.037252026933859719
40
0.037252026933859719
40
0.074134776623873272
40
0.074134776623873272
40
0.074134776623873272
40
0.074252273068812213
40
0.074252273068812213
40
0.074252273068812213
40
0.074252273068812213
10
54.726210739069003
20
-121.71607513240737
30
-1.7763568394002505e-14
10
54.726828864226206
20
-121.71395390745643
30
-1.7763568394002505e-14
10
54.727446989383388
20
-121.71183268250547
30
-1.7763568394002505e-14
10
54.728065114540584
20
-121.70971145755453
30
-1.7763568394002505e-14
10
54.76289190629376
20
-121.59019608308932
30
-1.7763568394002505e-14
10
54.798494991166756
20
-121.4684266070573
30
-1.7763568394002505e-14
10
54.822569867790364
20
-121.34199032283459
30
-1.7763568394002505e-14
10
54.846406091518631
20
-121.21680739437269
30
-1.7763568394002505e-14
10
54.858048060860376
20
-121.09174201782682
30
-1.7763568394002505e-14
10
54.869581356388871
20
-120.96903426968973
30
-1.7763568394002505e-14
10
54.869618097717392
20
-120.96864336271304
30
-1.7763568394002505e-14
10
54.869654839045914
20
-120.96825245573638
30
-1.7763568394002505e-14
10
54.869691580374429
20
-120.96786154875977
30
-1.7763568394002505e-14
0
SPLINE
5
173
100
AcDbEntity
8
CUTOUTS
100
AcDbSpline
70
0
71
3
72
17
73
13
74
0
42
0.000000001
43
0.0000000001
44
0.0000000001
40
-0.00011777647320070919
40
-0.00011777647320070919
40
-0.00011777647320070919
40
-0.00011777647320070919
40
0
40
0
40
0
40
0.043013116299893045
40
0.043013116299893045
40
0.043013116299893045
40
0.088177540365367055
40
0.088177540365367055
40
0.088177540365367055
40
0.088224595277291415
40
0.088224595277291415
40
0.088224595277291415
40
0.088224595277291415
10
54.869691580368105
20
-120.96786154875913
30
-1.7763568394002505e-14
10
54.869716028058441
20
-120.9674696809318
30
-1.7763568394002505e-14
10
54.86974047574877
20
-120.9670778131045
30
-1.7763568394002505e-14
10
54.869764923439106
20
-120.96668594527719
30
-1.7763568394002505e-14
10
54.87869345830731
20
-120.82357199414403
30
-1.7763568394002505e-14
10
54.88765669471497
20
-120.6799766660336
30
-1.7763568394002505e-14
10
54.893861152768011
20
-120.53578009737001
30
-1.7763568394002505e-14
10
54.900375927764784
20
-120.38437151468321
30
-1.7763568394002505e-14
10
54.903804369388752
20
-120.23333873400108
30
-1.7763568394002505e-14
10
54.907226430479746
20
-120.08281269002035
30
-1.7763568394002505e-14
10
54.907229995781123
20
-120.08265586327255
30
-1.7763568394002505e-14
10
54.907233561082506
20
-120.08249903652475
30
-1.7763568394002505e-14
10
54.907237126383876
20
-120.082342209777
30
-1.7763568394002505e-14
0
SPLINE
5
174
100
AcDbEntity
8
CUTOUTS
100
AcDbSpline
70
0
71
3
72
17
73
13
74
0
42
0.000000001
43
0.0000000001
44
0.0000000001
40
-4.7053195112737488e-05
40
-4.7053195112737488e-05
40
-4.7053195112737488e-05
40
-4.7053195112737488e-05
40
0
40
0
40
0
40
0.045314206716137659
40
0.045314206716137659
40
0.045314206716137659
40
0.088788850755885773
40
0.088788850755885773
40
0.088788850755885773
40
0.088955588251183326
40
0.088955588251183326
40
0.088955588251183326
40
0.088955588251183326
10
54.907237126452031
20
-120.08234220977874
30
-1.7763568394002505e-14
10
54.907238723485612
20
-120.08218534701706
30
-1.7763568394002505e-14
10
54.907240320519193
20
-120.08202848425562
30
-1.7763568394002505e-14
10
54.907241917552774
20
-120.0818716214942
30
-1.7763568394002505e-14
10
54.908779928086908
20
-119.93080618200436
30
-1.7763568394002505e-14
10
54.910332165802544
20
-119.77911453093058
30
-1.7763568394002505e-14
10
54.908067170767801
20
-119.62685123159575
30
-1.7763568394002505e-14
10
54.90589412482872
20
-119.48076916995078
30
-1.7763568394002505e-14
10
54.900225015197393
20
-119.33533960599479
30
-1.7763568394002505e-14
10
54.894586502908609
20
-119.19051018891993
30
-1.7763568394002505e-14
10
54.894564877627097
20
-119.189954727345
30
-1.7763568394002505e-14
10
54.894543252345578
20
-119.18939926577005
30
-1.7763568394002505e-14
10
54.894521627064059
20
-119.18884380419505
30
-1.7763568394002505e-14
0
SPLINE
5
175
100
AcDbEntity
8
CUTOUTS
100
AcDbSpline
70
0
71
3
72
17
73
13
74
0
42
0.000000001
43
0.0000000001
44
0.0000000001
40
-0.00016365574406011123
40
-0.00016365574406011123
40
-0.00016365574406011123
40
-0.00016365574406011123
40
0
40
0
40
0
40
0.029865484212588635
40
0.029865484212588635
40
0.029865484212588635
40
0.055021494609066093
40
0.055021494609066093
40
0.055021494609066093
40
0.055953290814529148
40
0.055953290814529148
40
0.055953290814529148
40
0.055953290814529148
10
54.894521627064911
20
-119.18884380419499
30
-1.7763568394002505e-14
10
54.894475333657681
20
-119.18828985279929
30
-1.7763568394002505e-14
10
54.894429040250436
20
-119.18773590140354
30
-1.7763568394002505e-14
10
54.894382746843192
20
-119.1871819500078
30
-1.7763568394002505e-14
10
54.885934677812301
20
-119.08609153757554
30
-1.7763568394002505e-14
10
54.877880541250086
20
-118.9782326479129
30
-1.7763568394002505e-14
10
54.839184810790265
20
-118.87320285545796
30
-1.7763568394002505e-14
10
54.806590991422809
20
-118.78473516037124
30
-1.7763568394002505e-14
10
54.756283379574725
20
-118.70921111179575
30
-1.7763568394002505e-14
10
54.709612359809732
20
-118.63798809512802
30
-1.7763568394002505e-14
10
54.70788363262141
20
-118.63534994481617
30
-1.7763568394002505e-14
10
54.706154905433088
20
-118.63271179450429
30
-1.7763568394002505e-14
10
54.704426178244773
20
-118.63007364419245
30
-1.7763568394002505e-14
0
SPLINE
5
176
100
AcDbEntity
8
CUTOUTS
100
AcDbSpline
70
0
71
3
72
14
73
10
74
0
42
0.000000001
43
0.0000000001
44
0.0000000001
40
-0.00093113544578928226
40
-0.00093113544578928226
40
-0.00093113544578928226
40
-0.00093113544578928226
40
0
40
0
40
0
40
0.024688700634856554
40
0.024688700634856554
40
0.024688700634856554
40
0.047239072656736061
40
0.047239072656736061
40
0.047239072656736061
40
0.047239072656736061
10
54.704426178244759
20
-118.63007364419244
30
-1.7763568394002505e-14
10
54.702096373286004
20
-118.62794753422025
30
-1.7763568394002505e-14
10
54.699766568327234
20
-118.62582142424807
30
-1.7763568394002505e-14
10
54.697436763368472
20
-118.62369531427591
30
-1.7763568394002505e-14
10
54.635662874913621
20
-118.56732232057526
30
-1.7763568394002505e-14
10
54.570121015484006
20
-118.50652584462014
30
-1.7763568394002505e-14
10
54.488694534263445
20
-118.46144007383933
30
0
10
54.414320533334291
20
-118.42025925517098
30
0
10
54.335541707075848
20
-118.39733870559344
30
0
10
54.259383169478106
20
-118.37807307613467
30
0
0
LWPOLYLINE
5
177
100
AcDbEntity
8
CUTOUTS
100
AcDbPolyline
90
5
70
1
43
0.0
10
48.496052577905651
20
-123.85479333479013
10
48.683250335023317
20
-126.13593713164815
10
47.942610448996362
20
-126.12819769653642
10
47.102870825767496
20
-120.12534551451111
10
48.037553351860581
20
-120.13511262926852
0
SPLINE
5
178
100
AcDbEntity
8
CUTOUTS
100
AcDbSpline
70
0
71
3
72
11
73
7
74
0
42
0.000000001
43
0.0000000001
44
0.0000000001
40
0.0045243046240921918
40
0.0045243046240921918
40
0.0045243046240921918
40
0.0045243046240921918
40
0.017609310715955947
40
0.017609310715955947
40
0.017609310715955947
40
0.035670292040862375
40
0.035670292040862375
40
0.035670292040862375
40
0.035670292040862375
10
41.546618625880171
20
-120.13107461143585
30
-1.7763568394002505e-14
10
41.58468366442851
20
-120.11151737012277
30
-1.7763568394002505e-14
10
41.621885529925208
20
-120.09331367447476
30
0
10
41.658924794547644
20
-120.07827798343536
30
0
10
41.710049376526257
20
-120.057524509332
30
0
10
41.765514582535602
20
-120.04097356785843
30
0
10
41.823350397802741
20
-120.02393619979686
30
0
0
SPLINE
5
179
100
AcDbEntity
8
CUTOUTS
100
AcDbSpline
70
0
71
3
72
11
73
7
74
0
42
0.000000001
43
0.0000000001
44
0.0000000001
40
0.00027072677807853525
40
0.00027072677807853525
40
0.00027072677807853525
40
0.00027072677807853525
40
0.019581348255106192
40
0.019581348255106192
40
0.019581348255106192
40
0.04074929762262177
40
0.04074929762262177
40
0.04074929762262177
40
0.04074929762262177
10
41.823350397802727
20
-120.02393619979674
30
0
10
41.886352601800255
20
-120.01023602784247
30
0
10
41.947111312455377
20
-119.99722223263666
30
0
10
42.006169959447632
20
-119.99021378298954
30
0
10
42.070908965943772
20
-119.98253124892653
30
0
10
42.139034643660167
20
-119.98142084979122
30
0
10
42.20973132956842
20
-119.98050292314423
30
0
0
SPLINE
5
17A
100
AcDbEntity
8
CUTOUTS
100
AcDbSpline
70
0
71
3
72
11
73
7
74
0
42
0.000000001
43
0.0000000001
44
0.0000000001
40
0.00026711120492961922
40
0.00026711120492961922
40
0.00026711120492961922
40
0.00026711120492961922
40
0.058799016572428926
40
0.058799016572428926
40
0.058799016572428926
40
0.10779273676349567
40
0.10779273676349567
40
0.10779273676349567
40
0.10779273676349567
10
42.20973132956842
20
-119.98050292314416
30
0
10
42.410486332672967
20
-119.99265236698756
30
0
10
42.602579546937626
20
-120.00615832679441
30
0
10
42.761430921242145
20
-120.07422236388868
30
0
10
42.89439634814525
20
-120.13119488797673
30
0
10
43.01831085546474
20
-120.2324386977844
30
0
10
43.146305529139084
20
-120.34000032960796
30
0
0
SPLINE
5
17B
100
AcDbEntity
8
CUTOUTS
100
AcDbSpline
70
0
71
3
72
11
73
7
74
0
42
0.000000001
43
0.0000000001
44
0.0000000001
40
0.0012676055465204923
40
0.0012676055465204923
40
0.0012676055465204923
40
0.0012676055465204923
40
0.055728037026713508
40
0.055728037026713508
40
0.055728037026713508
40
0.13023357068414654
40
0.13023357068414654
40
0.13023357068414654
40
0.13023357068414654
10
43.146305529139084
20
-120.34000032960797
30
0
10
43.239689756667197
20
-120.49870636172858
30
0
10
43.329041498594563
20
-120.65348198974513
30
-1.7763568394002505e-14
10
43.380115583208109
20
-120.8131977808256
30
-1.7763568394002505e-14
10
43.449988366562387
20
-121.03169972663369
30
-1.7763568394002505e-14
10
43.454113014140042
20
-121.27806937344226
30
-1.7763568394002505e-14
10
43.457085296769932
20
-121.53190830732294
30
-1.7763568394002505e-14
0
LINE
5
17C
100
AcDbEntity
8
CUTOUTS
100
AcDbLine
10
43.457085296769918
20
-121.53190830732294
30
-1.7763568394002505e-14
11
43.395379045534938
21
-127.4370047674843
31
-1.7763568394002505e-14
0
LINE
5
17D
100
AcDbEntity
8
CUTOUTS
100
AcDbLine
10
43.395379045534938
20
-127.4370047674843
30
-1.7763568394002505e-14
11
42.489176994852009
21
-127.42753526401616
31
0
0
LINE
5
17E
100
AcDbEntity
8
CUTOUTS
100
AcDbLine
10
42.489176994852009
20
-127.42753526401616
30
0
11
42.551755071840198
21
-121.43900778891219
31
3.0814879110195774e-30
0
SPLINE
5
17F
100
AcDbEntity
8
CUTOUTS
100
AcDbSpline
70
0
71
3
72
17
73
13
74
0
42
0.000000001
43
0.0000000001
44
0.0000000001
40
-0.00013208814768920948
40
-0.00013208814768920948
40
-0.00013208814768920948
40
-0.00013208814768920948
40
0
40
0
40
0
40
0.034151278810146846
40
0.034151278810146846
40
0.034151278810146846
40
0.060247513905958755
40
0.060247513905958755
40
0.060247513905958755
40
0.061525937280636156
40
0.061525937280636156
40
0.061525937280636156
40
0.061525937280636156
10
42.551755071840198
20
-121.43900778891225
30
0
10
42.551743495892353
20
-121.43855662100613
30
0
10
42.551731919944508
20
-121.43810545310006
30
0
10
42.551720343996664
20
-121.437654285194
30
0
10
42.548727392477879
20
-121.32100520487157
30
0
10
42.546845907561639
20
-121.19645873918996
30
0
10
42.504105909388741
20
-121.07578636522726
30
0
10
42.471446721236092
20
-120.98357621233644
30
0
10
42.418966894373995
20
-120.90504519484901
30
0
10
42.370365296190833
20
-120.83100088024202
30
0
10
42.367984361970407
20
-120.82737353774574
30
0
10
42.365603427749974
20
-120.82374619524947
30
0
10
42.363222493529555
20
-120.82011885275323
30
0
0
SPLINE
5
180
100
AcDbEntity
8
CUTOUTS
100
AcDbSpline
70
0
71
3
72
17
73
13
74
0
42
0.000000001
43
0.0000000001
44
0.0000000001
40
-0.0012735007765241079
40
-0.0012735007765241079
40
-0.0012735007765241079
40
-0.0012735007765241079
40
0
40
0
40
0
40
0.024720410922578664
40
0.024720410922578664
40
0.024720410922578664
40
0.054562856945072895
40
0.054562856945072895
40
0.054562856945072895
40
0.054811397554659705
40
0.054811397554659705
40
0.054811397554659705
40
0.054811397554659705
10
42.363222493529491
20
-120.82011885275323
30
0
10
42.359758514020328
20
-120.81750594110022
30
0
10
42.356294534511171
20
-120.81489302944721
30
0
10
42.352830555002001
20
-120.81228011779422
30
0
10
42.285589923137017
20
-120.7615598897759
30
0
10
42.213680209521016
20
-120.70607264894191
30
0
10
42.125644416490317
20
-120.67129753789982
30
0
10
42.019367728380466
20
-120.62931707173968
30
0
10
41.909096472679074
20
-120.6252160969605
30
0
10
41.806998290375603
20
-120.62009442091608
30
0
10
41.806147973198229
20
-120.62005176541507
30
0
10
41.805297656020855
20
-120.62000910991406
30
0
10
41.804447338843403
20
-120.61996645441306
30
0
0
SPLINE
5
181
100
AcDbEntity
8
CUTOUTS
100
AcDbSpline
70
0
71
3
72
14
73
10
74
0
42
0.000000001
43
0.0000000001
44
0.0000000001
40
-0.00025348517229554319
40
-0.00025348517229554319
40
-0.00025348517229554319
40
-0.00025348517229554319
40
0
40
0
40
0
40
0.018503478166664627
40
0.018503478166664627
40
0.018503478166664627
40
0.024392144319861857
40
0.024392144319861857
40
0.024392144319861857
40
0.024392144319861857
10
41.804447338843069
20
-120.61996645441283
30
0
10
41.803596089790915
20
-120.61998174652543
30
0
10
41.802744840738661
20
-120.61999703863799
30
0
10
41.801893591686408
20
-120.62001233075057
30
0
10
41.739755565585249
20
-120.62112859829641
30
0
10
41.67336880236634
20
-120.62195175188519
30
0
10
41.604693153662993
20
-120.63502034440884
30
0
10
41.582837372580876
20
-120.63917937752524
30
-1.7763568394002505e-14
10
41.56169946945213
20
-120.64443293166867
30
-1.7763568394002505e-14
10
41.541193318656909
20
-120.65025965084556
30
-1.7763568394002505e-14
0
LINE
5
182
100
AcDbEntity
8
CUTOUTS
100
AcDbLine
10
41.541193318656923
20
-120.65025965084553
30
-1.7763568394002501e-14
11
41.546618625880171
21
-120.13107461143585
31
-1.7763568394002505e-14
0
SPLINE
5
183
100
AcDbEntity
8
CUTOUTS
100
AcDbSpline
70
0
71
3
72
11
73
7
74
0
42
0.000000001
43
0.0000000001
44
0.0000000001
40
0.00010067454510109003
40
0.00010067454510109003
40
0.00010067454510109003
40
0.00010067454510109003
40
0.011762681377586421
40
0.011762681377586421
40
0.011762681377586421
40
0.016456710821906938
40
0.016456710821906938
40
0.016456710821906938
40
0.016456710821906938
10
35.861408594850296
20
-119.98582822034638
30
-1.7763568394002505e-14
10
35.900110869382679
20
-119.9894329869432
30
-1.7763568394002505e-14
10
35.938516606188919
20
-119.99301585401736
30
-1.7763568394002505e-14
10
35.976578417943387
20
-119.99702584474977
30
-1.7763568394002505e-14
10
35.991898531166271
20
-119.99863989067171
30
-1.7763568394002505e-14
10
36.007259994218174
20
-120.00033311823739
30
-1.7763568394002505e-14
10
36.022665928160393
20
-120.00207590868577
30
-1.7763568394002505e-14
0
LINE
5
184
100
AcDbEntity
8
CUTOUTS
100
AcDbLine
10
36.022665928160393
20
-120.00207590868577
30
-1.7763568394002505e-14
11
36.01566519542979
21
-120.67202427272703
31
-1.7763568394002508e-14
0
LINE
5
185
100
AcDbEntity
8
CUTOUTS
100
AcDbLine
10
36.01566519542979
20
-120.67202427272703
30
-1.7763568394002508e-14
11
35.627465604123479
21
-120.6679677189227
31
-1.7763568394002501e-14
0
SPLINE
5
186
100
AcDbEntity
8
CUTOUTS
100
AcDbSpline
70
0
71
3
72
14
73
10
74
0
42
0.000000001
43
0.0000000001
44
0.0000000001
40
-7.187454437539796e-05
40
-7.187454437539796e-05
40
-7.187454437539796e-05
40
-7.187454437539796e-05
40
0
40
0
40
0
40
0.036793571190347006
40
0.036793571190347006
40
0.036793571190347006
40
0.05806132610100178
40
0.05806132610100178
40
0.05806132610100178
40
0.05806132610100178
10
35.627465604123479
20
-120.6679677189227
30
-1.7763568394002505e-14
10
35.62722490656715
20
-120.667969838723
30
-1.7763568394002505e-14
10
35.626984209010701
20
-120.6679719585233
30
-1.7763568394002505e-14
10
35.626743511454237
20
-120.6679740783236
30
-1.7763568394002505e-14
10
35.503527110488079
20
-120.66905923335499
30
-1.7763568394002505e-14
10
35.376955560711806
20
-120.66994567121638
30
-1.7763568394002505e-14
10
35.249296043952199
20
-120.68833726316791
30
-1.7763568394002505e-14
10
35.175505128131327
20
-120.69896813854606
30
0
10
35.103854062786304
20
-120.71512851037377
30
0
10
35.033729440032701
20
-120.73266823817441
30
0
0
LINE
5
187
100
AcDbEntity
8
CUTOUTS
100
AcDbLine
10
35.033729440032701
20
-120.7326682381744
30
4.2530636384774099e-30
11
35.040541738786239
21
-120.08075242008519
31
3.1893399879052626e-30
0
SPLINE
5
188
100
AcDbEntity
8
CUTOUTS
100
AcDbSpline
70
0
71
3
72
11
73
7
74
0
42
0.000000001
43
0.0000000001
44
0.0000000001
40
0.0050007461699264075
40
0.0050007461699264075
40
0.0050007461699264075
40
0.0050007461699264075
40
0.031132663142610876
40
0.031132663142610876
40
0.031132663142610876
40
0.068027463043165134
40
0.068027463043165134
40
0.068027463043165134
40
0.068027463043165134
10
35.040541738786246
20
-120.08075242008519
30
0
10
35.121080670783329
20
-120.04878528641463
30
0
10
35.199363839736179
20
-120.01996274843266
30
0
10
35.276919061480079
20
-120.00298741276323
30
0
10
35.386416745499027
20
-119.97902049087904
30
0
10
35.505670567616455
20
-119.97636660970488
30
-1.7763568394002505e-14
10
35.629856133838437
20
-119.97421489139498
30
-1.7763568394002505e-14
0
SPLINE
5
189
100
AcDbEntity
8
CUTOUTS
100
AcDbSpline
70
0
71
3
72
11
73
7
74
0
42
0.000000001
43
0.0000000001
44
0.0000000001
40
0.00014125411340716403
40
0.00014125411340716403
40
0.00014125411340716403
40
0.00014125411340716403
40
0.011877465055981137
40
0.011877465055981137
40
0.011877465055981137
40
0.023773417196863662
40
0.023773417196863662
40
0.023773417196863662
40
0.023773417196863662
10
35.629856133838437
20
-119.97421489139529
30
-1.7763568394002505e-14
10
35.668960871026968
20
-119.97501064926189
30
-1.7763568394002505e-14
10
35.707344183861395
20
-119.97581569562259
30
-1.7763568394002505e-14
10
35.744951118908645
20
-119.9776927937033
30
-1.7763568394002505e-14
10
35.783069920766984
20
-119.97959544090699
30
-1.7763568394002505e-14
10
35.82187152775014
20
-119.98267367588996
30
-1.7763568394002505e-14
10
35.861409221501553
20
-119.98582149230376
30
-1.7763568394002505e-14
0
LWPOLYLINE
5
18A
100
AcDbEntity
8
CUTOUTS
100
AcDbPolyline
90
5
70
1
43
0.0
10
30.458366284765837
20
-118.90760906600693
10
31.229037700176292
20
-118.91566232039486
10
32.062320970528177
20
-127.31857816199948
10
31.145163628425173
20
-127.30899417945905
10
30.625160263090933
20
-121.50296176136069
0
LWPOLYLINE
5
18B
100
AcDbEntity
8
CUTOUTS
100
AcDbPolyline
90
5
70
1
43
0.0
10
23.442194888778964
20
-121.43420559079524
10
23.862513751600378
20
-119.88249168103273
10
24.737337428113413
20
-119.89163329115429
10
23.894275416790613
20
-122.29545553142444
10
23.219136841024273
20
-122.28840056274515
0
LWPOLYLINE
5
18C
100
AcDbEntity
8
CUTOUTS
100
AcDbPolyline
90
4
70
1
43
0.0
10
53.615553984809388
20
-126.75625912788612
10
55.696690171929582
20
-126.77800629379325
10
55.688461513805208
20
-127.56546330162635
10
53.607325326685014
20
-127.54371613571922
0
SPLINE
5
18D
100
AcDbEntity
8
CUTOUTS
100
AcDbSpline
70
0
71
3
72
11
73
7
74
0
42
0.000000001
43
0.0000000001
44
0.0000000001
40
0.00068768978354853856
40
0.00068768978354853856
40
0.00068768978354853856
40
0.00068768978354853856
40
0.042623003799683291
40
0.042623003799683291
40
0.042623003799683291
40
0.086145927793984209
40
0.086145927793984209
40
0.086145927793984209
40
0.086145927793984209
10
19.391605841982901
20
-127.03980755944968
30
0
10
19.26338734692715
20
-127.09771802257214
30
0
10
19.13837608441338
20
-127.15348155175634
30
0
10
19.011959483374909
20
-127.18822412810957
30
0
10
18.88075693374099
20
-127.22428200785751
30
0
10
18.740502204296217
20
-127.23985563062284
30
0
10
18.595962212060215
20
-127.25196298857102
30
0
0
LINE
5
18E
100
AcDbEntity
8
CUTOUTS
100
AcDbLine
10
18.595962212060215
20
-127.25196298857102
30
0
11
18.603175803906069
21
-126.56164466876626
31
1.6254848730628271e-30
0
SPLINE
5
18F
100
AcDbEntity
8
CUTOUTS
100
AcDbSpline
70
0
71
3
72
14
73
10
74
0
42
0.000000001
43
0.0000000001
44
0.0000000001
40
0.0056688823446530119
40
0.0056688823446530119
40
0.0056688823446530119
40
0.0056688823446530119
40
0.026166266452724019
40
0.026166266452724019
40
0.026166266452724019
40
0.048355051995652376
40
0.048355051995652376
40
0.048355051995652376
40
0.049373520066842855
40
0.049373520066842855
40
0.049373520066842855
40
0.049373520066842855
10
18.603175803906069
20
-126.56164466876626
30
0
10
18.673491516792929
20
-126.54438966858679
30
0
10
18.746716332469315
20
-126.52320433831632
30
0
10
18.815042204887902
20
-126.48236264779575
30
0
10
18.88900618595671
20
-126.43815078605799
30
0
10
18.945257142147849
20
-126.37848811899053
30
0
10
18.997692116990301
20
-126.32414519921538
30
0
10
19.000098888987232
20
-126.32165085230399
30
0
10
19.00250566098417
20
-126.31915650539261
30
0
10
19.004912432981111
20
-126.31666215848122
30
0
0
SPLINE
5
190
100
AcDbEntity
8
CUTOUTS
100
AcDbSpline
70
0
71
3
72
17
73
13
74
0
42
0.000000001
43
0.0000000001
44
0.0000000001
40
-0.0010278912611429766
40
-0.0010278912611429766
40
-0.0010278912611429766
40
-0.0010278912611429766
40
0
40
0
40
0
40
0.023503686466113831
40
0.023503686466113831
40
0.023503686466113831
40
0.052554988736920889
40
0.052554988736920889
40
0.052554988736920889
40
0.052604832754339151
40
0.052604832754339151
40
0.052604832754339151
40
0.052604832754339151
10
19.004912432981058
20
-126.31666215848122
30
0
10
19.00654979892397
20
-126.31360710517106
30
0
10
19.008187164866861
20
-126.31055205186087
30
0
10
19.009824530809752
20
-126.3074969985507
30
0
10
19.047264420812596
20
-126.2376403728023
30
0
10
19.087419921901841
20
-126.16377289332023
30
0
10
19.112992330153844
20
-126.08016955399188
30
0
10
19.144600638194902
20
-125.97683317375305
30
0
10
19.149643247321848
20
-125.87264630177712
30
0
10
19.155106028476673
20
-125.77451030745956
30
0
10
19.155115401101579
20
-125.77434193317579
30
0
10
19.155124773726484
20
-125.77417355889204
30
0
10
19.155134146351422
20
-125.7740051846078
30
0
0
SPLINE
5
191
100
AcDbEntity
8
CUTOUTS
100
AcDbSpline
70
0
71
3
72
17
73
13
74
0
42
0.000000001
43
0.0000000001
44
0.0000000001
40
-5.059094810114817e-05
40
-5.059094810114817e-05
40
-5.059094810114817e-05
40
-5.059094810114817e-05
40
0
40
0
40
0
40
0.056666696875111493
40
0.056666696875111493
40
0.056666696875111493
40
0.11285607015447138
40
0.11285607015447138
40
0.11285607015447138
40
0.1128690327088912
40
0.1128690327088912
40
0.1128690327088912
40
0.1128690327088912
10
19.155134146397685
20
-125.77400518461111
30
0
10
19.155141246851048
20
-125.77383669691949
30
0
10
19.155148347304404
20
-125.77366820922813
30
0
10
19.155155447757757
20
-125.77349972153678
30
0
10
19.163108634110255
20
-125.5847774047748
30
0
10
19.171066227495803
20
-125.39595525625573
30
0
10
19.178272558356582
20
-125.20700444250895
30
0
10
19.18541818774812
20
-125.01964522818143
30
0
10
19.191817636577333
20
-124.83235670940375
30
0
10
19.198213897833433
20
-124.64516722657103
30
0
10
19.198215373412879
20
-124.64512404307031
30
0
10
19.198216848992313
20
-124.64508085956952
30
0
10
19.198218324571712
20
-124.6450376760699
30
0
0
SPLINE
5
192
100
AcDbEntity
8
CUTOUTS
100
AcDbSpline
70
0
71
3
72
17
73
13
74
0
42
0.000000001
43
0.0000000001
44
0.0000000001
40
-1.296254749492715e-05
40
-1.296254749492715e-05
40
-1.296254749492715e-05
40
-1.296254749492715e-05
40
0
40
0
40
0
40
0.055946748597647401
40
0.055946748597647401
40
0.055946748597647401
40
0.11188694864317153
40
0.11188694864317153
40
0.11188694864317153
40
0.11190807543503736
40
0.11190807543503736
40
0.11190807543503736
40
0.11190807543503736
10
19.19821832457318
20
-124.64503767606628
30
0
10
19.198219650879544
20
-124.64499448746336
30
0
10
19.198220977185947
20
-124.64495129885822
30
0
10
19.198222303492358
20
-124.64490811025323
30
0
10
19.203946682301112
20
-124.45850477692454
30
0
10
19.209676379375171
20
-124.27194436103342
30
0
10
19.214236334757562
20
-124.08519815112099
30
0
10
19.218795756398357
20
-123.89847379980301
30
0
10
19.222178037576676
20
-123.71187791752858
30
0
10
19.225557964094364
20
-123.52543917178211
30
0
10
19.225559240582541
20
-123.52536875993911
30
0
10
19.225560517070718
20
-123.52529834809617
30
0
10
19.225561793558896
20
-123.5252279362532
30
0
0
SPLINE
5
193
100
AcDbEntity
8
CUTOUTS
100
AcDbSpline
70
0
71
3
72
17
73
13
74
0
42
0.000000001
43
0.0000000001
44
0.0000000001
40
-2.1126734927191113e-05
40
-2.1126734927191113e-05
40
-2.1126734927191113e-05
40
-2.1126734927191113e-05
40
0
40
0
40
0
40
0.056171828967943926
40
0.056171828967943926
40
0.056171828967943926
40
0.11281897487030361
40
0.11281897487030361
40
0.11281897487030361
40
0.11284164331664714
40
0.11284164331664714
40
0.11284164331664714
40
0.11284164331664714
10
19.225561793568335
20
-123.52522793625469
30
0
10
19.225562673358844
20
-123.52515751721897
30
0
10
19.225563553149343
20
-123.52508709818449
30
0
10
19.225564432939848
20
-123.52501667914993
30
0
10
19.227903622678113
20
-123.33778632960629
30
0
10
19.230247352730501
20
-123.15029863732563
30
0
10
19.230659957505054
20
-122.96254932209153
30
0
10
19.231076053674503
20
-122.77321130250874
30
0
10
19.229527058658611
20
-122.58412863493339
30
0
10
19.227981535592924
20
-122.39530550514688
30
0
10
19.227980917122103
20
-122.39522994393495
30
0
10
19.227980298651282
20
-122.39515438272306
30
0
10
19.227979680180471
20
-122.39507882151351
30
0
0
SPLINE
5
194
100
AcDbEntity
8
CUTOUTS
100
AcDbSpline
70
0
71
3
72
17
73
13
74
0
42
0.000000001
43
0.0000000001
44
0.0000000001
40
-2.2669184411366409e-05
40
-2.2669184411366409e-05
40
-2.2669184411366409e-05
40
-2.2669184411366409e-05
40
0
40
0
40
0
40
0.057521226582874452
40
0.057521226582874452
40
0.057521226582874452
40
0.11631197021240834
40
0.11631197021240834
40
0.11631197021240834
40
0.11632906209412094
40
0.11632906209412094
40
0.11632906209412094
40
0.11632906209412094
10
19.227979680192959
20
-122.39507882150895
30
0
10
19.227978604938762
20
-122.39500326403601
30
0
10
19.227977529684523
20
-122.39492770656088
30
0
10
19.22797645443028
20
-122.39485214908568
30
0
10
19.225248083554874
20
-122.20313115234022
30
0
10
19.222517755093627
20
-122.01122375191899
30
-1.7763568394002505e-14
10
19.21835192246072
20
-121.81916108828881
30
-1.7763568394002505e-14
10
19.214094148194167
20
-121.62285952295244
30
-1.7763568394002505e-14
10
19.208345161425619
20
-121.42678097748502
30
-1.7763568394002505e-14
10
19.202602483521993
20
-121.23089285601984
30
-1.7763568394002505e-14
10
19.202600813987544
20
-121.23083590663639
30
-1.7763568394002505e-14
10
19.202599144453103
20
-121.23077895725294
30
-1.7763568394002505e-14
10
19.202597474918726
20
-121.23072200787169
30
-1.7763568394002505e-14
0
SPLINE
5
195
100
AcDbEntity
8
CUTOUTS
100
AcDbSpline
70
0
71
3
72
17
73
13
74
0
42
0.000000001
43
0.0000000001
44
0.0000000001
40
-1.6832953559348538e-05
40
-1.6832953559348538e-05
40
-1.6832953559348538e-05
40
-1.6832953559348538e-05
40
0
40
0
40
0
40
0.028973821585522933
40
0.028973821585522933
40
0.028973821585522933
40
0.052263417556115591
40
0.052263417556115591
40
0.052263417556115591
40
0.053319762688377639
40
0.053319762688377639
40
0.053319762688377639
40
0.053319762688377639
10
19.202597474922758
20
-121.2307220078708
30
-1.7763568394002505e-14
10
19.202595545815512
20
-121.2306650660955
30
-1.7763568394002505e-14
10
19.202593616708327
20
-121.23060812432179
30
-1.7763568394002505e-14
10
19.202591687601142
20
-121.2305511825482
30
-1.7763568394002505e-14
10
19.199271200336845
20
-121.13253981471669
30
-1.7763568394002505e-14
10
19.196523312672387
20
-121.02839329950704
30
-1.7763568394002505e-14
10
19.166804890078211
20
-120.92458774814796
30
-1.7763568394002505e-14
10
19.142916772556042
20
-120.84114727608178
30
-1.7763568394002505e-14
10
19.104263140964033
20
-120.7672292769804
30
0
10
19.068286676185782
20
-120.69739763731818
30
0
10
19.06665489332908
20
-120.69423028685284
30
0
10
19.065023110472367
20
-120.69106293638748
30
0
10
19.063391327615669
20
-120.68789558592216
30
0
0
SPLINE
5
196
100
AcDbEntity
8
CUTOUTS
100
AcDbSpline
70
0
71
3
72
14
73
10
74
0
42
0.000000001
43
0.0000000001
44
0.0000000001
40
-0.001046273502087997
40
-0.001046273502087997
40
-0.001046273502087997
40
-0.001046273502087997
40
0
40
0
40
0
40
0.021930685011866517
40
0.021930685011866517
40
0.021930685011866517
40
0.042134736480149031
40
0.042134736480149031
40
0.042134736480149031
40
0.042134736480149031
10
19.063391327615413
20
-120.68789558592215
30
0
10
19.060939670023316
20
-120.68531020407234
30
0
10
19.058488012431198
20
-120.6827248222225
30
0
10
19.056036354839073
20
-120.68013944037267
30
0
10
19.004647754915371
20
-120.62594787872952
30
0
10
18.949453811422067
20
-120.56632466641175
30
0
10
18.876309273476089
20
-120.52209500528292
30
0
10
18.808923507437115
20
-120.48134760731573
30
0
10
18.73658393401568
20
-120.46026674814696
30
0
10
18.667111525285307
20
-120.44319484499579
30
0
0
LINE
5
197
100
AcDbEntity
8
CUTOUTS
100
AcDbLine
10
18.667111525285307
20
-120.44319484499579
30
0
11
18.67431156907406
21
-119.75417303214851
31
2.858080037470658e-30
0
SPLINE
5
198
100
AcDbEntity
8
CUTOUTS
100
AcDbSpline
70
0
71
3
72
11
73
7
74
0
42
0.000000001
43
0.0000000001
44
0.0000000001
40
0.0081647270170270708
40
0.0081647270170270708
40
0.0081647270170270708
40
0.0081647270170270708
40
0.05168765101132524
40
0.05168765101132524
40
0.05168765101132524
40
0.093619371907544241
40
0.093619371907544241
40
0.093619371907544241
40
0.093619371907544241
10
18.674311569074078
20
-119.75417303214851
30
0
10
18.818566990628021
20
-119.76929820402728
30
0
10
18.958465650481287
20
-119.78779933450413
30
0
10
19.088886046914499
20
-119.82659108512918
30
0
10
19.214538258680598
20
-119.8639646048977
30
0
10
19.338346500566644
20
-119.92232147788782
30
-1.7763568394002505e-14
10
19.465315396379044
20
-119.98289315776682
30
-1.7763568394002505e-14
0
SPLINE
5
199
100
AcDbEntity
8
CUTOUTS
100
AcDbSpline
70
0
71
3
72
11
73
7
74
0
42
0.000000001
43
0.0000000001
44
0.0000000001
40
0.00068557354051149784
40
0.00068557354051149784
40
0.00068557354051149784
40
0.00068557354051149784
40
0.038321234738707168
40
0.038321234738707168
40
0.038321234738707168
40
0.077419086283396332
40
0.077419086283396332
40
0.077419086283396332
40
0.077419086283396332
10
19.465315396379061
20
-119.98289315776681
30
-1.7763568394002505e-14
10
19.568113090398491
20
-120.05789449491127
30
-1.7763568394002505e-14
10
19.665514806115858
20
-120.13045389188053
30
-1.7763568394002505e-14
10
19.737827744035854
20
-120.21582512713182
30
-1.7763568394002505e-14
10
19.812950125881841
20
-120.30451313674229
30
-1.7763568394002505e-14
10
19.869722726462484
20
-120.41734196847821
30
-1.7763568394002505e-14
10
19.928113885983343
20
-120.53609867963002
30
-1.7763568394002505e-14
0
SPLINE
5
19A
100
AcDbEntity
8
CUTOUTS
100
AcDbSpline
70
0
71
3
72
11
73
7
74
0
42
0.000000001
43
0.0000000001
44
0.0000000001
40
0.00052822194372449899
40
0.00052822194372449899
40
0.00052822194372449899
40
0.00052822194372449899
40
0.045362677395118345
40
0.045362677395118345
40
0.045362677395118345
40
0.099279305255788527
40
0.099279305255788527
40
0.099279305255788527
40
0.099279305255788527
10
19.928113885983318
20
-120.53609867963003
30
-1.7763568394002505e-14
10
19.974697827566466
20
-120.67870924416029
30
-1.7763568394002505e-14
10
20.020003354705622
20
-120.81863310464961
30
-1.7763568394002505e-14
10
20.047760114372821
20
-120.95880750973598
30
-1.7763568394002505e-14
10
20.081139595990862
20
-121.12737722154671
30
-1.7763568394002505e-14
10
20.090701274893597
20
-121.30422025848738
30
-1.7763568394002505e-14
10
20.100152694673305
20
-121.48464274048709
30
-1.7763568394002505e-14
0
SPLINE
5
19B
100
AcDbEntity
8
CUTOUTS
100
AcDbSpline
70
0
71
3
72
11
73
7
74
0
42
0.000000001
43
0.0000000001
44
0.0000000001
40
8.3169470138086681e-05
40
8.3169470138086681e-05
40
8.3169470138086681e-05
40
8.3169470138086681e-05
40
0.043858832322317985
40
0.043858832322317985
40
0.043858832322317985
40
0.092821633401556233
40
0.092821633401556233
40
0.092821633401556233
40
0.092821633401556233
10
20.100152694673604
20
-121.48464274048708
30
-1.7763568394002505e-14
10
20.104552839470191
20
-121.63049823772425
30
-1.7763568394002505e-14
10
20.108942024702998
20
-121.77611570284766
30
-1.7763568394002505e-14
10
20.111936842167061
20
-121.92152303841594
30
-1.7763568394002505e-14
10
20.115286526494096
20
-122.08416022042579
30
-1.7763568394002505e-14
10
20.116903444832541
20
-122.24709932276954
30
0
10
20.11852032405784
20
-122.41030522404381
30
0
0
SPLINE
5
19C
100
AcDbEntity
8
CUTOUTS
100
AcDbSpline
70
0
71
3
72
11
73
7
74
0
42
0.000000001
43
0.0000000001
44
0.0000000001
40
0
40
0
40
0
40
0
40
0.052504598169379087
40
0.052504598169379087
40
0.052504598169379087
40
0.10684980726816379
40
0.10684980726816379
40
0.10684980726816379
40
0.10684980726816379
10
20.118521164361383
20
-122.41030521571551
30
0
10
20.119426492768309
20
-122.5853204094183
30
0
10
20.120330396042903
20
-122.76016831558417
30
0
10
20.120065066892352
20
-122.93484704425991
30
0
10
20.11979043631392
20
-123.11564934283894
30
0
10
20.118262623581586
20
-123.29662271497392
30
0
10
20.11673204793837
20
-123.47776913532931
30
0
0
SPLINE
5
19D
100
AcDbEntity
8
CUTOUTS
100
AcDbSpline
70
0
71
3
72
11
73
7
74
0
42
0.000000001
43
0.0000000001
44
0.0000000001
40
0
40
0
40
0
40
0
40
0.054844164928336651
40
0.054844164928336651
40
0.054844164928336651
40
0.10875495227834175
40
0.10875495227834175
40
0.10875495227834175
40
0.10875495227834175
10
20.116732666785886
20
-123.47776914055962
30
0
10
20.114445404042112
20
-123.66057093387644
30
0
10
20.112159666039886
20
-123.84320690762776
30
0
10
20.108666350292488
20
-124.02565393510639
30
0
10
20.105232486313511
20
-124.20499594740419
30
0
10
20.100625609345357
20
-124.38447859148482
30
0
10
20.096014018120556
20
-124.56412417164843
30
0
0
SPLINE
5
19E
100
AcDbEntity
8
CUTOUTS
100
AcDbSpline
70
0
71
3
72
11
73
7
74
0
42
0.000000001
43
0.0000000001
44
0.0000000001
40
3.3806749723191923e-05
40
3.3806749723191923e-05
40
3.3806749723191923e-05
40
3.3806749723191923e-05
40
0.05165404276756079
40
0.05165404276756079
40
0.05165404276756079
40
0.099597113365195986
40
0.099597113365195986
40
0.099597113365195986
40
0.099597113365195986
10
20.09601325650091
20
-124.56412414866145
30
0
10
20.09082222897576
20
-124.73611666850942
30
0
10
20.085635917248688
20
-124.90788715044167
30
0
10
20.078932923773518
20
-125.07937639162834
30
0
10
20.072707417766836
20
-125.23864960367077
30
0
10
20.065158097166396
20
-125.39807735017811
30
0
10
20.057594575955584
20
-125.55771050502651
30
0
0
SPLINE
5
19F
100
AcDbEntity
8
CUTOUTS
100
AcDbSpline
70
0
71
3
72
11
73
7
74
0
42
0.000000001
43
0.0000000001
44
0.0000000001
40
0.00013112855170181406
40
0.00013112855170181406
40
0.00013112855170181406
40
0.00013112855170181406
40
0.053966030587493885
40
0.053966030587493885
40
0.053966030587493885
40
0.098554515614109883
40
0.098554515614109883
40
0.098554515614109883
40
0.098554515614109883
10
20.05759457595591
20
-125.55771050502655
30
0
10
20.042739206511673
20
-125.73741028315379
30
0
10
20.027870701734038
20
-125.91367597804576
30
0
10
19.99037790859515
20
-126.08146809218215
30
0
10
19.959324692516695
20
-126.22044106112673
30
0
10
19.911599178162191
20
-126.35877275418346
30
0
10
19.8626123746884
20
-126.49964862404408
30
0
0
SPLINE
5
1A0
100
AcDbEntity
8
CUTOUTS
100
AcDbSpline
70
0
71
3
72
11
73
7
74
0
42
0.000000001
43
0.0000000001
44
0.0000000001
40
0.00052068735845929451
40
0.00052068735845929451
40
0.00052068735845929451
40
0.00052068735845929451
40
0.039297891607666245
40
0.039297891607666245
40
0.039297891607666245
40
0.076827166583053566
40
0.076827166583053566
40
0.076827166583053566
40
0.076827166583053566
10
19.862612374688425
20
-126.49964862404411
30
0
10
19.802509425045862
20
-126.61635069464482
30
0
10
19.744138989269349
20
-126.72713277531379
30
0
10
19.668039539842272
20
-126.81348135847769
30
0
10
19.594389125421749
20
-126.89705106867306
30
0
10
19.495748706545992
20
-126.9672581585092
30
0
10
19.391605841982873
20
-127.03980755944966
30
0
0
SPLINE
5
1A1
100
AcDbEntity
8
CUTOUTS
100
AcDbSpline
70
0
71
3
72
11
73
7
74
0
42
0.000000001
43
0.0000000001
44
0.0000000001
40
0.0012048434181534408
40
0.0012048434181534408
40
0.0012048434181534408
40
0.0012048434181534408
40
0.052465673347966736
40
0.052465673347966736
40
0.052465673347966736
40
0.1135020679679523
40
0.1135020679679523
40
0.1135020679679523
40
0.1135020679679523
10
14.646962371600836
20
-126.87563763020263
30
0
10
14.508108477700512
20
-126.98156008297518
30
0
10
14.373517823668278
20
-127.08165164573373
30
0
10
14.23087032830372
20
-127.13679667586612
30
0
10
14.06101960933281
20
-127.20245799709522
30
0
10
13.86021033910672
20
-127.21188077381613
30
0
10
13.651120669854615
20
-127.2199091397118
30
0
0
SPLINE
5
1A2
100
AcDbEntity
8
CUTOUTS
100
AcDbSpline
70
0
71
3
72
11
73
7
74
0
42
0.000000001
43
0.0000000001
44
0.0000000001
40
0.00025037378199007862
40
0.00025037378199007862
40
0.00025037378199007862
40
0.00025037378199007862
40
0.022842450029100084
40
0.022842450029100084
40
0.022842450029100084
40
0.042553138843043486
40
0.042553138843043486
40
0.042553138843043486
40
0.042553138843043486
10
13.651120669854606
20
-127.21990913971169
30
0
10
13.575699448720338
20
-127.2177563767461
30
0
10
13.502736814925473
20
-127.21547153655646
30
0
10
13.433122023547579
20
-127.2064673043966
30
0
10
13.372385884261897
20
-127.19861146962646
30
0
10
13.310174861680295
20
-127.18512124810822
30
0
10
13.245918904122433
20
-127.17100474507711
30
0
0
SPLINE
5
1A3
100
AcDbEntity
8
CUTOUTS
100
AcDbSpline
70
0
71
3
72
11
73
7
74
0
42
0.000000001
43
0.0000000001
44
0.0000000001
40
0.0002880653050005553
40
0.0002880653050005553
40
0.0002880653050005553
40
0.0002880653050005553
40
0.018109115061035973
40
0.018109115061035973
40
0.018109115061035973
40
0.030796950072982072
40
0.030796950072982072
40
0.030796950072982072
40
0.030796950072982072
10
13.245918904122451
20
-127.17100474507703
30
0
10
13.188938602089078
20
-127.15379631623735
30
0
10
13.134663625743181
20
-127.13713679731939
30
0
10
13.085387095023426
20
-127.11592440774257
30
0
10
13.050304285632697
20
-127.10082208196242
30
0
10
13.015058146600129
20
-127.08228782574322
30
0
10
12.978884789258656
20
-127.06221776925923
30
0
0
LINE
5
1A4
100
AcDbEntity
8
CUTOUTS
100
AcDbLine
10
12.978884789258656
20
-127.06221776925923
30
0
11
12.984530186165717
21
-126.5219708311466
31
-3.6900817734459439e-30
0
SPLINE
5
1A5
100
AcDbEntity
8
CUTOUTS
100
AcDbSpline
70
0
71
3
72
14
73
10
74
0
42
0.000000001
43
0.0000000001
44
0.0000000001
40
0.0099347541984735489
40
0.0099347541984735489
40
0.0099347541984735489
40
0.0099347541984735489
40
0.010574977169983089
40
0.010574977169983089
40
0.010574977169983089
40
0.02102443371232731
40
0.02102443371232731
40
0.02102443371232731
40
0.021205283741172445
40
0.021205283741172445
40
0.021205283741172445
40
0.021205283741172445
10
12.984530186165726
20
-126.5219708311466
30
0
10
12.986797252763242
20
-126.52261022211518
30
0
10
12.989074278243899
20
-126.52324144051212
30
0
10
12.991361156574142
20
-126.52386360721989
30
0
10
13.028686645962919
20
-126.53401835683725
30
0
10
13.064886498709321
20
-126.54082127483187
30
0
10
13.099163266719795
20
-126.54733613817328
30
0
10
13.09975649895712
20
-126.54744889171396
30
0
10
13.100349731194445
20
-126.5475616452546
30
0
10
13.100942963431734
20
-126.54767439879527
30
0
0
SPLINE
5
1A6
100
AcDbEntity
8
CUTOUTS
100
AcDbSpline
70
0
71
3
72
17
73
13
74
0
42
0.000000001
43
0.0000000001
44
0.0000000001
40
-0.000180999526304058
40
-0.000180999526304058
40
-0.000180999526304058
40
-0.000180999526304058
40
0
40
0
40
0
40
0.010611834749706747
40
0.010611834749706747
40
0.010611834749706747
40
0.021634412986136144
40
0.021634412986136144
40
0.021634412986136144
40
0.021782714842769758
40
0.021782714842769758
40
0.021782714842769758
40
0.021782714842769758
10
13.100942963431841
20
-126.54767439879427
30
0
10
13.101540947595867
20
-126.54775837957267
30
0
10
13.102138931759875
20
-126.54784236035107
30
0
10
13.102736915923883
20
-126.54792634112945
30
0
10
13.137796174150136
20
-126.55285005646013
30
0
10
13.174218550978791
20
-126.55800393458662
30
0
10
13.212199557742776
20
-126.56121025796038
30
0
10
13.25165066383601
20
-126.5645406858338
30
0
10
13.289848739754442
20
-126.56552213811457
30
0
10
13.326610679967432
20
-126.56650652187777
30
0
10
13.327105288748609
20
-126.56651976614208
30
0
10
13.327599897529785
20
-126.56653301040642
30
0
10
13.328094506310784
20
-126.56654625467073
30
0
0
SPLINE
5
1A7
100
AcDbEntity
8
CUTOUTS
100
AcDbSpline
70
0
71
3
72
17
73
13
74
0
42
0.000000001
43
0.0000000001
44
0.0000000001
40
-0.0001441559854031126
40
-0.0001441559854031126
40
-0.0001441559854031126
40
-0.0001441559854031126
40
0
40
0
40
0
40
0.032395492793105968
40
0.032395492793105968
40
0.032395492793105968
40
0.057316621061158674
40
0.057316621061158674
40
0.057316621061158674
40
0.058707684020555005
40
0.058707684020555005
40
0.058707684020555005
40
0.058707684020555005
10
13.328094506310881
20
-126.56654625467276
30
0
10
13.328589251840937
20
-126.5665399181873
30
0
10
13.329083997370956
20
-126.56653358170188
30
0
10
13.329578742900985
20
-126.56652724521642
30
0
10
13.440760565892482
20
-126.56510327681225
30
0
10
13.560512325799152
20
-126.5651407009196
30
0
10
13.676214278718826
20
-126.5222443701503
30
0
10
13.765221204095468
20
-126.48924518201761
30
0
10
13.839061537746078
20
-126.43556341198952
30
0
10
13.908229304439006
20
-126.38636845020801
30
0
10
13.912090153642769
20
-126.38362245538841
30
0
10
13.915951002846532
20
-126.38087646056877
30
0
10
13.919811852050277
20
-126.37813046574918
30
0
0
SPLINE
5
1A8
100
AcDbEntity
8
CUTOUTS
100
AcDbSpline
70
0
71
3
72
17
73
13
74
0
42
0.000000001
43
0.0000000001
44
0.0000000001
40
-0.0013992879851630205
40
-0.0013992879851630205
40
-0.0013992879851630205
40
-0.0013992879851630205
40
0
40
0
40
0
40
0.025832046909916077
40
0.025832046909916077
40
0.025832046909916077
40
0.060016339954797916
40
0.060016339954797916
40
0.060016339954797916
40
0.060079590511104196
40
0.060079590511104196
40
0.060079590511104196
40
0.060079590511104196
10
13.919811852050268
20
-126.37813046574922
30
0
10
13.922400282253724
20
-126.37416225794144
30
0
10
13.924988712457189
20
-126.37019405013365
30
0
10
13.927577142660654
20
-126.36622584232586
30
0
10
13.975361766803776
20
-126.29296934950504
30
0
10
14.026695088993124
20
-126.21549227570438
30
0
10
14.060116924936601
20
-126.12524934120871
30
0
10
14.104345004808634
20
-126.00582826208222
30
0
10
14.110518880038425
20
-125.88213511920218
30
0
10
14.117403022218715
20
-125.76588679786065
30
0
10
14.117415759817886
20
-125.76567170577185
30
0
10
14.117428497417057
20
-125.76545661368306
30
0
10
14.117441235016273
20
-125.76524152159367
30
0
0
SPLINE
5
1A9
100
AcDbEntity
8
CUTOUTS
100
AcDbSpline
70
0
71
3
72
17
73
13
74
0
42
0.000000001
43
0.0000000001
44
0.0000000001
40
-6.4640178564435026e-05
40
-6.4640178564435026e-05
40
-6.4640178564435026e-05
40
-6.4640178564435026e-05
40
0
40
0
40
0
40
0.056900962155010684
40
0.056900962155010684
40
0.056900962155010684
40
0.11254381453806667
40
0.11254381453806667
40
0.11254381453806667
40
0.11255966281128714
40
0.11255966281128714
40
0.11255966281128714
40
0.11255966281128714
10
14.117441234995027
20
-125.76524152159406
30
0
10
14.117450263297391
20
-125.76502624272828
30
0
10
14.117459291599719
20
-125.76481096386361
30
0
10
14.117468319902047
20
-125.76459568499891
30
0
10
14.125415684845741
20
-125.57509165199042
30
0
10
14.133367149948199
20
-125.38549403918167
30
0
10
14.140611528271823
20
-125.1957756664375
30
0
10
14.147695729635066
20
-125.0102520652689
30
0
10
14.154096853489673
20
-124.82479402965005
30
0
10
14.160494985315832
20
-124.63942754361395
30
0
10
14.160496807640488
20
-124.63937474727798
30
0
10
14.160498629965135
20
-124.63932195094205
30
0
10
14.160500452289728
20
-124.63926915460803
30
0
0
SPLINE
5
1AA
100
AcDbEntity
8
CUTOUTS
100
AcDbSpline
70
0
71
3
72
17
73
13
74
0
42
0.000000001
43
0.0000000001
44
0.0000000001
40
-1.5848156249080827e-05
40
-1.5848156249080827e-05
40
-1.5848156249080827e-05
40
-1.5848156249080827e-05
40
0
40
0
40
0
40
0.055164077935634791
40
0.055164077935634791
40
0.055164077935634791
40
0.11063375626942996
40
0.11063375626942996
40
0.11063375626942996
40
0.1106524125813997
40
0.1106524125813997
40
0.1106524125813997
40
0.1106524125813997
10
14.160500452292819
20
-124.63926915460488
30
0
10
14.160502051486423
20
-124.63921635056776
30
0
10
14.160503650680072
20
-124.63916354652922
30
0
10
14.160505249873721
20
-124.63911074249067
30
0
10
14.166071704515213
20
-124.45531105929453
30
0
10
14.171645490976212
20
-124.27129909571272
30
0
10
14.175659251930686
20
-124.08704068782708
30
0
10
14.179695248495578
20
-123.90176151706599
30
0
10
14.182144557122021
20
-123.71666147125956
30
0
10
14.184591951100005
20
-123.53177500064204
30
0
10
14.184592774240627
20
-123.53171281712528
30
0
10
14.18459359738125
20
-123.53165063360854
30
0
10
14.184594420521863
20
-123.5315884500921
30
0
0
SPLINE
5
1AB
100
AcDbEntity
8
CUTOUTS
100
AcDbSpline
70
0
71
3
72
17
73
13
74
0
42
0.000000001
43
0.0000000001
44
0.0000000001
40
-1.8656737735419614e-05
40
-1.8656737735419614e-05
40
-1.8656737735419614e-05
40
-1.8656737735419614e-05
40
0
40
0
40
0
40
0.056406746423604305
40
0.056406746423604305
40
0.056406746423604305
40
0.11437974874292618
40
0.11437974874292618
40
0.11437974874292618
40
0.1143936919995558
40
0.1143936919995558
40
0.1143936919995558
40
0.1143936919995558
10
14.184594420527619
20
-123.53158845009037
30
0
10
14.184594934294115
20
-123.53152626247997
30
0
10
14.184595448060628
20
-123.53146407486815
30
0
10
14.184595961827142
20
-123.53140188725634
30
0
10
14.186149282546339
20
-123.34338397651118
30
0
10
14.18770425732343
20
-123.1552185468866
30
0
10
14.188148726255347
20
-122.9669030183299
30
0
10
14.188605536833077
20
-122.77335849988182
30
0
10
14.18788858840843
20
-122.57996291045873
30
0
10
14.187172661528198
20
-122.38671894237189
30
0
10
14.187172489338531
20
-122.38667246469907
30
0
10
14.187172317148855
20
-122.38662598702624
30
0
10
14.187172144959188
20
-122.38657950935604
30
0
0
SPLINE
5
1AC
100
AcDbEntity
8
CUTOUTS
100
AcDbSpline
70
0
71
3
72
17
73
13
74
0
42
0.000000001
43
0.0000000001
44
0.0000000001
40
-1.3943402132450953e-05
40
-1.3943402132450953e-05
40
-1.3943402132450953e-05
40
-1.3943402132450953e-05
40
0
40
0
40
0
40
0.060167757704811503
40
0.060167757704811503
40
0.060167757704811503
40
0.12315785617944235
40
0.12315785617944235
40
0.12315785617944235
40
0.12325427923317829
40
0.12325427923317829
40
0.12325427923317829
40
0.12325427923317829
10
14.187172144960991
20
-122.38657950935513
30
0
10
14.187171799955003
20
-122.38653303232198
30
0
10
14.187171454949032
20
-122.38648655529053
30
0
10
14.187171109943071
20
-122.38644007825899
30
0
10
14.18568236026081
20
-122.18588509566371
30
0
10
14.184193006856125
20
-121.98520974327872
30
-1.7763568394002505e-14
10
14.181735717139903
20
-121.78442592386041
30
-1.7763568394002505e-14
10
14.179163161221089
20
-121.57422376510085
30
-1.7763568394002505e-14
10
14.175532888336653
20
-121.36416066387599
30
-1.7763568394002505e-14
10
14.171905110317038
20
-121.15422355579261
30
-1.7763568394002505e-14
10
14.171899557040515
20
-121.15390219136317
30
-1.7763568394002505e-14
10
14.171894003763992
20
-121.15358082693375
30
-1.7763568394002505e-14
10
14.171888450487478
20
-121.15325946250481
30
-1.7763568394002505e-14
0
SPLINE
5
1AD
100
AcDbEntity
8
CUTOUTS
100
AcDbSpline
70
0
71
3
72
17
73
13
74
0
42
0.000000001
43
0.0000000001
44
0.0000000001
40
-9.4497103105629747e-05
40
-9.4497103105629747e-05
40
-9.4497103105629747e-05
40
-9.4497103105629747e-05
40
0
40
0
40
0
40
0.033952361703979868
40
0.033952361703979868
40
0.033952361703979868
40
0.060267087297202981
40
0.060267087297202981
40
0.060267087297202981
40
0.061619172968651735
40
0.061619172968651735
40
0.061619172968651735
40
0.061619172968651735
10
14.171888450498864
20
-121.15325946250339
30
-1.7763568394002505e-14
10
14.171874637165747
20
-121.15293834676542
30
-1.7763568394002505e-14
10
14.17186082383262
20
-121.15261723102699
30
-1.7763568394002505e-14
10
14.171847010499485
20
-121.15229611528855
30
-1.7763568394002505e-14
10
14.166883945311008
20
-121.03692075094757
30
-1.7763568394002505e-14
10
14.162670619020918
20
-120.91442672250423
30
-1.7763568394002505e-14
10
14.122249120055459
20
-120.79503514607941
30
-1.7763568394002505e-14
10
14.090920499601376
20
-120.70250088884116
30
-1.7763568394002505e-14
10
14.041326933124791
20
-120.62213819558474
30
-1.7763568394002505e-14
10
13.995083857508845
20
-120.54605182193418
30
-1.7763568394002505e-14
10
13.992707826654085
20
-120.5421424026533
30
-1.7763568394002505e-14
10
13.990331795799333
20
-120.53823298337241
30
-1.7763568394002505e-14
10
13.987955764944564
20
-120.53432356409152
30
-1.7763568394002505e-14
0
SPLINE
5
1AE
100
AcDbEntity
8
CUTOUTS
100
AcDbSpline
70
0
71
3
72
17
73
13
74
0
42
0.000000001
43
0.0000000001
44
0.0000000001
40
-0.0013410070409987634
40
-0.0013410070409987634
40
-0.0013410070409987634
40
-0.0013410070409987634
40
0
40
0
40
0
40
0.025423767511190097
40
0.025423767511190097
40
0.025423767511190097
40
0.058315375642115426
40
0.058315375642115426
40
0.058315375642115426
40
0.058537192056776023
40
0.058537192056776023
40
0.058537192056776023
40
0.058537192056776023
10
13.987955764944537
20
-120.53432356409149
30
-1.7763568394002505e-14
10
13.984349273307375
20
-120.53150890606477
30
-1.7763568394002505e-14
10
13.980742781670203
20
-120.52869424803805
30
-1.7763568394002505e-14
10
13.977136290033032
20
-120.52587959001131
30
-1.7763568394002505e-14
10
13.908761850443003
20
-120.47251729652048
30
-1.7763568394002505e-14
10
13.83578294804261
20
-120.41425521309273
30
-1.7763568394002505e-14
10
13.746046908783658
20
-120.37744174577489
30
0
10
13.629952288376694
20
-120.32981488872367
30
0
10
13.508006674402671
20
-120.32717568250197
30
0
10
13.394952955230774
20
-120.32316268238056
30
0
10
13.394190536727217
20
-120.32313561926782
30
0
10
13.39342811822366
20
-120.32310855615508
30
0
10
13.39266569972013
20
-120.32308149304234
30
0
0
SPLINE
5
1AF
100
AcDbEntity
8
CUTOUTS
100
AcDbSpline
70
0
71
3
72
14
73
10
74
0
42
0.000000001
43
0.0000000001
44
0.0000000001
40
-0.00022752192577536376
40
-0.00022752192577536376
40
-0.00022752192577536376
40
-0.00022752192577536376
40
0
40
0
40
0
40
0.022110948877369547
40
0.022110948877369547
40
0.022110948877369547
40
0.032652072623526492
40
0.032652072623526492
40
0.032652072623526492
40
0.032652072623526492
10
13.392665699719961
20
-120.32308149304038
30
0
10
13.39190304966098
20
-120.32310096883955
30
0
10
13.391140399601928
20
-120.32312044463872
30
0
10
13.390377749542868
20
-120.3231399204379
30
0
10
13.316262182835619
20
-120.32503261011321
30
0
10
13.238452682788306
20
-120.32674107738711
30
0
10
13.158852194399948
20
-120.34068750779809
30
0
10
13.120903637646011
20
-120.34733629748119
30
0
10
13.084329528594081
20
-120.35650366755318
30
0
10
13.048851125174972
20
-120.36665687744079
30
0
0
LINE
5
1B0
100
AcDbEntity
8
CUTOUTS
100
AcDbLine
10
13.048851125174972
20
-120.36665687744082
30
0
11
13.054088921783773
21
-119.865416021049
31
3.7286003723336886e-30
0
SPLINE
5
1B1
100
AcDbEntity
8
CUTOUTS
100
AcDbSpline
70
0
71
3
72
11
73
7
74
0
42
0.000000001
43
0.0000000001
44
0.0000000001
40
0.0039691996140155412
40
0.0039691996140155412
40
0.0039691996140155412
40
0.0039691996140155412
40
0.019469625100435022
40
0.019469625100435022
40
0.019469625100435022
40
0.038812831958049465
40
0.038812831958049465
40
0.038812831958049465
40
0.038812831958049465
10
13.054088921783755
20
-119.865416021049
30
0
10
13.096423635780967
20
-119.83740401724535
30
0
10
13.137432658810289
20
-119.81179463602162
30
0
10
13.178626939986122
20
-119.79203801486889
30
0
10
13.230033883804078
20
-119.76738343941228
30
0
10
13.28835171850181
20
-119.74876237206233
30
0
10
13.350139106898196
20
-119.72949463329867
30
0
0
SPLINE
5
1B2
100
AcDbEntity
8
CUTOUTS
100
AcDbSpline
70
0
71
3
72
11
73
7
74
0
42
0.000000001
43
0.0000000001
44
0.0000000001
40
0.00036278104052832804
40
0.00036278104052832804
40
0.00036278104052832804
40
0.00036278104052832804
40
0.021620321053246239
40
0.021620321053246239
40
0.021620321053246239
40
0.046410040586575205
40
0.046410040586575205
40
0.046410040586575205
40
0.046410040586575205
10
13.35013910689824
20
-119.72949463329877
30
0
10
13.419607252416217
20
-119.71502457342801
30
0
10
13.486940720506526
20
-119.70120976584246
30
0
10
13.552691902893299
20
-119.69370745788838
30
0
10
13.629368384244271
20
-119.68495855703142
30
0
10
13.709579299388315
20
-119.6841474543377
30
0
10
13.792403109669094
20
-119.68353887830828
30
0
0
SPLINE
5
1B3
100
AcDbEntity
8
CUTOUTS
100
AcDbSpline
70
0
71
3
72
11
73
7
74
0
42
0.000000001
43
0.0000000001
44
0.0000000001
40
0.00023895244022977357
40
0.00023895244022977357
40
0.00023895244022977357
40
0.00023895244022977357
40
0.059391777748776152
40
0.059391777748776152
40
0.059391777748776152
40
0.10863890319214856
40
0.10863890319214856
40
0.10863890319214856
40
0.10863890319214856
10
13.792403109669094
20
-119.68353887830824
30
0
10
13.995059916200905
20
-119.69535843345015
30
-1.7763568394002505e-14
10
14.189239941195346
20
-119.70845994794229
30
-1.7763568394002505e-14
10
14.351144912281066
20
-119.77604747237221
30
-1.7763568394002505e-14
10
14.485937365209134
20
-119.83231682682224
30
-1.7763568394002505e-14
10
14.612151970979976
20
-119.93205585754765
30
-1.7763568394002505e-14
10
14.742460267641126
20
-120.03786527006059
30
-1.7763568394002505e-14
0
SPLINE
5
1B4
100
AcDbEntity
8
CUTOUTS
100
AcDbSpline
70
0
71
3
72
11
73
7
74
0
42
0.000000001
43
0.0000000001
44
0.0000000001
40
0.0012740752023294001
40
0.0012740752023294001
40
0.0012740752023294001
40
0.0012740752023294001
40
0.056020686660466092
40
0.056020686660466092
40
0.056020686660466092
40
0.13151821815244988
40
0.13151821815244988
40
0.13151821815244988
40
0.13151821815244988
10
14.742460267641126
20
-120.03786527006062
30
-1.7763568394002505e-14
10
14.838730132955282
20
-120.19590153472831
30
0
10
14.930964561017834
20
-120.35011820250824
30
0
10
14.985301139393261
20
-120.50995931874616
30
0
10
15.060233220627222
20
-120.73038592389071
30
0
10
15.069307560811156
20
-120.97997277818861
30
0
10
15.077405991069215
20
-121.23701051184072
30
0
0
SPLINE
5
1B5
100
AcDbEntity
8
CUTOUTS
100
AcDbSpline
70
0
71
3
72
11
73
7
74
0
42
0.000000001
43
0.0000000001
44
0.0000000001
40
6.544887418787503e-05
40
6.544887418787503e-05
40
6.544887418787503e-05
40
6.544887418787503e-05
40
0.048449820582199481
40
0.048449820582199481
40
0.048449820582199481
40
0.10249644107332903
40
0.10249644107332903
40
0.10249644107332903
40
0.10249644107332903
10
15.077405991069268
20
-121.23701051184072
30
0
10
15.079670881332259
20
-121.39827701184457
30
0
10
15.081932092379047
20
-121.55940004216234
30
0
10
15.08326636808321
20
-121.7203870334982
30
0
10
15.08475678926815
20
-121.90021375269681
30
0
10
15.085093441267636
20
-122.08021024105923
30
0
10
15.085429418190106
20
-122.26036718039738
30
1.7763568394002505e-14
0
SPLINE
5
1B6
100
AcDbEntity
8
CUTOUTS
100
AcDbSpline
70
0
71
3
72
11
73
7
74
0
42
0.000000001
43
0.0000000001
44
0.0000000001
40
0
40
0
40
0
40
0
40
0.057892551197032655
40
0.057892551197032655
40
0.057892551197032655
40
0.11779629403130595
40
0.11779629403130595
40
0.11779629403130595
40
0.11779629403130595
10
15.085429726762527
20
-122.26036717982254
30
1.7763568394002505e-14
10
15.085236046480066
20
-122.45334314351689
30
1.7763568394002505e-14
10
15.085042263014623
20
-122.64621793363391
30
1.7763568394002505e-14
10
15.084068652613611
20
-122.83898757004793
30
1.7763568394002505e-14
10
15.08306121891315
20
-123.03845403831085
30
1.7763568394002505e-14
10
15.08121775891567
20
-123.23802090569153
30
1.7763568394002505e-14
10
15.079372857526323
20
-123.43769242152791
30
1.7763568394002505e-14
0
SPLINE
5
1B7
100
AcDbEntity
8
CUTOUTS
100
AcDbSpline
70
0
71
3
72
11
73
7
74
0
42
0.000000001
43
0.0000000001
44
0.0000000001
40
0
40
0
40
0
40
0
40
0.060234629887868964
40
0.060234629887868964
40
0.060234629887868964
40
0.11906461269969501
40
0.11906461269969501
40
0.11906461269969501
40
0.11906461269969501
10
15.079373081300504
20
-123.43769242359568
30
1.7763568394002505e-14
10
15.077027530947786
20
-123.63846174160331
30
1.7763568394002505e-14
10
15.074682963864987
20
-123.83912909383258
30
1.7763568394002505e-14
10
15.071521773010241
20
-124.03968161378475
30
1.7763568394002505e-14
10
15.068434299840803
20
-124.23555733052143
30
1.7763568394002505e-14
10
15.064564742745574
20
-124.4315203524741
30
1.7763568394002505e-14
10
15.060693021007605
20
-124.6275829434601
30
1.7763568394002505e-14
0
SPLINE
5
1B8
100
AcDbEntity
8
CUTOUTS
100
AcDbSpline
70
0
71
3
72
11
73
7
74
0
42
0.000000001
43
0.0000000001
44
0.0000000001
40
2.0842139523383272e-05
40
2.0842139523383272e-05
40
2.0842139523383272e-05
40
2.0842139523383272e-05
40
0.055786716570001213
40
0.055786716570001213
40
0.055786716570001213
40
0.10676952662502061
40
0.10676952662502061
40
0.10676952662502061
40
0.10676952662502061
10
15.060692731478884
20
-124.62758293693773
30
1.7763568394002505e-14
10
15.056506186991214
20
-124.8134236011899
30
1.7763568394002505e-14
10
15.052322081704057
20
-124.99911956098528
30
1.7763568394002505e-14
10
15.04706728654992
20
-125.18464058113602
30
1.7763568394002505e-14
10
15.04226319756258
20
-125.35424937913577
30
1.7763568394002505e-14
10
15.036557047252357
20
-125.52396487288948
30
1.7763568394002505e-14
10
15.030843952111104
20
-125.69381225880177
30
1.7763568394002505e-14
0
SPLINE
5
1B9
100
AcDbEntity
8
CUTOUTS
100
AcDbSpline
70
0
71
3
72
11
73
7
74
0
42
0.000000001
43
0.0000000001
44
0.0000000001
40
0.00011989828681253434
40
0.00011989828681253434
40
0.00011989828681253434
40
0.00011989828681253434
40
0.07453767712797997
40
0.07453767712797997
40
0.07453767712797997
40
0.13029613747193419
40
0.13029613747193419
40
0.13029613747193419
40
0.13029613747193419
10
15.030843952111068
20
-125.69381225880177
30
1.7763568394002505e-14
10
15.014037433769616
20
-125.94687951369961
30
1.7763568394002505e-14
10
14.996444778511666
20
-126.19240633147903
30
1.7763568394002505e-14
10
14.914726047768792
20
-126.40628443527689
30
1.7763568394002505e-14
10
14.85349725703573
20
-126.56653530482389
30
1.7763568394002505e-14
10
14.752414184503628
20
-126.71919209187388
30
0
10
14.646962371600791
20
-126.87563763020256
30
0
0
SPLINE
5
1BA
100
AcDbEntity
8
CUTOUTS
100
AcDbSpline
70
0
71
3
72
11
73
7
74
0
42
0.000000001
43
0.0000000001
44
0.0000000001
40
0.00034563863456761021
40
0.00034563863456761021
40
0.00034563863456761021
40
0.00034563863456761021
40
0.022124694396559681
40
0.022124694396559681
40
0.022124694396559681
40
0.047081729517418479
40
0.047081729517418479
40
0.047081729517418479
40
0.047081729517418479
10
8.0695344492032266
20
-119.6773258266375
30
0
10
8.1406078094791905
20
-119.66195349298501
30
0
10
8.2094667964229977
20
-119.64727833350975
30
0
10
8.2767246679901767
20
-119.63931711844333
30
0
10
8.3537967449984745
20
-119.6301942103527
30
0
10
8.4345232896672222
20
-119.62920802559742
30
0
10
8.5179174675434304
20
-119.62842368486193
30
0
0
SPLINE
5
1BB
100
AcDbEntity
8
CUTOUTS
100
AcDbSpline
70
0
71
3
72
11
73
7
74
0
42
0.000000001
43
0.0000000001
44
0.0000000001
40
0.00023188282579171397
40
0.00023188282579171397
40
0.00023188282579171397
40
0.00023188282579171397
40
0.061678295953358837
40
0.061678295953358837
40
0.061678295953358837
40
0.11188661590543704
40
0.11188661590543704
40
0.11188661590543704
40
0.11188661590543704
10
8.5179174675434393
20
-119.62842368486177
30
0
10
8.7288352547815666
20
-119.6399018768555
30
-1.7763568394002505e-14
10
8.9309974197952506
20
-119.65278357901008
30
-1.7763568394002505e-14
10
9.0985845017646199
20
-119.72409172759581
30
-1.7763568394002505e-14
10
9.2355211495374672
20
-119.78235814474125
30
-1.7763568394002505e-14
10
9.3632886030954658
20
-119.88549816703704
30
-1.7763568394002505e-14
10
9.4951192045301696
20
-119.99485169644061
30
0
0
SPLINE
5
1BC
100
AcDbEntity
8
CUTOUTS
100
AcDbSpline
70
0
71
3
72
11
73
7
74
0
42
0.000000001
43
0.0000000001
44
0.0000000001
40
0.0012862570119435816
40
0.0012862570119435816
40
0.0012862570119435816
40
0.0012862570119435816
40
0.055902898678656741
40
0.055902898678656741
40
0.055902898678656741
40
0.12966825702982282
40
0.12966825702982282
40
0.12966825702982282
40
0.12966825702982282
10
9.4951192045301696
20
-119.99485169644061
30
0
10
9.5890264067147672
20
-120.15396129834194
30
0
10
9.6787956207566577
20
-120.3090799020044
30
0
10
9.7294648041341762
20
-120.46916233403024
30
0
10
9.7978987164939362
20
-120.685370024649
30
0
10
9.8008534898819359
20
-120.92930452804802
30
0
10
9.802682610623739
20
-121.1807295531237
30
0
0
LINE
5
1BD
100
AcDbEntity
8
CUTOUTS
100
AcDbLine
10
9.8026734450059543
20
-121.1807294765031
30
0
11
9.7533124915792069
21
-127.08545660483388
31
1.6023737137301802e-30
0
LINE
5
1BE
100
AcDbEntity
8
CUTOUTS
100
AcDbLine
10
9.7533124915792069
20
-127.08545660483388
30
1.6023737137301802e-30
11
8.8471128646845791
21
-127.07598712669352
31
-1.9721522630525295e-30
0
LINE
5
1BF
100
AcDbEntity
8
CUTOUTS
100
AcDbLine
10
8.8471128646845791
20
-127.07598712669352
30
-1.9721522630525295e-30
11
8.8973385473764637
21
-121.08788302508194
31
1.5407439555097887e-30
0
SPLINE
5
1C0
100
AcDbEntity
8
CUTOUTS
100
AcDbSpline
70
0
71
3
72
17
73
13
74
0
42
0.000000001
43
0.0000000001
44
0.0000000001
40
-6.3082397844862445e-05
40
-6.3082397844862445e-05
40
-6.3082397844862445e-05
40
-6.3082397844862445e-05
40
0
40
0
40
0
40
0.034080546835928413
40
0.034080546835928413
40
0.034080546835928413
40
0.059987161147631141
40
0.059987161147631141
40
0.059987161147631141
40
0.061382124672293308
40
0.061382124672293308
40
0.061382124672293308
40
0.061382124672293308
10
8.8973385473764459
20
-121.08788302508104
30
-1.7763568394002505e-14
10
8.8973366363911204
20
-121.08766740471383
30
-1.7763568394002505e-14
10
8.8973347254057682
20
-121.08745178434573
30
-1.7763568394002505e-14
10
8.8973328144204249
20
-121.08723616397768
30
-1.7763568394002505e-14
10
8.8963003960627933
20
-120.97074629821856
30
-1.7763568394002505e-14
10
8.8965367444706249
20
-120.84630252767391
30
-1.7763568394002505e-14
10
8.8555029351531616
20
-120.72514680544396
30
-1.7763568394002505e-14
10
8.8243107398857195
20
-120.6330492642109
30
-1.7763568394002505e-14
10
8.7731631422458438
20
-120.5543647043545
30
-1.7763568394002505e-14
10
8.7258535487219895
20
-120.48023037492349
30
-1.7763568394002505e-14
10
8.723306123707733
20
-120.47623854935195
30
-1.7763568394002505e-14
10
8.7207586986934675
20
-120.47224672378042
30
-1.7763568394002505e-14
10
8.7182112736792021
20
-120.46825489820884
30
-1.7763568394002505e-14
0
SPLINE
5
1C1
100
AcDbEntity
8
CUTOUTS
100
AcDbSpline
70
0
71
3
72
17
73
13
74
0
42
0.000000001
43
0.0000000001
44
0.0000000001
40
-0.0013913980838113913
40
-0.0013913980838113913
40
-0.0013913980838113913
40
-0.0013913980838113913
40
0
40
0
40
0
40
0.025323411898756445
40
0.025323411898756445
40
0.025323411898756445
40
0.057873695654213783
40
0.057873695654213783
40
0.057873695654213783
40
0.058071641072672854
40
0.058071641072672854
40
0.058071641072672854
40
0.058071641072672854
10
8.7182112736791666
20
-120.46825489820888
30
-1.7763568394002505e-14
10
8.7143804578480104
20
-120.46547121437916
30
-1.7763568394002505e-14
10
8.7105496420168276
20
-120.46268753054945
30
-1.7763568394002505e-14
10
8.7067188261856447
20
-120.45990384671973
30
-1.7763568394002505e-14
10
8.6369980695380981
20
-120.40924086749322
30
-1.7763568394002505e-14
10
8.5627010559245935
20
-120.3541194593499
30
-1.7763568394002505e-14
10
8.4730779313838482
20
-120.31945095075358
30
0
10
8.3578778885730713
20
-120.27488863834874
30
0
10
8.2380083812500775
20
-120.27209378045461
30
0
10
8.1265104520575342
20
-120.26810969318289
30
0
10
8.1258324086826299
20
-120.26808546507391
30
0
10
8.1251543653077256
20
-120.26806123696494
30
0
10
8.1244763219327059
20
-120.26803700885594
30
0
0
SPLINE
5
1C2
100
AcDbEntity
8
CUTOUTS
100
AcDbSpline
70
0
71
3
72
14
73
10
74
0
42
0.000000001
43
0.0000000001
44
0.0000000001
40
-0.00020224768163233154
40
-0.00020224768163233154
40
-0.00020224768163233154
40
-0.00020224768163233154
40
0
40
0
40
0
40
0.023356596708165835
40
0.023356596708165835
40
0.023356596708165835
40
0.033899355905766593
40
0.033899355905766593
40
0.033899355905766593
40
0.033899355905766593
10
8.1244763219323239
20
-120.26803700885662
30
0
10
8.1237979625384664
20
-120.26804959222197
30
0
10
8.1231196031445023
20
-120.2680621755873
30
0
10
8.1224412437505293
20
-120.26807475895266
30
0
10
8.044100831341721
20
-120.26952795034289
30
0
10
7.9618787734096843
20
-120.27074566922843
30
0
10
7.8778569573036075
20
-120.28550971715363
30
0
10
7.8399309792332863
20
-120.29217395013251
30
0
10
7.8033680581571732
20
-120.30134311061667
30
0
10
7.7678923304375926
20
-120.31149318135478
30
0
0
LINE
5
1C3
100
AcDbEntity
8
CUTOUTS
100
AcDbLine
10
7.7678923304375926
20
-120.31149318135478
30
0
11
7.7730714285252391
21
-119.81586959100457
31
2.3727456914850746e-30
0
SPLINE
5
1C4
100
AcDbEntity
8
CUTOUTS
100
AcDbSpline
70
0
71
3
72
11
73
7
74
0
42
0.000000001
43
0.0000000001
44
0.0000000001
40
0.0039075355150434612
40
0.0039075355150434612
40
0.0039075355150434612
40
0.0039075355150434612
40
0.019246053413430185
40
0.019246053413430185
40
0.019246053413430185
40
0.038981925975256584
40
0.038981925975256584
40
0.038981925975256584
40
0.038981925975256584
10
7.773071428525177
20
-119.8158695910046
30
0
10
7.8145934052201218
20
-119.78762651862921
30
0
10
7.8547834945732022
20
-119.7618380954748
30
0
10
7.8951760581282207
20
-119.74195411401313
30
0
10
7.9471486471390032
20
-119.71636965228426
30
0
10
8.0065168337212604
20
-119.69719093626055
30
0
10
8.0695344492032088
20
-119.67732582663744
30
0
0
LWPOLYLINE
5
1C5
100
AcDbEntity
8
CUTOUTS
100
AcDbPolyline
90
4
70
1
43
0.0
10
4.1805794140030086
20
-119.67682215586572
10
4.868041976521126
20
-119.6840059060184
10
4.861119453361348
20
-120.34646985720777
10
4.1736568908432305
20
-120.33928610705507
0
SPLINE
5
1C6
100
AcDbEntity
8
CUTOUTS
100
AcDbSpline
70
0
71
3
72
11
73
7
74
0
42
0.000000001
43
0.0000000001
44
0.0000000001
40
0
40
0
40
0
40
0
40
0.054844164928336651
40
0.054844164928336651
40
0.054844164928336651
40
0.10875495227834175
40
0.10875495227834175
40
0.10875495227834175
40
0.10875495227834175
10
1.1240187863274711
20
-123.27930173494673
30
0
10
1.1217315235836969
20
-123.46210352826354
30
0
10
1.1194457855814735
20
-123.64473950201484
30
0
10
1.1159524698340819
20
-123.82718652949349
30
0
10
1.1125186058551053
20
-124.00652854179128
30
0
10
1.1079117288869513
20
-124.18601118587191
30
0
10
1.1033001376621323
20
-124.3656567660355
30
0
0
SPLINE
5
1C7
100
AcDbEntity
8
CUTOUTS
100
AcDbSpline
70
0
71
3
72
11
73
7
74
0
42
0.000000001
43
0.0000000001
44
0.0000000001
40
3.3811561796501489e-05
40
3.3811561796501489e-05
40
3.3811561796501489e-05
40
3.3811561796501489e-05
40
0.05165404276756079
40
0.05165404276756079
40
0.05165404276756079
40
0.099597076983699837
40
0.099597076983699837
40
0.099597076983699837
40
0.099597076983699837
10
1.1032993758256984
20
-124.3656567430415
30
0
10
1.0981082384837739
20
-124.53764924195666
30
0
10
1.0929218161318657
20
-124.70941975105511
30
0
10
1.0862190395559059
20
-124.8809090821924
30
0
10
1.0799937391413552
20
-125.04018227176117
30
0
10
1.0724449122898951
20
-125.19960996374097
30
0
10
1.0648818878519597
20
-125.35924301932637
30
0
0
SPLINE
5
1C8
100
AcDbEntity
8
CUTOUTS
100
AcDbSpline
70
0
71
3
72
11
73
7
74
0
42
0.000000001
43
0.0000000001
44
0.0000000001
40
0.00013116074403803391
40
0.00013116074403803391
40
0.00013116074403803391
40
0.00013116074403803391
40
0.053966058544139842
40
0.053966058544139842
40
0.053966058544139842
40
0.098554551504607138
40
0.098554551504607138
40
0.098554551504607138
40
0.098554551504607138
10
1.0648818878517909
20
-125.35924301932636
30
0
10
1.0500255282503259
20
-125.53894265223789
30
0
10
1.0351560447895105
20
-125.71520829140306
30
0
10
0.99766286911568869
20
-125.88300052639792
30
0
10
0.96660932823583579
20
-126.02197363110537
30
0
10
0.91888391098346467
20
-126.16030543347438
30
0
10
0.86989724653376299
20
-126.30118135020241
30
0
0
SPLINE
5
1C9
100
AcDbEntity
8
CUTOUTS
100
AcDbSpline
70
0
71
3
72
11
73
7
74
0
42
0.000000001
43
0.0000000001
44
0.0000000001
40
0.00052067929200257763
40
0.00052067929200257763
40
0.00052067929200257763
40
0.00052067929200257763
40
0.039297829752909998
40
0.039297829752909998
40
0.039297829752909998
40
0.076827111752896859
40
0.076827111752896859
40
0.076827111752896859
40
0.076827111752896859
10
0.86989724653382516
20
-126.30118135020241
30
0
10
0.80979473012041125
20
-126.41788347584372
30
0
10
0.75142472104886238
20
-126.52866556455415
30
0
10
0.67532558955409783
20
-126.61501403209937
30
0
10
0.60167536688753642
20
-126.69858376195968
30
0
10
0.50303490471276369
20
-126.7687908025257
30
0
10
0.39889194636827946
20
-126.8413401697908
30
0
0
SPLINE
5
1CA
100
AcDbEntity
8
CUTOUTS
100
AcDbSpline
70
0
71
3
72
11
73
7
74
0
42
0.000000001
43
0.0000000001
44
0.0000000001
40
0.00068768284403233567
40
0.00068768284403233567
40
0.00068768284403233567
40
0.00068768284403233567
40
0.042622893237579729
40
0.042622893237579729
40
0.042622893237579729
40
0.086145820638528894
40
0.086145820638528894
40
0.086145820638528894
40
0.086145820638528894
10
0.39889194636827946
20
-126.8413401697908
30
0
10
0.27067383051137989
20
-126.89925064672367
30
0
10
0.14566295552726491
20
-126.95501418131761
30
0
10
0.019246742642770126
20
-126.98975674932676
30
0
10
-0.11195573861441868
20
-127.02581471233673
30
0
10
-0.25221046299846001
20
-127.04138831047742
30
0
10
-0.39675047666087976
20
-127.05349562322107
30
0
0
LINE
5
1CB
100
AcDbEntity
8
CUTOUTS
100
AcDbLine
10
-0.39675047666087976
20
-127.05349562322107
30
0
11
-0.38953688452448287
21
-126.36317727560964
31
-1.3327435215159672e-30
0
SPLINE
5
1CC
100
AcDbEntity
8
CUTOUTS
100
AcDbSpline
70
0
71
3
72
14
73
10
74
0
42
0.000000001
43
0.0000000001
44
0.0000000001
40
0.0056688823446576402
40
0.0056688823446576402
40
0.0056688823446576402
40
0.0056688823446576402
40
0.026166266452724019
40
0.026166266452724019
40
0.026166266452724019
40
0.048355051995652376
40
0.048355051995652376
40
0.048355051995652376
40
0.049373513621521307
40
0.049373513621521307
40
0.049373513621521307
40
0.049373513621521307
10
-0.38953688452450058
20
-126.36317727560964
30
0
10
-0.3192211716376569
20
-126.34592227543017
30
0
10
-0.24599635596127206
20
-126.32473694515969
30
0
10
-0.17767048354269227
20
-126.28389525463913
30
0
10
-0.10370650247387583
20
-126.23968339290138
30
0
10
-0.047455546282738542
20
-126.18002072583391
30
0
10
0.0049794285597205279
20
-126.12567780605873
30
0
10
0.0073861853255231258
20
-126.1231834749327
30
0
10
0.0097929420913346055
20
-126.12068914380666
30
0
10
0.01219969885711944
20
-126.11819481268064
30
0
0
SPLINE
5
1CD
100
AcDbEntity
8
CUTOUTS
100
AcDbSpline
70
0
71
3
72
17
73
13
74
0
42
0.000000001
43
0.0000000001
44
0.0000000001
40
-0.0010278841008628512
40
-0.0010278841008628512
40
-0.0010278841008628512
40
-0.0010278841008628512
40
0
40
0
40
0
40
0.023503686466113831
40
0.023503686466113831
40
0.023503686466113831
40
0.052554959243244458
40
0.052554959243244458
40
0.052554959243244458
40
0.052604767310044376
40
0.052604767310044376
40
0.052604767310044376
40
0.052604767310044376
10
0.012199698857075031
20
-126.11819481268058
30
0
10
0.013837059697933224
20
-126.11513978152337
30
0
10
0.01547442053880918
20
-126.11208475036607
30
0
10
0.017111781379685137
20
-126.10902971920876
30
0
10
0.054551815527100839
20
-126.03917311338589
30
0
10
0.094707555008096772
20
-125.96530555696553
30
0
10
0.12027972304448195
20
-125.88170189497171
30
0
10
0.1518877020820931
20
-125.77836522081847
30
0
10
0.15692921687769151
20
-125.67417815615832
30
0
10
0.16239099839715615
20
-125.57604212750638
30
0
10
0.162400362557581
20
-125.57587387443503
30
0
10
0.16240972671799697
20
-125.5757056213637
30
0
10
0.16241909087844847
20
-125.57553736829195
30
0
0
SPLINE
5
1CE
100
AcDbEntity
8
CUTOUTS
100
AcDbSpline
70
0
71
3
72
17
73
13
74
0
42
0.000000001
43
0.0000000001
44
0.0000000001
40
-5.0555081160489333e-05
40
-5.0555081160489333e-05
40
-5.0555081160489333e-05
40
-5.0555081160489333e-05
40
0
40
0
40
0
40
0.056666696875111493
40
0.056666696875111493
40
0.056666696875111493
40
0.11285607313792417
40
0.11285607313792417
40
0.11285607313792417
40
0.11286905960785441
40
0.11286905960785441
40
0.11286905960785441
40
0.11286905960785441
10
0.16241909096388235
20
-125.5755373682957
30
0
10
0.16242618629356614
20
-125.57536900005366
30
0
10
0.16243328162330323
20
-125.57520063181022
30
0
10
0.16244037695304031
20
-125.57503226356684
30
0
10
0.17039346278503126
20
-125.38630994323653
30
0
10
0.17835095375588922
20
-125.19748783104212
30
0
10
0.18555748282620749
20
-125.00853710425709
30
0
10
0.19270330913710226
20
-124.8211779662107
30
0
10
0.19910325318376004
20
-124.63388949467819
30
0
10
0.20550001059045259
20
-124.44670001950458
30
0
10
0.20550148900690851
20
-124.44665675633505
30
0
10
0.20550296742336444
20
-124.44661349316561
30
0
10
0.20550444584002464
20
-124.44657022999033
30
0
0
SPLINE
5
1CF
100
AcDbEntity
8
CUTOUTS
100
AcDbSpline
70
0
71
3
72
17
73
13
74
0
42
0.000000001
43
0.0000000001
44
0.0000000001
40
-1.2986462187212372e-05
40
-1.2986462187212372e-05
40
-1.2986462187212372e-05
40
-1.2986462187212372e-05
40
0
40
0
40
0
40
0.055946746433636403
40
0.055946746433636403
40
0.055946746433636403
40
0.11188694880969166
40
0.11188694880969166
40
0.11188694880969166
40
0.11190812137991954
40
0.11190812137991954
40
0.11190812137991954
40
0.11190812137991954
10
0.20550444584116151
20
-124.446570229996
30
0
10
0.20550577443313572
20
-124.44652696170786
30
0
10
0.20550710302510106
20
-124.44648369341954
30
0
10
0.20550843161706639
20
-124.44644042513136
30
0
10
0.21123211509561984
20
-124.26003708079053
30
0
10
0.2169611118220594
20
-124.0734767736506
30
0
10
0.22152126031955605
20
-123.88673081298249
30
0
10
0.22608087541918459
20
-123.70000669587805
30
0
10
0.22946424863870335
20
-123.51341094860854
30
0
10
0.23284526769669861
20
-123.32697221802312
30
0
10
0.2328465473642794
20
-123.32690165361788
30
0
10
0.23284782703185131
20
-123.32683108921258
30
0
10
0.23284910669949427
20
-123.3267605248046
30
0
0
SPLINE
5
1D0
100
AcDbEntity
8
CUTOUTS
100
AcDbSpline
70
0
71
3
72
17
73
13
74
0
42
0.000000001
43
0.0000000001
44
0.0000000001
40
-2.1172515515654328e-05
40
-2.1172515515654328e-05
40
-2.1172515515654328e-05
40
-2.1172515515654328e-05
40
0
40
0
40
0
40
0.056171829299359509
40
0.056171829299359509
40
0.056171829299359509
40
0.11281897158473009
40
0.11281897158473009
40
0.11281897158473009
40
0.11284168314710327
40
0.11284168314710327
40
0.11284168314710327
40
0.11284168314710327
10
0.23284910670897113
20
-123.32676052480784
30
0
10
0.23284998795790274
20
-123.32668995317506
30
0
10
0.23285086920683434
20
-123.32661938154286
30
0
10
0.23285175045575707
20
-123.3265488099107
30
0
10
0.23518975153808414
20
-123.13931845119794
30
0
10
0.23753228770622919
20
-122.95183090748097
30
0
10
0.23794488502479788
20
-122.76408190131525
30
0
10
0.23836097364614234
20
-122.57474420662265
30
0
10
0.2368131786696715
20
-122.38566170734059
30
0
10
0.23526885104668055
20
-122.19683858673912
30
0
10
0.23526823187875473
20
-122.19676288180645
30
0
10
0.23526761271082891
20
-122.19668717687384
30
0
10
0.23526699354293862
20
-122.19661147194527
30
0
0
SPLINE
5
1D1
100
AcDbEntity
8
CUTOUTS
100
AcDbSpline
70
0
71
3
72
17
73
13
74
0
42
0.000000001
43
0.0000000001
44
0.0000000001
40
-2.2712302156681236e-05
40
-2.2712302156681236e-05
40
-2.2712302156681236e-05
40
-2.2712302156681236e-05
40
0
40
0
40
0
40
0.057521233059150197
40
0.057521233059150197
40
0.057521233059150197
40
0.11631197668868409
40
0.11631197668868409
40
0.11631197668868409
40
0.11632903424312573
40
0.11632903424312573
40
0.11632903424312573
40
0.11632903424312573
10
0.23526699355552411
20
-122.19661147194124
30
0
10
0.23526591586492956
20
-122.19653577075947
30
0
10
0.23526483817433502
20
-122.19646006957794
30
0
10
0.23526376048374936
20
-122.19638436839648
30
0
10
0.23253439859020625
20
-122.00466336662745
30
-1.7763568394002505e-14
10
0.22980307866840805
20
-121.81275603801915
30
-1.7763568394002505e-14
10
0.22563684656778166
20
-121.62069351316381
30
-1.7763568394002505e-14
10
0.22137866449651328
20
-121.42439211176651
30
-1.7763568394002505e-14
10
0.21562988603398453
20
-121.22831364135202
30
0
10
0.20988741333719646
20
-121.03242551645579
30
0
10
0.20988574721537817
20
-121.03236868144842
30
0
10
0.20988408109355988
20
-121.03231184644103
30
0
10
0.2098824149716883
20
-121.03225501143159
30
0
0
SPLINE
5
1D2
100
AcDbEntity
8
CUTOUTS
100
AcDbSpline
70
0
71
3
72
17
73
13
74
0
42
0.000000001
43
0.0000000001
44
0.0000000001
40
-1.6799130638845315e-05
40
-1.6799130638845315e-05
40
-1.6799130638845315e-05
40
-1.6799130638845315e-05
40
0
40
0
40
0
40
0.02897379201297556
40
0.02897379201297556
40
0.02897379201297556
40
0.052263387983568221
40
0.052263387983568221
40
0.052263387983568221
40
0.053319725940618061
40
0.053319725940618061
40
0.053319725940618061
40
0.053319725940618061
10
0.20988241497586274
20
-121.03225501143685
30
0
10
0.20988049032291017
20
-121.03219818400832
30
0
10
0.20987856567008195
20
-121.03214135658318
30
0
10
0.20987664101725373
20
-121.03208452915794
30
0
10
0.20655715431313731
20
-120.93407314782242
30
0
10
0.20381036734743568
20
-120.82992646223347
30
0
10
0.17409227811158062
20
-120.72612062207946
30
0
10
0.15020440416635314
20
-120.64267983271051
30
0
10
0.11155053665571021
20
-120.56876175250315
30
0
10
0.075573928758093739
20
-120.49893012964623
30
0
10
0.073942150493832098
20
-120.4957628014573
30
0
10
0.072310372229570458
20
-120.49259547326839
30
0
10
0.070678593965344344
20
-120.48942814507953
30
0
0
SPLINE
5
1D3
100
AcDbEntity
8
CUTOUTS
100
AcDbSpline
70
0
71
3
72
14
73
10
74
0
42
0.000000001
43
0.0000000001
44
0.0000000001
40
-0.0010462670694341299
40
-0.0010462670694341299
40
-0.0010462670694341299
40
-0.0010462670694341299
40
0
40
0
40
0
40
0.021930685011866517
40
0.021930685011866517
40
0.021930685011866517
40
0.042134736480144222
40
0.042134736480144222
40
0.042134736480144222
40
0.042134736480144222
10
0.070678593965308817
20
-120.48942814507953
30
0
10
0.068226951446374112
20
-120.48684277912503
30
0
10
0.065775308927439408
20
-120.48425741317054
30
0
10
0.063323666408504703
20
-120.48167204721605
30
0
10
0.011935066484766249
20
-120.42748048557287
30
0
10
-0.043258877008530622
20
-120.3678572732551
30
0
10
-0.11640341495449671
20
-120.32362761212627
30
0
10
-0.18378918099346214
20
-120.28288021415911
30
0
10
-0.25612875441488042
20
-120.26179935499036
30
0
10
-0.32560116314523596
20
-120.24472745183917
30
0
0
LINE
5
1D4
100
AcDbEntity
8
CUTOUTS
100
AcDbLine
10
-0.32560116314523591
20
-120.24472745183917
30
0
11
-0.3184011197941683
21
-119.55570568087487
31
4.8302323005231875e-30
0
SPLINE
5
1D5
100
AcDbEntity
8
CUTOUTS
100
AcDbSpline
70
0
71
3
72
11
73
7
74
0
42
0.000000001
43
0.0000000001
44
0.0000000001
40
0.0081647315630427077
40
0.0081647315630427077
40
0.0081647315630427077
40
0.0081647315630427077
40
0.051687533171622439
40
0.051687533171622439
40
0.051687533171622439
40
0.093619239739347077
40
0.093619239739347077
40
0.093619239739347077
40
0.093619239739347077
10
-0.31840111979415936
20
-119.55570568087487
30
0
10
-0.17414612073623487
20
-119.57083088396905
30
0
10
-0.03424786872527999
20
-119.58933203264598
30
0
10
0.096172164585136638
20
-119.62812367895978
30
0
10
0.22182433689949549
20
-119.66549719055349
30
0
10
0.34563253707917135
20
-119.72385403476467
30
0
10
0.47260138655651823
20
-119.78442569052638
30
0
0
SPLINE
5
1D6
100
AcDbEntity
8
CUTOUTS
100
AcDbSpline
70
0
71
3
72
11
73
7
74
0
42
0.000000001
43
0.0000000001
44
0.0000000001
40
0.00068558824131234673
40
0.00068558824131234673
40
0.00068558824131234673
40
0.00068558824131234673
40
0.038321143359108648
40
0.038321143359108648
40
0.038321143359108648
40
0.077419067691260432
40
0.077419067691260432
40
0.077419067691260432
40
0.077419067691260432
10
0.47260138655651823
20
-119.78442569052638
30
0
10
0.57539843013823322
20
-119.85942715189309
30
-1.7763568394002505e-14
10
0.67279964322939712
20
-119.93198670680003
30
-1.7763568394002505e-14
10
0.74511276668346127
20
-120.01735782137555
30
-1.7763568394002505e-14
10
0.82023569286803777
20
-120.10604612070787
30
-1.7763568394002505e-14
10
0.8770091498676259
20
-120.21887481848643
30
-1.7763568394002505e-14
10
0.93540115501794652
20
-120.33763127889648
30
-1.7763568394002505e-14
0
SPLINE
5
1D7
100
AcDbEntity
8
CUTOUTS
100
AcDbSpline
70
0
71
3
72
11
73
7
74
0
42
0.000000001
43
0.0000000001
44
0.0000000001
40
0.00052827377652293222
40
0.00052827377652293222
40
0.00052827377652293222
40
0.00052827377652293222
40
0.045362610054755059
40
0.045362610054755059
40
0.045362610054755059
40
0.099279226074929311
40
0.099279226074929311
40
0.099279226074929311
40
0.099279226074929311
10
0.93540115501809751
20
-120.33763127889641
30
-1.7763568394002505e-14
10
0.98198392612145369
20
-120.48024172938752
30
-1.7763568394002505e-14
10
1.0272883641166333
20
-120.62016561949835
30
-1.7763568394002505e-14
10
1.0550450323677287
20
-120.76034004359551
30
-1.7763568394002505e-14
10
1.088424485445997
20
-120.92891018932031
30
-1.7763568394002505e-14
10
1.0979873625850702
20
-121.10575320527899
30
-1.7763568394002505e-14
10
1.1074400073822401
20
-121.2861754777151
30
-1.7763568394002505e-14
0
SPLINE
5
1D8
100
AcDbEntity
8
CUTOUTS
100
AcDbSpline
70
0
71
3
72
11
73
7
74
0
42
0.000000001
43
0.0000000001
44
0.0000000001
40
8.3207688405237496e-05
40
8.3207688405237496e-05
40
8.3207688405237496e-05
40
8.3207688405237496e-05
40
0.043858827862757653
40
0.043858827862757653
40
0.043858827862757653
40
0.092821623569411177
40
0.092821623569411177
40
0.092821623569411177
40
0.092821623569411177
10
1.1074400073817072
20
-121.28617547771513
30
-1.7763568394002505e-14
10
1.1118396581021708
20
-121.43203084573267
30
-1.7763568394002505e-14
10
1.1162283512991413
20
-121.5776482299318
30
-1.7763568394002505e-14
10
1.1192229594958016
20
-121.72305552535926
30
-1.7763568394002505e-14
10
1.1225724126564964
20
-121.8856928031846
30
-1.7763568394002505e-14
10
1.124189447410239
20
-122.04863193820199
30
-1.7763568394002505e-14
10
1.1258064433451134
20
-122.21183781843402
30
0
0
SPLINE
5
1D9
100
AcDbEntity
8
CUTOUTS
100
AcDbSpline
70
0
71
3
72
11
73
7
74
0
42
0.000000001
43
0.0000000001
44
0.0000000001
40
0
40
0
40
0
40
0
40
0.052504598169379087
40
0.052504598169379087
40
0.052504598169379087
40
0.10684980726816379
40
0.10684980726816379
40
0.10684980726816379
40
0.10684980726816379
10
1.1258072839029678
20
-122.21183781010259
30
0
10
1.126712612309885
20
-122.3868530038054
30
0
10
1.1276165155844788
20
-122.56170090997125
30
0
10
1.1273511864339438
20
-122.73637963864699
30
0
10
1.1270765558555054
20
-122.91718193722603
30
0
10
1.1255487431231694
20
-123.09815530936105
30
0
10
1.1240181674799468
20
-123.27930172971641
30
0
0
LWPOLYLINE
5
1DA
100
AcDbEntity
8
CUTOUTS
100
AcDbPolyline
90
5
70
1
43
0.0
10
-4.9146330536047431
20
-118.49422104615654
10
-4.0513582223661979
20
-118.50324197476974
10
-4.1395224150611565
20
-126.94028120136682
10
-5.0644720832093446
20
-126.93061579166736
10
-5.0348271075064064
20
-124.09368375348069
0
LWPOLYLINE
5
1DB
100
AcDbEntity
8
CUTOUTS
100
AcDbPolyline
90
16
70
1
43
0.0
10
-6.2069081128182022
20
-117.06813995074808
10
-4.0365988816959772
20
-117.09081894466065
10
-4.044827539820349
20
-117.87827595249375
10
-5.4941722213932662
20
-117.86313079311311
10
-6.1459549543086922
20
-124.00412905039572
10
-6.5792206141840568
20
-126.87728547073355
10
-8.2798278515908059
20
-126.85951470303289
10
-8.6411507692345086
20
-124.03432411892091
10
-9.1764528703271271
20
-117.82465221170911
10
-10.619468508885683
20
-117.80957318867708
10
-10.611239850761303
20
-117.02211618084398
10
-8.4534185458265387
20
-117.04466468017179
10
-8.0409215340210078
20
-121.10656961804094
10
-7.6683227768017481
20
-126.07836172873796
10
-7.1742915741431021
20
-126.08352418691537
10
-6.7042675552415094
20
-121.12673819590455
0
LWPOLYLINE
5
1DC
100
AcDbEntity
8
CUTOUTS
100
AcDbPolyline
90
10
70
1
43
0.0
10
-173.69826555803013
20
-112.31580773411116
10
-173.69826555803016
20
-112.54176873785869
42
-0.41421356237309503
10
-174.32326555803019
20
-113.16676873785872
10
-174.62326555803017
20
-113.16676873785869
42
-0.41421356237308671
10
-175.2482655580302
20
-112.54176873785872
10
-175.24826555803017
20
-112.27867547444637
42
-0.78135022079658012
10
-175.13794980184508
20
-105.88719134268423
42
-0.24671654500356571
10
-174.6232655580302
20
-105.61676873785872
10
-174.32326555803019
20
-105.61676873785865
42
-0.22754624735408746
10
-173.83565572581881
20
-105.85079348092953
42
-0.82401213392765515
0
LWPOLYLINE
5
1DD
100
AcDbEntity
8
CUTOUTS
100
AcDbPolyline
90
40
70
1
43
0.0
10
-143.98769633282819
20
-108.0791510007309
10
-143.46648659883988
20
-108.3222361344484
10
-142.99534289107328
20
-108.65213929431773
10
-142.58862631335262
20
-109.05885587203839
10
-142.25863179397714
20
-109.53001554238996
10
-142.01559337338696
20
-110.05129966800783
10
-141.86668933014352
20
-110.60687864864042
10
-141.81661928863605
20
-111.17986826889384
10
-141.86668933014374
20
-111.75286721317971
10
-142.01559330637949
20
-112.30843661981758
10
-142.25863179397714
20
-112.8297208891573
10
-142.58862606487105
20
-113.30088020473178
10
-142.99534324589018
20
-113.7075880616523
10
-143.46648750833683
20
-114.03751025801904
10
-143.98769579662567
20
-114.28059471748199
10
-144.39826555803026
20
-114.39059213719713
10
-144.39826555803026
20
-114.54176873785882
42
-0.41421356237309503
10
-145.02326555803026
20
-115.16676873785882
10
-145.32326555803027
20
-115.16676873785882
42
-0.41421356237308671
10
-145.94826555803027
20
-114.54176873785883
10
-145.94826555803027
20
-114.36006623358438
10
-146.24490862189299
20
-114.28059404747607
10
-146.76619324960768
20
-114.03750877293305
10
-147.23735474890395
20
-113.70758756476596
10
-147.6440671755679
20
-113.30088446209163
10
-147.97394871878231
20
-112.82972634615858
10
-148.216989750599
20
-112.30843661981751
10
-148.36589530659234
20
-111.75286131901203
10
-148.41605807238636
20
-111.17986826899234
10
-148.36589530659234
20
-110.60688454290627
10
-148.21698968359146
20
-110.05129966800781
10
-147.97394871878228
20
-109.53001008538862
10
-147.64406692713942
20
-109.05885161463402
10
-147.23735510370713
20
-108.65213979120173
10
-146.76619415911847
20
-108.32223761948015
10
-146.24490808569453
20
-108.07915167077451
10
-145.89302951879915
20
-107.98487570757391
42
-0.29493493254320602
10
-145.3232655580303
20
-107.61676873785885
10
-145.02326555803026
20
-107.61676873785882
42
-0.27800463357544469
10
-144.47068400151585
20
-107.94974369886367
0
LWPOLYLINE
5
1DE
100
AcDbEntity
8
CUTOUTS
100
AcDbPolyline
90
40
70
1
43
0.0
10
-58.6982655580304
20
-122.3109750452756
10
-58.698265558030364
20
-122.54176873785882
42
-0.41421356237308671
10
-59.323265558030378
20
-123.16676873785882
10
-59.62326555803039
20
-123.1667687378588
42
-0.41421356237308671
10
-60.24826555803039
20
-122.54176873785882
10
-60.24826555803039
20
-122.27330021843213
10
-60.531491180109917
20
-122.19743587296777
10
-61.052796373672614
20
-121.95427511204983
10
-61.523950665449092
20
-121.62440836620137
10
-61.93067074835507
20
-121.21768828329539
10
-62.260546103016246
20
-120.74653501309601
10
-62.503688259436345
20
-120.22522040222803
10
-62.652498601769892
20
-119.66969908667467
10
-62.702652597624741
20
-119.09668105929862
10
-62.652498587950973
20
-118.52365354999932
10
-62.503688259436359
20
-117.96813228603312
10
-62.260546103016246
20
-117.44681767516511
10
-61.93067074835507
20
-116.97566440496573
10
-61.523950665449092
20
-116.56894432205975
10
-61.052796828385205
20
-116.23907789456682
10
-60.531491180001787
20
-115.995926245514
10
-60.140721616932453
20
-115.89124879961625
42
-0.24880274501902491
10
-59.62326555803039
20
-115.61676873785882
10
-59.323265558030378
20
-115.61676873785883
42
-0.22393183987334048
10
-58.841080187112766
20
-115.84412282995451
10
-58.274395243296901
20
-115.9959261785052
10
-57.753089132854292
20
-116.23907804307544
10
-57.281926183833207
20
-116.56894432207623
10
-56.875215424874128
20
-116.97566440498669
10
-56.545330427770175
20
-117.44681812993466
10
-56.302188733590228
20
-117.96813174972587
10
-56.153387585406122
20
-118.52365354988935
10
-56.103224251683848
20
-119.09668105928887
10
-56.153387571585498
20
-119.66969908677501
10
-56.302188733590228
20
-120.22522093853523
10
-56.545330427770189
20
-120.74653455832649
10
-56.875215424874128
20
-121.21768828327446
10
-57.281926183833207
20
-121.62440836618489
10
-57.75308958756942
20
-121.95427496353668
10
-58.274395243180408
20
-122.19743593997522
0
LWPOLYLINE
5
1DF
100
AcDbEntity
8
CUTOUTS
100
AcDbPolyline
90
40
70
1
43
0.0
10
-29.398265558030438
20
-124.39058898614681
10
-29.398265558030417
20
-124.54176873785894
42
-0.41421356237308671
10
-30.023265558030438
20
-125.16676873785894
10
-30.32326555803045
20
-125.16676873785892
42
-0.41421356237308671
10
-30.94826555803045
20
-124.54176873785894
10
-30.948265558030428
20
-124.36007148967484
10
-31.244888938910719
20
-124.28063177604056
10
-31.766201876494861
20
-124.0374717520872
10
-32.237346489400053
20
-123.7076052546528
10
-32.64406682074285
20
-123.30088492330999
10
-32.973939458377799
20
-122.82973553377576
10
-33.216999775852692
20
-122.30842579194588
10
-33.365904713022559
20
-121.75289942021263
10
-33.416058211412249
20
-121.17987775251683
10
-33.365904713022559
20
-120.60685608482102
10
-33.216999775852692
20
-120.05132971308771
10
-32.973939458377785
20
-119.53001997125783
10
-32.644066820742836
20
-119.05887058172355
10
-32.237346134559559
20
-118.6521498955403
10
-31.766201876422578
20
-118.32227432244255
10
-31.244889475107016
20
-118.07912387259358
10
-30.893037393343125
20
-117.98489317326704
42
-0.29494326269728099
10
-30.323265558030428
20
-117.61676873785895
10
-30.023265558030438
20
-117.61676873785893
42
-0.27802082317596
10
-29.470666448229178
20
-117.94977691631789
10
-28.987686903195147
20
-118.07912313569999
10
-28.466486719934309
20
-118.32227343139537
10
-27.995283470425314
20
-118.65215113767167
10
-27.588572640656295
20
-119.0588712913937
10
-27.25867061741728
20
-119.5300226999147
10
-27.015584100283931
20
-120.0513286403438
10
-26.86672660150122
20
-120.6068519586948
10
-26.816591389997562
20
-121.17987775251676
10
-26.866726601501234
20
-121.75290354633887
10
-27.01558410028391
20
-122.30842686468975
10
-27.258670617417302
20
-122.82973280511889
10
-27.588572640656295
20
-123.30088421363989
10
-27.995283115601175
20
-123.70760401252964
10
-28.466486719978555
20
-124.03747264312294
10
-28.987687439470065
20
-124.28063251295279
0
LWPOLYLINE
5
1E0
100
AcDbEntity
8
CUTOUTS
100
AcDbPolyline
90
40
70
1
43
0.0
10
42.004719594640896
20
-96.652141698550338
10
42.411432127710768
20
-97.058854231620188
10
42.741334140222051
20
-97.530014948827272
10
42.984415684877568
20
-98.051301575420595
10
43.133278243980186
20
-98.606882324328424
10
43.183418056324797
20
-99.179870123122257
10
43.133278243980172
20
-99.752857921916103
10
42.984415684877568
20
-100.30843867082393
10
42.741334140222037
20
-100.82972529741726
10
42.411432376148035
20
-101.30088565981023
10
42.004719594642751
20
-101.70758911731775
10
41.533557740538697
20
-102.03750124990235
10
41.012271714599535
20
-102.28059650046194
10
40.601734441969427
20
-102.39059259950432
10
40.60173444196942
20
-102.54176873785902
42
-0.41421356237308254
10
39.976734441969413
20
-103.16676873785902
10
39.676734441969408
20
-103.16676873785902
42
-0.41421356237308254
10
39.051734441969408
20
-102.54176873785902
10
39.051734441969415
20
-102.36006481597899
10
38.755135691678127
20
-102.28059650046191
10
38.233849665739015
20
-102.03750124990235
10
37.762687811634912
20
-101.70758911731774
10
37.355974675317
20
-101.30088530500571
10
37.026063835682983
20
-100.82972529742052
10
36.782991490012634
20
-100.30843840270686
10
36.634115016734896
20
-99.752857921919798
10
36.583989190390611
20
-99.179870123122242
10
36.634115016734896
20
-98.606882324324729
10
36.782991490012634
20
-98.051301843537658
10
37.02606383568299
20
-97.530014948823975
10
37.355974923758708
20
-97.058854586428424
10
37.762687811636802
20
-96.652141698550338
10
38.233848756225377
20
-96.322239526828781
10
38.755135691680913
20
-96.079153176140863
10
39.106968562016277
20
-95.98487996418207
42
-0.29493696271318887
10
39.676734441969415
20
-95.61676873785899
10
39.976734441969406
20
-95.616768737859005
42
-0.27800579752500515
10
40.529317260546961
20
-95.949746087003135
10
41.012271714596764
20
-96.079153176140835
10
41.533558650052321
20
-96.322239526828795
0
LWPOLYLINE
5
1E1
100
AcDbEntity
8
CUTOUTS
100
AcDbPolyline
90
40
70
1
43
0.0
10
9.7517344419694556
20
-100.5417687378589
10
9.7517344419694556
20
-100.27328869126528
10
9.4684935452465329
20
-100.19739050295124
10
8.9472062268757284
20
-99.954313297722535
10
8.4760459144578597
20
-99.624411568640596
10
8.0693377417654126
20
-99.217698733948652
10
7.7394263702537982
20
-98.74653796676597
10
7.4963495356065915
20
-98.225251443119788
10
7.3474777501201585
20
-97.669661734556215
10
7.297351888829632
20
-97.096673536288563
10
7.3474777363031576
20
-96.523694819967261
10
7.4963495356065826
20
-95.968105059838663
10
7.7394263702538071
20
-95.446818536192438
10
8.0693377417654215
20
-94.975657769009757
10
8.4760457370520896
20
-94.56894511172564
10
8.9472064542578149
20
-94.239047761218728
10
9.4684935452539136
20
-93.995961337999177
10
9.85927584210528
20
-93.891252550748234
42
-0.24880466949617641
10
10.376734441969448
20
-93.616768737858905
10
10.67673444196946
20
-93.616768737858933
42
-0.22392431984607855
10
11.158908422599257
20
-93.844109018496226
10
11.725634480225526
20
-93.995961337999177
10
12.246921571221634
20
-94.239047761218742
10
12.718082288427377
20
-94.56894511172564
10
13.124789928907958
20
-94.975657414199617
10
13.454692224847413
20
-95.446818536194172
10
13.69777863356096
20
-95.96810559608285
10
13.846650289176283
20
-96.523694819967261
10
13.896776136649818
20
-97.096673536288563
10
13.846650275359282
20
-97.669661734556257
10
13.69777863356096
20
-98.225250906875559
10
13.454692224847413
20
-98.746537966764194
10
13.124789928907958
20
-99.217699088758806
10
12.71808211102158
20
-99.624411568640582
10
12.246921798603703
20
-99.954313297722535
10
11.725634480232934
20
-100.19739050295124
10
11.301734441969442
20
-100.31098019039645
10
11.301734441969442
20
-100.54176873785889
42
-0.41421356237306589
10
10.676734441969451
20
-101.16676873785889
10
10.376734441969448
20
-101.1667687378589
42
-0.41421356237306173
0
LWPOLYLINE
5
1E2
100
AcDbEntity
8
PERIMETER
100
AcDbPolyline
90
99
70
1
43
0.0
10
-213.82861312396335
20
-98.308783936206368
42
0.3728071999543387
10
-203.51063054029117
20
-107.24386434004116
10
-198.85280975677074
20
-107.24386434004109
42
0.25226365250224653
10
-190.56380056160754
20
-102.77761434004107
42
-0.25226365250224603
10
-182.14951666828063
20
-98.243864340041085
10
-56.634693138543064
20
-98.243864340041227
10
-55.060068662951586
20
-98.216251881901513
10
-53.488100250420068
20
-98.133553783497717
10
-51.919912460398933
20
-97.99582524945663
10
-50.357617849228021
20
-97.803237582813722
10
-48.803015868202316
20
-97.556047832235762
10
-47.258001528242495
20
-97.254532157604217
10
-45.724459426747821
20
-96.899071280733594
10
-44.2042943092424
20
-96.490103287206779
10
-42.699506546644244
20
-96.028161663858143
10
-41.211788531667366
20
-95.513731264423683
10
-39.742939753706253
20
-94.947516561816485
10
-38.294858112843862
20
-94.330209115273419
10
-36.869350242807919
20
-93.662517319169311
10
-35.468080585619781
20
-92.945297164252736
10
-34.092774877967955
20
-92.179449576003307
10
-32.743959263812876
20
-91.365159335472654
10
-31.773802722426716
20
-90.781262546825943
10
-30.782332374088142
20
-90.234230082735252
10
-29.771612954240993
20
-89.725251680449844
10
-28.742740391953269
20
-89.254832360322709
10
-27.697004378733475
20
-88.823430402702314
10
-26.63539618901541
20
-88.431522595489383
10
-25.559026339924891
20
-88.079601932161594
10
-24.469014856806773
20
-87.768146861286525
10
-23.368046565537497
20
-87.497988629563395
10
-22.258845237676994
20
-87.269743720146934
10
-21.142617974698467
20
-87.083541719566483
10
-20.020578077776825
20
-86.939487594713526
10
-18.893919679978801
20
-86.837734214585851
10
-17.763828647341271
20
-86.778410721463715
10
-16.631519935539714
20
-86.761660564305146
10
-15.498896297817462
20
-86.787572690855256
10
66.172064131948915
20
-90.197303875609563
10
66.172064131948915
20
-116.39387578414016
10
66.171878165457215
20
-116.39387578414015
10
66.171878165457215
20
-119.24387769149055
10
66.172064131948915
20
-119.24387769149057
10
66.172064131948915
20
-129.39387769147984
10
66.171878165457215
20
-129.39387769147984
10
66.171878165457215
20
-135.24387196943661
10
66.172064131948915
20
-135.24387196943661
10
66.172064131948915
20
-137.82155072430803
10
66.095151725110853
20
-138.89687715163979
10
65.865406959858092
20
-139.95305457391419
10
65.487700510893688
20
-140.96571405369605
10
64.969719647085498
20
-141.91432831945463
10
64.322011533559575
20
-142.77951563211187
10
63.557761344380722
20
-143.54380314660165
10
62.692520909084415
20
-144.19153198520334
10
61.74391259436846
20
-144.70947309790563
10
60.731237253566221
20
-145.08721574596473
10
59.67512506913522
20
-145.31689905725901
10
58.599744257486996
20
-145.39387196943571
10
-247.90589822855
20
-145.39387196943559
10
-248.85332709647878
20
-145.31928673402908
10
-249.78029523367621
20
-145.09672786047051
10
-250.66098874674105
20
-144.73191271065704
10
-251.47385855122479
20
-144.2338392429061
10
-252.19873931031037
20
-143.61467589404154
10
-252.81790265917499
20
-142.88979513495588
10
-253.31597612692588
20
-142.07692533047222
10
-253.68079134503333
20
-141.19623165254026
10
-253.90335015730048
20
-140.26924445798878
10
-253.97793538570451
20
-139.32182530539512
10
-253.97793538570451
20
-68.322524472079351
10
-253.90335015730051
20
-67.375086066716904
10
-253.68079149869584
20
-66.448118824812482
10
-253.31597627976961
20
-65.567362378918531
10
-252.81790239978281
20
-64.754535355172351
10
-252.19873912155066
20
-64.029630537977653
10
-251.47385855119825
20
-63.410501147438403
10
-250.66098995101908
20
-62.912394620503932
10
-249.78029471866253
20
-62.547573930336341
10
-248.85332561450934
20
-62.325034137279189
10
-247.90589747003287
20
-62.250468211582017
10
-231.95283925533346
20
-62.250468211582017
42
-0.41421356237310714
10
-230.87783925533344
20
-63.325468211582006
10
-230.87783925533353
20
-97.322200443893095
10
-230.86979525211845
20
-97.414201204282364
42
0.91021042940630514
10
-229.92277331320284
20
-98.250467257907673
10
-228.90613019606445
20
-98.250467257907673
10
-228.80062766657011
20
-98.241246790903091
42
1.0694736150941002
10
-227.97783620357566
20
-97.278889216318589
10
-227.97783620357563
20
-86.322188617593056
10
-227.96175788092722
20
-86.138748657000761
10
-227.91331400064661
20
-85.95769939655321
10
-227.83405694704797
20
-85.787811573977933
10
-227.72651428379123
20
-85.634290525705637
10
-227.594027751422
20
-85.501752721458587
10
-227.44048355867881
20
-85.394234867015641
10
-227.27058355844753
20
-85.315037758023223
10
-227.08949299920755
20
-85.266514511912007
10
-226.90141098642039
20
-85.250062502881121
42
-0.34234439122066523
0
ENDSEC
0
SECTION
2
OBJECTS
0
DICTIONARY
5
C
100
AcDbDictionary
3
ACAD_GROUP
350
D
3
ACAD_MLINESTYLE
350
17
0
DICTIONARY
5
D
100
AcDbDictionary
0
DICTIONARY
5
1A
330
C
100
AcDbDictionary
0
DICTIONARY
5
17
100
AcDbDictionary
0
ENDSEC
0
EOF
